<svg width="570" height="207" viewBox="0 0 570 207" fill="none" xmlns="http://www.w3.org/2000/svg">
<g filter="url(#filter0_d_4_59)">
<path d="M50.7205 142.2C49.7205 141.7 49.1705 140.9 49.0705 139.8C48.9705 138.7 48.6705 137.75 48.1705 136.95L49.8205 131.4L51.6205 132.6H51.9205L53.4205 131.25L54.6205 131.1L55.5205 130.35C61.0205 128.95 66.3205 127.1 71.4205 124.8H71.7205C71.0205 125.6 70.1205 126.55 69.0205 127.65C67.9205 128.75 66.8705 129.55 65.8705 130.05L65.1205 131.4L66.0205 131.85C67.2205 131.85 69.0205 131.1 71.4205 129.6C73.9205 128.1 76.6705 126.2 79.6705 123.9C82.6705 121.6 85.6705 119.2 88.6705 116.7C91.6705 114.1 94.3205 111.75 96.6205 109.65C99.0205 107.55 100.771 105.95 101.871 104.85C100.571 105.15 99.2205 105.5 97.8205 105.9C96.5205 106.3 95.1705 106.6 93.7705 106.8C93.2705 107.3 92.7205 108 92.1205 108.9C91.5205 109.8 90.7705 110.25 89.8705 110.25C88.8705 110.25 87.7205 110 86.4205 109.5C85.2205 108.9 84.6205 107.95 84.6205 106.65C84.6205 105.65 85.2205 104.45 86.4205 103.05C87.7205 101.65 88.8705 100.95 89.8705 100.95L90.1705 101.85C91.3705 101.95 92.5705 102.05 93.7705 102.15C94.9705 102.15 96.1705 102.15 97.3705 102.15L98.8705 101.7L100.221 102.15C101.021 101.45 101.921 101.05 102.921 100.95C104.021 100.85 105.071 100.8 106.071 100.8C107.671 99.2 109.821 97.05 112.521 94.35C115.221 91.65 118.021 88.75 120.921 85.65C123.821 82.45 126.371 79.4 128.571 76.5C130.771 73.6 132.221 71.2 132.921 69.3L133.221 68.85L133.371 69C134.671 67.1 135.571 65 136.071 62.7C136.571 60.4 137.221 58.25 138.021 56.25V56.4C138.121 56.2 138.271 55.85 138.471 55.35C138.671 54.85 138.771 54.5 138.771 54.3C138.771 52.7 138.321 51.25 137.421 49.95C137.421 49.35 137.821 48.65 138.621 47.85C139.421 46.95 140.321 46.2 141.321 45.6C142.321 44.9 143.121 44.55 143.721 44.55C144.221 44.55 144.471 44.65 144.471 44.85L144.621 48.6C144.821 52.3 144.371 55.4 143.271 57.9C142.171 60.4 140.871 63.25 139.371 66.45V66.15C138.571 67.25 137.921 68.45 137.421 69.75C136.921 71.05 136.321 72.35 135.621 73.65C133.321 77.65 130.571 81.4 127.371 84.9C124.171 88.3 121.071 91.75 118.071 95.25H117.921C117.121 95.25 116.271 95.9 115.371 97.2C114.471 98.4 113.821 99.35 113.421 100.05H112.971L111.771 100.8V100.95C114.971 100.75 118.221 100.5 121.521 100.2C124.821 99.8 128.121 99.55 131.421 99.45L133.821 95.55L133.671 93.9L135.021 92.4C135.621 89.5 136.371 86.65 137.271 83.85C138.271 80.95 139.321 78.1 140.421 75.3V74.7C140.721 74.1 141.171 72.9 141.771 71.1C142.371 69.2 142.921 67.45 143.421 65.85C144.021 64.25 144.471 63.45 144.771 63.45C144.971 62.75 145.221 61.6 145.521 60C145.821 58.4 146.221 56.9 146.721 55.5C147.321 54.1 148.021 53.4 148.821 53.4C150.621 54.2 152.421 54.9 154.221 55.5C156.121 56 157.921 56.65 159.621 57.45L160.971 59.55C160.671 60.55 160.321 61.55 159.921 62.55C159.621 63.55 159.271 64.55 158.871 65.55L157.971 64.5L157.221 65.25C156.321 64.45 155.221 64 153.921 63.9C153.421 64.1 152.971 64.5 152.571 65.1C152.171 65.6 151.871 66.15 151.671 66.75C152.271 66.85 152.871 66.9 153.471 66.9C154.171 66.9 154.871 66.9 155.571 66.9H157.371C157.271 67.4 156.871 67.8 156.171 68.1C155.471 68.3 154.871 68.5 154.371 68.7L153.321 67.8L152.121 69.3L151.221 68.85C151.221 69.95 150.821 70.7 150.021 71.1L148.521 72L147.921 73.65L149.871 74.7L149.421 76.65L148.371 77.25L147.621 77.1C147.221 77.7 146.621 78.95 145.821 80.85C145.021 82.65 144.221 84.65 143.421 86.85C142.721 89.05 142.071 91.1 141.471 93C140.971 94.8 140.721 96.05 140.721 96.75V97.5H142.821C145.821 97.5 148.821 97.25 151.821 96.75C154.821 96.25 157.821 95.85 160.821 95.55L161.421 95.25L161.871 95.55C161.271 97.05 160.021 98 158.121 98.4C156.321 98.8 154.221 99.15 151.821 99.45C149.521 99.65 147.221 100.15 144.921 100.95C142.721 101.75 140.871 103.3 139.371 105.6C137.871 107.8 137.121 111.15 137.121 115.65V116.4L137.271 116.25L139.071 115.5C138.771 117.3 138.571 119.1 138.471 120.9C138.371 122.6 138.321 124.3 138.321 126V132L137.421 133.2C136.921 133.1 136.421 133 135.921 132.9C135.421 132.9 134.921 132.9 134.421 132.9C134.021 132.9 133.571 132.9 133.071 132.9C132.571 133 132.071 133.1 131.571 133.2C131.171 133 130.671 132.8 130.071 132.6C129.571 132.5 129.021 132.55 128.421 132.75C127.521 132.45 126.521 132.05 125.421 131.55L124.671 128.1C125.571 127.6 126.021 126.8 126.021 125.7L125.571 124.8C126.071 122.3 126.621 119.85 127.221 117.45C127.821 115.05 128.421 112.65 129.021 110.25C129.321 109.65 129.571 109.05 129.771 108.45C129.971 107.85 130.071 107.25 130.071 106.65L130.971 105.45L131.271 104.25L130.671 102.3L125.571 102.15C125.571 102.55 124.821 103 123.321 103.5C121.821 104 120.221 104.5 118.521 105C116.921 105.4 115.871 105.75 115.371 106.05C114.971 106.25 114.521 106.55 114.021 106.95C113.521 107.25 112.971 107.35 112.371 107.25L110.721 107.1L110.121 105.75L109.371 106.2H106.671L105.171 107.4H105.321L103.821 108.9H103.521L100.071 111.6L100.221 111.75C97.2205 114.55 93.7205 117.55 89.7205 120.75C85.7205 123.85 81.4705 126.85 76.9705 129.75C72.4705 132.75 67.9705 135.35 63.4705 137.55C58.9705 139.75 54.7205 141.3 50.7205 142.2ZM154.821 62.1L154.971 61.65H154.671L154.371 61.95L154.821 62.1ZM153.021 75L152.421 74.85L153.471 73.35L153.921 74.85L153.021 75ZM147.171 76.5L147.921 75.45L147.771 75L146.271 76.05L147.171 76.5ZM73.9705 123.75L74.2705 122.85L74.7205 123L74.8705 123.6L74.7205 123.75H73.9705ZM162.466 127.5C161.566 127.5 160.716 127.35 159.916 127.05L159.166 126.15C157.666 125.75 156.616 125.2 156.016 124.5C155.416 123.8 155.116 122.65 155.116 121.05C155.116 120.35 155.316 119.05 155.716 117.15C156.216 115.15 156.816 113.25 157.516 111.45C158.216 109.65 158.916 108.75 159.616 108.75C159.716 107.65 160.116 106.25 160.816 104.55C161.516 102.85 162.416 101.85 163.516 101.55V101.4L164.866 99.6H165.166L165.466 97.35C165.766 97.25 166.016 96.95 166.216 96.45L157.066 100.05L156.166 99.45C156.266 98.95 156.716 98.45 157.516 97.95C158.416 97.35 159.316 96.85 160.216 96.45C161.216 95.95 161.916 95.7 162.316 95.7C163.716 94.8 165.066 94.3 166.366 94.2L166.966 93.6L167.866 93.75L169.666 93.15C170.166 92.55 170.666 91.9 171.166 91.2C171.666 90.5 171.916 89.75 171.916 88.95C172.416 88.15 172.966 87.45 173.566 86.85C174.266 86.15 174.916 85.45 175.516 84.75H175.966C176.466 84.25 177.016 84 177.616 84L178.216 83.25V81.6L178.816 81.15C179.316 80.55 179.966 79.65 180.766 78.45C181.666 77.15 182.116 76.15 182.116 75.45C182.116 75.05 181.766 74.85 181.066 74.85C180.166 74.85 179.416 74.95 178.816 75.15V74.4L186.466 67.95V67.8C187.766 66.9 189.016 65.95 190.216 64.95C191.416 63.85 192.666 62.9 193.966 62.1C195.066 62.3 196.266 62.65 197.566 63.15C198.866 63.55 199.766 64.3 200.266 65.4V67.35C199.566 68.05 198.366 69.3 196.666 71.1C194.966 72.9 193.016 74.95 190.816 77.25C188.616 79.45 186.416 81.65 184.216 83.85C182.016 85.95 180.066 87.7 178.366 89.1C176.766 90.5 175.666 91.25 175.066 91.35L174.166 92.1C175.766 91.9 177.266 91.7 178.666 91.5C180.166 91.2 181.666 91.05 183.166 91.05C185.066 91.05 187.116 91.35 189.316 91.95C191.616 92.55 193.166 93.85 193.966 95.85L194.866 96.75V98.25C194.966 98.65 195.066 99.05 195.166 99.45C195.266 99.85 195.316 100.25 195.316 100.65C195.316 101.75 195.066 102.5 194.566 102.9C194.066 103.2 193.566 103.4 193.066 103.5C192.566 103.6 192.316 103.85 192.316 104.25L193.516 104.7V104.85C193.516 105.85 192.616 107.25 190.816 109.05C189.116 110.85 186.916 112.8 184.216 114.9C181.516 117 178.666 119.05 175.666 121.05C172.766 122.95 170.116 124.5 167.716 125.7C165.316 126.9 163.566 127.5 162.466 127.5ZM176.716 76.5L176.566 76.05L177.016 75L177.916 75.15L178.216 76.2L176.716 76.5ZM163.966 125.4C165.766 125.4 167.816 124.45 170.116 122.55C172.416 120.65 174.666 118.3 176.866 115.5C179.066 112.6 180.866 109.8 182.266 107.1C183.766 104.3 184.516 102.1 184.516 100.5C184.516 98.4 183.516 96.9 181.516 96C179.616 95.1 177.816 94.65 176.116 94.65C175.916 94.65 175.516 94.75 174.916 94.95C174.316 95.15 173.866 95.3 173.566 95.4L173.266 95.85C172.166 96.15 171.216 96.75 170.416 97.65C169.716 98.55 169.366 99.6 169.366 100.8C168.966 100.9 168.266 101.55 167.266 102.75C166.366 103.85 165.366 104.6 164.266 105L163.666 106.8C163.566 107.5 163.166 108.2 162.466 108.9C161.866 109.5 161.316 110.05 160.816 110.55C160.316 112.05 159.766 113.55 159.166 115.05C158.666 116.55 158.316 118.1 158.116 119.7C158.316 119 158.616 118.35 159.016 117.75C159.516 117.05 159.766 116.35 159.766 115.65L160.516 115.2L161.866 112.5V111.9L162.766 110.25L163.216 110.4L163.666 109.35L164.416 108.75V108.6C164.816 108.4 165.166 108.2 165.466 108C165.866 107.7 166.216 107.45 166.516 107.25C166.516 106.45 166.916 105.85 167.716 105.45C168.516 105.05 168.966 104.5 169.066 103.8L169.966 103.5L171.016 102.15H171.616L173.116 100.8L174.616 100.35V100.95C172.816 101.95 170.966 103.65 169.066 106.05C167.166 108.35 165.516 110.9 164.116 113.7C162.816 116.4 162.166 118.8 162.166 120.9C162.166 121.6 162.216 122.5 162.316 123.6C162.516 124.8 163.066 125.4 163.966 125.4ZM157.816 122.25L158.266 121.35V121.05L157.966 120.9L157.816 122.25ZM157.966 123.6V123.45L158.716 122.55H158.566L157.816 122.4L157.966 123.6ZM207.27 119.55C205.77 119.55 204.52 119.2 203.52 118.5C202.52 117.7 201.62 116.65 200.82 115.35H200.52L200.67 114.15L200.37 114.3V113.4L201.12 112.8H200.82L199.92 112.05H200.22L200.52 111.45V111.15L200.22 110.4V110.1H199.92L197.82 109.05V108.6C197.12 107.9 196.52 107.15 196.02 106.35C195.62 105.45 195.42 104.5 195.42 103.5C195.42 102.1 196.02 100.45 197.22 98.55C198.52 96.65 200.02 94.95 201.72 93.45C203.52 91.95 205.12 91.2 206.52 91.2C207.22 90.5 208.22 90.15 209.52 90.15L209.97 89.7L210.72 89.85C211.82 89.35 213.02 89.2 214.32 89.4L214.47 89.1H222.87C223.67 89.1 224.67 89.3 225.87 89.7C227.17 90.1 228.17 90.4 228.87 90.6C229.77 91.6 230.97 92.4 232.47 93C233.97 93.5 234.72 94.6 234.72 96.3C234.72 98.4 234.12 100.4 232.92 102.3C231.72 104.2 230.32 105.7 228.72 106.8H228.57C228.47 107.1 227.97 107.6 227.07 108.3C226.27 108.9 225.37 109.55 224.37 110.25C223.47 110.85 222.87 111.3 222.57 111.6L222.12 112.95C221.42 112.95 220.77 113.2 220.17 113.7C219.57 114.1 219.27 114.65 219.27 115.35C219.47 115.75 219.92 116.1 220.62 116.4C221.32 116.6 221.92 116.7 222.42 116.7L221.82 117C218.62 117 216.17 117.25 214.47 117.75C212.77 118.15 211.42 118.55 210.42 118.95C209.42 119.35 208.37 119.55 207.27 119.55ZM211.32 115.65C214.42 114.15 216.57 113 217.77 112.2C219.07 111.3 219.97 110.55 220.47 109.95C220.97 109.25 221.62 108.35 222.42 107.25C223.22 106.15 224.67 104.6 226.77 102.6V102.3C226.37 102.3 226.02 102.25 225.72 102.15C225.82 101.25 226.02 100.4 226.32 99.6C226.72 98.7 226.92 97.75 226.92 96.75C226.92 94.95 226.22 93.5 224.82 92.4C223.52 91.2 222.02 90.6 220.32 90.6C219.42 90.6 218.47 90.7 217.47 90.9C216.57 91.1 215.72 91.35 214.92 91.65L212.97 91.5C211.37 92.1 209.57 93 207.57 94.2C205.67 95.4 204.02 96.85 202.62 98.55C201.22 100.15 200.52 101.95 200.52 103.95C200.52 104.95 200.72 105.8 201.12 106.5L201.72 106.65V106.2L202.47 105.75L203.52 103.5V102.9L204.42 101.55L204.72 101.7L205.17 100.8L205.92 100.35V100.2C206.22 100.1 206.52 100 206.82 99.9C207.22 99.8 207.57 99.65 207.87 99.45C207.87 98.65 208.22 98.2 208.92 98.1C209.62 97.9 210.02 97.45 210.12 96.75H211.02L212.07 95.55L212.67 96L214.02 95.1H215.37V95.55C213.87 95.95 212.22 97.05 210.42 98.85C208.62 100.55 207.12 102.45 205.92 104.55C204.72 106.65 204.17 108.55 204.27 110.25L204.42 112.95C205.52 113.45 206.62 114.05 207.72 114.75C208.82 115.35 210.02 115.65 211.32 115.65ZM206.97 116.7L207.87 116.25L204.42 114.6L204.12 114.75L204.72 116.1L206.97 116.7ZM264.088 131.85L261.838 128.25C261.738 127.65 261.538 127.05 261.238 126.45C261.038 125.85 260.938 125.2 260.938 124.5C260.938 123.5 260.988 122.6 261.088 121.8C261.188 120.9 261.288 119.95 261.388 118.95L262.438 116.55L262.288 116.25C262.488 115.85 262.638 115.45 262.738 115.05C262.938 114.55 263.088 114.1 263.188 113.7L262.588 113.25C261.888 113.25 260.888 113.95 259.588 115.35C258.388 116.65 256.988 117.95 255.388 119.25C253.888 120.55 252.138 121.2 250.138 121.2C248.838 121.2 247.638 120.8 246.538 120C245.438 119.2 244.938 118 245.038 116.4L244.888 116.1C245.988 114.1 246.938 112.05 247.738 109.95C248.538 107.85 249.388 105.8 250.288 103.8L249.388 102.15L248.938 102.3L248.188 102L246.688 103.5L244.588 103.95L244.888 104.7H244.588L243.088 105.15L242.788 105.75H241.888L241.738 106.65C241.238 107.15 240.688 107.7 240.088 108.3C239.488 108.9 238.788 109.25 237.988 109.35L228.988 117.9L228.838 117.45C228.838 116.75 229.088 116.2 229.588 115.8C230.088 115.3 230.538 114.85 230.938 114.45L231.088 114.15L231.538 113.85L231.688 114L232.138 112.95H231.988C232.188 112.75 232.388 112.5 232.588 112.2C232.888 111.8 233.238 111.6 233.638 111.6H233.938C233.938 111.6 233.938 111.5 233.938 111.3C234.538 110.4 235.338 109.6 236.338 108.9H236.788L237.238 108.45L237.088 108.15L238.588 107.55C238.488 106.55 239.288 105.45 240.988 104.25C242.688 103.05 244.538 102 246.538 101.1C248.538 100.1 249.938 99.6 250.738 99.6C251.838 99.6 253.138 99.9 254.638 100.5C256.138 101 256.888 101.95 256.888 103.35C256.888 106.15 256.388 108.4 255.388 110.1C254.388 111.8 253.838 112.9 253.738 113.4L254.188 113.7C255.388 113.7 256.338 113.35 257.038 112.65C257.738 111.85 258.438 111.05 259.138 110.25C259.938 109.45 260.888 109 261.988 108.9C261.888 108.8 261.938 108.75 262.138 108.75C262.338 108.65 262.438 108.7 262.438 108.9C262.838 108.2 263.738 107.1 265.138 105.6C266.538 104 267.988 102.5 269.488 101.1C270.988 99.7 272.038 99 272.638 99C273.738 99 274.988 99.4 276.388 100.2C277.788 101 278.488 102 278.488 103.2C278.488 103.7 278.088 104.65 277.288 106.05C276.588 107.35 275.738 108.75 274.738 110.25C273.738 111.75 272.738 113.1 271.738 114.3C270.838 115.4 270.138 116.05 269.638 116.25C268.738 117.85 267.488 119.7 265.888 121.8C264.388 123.8 263.638 125.8 263.638 127.8C263.638 128.5 263.738 129.15 263.938 129.75C264.138 130.35 264.238 130.95 264.238 131.55L264.088 131.85ZM284.689 129.3C283.089 129.3 281.789 128.6 280.789 127.2C279.789 125.9 279.289 124.45 279.289 122.85C279.289 121.65 279.639 119.85 280.339 117.45C281.139 114.95 282.089 112.35 283.189 109.65C284.289 106.85 285.439 104.35 286.639 102.15C287.839 99.95 288.939 98.5 289.939 97.8C291.339 95.6 292.589 93.55 293.689 91.65C292.089 91.95 290.489 92.3 288.889 92.7C287.289 93 285.789 93.45 284.389 94.05C283.689 94.95 282.889 95.4 281.989 95.4C281.689 95.2 281.339 95 280.939 94.8C280.539 94.6 280.189 94.35 279.889 94.05L280.039 93.75H279.889V93.45C279.889 92.95 279.789 92.5 279.589 92.1C279.489 91.6 279.389 91.15 279.289 90.75C279.189 90.65 279.139 90.4 279.139 90C279.139 88.7 279.739 87.85 280.939 87.45C282.239 87.05 283.539 86.85 284.839 86.85C286.739 86.85 288.039 87 288.739 87.3L290.239 87H293.989C294.689 87 295.339 87 295.939 87C296.539 87 297.139 86.95 297.739 86.85L298.339 85.95L298.189 85.35C298.489 84.65 299.139 83.5 300.139 81.9C301.139 80.3 302.189 78.6 303.289 76.8C304.389 75 305.339 73.45 306.139 72.15C307.039 70.75 307.489 70.05 307.489 70.05C307.489 69.45 307.989 69.1 308.989 69C309.989 68.9 310.639 68.85 310.939 68.85C312.039 68.85 313.539 69.2 315.439 69.9C317.339 70.5 318.289 71.55 318.289 73.05C318.289 73.95 317.939 74.7 317.239 75.3C316.539 75.8 315.789 76.15 314.989 76.35V76.5C314.989 77.1 314.539 77.8 313.639 78.6C312.839 79.4 311.889 80.1 310.789 80.7C309.689 81.3 308.839 81.7 308.239 81.9C307.939 82 307.539 82.4 307.039 83.1C306.639 83.7 306.339 84.15 306.139 84.45V85.05C305.739 85.35 305.289 85.7 304.789 86.1C304.389 86.4 304.039 86.8 303.739 87.3C304.239 87.4 304.739 87.45 305.239 87.45C305.739 87.45 306.239 87.45 306.739 87.45C307.539 87.45 308.289 87.45 308.989 87.45C309.789 87.45 310.539 87.5 311.239 87.6L315.889 88.2C314.689 89.2 313.339 89.8 311.839 90C310.339 90.1 308.789 90.15 307.189 90.15C305.689 90.05 304.239 90.3 302.839 90.9C302.139 91.1 301.189 91.7 299.989 92.7C298.889 93.7 297.889 94.8 296.989 96C296.089 97.1 295.639 98.05 295.639 98.85L292.189 103.5C291.189 104 290.689 104.75 290.689 105.75C290.689 106.75 290.139 107.25 289.039 107.25L286.939 112.05C286.839 112.65 286.689 113.6 286.489 114.9C286.389 116.1 285.989 116.8 285.289 117C285.289 118.3 285.239 119.6 285.139 120.9C285.039 122.1 284.989 123.3 284.989 124.5L285.289 125.1H286.489C288.489 123.1 290.539 121.2 292.639 119.4C294.839 117.5 296.889 115.5 298.789 113.4L299.539 113.1H299.839L300.739 111.9L301.339 111.6L301.189 111.45L302.089 110.7C302.889 109.2 304.189 107.95 305.989 106.95L306.139 107.25C306.139 107.75 305.489 108.85 304.189 110.55C302.889 112.15 301.239 114.05 299.239 116.25C297.339 118.35 295.339 120.4 293.239 122.4C291.239 124.4 289.439 126.05 287.839 127.35C286.239 128.65 285.189 129.3 284.689 129.3ZM304.881 155.4C300.781 155.4 297.581 154.35 295.281 152.25C292.881 150.15 291.181 147.45 290.181 144.15C289.181 140.85 288.681 137.45 288.681 133.95C288.681 133.35 288.881 132.7 289.281 132C289.581 131.3 290.081 130.95 290.781 130.95L291.231 131.1C290.931 131.5 290.781 131.9 290.781 132.3C290.681 132.7 290.631 133.15 290.631 133.65C290.631 136.25 291.331 138.65 292.731 140.85C294.131 143.05 295.981 144.8 298.281 146.1C300.581 147.4 303.031 148.05 305.631 148.05C311.831 148.05 317.381 146.7 322.281 144C327.281 141.4 331.931 137.95 336.231 133.65C337.631 132.25 339.331 129.95 341.331 126.75C343.431 123.65 345.631 120.05 347.931 115.95C350.231 111.85 352.481 107.55 354.681 103.05C356.981 98.45 359.031 94 360.831 89.7C362.731 85.4 364.231 81.5 365.331 78C366.531 74.5 367.131 71.8 367.131 69.9L365.481 72.3V71.85C366.081 70.35 366.681 68.85 367.281 67.35C367.881 65.85 368.381 64.35 368.781 62.85C363.981 63.05 359.181 63.75 354.381 64.95C349.681 66.05 345.281 67.8 341.181 70.2L341.931 71.1L337.731 74.55C336.431 74.85 335.481 75.6 334.881 76.8C334.381 77.9 334.031 79.05 333.831 80.25L333.231 80.55V81.9C333.231 83.1 333.581 83.9 334.281 84.3C334.981 84.6 335.831 84.75 336.831 84.75C337.231 84.75 337.631 84.75 338.031 84.75C338.431 84.75 338.831 84.7 339.231 84.6V84.9L337.881 86.55L337.431 86.7C334.831 86.7 332.731 85.9 331.131 84.3C329.531 82.7 328.681 80.6 328.581 78C329.381 76.9 329.831 76.15 329.931 75.75C330.131 75.35 330.281 74.95 330.381 74.55C330.481 74.15 330.831 73.55 331.431 72.75C332.031 71.95 333.181 70.7 334.881 69C335.581 68.7 336.181 68.25 336.681 67.65C337.181 67.05 337.781 66.7 338.481 66.6V68.4C338.981 68.1 339.531 67.75 340.131 67.35C340.731 66.95 341.031 66.4 341.031 65.7L344.331 64.35L345.081 64.8L345.231 64.65L344.631 63.6C348.631 62.5 352.631 61.6 356.631 60.9C360.731 60.1 364.781 59.5 368.781 59.1L369.081 58.65L369.381 55.5L370.281 54.45L370.131 53.4L371.631 51.6V51.3L369.381 49.65C370.481 49.25 371.681 48.9 372.981 48.6C374.281 48.2 375.431 47.65 376.431 46.95C377.631 47.25 378.931 47.4 380.331 47.4C381.731 47.3 382.931 47.65 383.931 48.45C383.831 49.85 383.631 51.25 383.331 52.65C383.131 53.95 382.831 55.3 382.431 56.7L379.731 57.9C380.631 58 382.031 58.2 383.931 58.5C385.931 58.7 387.931 59.05 389.931 59.55C392.031 60.05 393.831 60.7 395.331 61.5C396.831 62.2 397.581 63.15 397.581 64.35C397.581 64.65 397.531 64.95 397.431 65.25C397.331 65.45 397.281 65.65 397.281 65.85C395.581 64.05 393.531 62.85 391.131 62.25C388.731 61.55 386.331 61.3 383.931 61.5L380.781 61.65C379.881 66.75 378.231 72.15 375.831 77.85C373.431 83.45 370.681 88.95 367.581 94.35C364.581 99.75 361.581 104.65 358.581 109.05C357.881 110.05 356.931 111.15 355.731 112.35C354.631 113.55 353.931 114.7 353.631 115.8C353.131 116 352.531 116.9 351.831 118.5C351.131 120.1 350.431 121.7 349.731 123.3C349.131 125 348.631 126.2 348.231 126.9C347.431 127.3 346.681 127.8 345.981 128.4C345.281 129.1 344.681 129.8 344.181 130.5C344.181 131.2 343.381 132.45 341.781 134.25C340.181 136.15 338.231 138.15 335.931 140.25C333.631 142.35 331.481 144.2 329.481 145.8C327.481 147.5 326.081 148.6 325.281 149.1C324.181 150.7 322.481 151.85 320.181 152.55C317.781 153.35 315.631 153.85 313.731 154.05L312.981 153.6L313.431 153L312.831 152.7L311.631 153.3L310.281 153L309.531 153.45L310.731 154.8C309.731 155 308.781 155.15 307.881 155.25C306.881 155.35 305.881 155.4 304.881 155.4ZM347.031 64.5C347.831 64.3 348.681 64.05 349.581 63.75C350.481 63.35 351.281 62.95 351.981 62.55V62.25C351.581 62.45 351.131 62.65 350.631 62.85C350.231 62.95 349.831 63.05 349.431 63.15L349.281 63L346.581 63.9L347.031 64.5ZM332.331 81.9L332.181 79.8H331.731C331.731 79.9 331.681 80 331.581 80.1C331.581 80.2 331.581 80.35 331.581 80.55C331.581 81.15 331.831 81.6 332.331 81.9ZM400.608 132.9L397.608 129.45C397.108 127.45 396.558 125.4 395.958 123.3C395.458 121.3 395.108 119.25 394.908 117.15L395.658 114.3L395.358 114.15C395.758 113.05 396.158 111.95 396.558 110.85C397.058 109.65 397.308 108.5 397.308 107.4C396.808 107.9 396.258 108.4 395.658 108.9C395.158 109.4 394.758 110 394.458 110.7C394.058 111.1 393.708 111.6 393.408 112.2C393.108 112.8 392.708 113.3 392.208 113.7L392.058 115.05C390.658 115.35 389.258 116.05 387.858 117.15C386.558 118.15 385.258 119.15 383.958 120.15C382.658 121.05 381.258 121.5 379.758 121.5C379.058 121.5 378.158 121.45 377.058 121.35C376.058 121.15 375.308 120.85 374.808 120.45C373.508 120.15 372.558 119.8 371.958 119.4C371.458 118.9 371.058 118 370.758 116.7L371.358 114.75L370.908 113.55C371.408 111.95 371.758 110.8 371.958 110.1C372.258 109.4 372.658 108.8 373.158 108.3C373.758 107.8 374.708 107.05 376.008 106.05C376.108 105.55 376.358 105.2 376.758 105C377.258 104.7 377.708 104.5 378.108 104.4L378.258 103.65L379.758 101.85L380.208 102.15L381.108 100.8C381.808 100.3 382.508 100 383.208 99.9C384.008 99.7 384.758 99.4 385.458 99C385.658 97.9 386.308 97.25 387.408 97.05C388.608 96.75 389.308 96.2 389.508 95.4H390.108L392.658 93.75L393.558 94.2L395.658 92.85C396.258 92.85 396.808 92.8 397.308 92.7C397.908 92.6 398.458 92.55 398.958 92.55L399.558 92.85C397.558 93.55 395.258 94.7 392.658 96.3C390.058 97.8 387.508 99.6 385.008 101.7C382.608 103.7 380.608 105.9 379.008 108.3C377.408 110.7 376.608 113.1 376.608 115.5C376.608 117.4 377.608 118.35 379.608 118.35C381.408 118.35 383.258 117.8 385.158 116.7C387.158 115.6 388.958 114.25 390.558 112.65C392.158 111.05 393.308 109.5 394.008 108L396.558 105.9C396.758 105.4 397.008 105.05 397.308 104.85C397.608 104.65 397.808 104.3 397.908 103.8C398.608 103.7 399.108 103.1 399.408 102C399.708 100.9 400.058 99.7 400.458 98.4C400.858 97 401.408 95.8 402.108 94.8C402.808 93.8 403.858 93.3 405.258 93.3C406.358 93.3 407.608 93.8 409.008 94.8C410.408 95.7 411.108 96.8 411.108 98.1C411.108 98.8 410.508 100.15 409.308 102.15C408.108 104.15 406.708 106.5 405.108 109.2C403.608 111.9 402.258 114.7 401.058 117.6C399.858 120.5 399.258 123.25 399.258 125.85C399.258 126.95 399.458 128.05 399.858 129.15C400.358 130.25 400.658 131.35 400.758 132.45L400.608 132.9ZM386.256 149.55C384.256 149.55 382.256 149.05 380.256 148.05C378.156 147.15 376.406 145.85 375.006 144.15C373.606 142.45 372.906 140.5 372.906 138.3L373.356 137.25C374.356 138.35 375.106 139.55 375.606 140.85C376.106 142.15 376.806 143.2 377.706 144C378.606 144.9 380.106 145.35 382.206 145.35C382.606 145.35 383.006 145.3 383.406 145.2C383.806 145.2 384.206 145.15 384.606 145.05C385.106 145.25 386.106 144.8 387.606 143.7C389.106 142.6 390.806 141.2 392.706 139.5C394.606 137.8 396.506 135.95 398.406 133.95C400.206 132.05 401.756 130.3 403.056 128.7C404.256 127.2 404.906 126.15 405.006 125.55C405.806 124.35 406.606 123.05 407.406 121.65C408.306 120.25 409.106 118.9 409.806 117.6L410.106 117.75L410.556 117.15C411.356 116.25 411.856 115.35 412.056 114.45C412.256 113.55 412.856 112.7 413.856 111.9C414.656 110.7 415.356 109.5 415.956 108.3C416.656 107.1 417.006 105.8 417.006 104.4C417.006 103.8 417.156 103.25 417.456 102.75C417.756 102.15 418.056 101.6 418.356 101.1C420.356 98 421.656 95.15 422.256 92.55C422.856 89.95 423.606 86.95 424.506 83.55C424.306 83.05 424.006 82.6 423.606 82.2C423.206 81.8 422.856 81.4 422.556 81H422.856C424.756 81 426.106 81.55 426.906 82.65C427.706 83.75 428.106 85.15 428.106 86.85C428.106 87.45 427.956 88.55 427.656 90.15C427.356 91.65 426.906 93.3 426.306 95.1C425.806 96.9 425.206 98.45 424.506 99.75C423.906 101.05 423.256 101.7 422.556 101.7C422.456 102.5 422.256 103.3 421.956 104.1C421.756 104.8 421.506 105.5 421.206 106.2C421.706 105.7 422.206 105.1 422.706 104.4C423.306 103.6 423.956 103.15 424.656 103.05C425.256 102.55 425.656 101.9 425.856 101.1C426.156 100.3 426.656 99.65 427.356 99.15C427.556 99.15 427.856 99.05 428.256 98.85C428.756 98.55 428.856 98.3 428.556 98.1L430.656 96.75H431.406C431.606 95.75 432.256 95.15 433.356 94.95C434.556 93.85 435.456 93.1 436.056 92.7C436.756 92.3 437.456 92.05 438.156 91.95C438.956 91.75 440.106 91.55 441.606 91.35L442.806 91.95C443.306 91.65 443.756 91.5 444.156 91.5C445.556 91.5 446.556 92.35 447.156 94.05C447.856 95.75 448.206 97.15 448.206 98.25C448.206 100.95 447.656 102.95 446.556 104.25C445.456 105.45 444.206 106.55 442.806 107.55C441.506 108.45 440.456 109.8 439.656 111.6C437.856 112.5 436.106 113.65 434.406 115.05C433.006 115.45 431.806 116.2 430.806 117.3C429.806 118.4 428.606 119.2 427.206 119.7C424.906 120.4 422.506 121.1 420.006 121.8C417.606 122.4 415.156 122.6 412.656 122.4C412.256 123.9 411.356 125.8 409.956 128.1C408.556 130.5 407.056 132.8 405.456 135C403.856 137.3 402.556 139.2 401.556 140.7L398.856 141.9C398.556 142.3 398.256 142.7 397.956 143.1C397.556 143.6 397.156 143.95 396.756 144.15H396.156C394.756 145.75 393.356 147.05 391.956 148.05C390.456 149.05 388.556 149.55 386.256 149.55ZM414.606 118.2C420.606 117.9 426.106 116.7 431.106 114.6C436.206 112.5 440.456 108.8 443.856 103.5C444.656 102.2 445.056 101 445.056 99.9C445.056 98.9 444.656 98.2 443.856 97.8C443.056 97.4 442.206 97.2 441.306 97.2C438.806 97.2 436.206 97.9 433.506 99.3C430.806 100.6 428.206 102.35 425.706 104.55C423.306 106.65 421.106 108.95 419.106 111.45C417.206 113.85 415.706 116.1 414.606 118.2ZM418.206 110.55L418.656 110.25V109.95L418.506 110.25L418.206 110.55ZM475.315 132.9L472.315 129.45C471.815 127.45 471.265 125.4 470.665 123.3C470.165 121.3 469.815 119.25 469.615 117.15L470.365 114.3L470.065 114.15C470.465 113.05 470.865 111.95 471.265 110.85C471.765 109.65 472.015 108.5 472.015 107.4C471.515 107.9 470.965 108.4 470.365 108.9C469.865 109.4 469.465 110 469.165 110.7C468.765 111.1 468.415 111.6 468.115 112.2C467.815 112.8 467.415 113.3 466.915 113.7L466.765 115.05C465.365 115.35 463.965 116.05 462.565 117.15C461.265 118.15 459.965 119.15 458.665 120.15C457.365 121.05 455.965 121.5 454.465 121.5C453.765 121.5 452.865 121.45 451.765 121.35C450.765 121.15 450.015 120.85 449.515 120.45C448.215 120.15 447.265 119.8 446.665 119.4C446.165 118.9 445.765 118 445.465 116.7L446.065 114.75L445.615 113.55C446.115 111.95 446.465 110.8 446.665 110.1C446.965 109.4 447.365 108.8 447.865 108.3C448.465 107.8 449.415 107.05 450.715 106.05C450.815 105.55 451.065 105.2 451.465 105C451.965 104.7 452.415 104.5 452.815 104.4L452.965 103.65L454.465 101.85L454.915 102.15L455.815 100.8C456.515 100.3 457.215 100 457.915 99.9C458.715 99.7 459.465 99.4 460.165 99C460.365 97.9 461.015 97.25 462.115 97.05C463.315 96.75 464.015 96.2 464.215 95.4H464.815L467.365 93.75L468.265 94.2L470.365 92.85C470.965 92.85 471.515 92.8 472.015 92.7C472.615 92.6 473.165 92.55 473.665 92.55L474.265 92.85C472.265 93.55 469.965 94.7 467.365 96.3C464.765 97.8 462.215 99.6 459.715 101.7C457.315 103.7 455.315 105.9 453.715 108.3C452.115 110.7 451.315 113.1 451.315 115.5C451.315 117.4 452.315 118.35 454.315 118.35C456.115 118.35 457.965 117.8 459.865 116.7C461.865 115.6 463.665 114.25 465.265 112.65C466.865 111.05 468.015 109.5 468.715 108L471.265 105.9C471.465 105.4 471.715 105.05 472.015 104.85C472.315 104.65 472.515 104.3 472.615 103.8C473.315 103.7 473.815 103.1 474.115 102C474.415 100.9 474.765 99.7 475.165 98.4C475.565 97 476.115 95.8 476.815 94.8C477.515 93.8 478.565 93.3 479.965 93.3C481.065 93.3 482.315 93.8 483.715 94.8C485.115 95.7 485.815 96.8 485.815 98.1C485.815 98.8 485.215 100.15 484.015 102.15C482.815 104.15 481.415 106.5 479.815 109.2C478.315 111.9 476.965 114.7 475.765 117.6C474.565 120.5 473.965 123.25 473.965 125.85C473.965 126.95 474.165 128.05 474.565 129.15C475.065 130.25 475.365 131.35 475.465 132.45L475.315 132.9ZM487.663 124.8C486.563 124.8 485.763 124.3 485.263 123.3C484.863 122.4 484.663 121.5 484.663 120.6C484.663 118 485.263 115.3 486.463 112.5C487.763 109.7 489.013 107.15 490.213 104.85C491.513 102.45 492.163 100.6 492.163 99.3C492.163 98.7 491.813 98.4 491.113 98.4C490.813 98.4 490.363 98.5 489.763 98.7V98.1L493.363 93.9V93.75C493.863 93.25 494.313 92.75 494.713 92.25C495.113 91.75 495.513 91.3 495.913 90.9L497.263 90C498.363 90.1 499.413 90.4 500.413 90.9C501.513 91.3 502.213 92.15 502.513 93.45L502.363 93.6C502.463 94.4 502.113 95.25 501.313 96.15C500.513 97.05 499.813 97.75 499.213 98.25C498.613 99.35 497.913 100.4 497.113 101.4C496.413 102.3 495.763 103.3 495.163 104.4V105.9L494.563 107.1H494.263C493.963 107.7 493.663 108.35 493.363 109.05C493.163 109.75 493.063 110.5 493.063 111.3L493.813 112.5C494.113 112.2 494.663 111.75 495.463 111.15C496.363 110.45 497.163 109.75 497.863 109.05C498.563 108.35 498.913 107.85 498.913 107.55L500.563 106.05C501.063 104.55 502.163 102.95 503.863 101.25C505.563 99.45 507.013 98.05 508.213 97.05L508.663 95.85C509.263 95.55 509.863 95.2 510.463 94.8C511.163 94.4 511.863 94.2 512.563 94.2C513.363 94.2 514.063 94.4 514.663 94.8C515.363 95.2 516.063 95.6 516.763 96C516.763 96.4 516.763 96.9 516.763 97.5C516.863 98 516.913 98.5 516.913 99C516.913 100.6 516.463 102.1 515.563 103.5C514.663 104.9 513.763 106.35 512.863 107.85C511.963 109.35 511.513 111.2 511.513 113.4C511.513 113.7 511.513 114.4 511.513 115.5C511.613 116.5 511.763 117.5 511.963 118.5C512.263 119.4 512.713 119.85 513.313 119.85L518.113 117.3H518.413C518.613 116.7 518.963 116.15 519.463 115.65C520.063 115.15 520.713 114.9 521.413 114.9L521.563 115.05C521.563 115.55 521.113 116.3 520.213 117.3C519.413 118.3 518.513 119.25 517.513 120.15C516.613 121.05 515.963 121.7 515.563 122.1C515.163 122.2 514.713 122.3 514.213 122.4C513.713 122.4 513.213 122.5 512.713 122.7L512.263 121.95C510.063 121.75 508.213 121 506.713 119.7C505.313 118.3 504.613 116.5 504.613 114.3C504.613 113.6 504.763 112.35 505.063 110.55C505.363 108.65 505.713 106.8 506.113 105C506.613 103.2 506.963 101.95 507.163 101.25C505.963 102.05 504.813 103.3 503.713 105C502.613 106.6 501.613 107.95 500.713 109.05C499.713 109.45 498.663 110.5 497.563 112.2C496.563 113.8 495.513 115.6 494.413 117.6C493.313 119.5 492.213 121.2 491.113 122.7C490.013 124.1 488.863 124.8 487.663 124.8Z" fill="#BE0029"/>
</g>
<defs>
<filter id="filter0_d_4_59" x="0.570412" y="0.95005" width="568.593" height="206.05" filterUnits="userSpaceOnUse" color-interpolation-filters="sRGB">
<feFlood flood-opacity="0" result="BackgroundImageFix"/>
<feColorMatrix in="SourceAlpha" type="matrix" values="0 0 0 0 0 0 0 0 0 0 0 0 0 0 0 0 0 0 127 0" result="hardAlpha"/>
<feOffset dy="4"/>
<feGaussianBlur stdDeviation="23.8"/>
<feComposite in2="hardAlpha" operator="out"/>
<feColorMatrix type="matrix" values="0 0 0 0 0 0 0 0 0 0 0 0 0 0 0 0 0 0 0.25 0"/>
<feBlend mode="normal" in2="BackgroundImageFix" result="effect1_dropShadow_4_59"/>
<feBlend mode="normal" in="SourceGraphic" in2="effect1_dropShadow_4_59" result="shape"/>
</filter>
</defs>
</svg>
