<svg width="890" height="112" viewBox="0 0 890 112" fill="none" xmlns="http://www.w3.org/2000/svg">
<path d="M9.1 88.6C7.3 88.6 5.35 87.85 3.25 86.35C1.25 84.85 0.25 83.1 0.25 81.1C0.25 79.6 0.55 78.15 1.15 76.75C1.75 75.25 2.4 73.85 3.1 72.55V72.1C3.9 70.9 4.9 69.9 6.1 69.1C6.4 68.6 6.7 68 7 67.3C7.4 66.5 7.9 66.05 8.5 65.95L9.25 66.4C8.15 67.8 7.1 69.4 6.1 71.2L4.3 80.5C4.9 81.4 5.85 81.85 7.15 81.85C8.95 81.85 11.15 81.5 13.75 80.8C16.35 80.2 18.95 79.5 21.55 78.7C24.15 77.9 26.35 77.2 28.15 76.6V76.45C28.65 76.45 29.15 76.4 29.65 76.3C30.25 76.1 30.65 75.7 30.85 75.1L30.7 74.65L31.9 74.8C32.5 74.5 33.1 74.2 33.7 73.9C34.3 73.6 34.95 73.4 35.65 73.3C36.05 72.9 37.1 72.05 38.8 70.75C40.5 69.35 42.4 67.9 44.5 66.4C46.6 64.8 48.5 63.4 50.2 62.2C51.9 61 52.95 60.3 53.35 60.1L54.4 58.45L55.6 57.85V56.35C55.8 54.85 55.1 53.7 53.5 52.9C51.9 52 49.8 51.25 47.2 50.65C44.6 50.05 41.8 49.45 38.8 48.85C35.9 48.25 33.1 47.45 30.4 46.45C27.8 45.35 25.65 43.95 23.95 42.25C22.35 40.55 21.55 38.3 21.55 35.5L20.8 35.95L20.5 35.5C20.5 33.4 21.7 31.15 24.1 28.75C26.6 26.35 29.75 24 33.55 21.7C37.35 19.3 41.3 17.1 45.4 15.1C49.6 13 53.45 11.25 56.95 9.85C60.55 8.35 63.3 7.3 65.2 6.7C66.9 6.9 68.45 7.3 69.85 7.89999C71.35 8.4 72.3 9.65 72.7 11.65C73.8 11.25 74.35 10.4 74.35 9.1C74.35 8.4 74.3 7.75 74.2 7.15C74.1 6.45 73.9 5.85 73.6 5.35L74.2 5.05C74.7 5.05 75.6 5.25 76.9 5.65C78.3 5.95 79.8 6.35 81.4 6.84999C83 7.35 84.4 7.85 85.6 8.35C86.9 8.85 87.65 9.3 87.85 9.7L87.25 11.95L84.55 13L83.5 12.55C82.5 12.95 82.05 13.8 82.15 15.1C82.25 16.4 81.95 17.15 81.25 17.35L79.9 16.75V16.9L80.95 19L80.65 19.45L81.1 20.2L80.65 20.35L79.6 19.9C79.2 20.7 78.9 21.85 78.7 23.35C78.5 24.75 77.85 25.5 76.75 25.6C75.65 26.6 74.45 27.9 73.15 29.5C71.85 31 70.35 31.85 68.65 32.05V31.75L69.1 28.75L68.65 28C68.95 26.3 69.35 24.5 69.85 22.6C70.35 20.7 70.9 19.05 71.5 17.65C70.7 16.45 69.75 15.35 68.65 14.35C67.65 13.35 66.4 12.85 64.9 12.85C63.1 12.85 60.6 13.4 57.4 14.5C54.2 15.5 50.7 16.9 46.9 18.7C43.2 20.4 39.7 22.35 36.4 24.55C33.1 26.75 30.45 29 28.45 31.3C26.45 33.6 25.6 35.8 25.9 37.9C25.5 37.6 25.25 37.2 25.15 36.7C25.05 36.2 25 35.7 25 35.2C25 34.7 25 34.2 25 33.7C25.1 33.2 25.2 32.75 25.3 32.35C24.6 33.35 24.25 34.5 24.25 35.8C24.25 38.2 25.25 40.05 27.25 41.35C29.25 42.65 31.85 43.65 35.05 44.35C38.25 45.05 41.65 45.7 45.25 46.3C48.85 46.8 52.25 47.4 55.45 48.1C58.65 48.8 61.25 49.85 63.25 51.25C65.25 52.55 66.25 54.4 66.25 56.8C66.25 58.1 65.95 59.3 65.35 60.4C64.75 61.4 64.2 62.45 63.7 63.55C62.6 63.95 61.9 64.5 61.6 65.2C61.3 65.9 60.85 66.7 60.25 67.6C59.45 67.8 58.4 68.5 57.1 69.7C55.9 70.8 55 71.3 54.4 71.2C54 71.4 53.55 71.7 53.05 72.1C52.65 72.4 52.35 72.8 52.15 73.3L51.7 73C50.6 74.5 48.75 76 46.15 77.5C43.55 79 40.5 80.4 37 81.7C33.6 83 30.1 84.15 26.5 85.15C23 86.25 19.7 87.1 16.6 87.7C13.5 88.3 11 88.6 9.1 88.6ZM67 34.75L67.75 32.5L68.5 33.1L67 34.75ZM58 53.5L58.3 52.75L57.85 52.15L56.95 52.6L58 53.5ZM64.6 59.05V58.75L63.7 57.4L63.55 58.15V58.75L64.6 59.05ZM61.75 61.6L62.8 61L62.95 59.65L62.8 58.3C61.8 59.3 61.25 60.35 61.15 61.45L61.75 61.6ZM61.9 63.7L63.4 62.05V61.9L61 62.65L61.3 63.55L61.9 63.7ZM57.7 66.4L59.35 66.25L60.55 63.85L58.75 65.5L58.15 64.9L57.7 66.25V66.4ZM99.2594 87.85L97.0094 84.25C96.9094 83.65 96.7094 83.05 96.4094 82.45C96.2094 81.85 96.1094 81.2 96.1094 80.5C96.1094 79.5 96.1594 78.6 96.2594 77.8C96.3594 76.9 96.4594 75.95 96.5594 74.95L97.6094 72.55L97.4594 72.25C97.6594 71.85 97.8094 71.45 97.9094 71.05C98.1094 70.55 98.2594 70.1 98.3594 69.7L97.7594 69.25C97.0594 69.25 96.0594 69.95 94.7594 71.35C93.5594 72.65 92.1594 73.95 90.5594 75.25C89.0594 76.55 87.3094 77.2 85.3094 77.2C84.0094 77.2 82.8094 76.8 81.7094 76C80.6094 75.2 80.1094 74 80.2094 72.4L80.0594 72.1C81.1594 70.1 82.1094 68.05 82.9094 65.95C83.7094 63.85 84.5594 61.8 85.4594 59.8L84.5594 58.15L84.1094 58.3L83.3594 58L81.8594 59.5L79.7594 59.95L80.0594 60.7H79.7594L78.2594 61.15L77.9594 61.75H77.0594L76.9094 62.65C76.4094 63.15 75.8594 63.7 75.2594 64.3C74.6594 64.9 73.9594 65.25 73.1594 65.35L64.1594 73.9L64.0094 73.45C64.0094 72.75 64.2594 72.2 64.7594 71.8C65.2594 71.3 65.7094 70.85 66.1094 70.45L66.2594 70.15L66.7094 69.85L66.8594 70L67.3094 68.95H67.1594C67.3594 68.75 67.5594 68.5 67.7594 68.2C68.0594 67.8 68.4094 67.6 68.8094 67.6H69.1094C69.1094 67.6 69.1094 67.5 69.1094 67.3C69.7094 66.4 70.5094 65.6 71.5094 64.9H71.9594L72.4094 64.45L72.2594 64.15L73.7594 63.55C73.6594 62.55 74.4594 61.45 76.1594 60.25C77.8594 59.05 79.7094 58 81.7094 57.1C83.7094 56.1 85.1094 55.6 85.9094 55.6C87.0094 55.6 88.3094 55.9 89.8094 56.5C91.3094 57 92.0594 57.95 92.0594 59.35C92.0594 62.15 91.5594 64.4 90.5594 66.1C89.5594 67.8 89.0094 68.9 88.9094 69.4L89.3594 69.7C90.5594 69.7 91.5094 69.35 92.2094 68.65C92.9094 67.85 93.6094 67.05 94.3094 66.25C95.1094 65.45 96.0594 65 97.1594 64.9C97.0594 64.8 97.1094 64.75 97.3094 64.75C97.5094 64.65 97.6094 64.7 97.6094 64.9C98.0094 64.2 98.9094 63.1 100.309 61.6C101.709 60 103.159 58.5 104.659 57.1C106.159 55.7 107.209 55 107.809 55C108.909 55 110.159 55.4 111.559 56.2C112.959 57 113.659 58 113.659 59.2C113.659 59.7 113.259 60.65 112.459 62.05C111.759 63.35 110.909 64.75 109.909 66.25C108.909 67.75 107.909 69.1 106.909 70.3C106.009 71.4 105.309 72.05 104.809 72.25C103.909 73.85 102.659 75.7 101.059 77.8C99.5594 79.8 98.8094 81.8 98.8094 83.8C98.8094 84.5 98.9094 85.15 99.1094 85.75C99.3094 86.35 99.4094 86.95 99.4094 87.55L99.2594 87.85ZM118.66 78.85C117.66 78.95 116.81 78.55 116.11 77.65C115.51 76.65 115.21 75.65 115.21 74.65C115.21 74.05 115.31 73.45 115.51 72.85C115.71 72.15 115.91 71.55 116.11 71.05C116.31 71.15 116.41 71.15 116.41 71.05C116.51 70.85 116.61 70.7 116.71 70.6L116.56 68.95C116.76 68.75 117.01 68.3 117.31 67.6C117.71 66.8 117.96 66.3 118.06 66.1V65.95H118.21L118.81 66.25C119.31 65.45 119.86 64.65 120.46 63.85C121.06 63.05 121.26 62.15 121.06 61.15L123.16 58.3V58.15C123.16 57.55 123.41 56.9 123.91 56.2C124.51 55.4 124.81 54.85 124.81 54.55C124.81 53.75 124.46 53.35 123.76 53.35C123.46 53.35 123.11 53.4 122.71 53.5C122.41 53.6 122.11 53.7 121.81 53.8L121.66 53.05L127.66 47.2V46.9C128.76 46.1 129.76 45.25 130.66 44.35C131.56 43.45 132.61 42.65 133.81 41.95C134.91 42.05 136.01 42.3 137.11 42.7C138.31 43.1 139.21 43.75 139.81 44.65L139.96 46.6V46.75C139.86 47.15 139.11 48.2 137.71 49.9C136.31 51.6 134.66 53.5 132.76 55.6C130.86 57.6 129.06 59.5 127.36 61.3C125.76 63.1 124.66 64.3 124.06 64.9L123.61 67.6C122.81 67.7 122.11 68.25 121.51 69.25C120.91 70.15 120.66 71 120.76 71.8C120.46 71.9 120.31 72.15 120.31 72.55C120.31 72.85 120.21 73 120.01 73C119.91 73.4 119.81 73.75 119.71 74.05C119.71 74.35 119.71 74.7 119.71 75.1V75.85C120.51 74.35 121.91 72.35 123.91 69.85C125.91 67.35 128.16 64.85 130.66 62.35C133.26 59.75 135.81 57.6 138.31 55.9C140.81 54.1 142.91 53.2 144.61 53.2C145.81 53.2 146.61 53.95 147.01 55.45C146.71 57.35 146.21 59.25 145.51 61.15C144.81 62.95 144.46 64.85 144.46 66.85L144.76 67.45L148.36 64.9L148.66 64.45L150.91 62.8C151.61 61.7 152.81 60.25 154.51 58.45C156.21 56.65 158.01 55.05 159.91 53.65C161.81 52.15 163.36 51.4 164.56 51.4C164.46 51.2 164.61 51.1 165.01 51.1C166.71 51.1 167.81 51.5 168.31 52.3C168.81 53.1 169.06 54.25 169.06 55.75C169.06 57.25 168.66 58.65 167.86 59.95C167.16 61.15 166.81 62.45 166.81 63.85C166.81 65.15 167.16 66.55 167.86 68.05C168.56 69.55 169.66 70.3 171.16 70.3C171.66 70.3 172.11 70.2 172.51 70C172.91 69.7 173.36 69.6 173.86 69.7C174.66 68.9 175.51 68.2 176.41 67.6C177.41 66.9 178.41 66.25 179.41 65.65L180.31 66.25C180.01 66.85 179.21 67.7 177.91 68.8C176.71 69.8 175.26 70.85 173.56 71.95C171.96 72.95 170.41 73.85 168.91 74.65C167.51 75.35 166.46 75.7 165.76 75.7C163.56 75.7 162.01 74.85 161.11 73.15C160.31 71.35 159.76 69.3 159.46 67C159.16 64.7 158.66 62.85 157.96 61.45L157.21 60.85C156.41 61.35 155.16 62.2 153.46 63.4C151.86 64.5 150.86 65.45 150.46 66.25C149.26 66.65 148.21 67.5 147.31 68.8C146.51 70 145.71 71.35 144.91 72.85C144.11 74.25 143.21 75.5 142.21 76.6C141.21 77.7 139.91 78.25 138.31 78.25C137.61 78.25 136.96 78.1 136.36 77.8C135.86 77.5 135.61 76.95 135.61 76.15C135.61 74.45 135.91 72.9 136.51 71.5C137.21 70 137.86 68.5 138.46 67C139.16 65.5 139.51 63.9 139.51 62.2L138.61 60.85C137.41 60.85 135.91 61.55 134.11 62.95C132.31 64.25 130.41 65.9 128.41 67.9C126.51 69.8 124.76 71.7 123.16 73.6C121.66 75.5 120.61 76.95 120.01 77.95V78.7L118.66 78.85ZM177.254 78.85C176.254 78.95 175.404 78.55 174.704 77.65C174.104 76.65 173.804 75.65 173.804 74.65C173.804 74.05 173.904 73.45 174.104 72.85C174.304 72.15 174.504 71.55 174.704 71.05C174.904 71.15 175.004 71.15 175.004 71.05C175.104 70.85 175.204 70.7 175.304 70.6L175.154 68.95C175.354 68.75 175.604 68.3 175.904 67.6C176.304 66.8 176.554 66.3 176.654 66.1V65.95H176.804L177.404 66.25C177.904 65.45 178.454 64.65 179.054 63.85C179.654 63.05 179.854 62.15 179.654 61.15L181.754 58.3V58.15C181.754 57.55 182.004 56.9 182.504 56.2C183.104 55.4 183.404 54.85 183.404 54.55C183.404 53.75 183.054 53.35 182.354 53.35C182.054 53.35 181.704 53.4 181.304 53.5C181.004 53.6 180.704 53.7 180.404 53.8L180.254 53.05L186.254 47.2V46.9C187.354 46.1 188.354 45.25 189.254 44.35C190.154 43.45 191.204 42.65 192.404 41.95C193.504 42.05 194.604 42.3 195.704 42.7C196.904 43.1 197.804 43.75 198.404 44.65L198.554 46.6V46.75C198.454 47.15 197.704 48.2 196.304 49.9C194.904 51.6 193.254 53.5 191.354 55.6C189.454 57.6 187.654 59.5 185.954 61.3C184.354 63.1 183.254 64.3 182.654 64.9L182.204 67.6C181.404 67.7 180.704 68.25 180.104 69.25C179.504 70.15 179.254 71 179.354 71.8C179.054 71.9 178.904 72.15 178.904 72.55C178.904 72.85 178.804 73 178.604 73C178.504 73.4 178.404 73.75 178.304 74.05C178.304 74.35 178.304 74.7 178.304 75.1V75.85C179.104 74.35 180.504 72.35 182.504 69.85C184.504 67.35 186.754 64.85 189.254 62.35C191.854 59.75 194.404 57.6 196.904 55.9C199.404 54.1 201.504 53.2 203.204 53.2C204.404 53.2 205.204 53.95 205.604 55.45C205.304 57.35 204.804 59.25 204.104 61.15C203.404 62.95 203.054 64.85 203.054 66.85L203.354 67.45L206.954 64.9L207.254 64.45L209.504 62.8C210.204 61.7 211.404 60.25 213.104 58.45C214.804 56.65 216.604 55.05 218.504 53.65C220.404 52.15 221.954 51.4 223.154 51.4C223.054 51.2 223.204 51.1 223.604 51.1C225.304 51.1 226.404 51.5 226.904 52.3C227.404 53.1 227.654 54.25 227.654 55.75C227.654 57.25 227.254 58.65 226.454 59.95C225.754 61.15 225.404 62.45 225.404 63.85C225.404 65.15 225.754 66.55 226.454 68.05C227.154 69.55 228.254 70.3 229.754 70.3C230.254 70.3 230.704 70.2 231.104 70C231.504 69.7 231.954 69.6 232.454 69.7C233.254 68.9 234.104 68.2 235.004 67.6C236.004 66.9 237.004 66.25 238.004 65.65L238.904 66.25C238.604 66.85 237.804 67.7 236.504 68.8C235.304 69.8 233.854 70.85 232.154 71.95C230.554 72.95 229.004 73.85 227.504 74.65C226.104 75.35 225.054 75.7 224.354 75.7C222.154 75.7 220.604 74.85 219.704 73.15C218.904 71.35 218.354 69.3 218.054 67C217.754 64.7 217.254 62.85 216.554 61.45L215.804 60.85C215.004 61.35 213.754 62.2 212.054 63.4C210.454 64.5 209.454 65.45 209.054 66.25C207.854 66.65 206.804 67.5 205.904 68.8C205.104 70 204.304 71.35 203.504 72.85C202.704 74.25 201.804 75.5 200.804 76.6C199.804 77.7 198.504 78.25 196.904 78.25C196.204 78.25 195.554 78.1 194.954 77.8C194.454 77.5 194.204 76.95 194.204 76.15C194.204 74.45 194.504 72.9 195.104 71.5C195.804 70 196.454 68.5 197.054 67C197.754 65.5 198.104 63.9 198.104 62.2L197.204 60.85C196.004 60.85 194.504 61.55 192.704 62.95C190.904 64.25 189.004 65.9 187.004 67.9C185.104 69.8 183.354 71.7 181.754 73.6C180.254 75.5 179.204 76.95 178.604 77.95V78.7L177.254 78.85ZM241.247 80.05C240.347 80.05 239.247 79.45 237.947 78.25C236.747 77.05 235.747 76.15 234.947 75.55C234.747 74.25 234.397 73.1 233.897 72.1C233.397 71 233.147 69.85 233.147 68.65C233.147 66.85 233.797 64.75 235.097 62.35C236.497 59.85 238.247 57.4 240.347 55C242.547 52.6 244.747 50.6 246.947 49C249.247 47.4 251.297 46.6 253.097 46.6V46.3C254.497 46.6 255.797 47.5 256.997 49C258.297 50.5 258.947 51.9 258.947 53.2C258.947 54.4 258.197 55.65 256.697 56.95C255.297 58.15 253.547 59.3 251.447 60.4C249.447 61.4 247.447 62.2 245.447 62.8C243.547 63.4 242.047 63.7 240.947 63.7V64C240.247 65.1 239.547 66.5 238.847 68.2C238.247 69.8 237.947 71.3 237.947 72.7C237.947 73.2 238.097 73.75 238.397 74.35C239.097 74.85 239.997 75.1 241.097 75.1C242.197 75 243.097 75 243.797 75.1L243.947 75.25L244.397 74.5C245.697 74.4 246.947 74.1 248.147 73.6V72.7H249.047V72.25L249.647 72.4C250.147 72.2 250.497 72 250.697 71.8C250.997 71.5 251.347 71.25 251.747 71.05L252.647 71.5V71.35L255.347 68.8H255.497L255.947 69.1V68.95C257.247 67.75 258.647 66.65 260.147 65.65C261.647 64.65 262.747 63.35 263.447 61.75L265.097 60.55L265.397 60.85C265.397 61.55 265.147 62.2 264.647 62.8C264.147 63.4 263.547 63.8 262.847 64C262.047 65.9 260.847 67.5 259.247 68.8C257.747 70.1 256.197 71.45 254.597 72.85H254.147L253.997 73.6C252.097 74.9 250.097 76.3 247.997 77.8C245.997 79.3 243.747 80.05 241.247 80.05ZM244.097 60.85H244.397V60.55C245.097 60.35 246.297 59.75 247.997 58.75C249.797 57.75 251.497 56.7 253.097 55.6C254.697 54.4 255.547 53.55 255.647 53.05H255.797L255.647 52.3L255.797 51.55C255.697 51.55 255.497 51.55 255.197 51.55C254.897 51.45 254.647 51.4 254.447 51.4C253.147 52.3 251.847 53.15 250.547 53.95C249.247 54.75 247.947 55.55 246.647 56.35H246.347L246.197 57.55C245.597 57.95 245.147 58.45 244.847 59.05C244.547 59.55 244.297 60.15 244.097 60.85ZM266.897 60.4L265.997 60.1L265.847 59.2L267.347 58.75L267.497 59.2L266.897 60.4ZM281.471 77.5C279.971 77.5 278.821 76.9 278.021 75.7L274.571 74.05C274.171 73.15 273.971 72.05 273.971 70.75C273.971 68.65 274.471 66.4 275.471 64C276.571 61.5 277.621 59.4 278.621 57.7C277.921 57.3 277.321 56.8 276.821 56.2C276.321 55.6 275.821 55 275.321 54.4L274.871 54.1C274.471 54.5 274.021 54.85 273.521 55.15C273.021 55.45 272.521 55.65 272.021 55.75C271.121 56.65 269.821 58.15 268.121 60.25C266.421 62.25 264.571 64.35 262.571 66.55C260.571 68.65 258.621 70.5 256.721 72.1C254.921 73.7 253.471 74.5 252.371 74.5L252.221 74.2C252.321 73.6 252.771 72.95 253.571 72.25C254.471 71.45 255.121 70.85 255.521 70.45C255.721 69.65 256.221 68.95 257.021 68.35C257.821 67.75 258.571 67.3 259.271 67H259.421L260.321 65.65L261.071 65.2L260.921 65.05L261.971 64.3C262.171 63.8 262.471 63.35 262.871 62.95C263.271 62.55 263.621 62.15 263.921 61.75V61.45C266.121 59.75 268.121 57.9 269.921 55.9C271.821 53.8 273.771 51.75 275.771 49.75L275.921 49.6L275.771 48.7C275.771 47.6 276.021 46.4 276.521 45.1C277.121 43.7 277.771 42.65 278.471 41.95C279.171 40.95 280.021 39.9 281.021 38.8C282.121 37.6 283.321 37 284.621 37C285.621 37 286.221 37.5 286.421 38.5C286.621 39.4 286.721 40.2 286.721 40.9C286.721 43.4 286.071 45.35 284.771 46.75C283.471 48.05 282.121 49.05 280.721 49.75C279.421 50.45 278.771 51.2 278.771 52L281.171 53.05L282.071 52.3L282.221 52.45H282.521C283.121 52.15 283.721 51.9 284.321 51.7C284.921 51.4 285.571 51.25 286.271 51.25C286.871 51.25 287.471 51.45 288.071 51.85C288.671 52.15 289.171 52.45 289.571 52.75L289.721 54.1C289.821 55 289.421 56 288.521 57.1C287.721 58.1 286.721 59.3 285.521 60.7C284.321 62 283.271 63.6 282.371 65.5C281.471 67.3 281.021 69.4 281.021 71.8C281.021 72.4 281.121 73.05 281.321 73.75C281.621 74.35 282.171 74.65 282.971 74.65C284.171 74.65 285.521 74.2 287.021 73.3C288.521 72.4 290.021 71.4 291.521 70.3C293.021 69.1 294.271 68.2 295.271 67.6L295.871 68.35C295.871 69.05 295.271 69.9 294.071 70.9C292.871 71.9 291.421 72.9 289.721 73.9C288.021 74.9 286.371 75.75 284.771 76.45C283.271 77.15 282.171 77.5 281.471 77.5ZM355.465 89.5C352.365 89.5 349.365 88.45 346.465 86.35C343.565 84.35 341.015 81.85 338.815 78.85C336.715 75.85 335.065 73.05 333.865 70.45C332.065 69.05 331.165 67.2 331.165 64.9C330.465 63.9 330.115 62.75 330.115 61.45C330.115 60.65 330.215 59.9 330.415 59.2C330.615 58.4 330.815 57.65 331.015 56.95C330.415 55.45 330.115 53.85 330.115 52.15C330.115 50.75 330.565 48.8 331.465 46.3C332.465 43.8 333.615 41.15 334.915 38.35C336.315 35.45 337.715 32.8 339.115 30.4C340.515 28 341.665 26.25 342.565 25.15C345.265 21.95 348.515 18.9 352.315 16C356.215 13.1 360.415 10.5 364.915 8.2C369.415 5.89999 373.965 4.1 378.565 2.8C383.265 1.5 387.715 0.849996 391.915 0.849996C392.415 0.849996 392.865 1.05 393.265 1.45C392.065 2.54999 390.065 3.49999 387.265 4.3C384.565 5.1 381.365 6.1 377.665 7.3C373.965 8.4 370.115 10.05 366.115 12.25C362.215 14.45 358.515 17.5 355.015 21.4C353.415 23 352.065 24.8 350.965 26.8C349.865 28.8 348.615 30.75 347.215 32.65L347.365 33.7C345.765 35.3 344.315 37.5 343.015 40.3C341.815 43 340.815 45.8 340.015 48.7C339.215 51.6 338.765 54.25 338.665 56.65L337.165 57.25C337.365 57.95 337.615 58.75 337.915 59.65C338.215 60.55 338.365 61.4 338.365 62.2C338.365 62.7 338.315 63.1 338.215 63.4C339.315 68.1 340.465 71.85 341.665 74.65C342.865 77.45 344.615 79.85 346.915 81.85C349.315 83.95 352.615 86.2 356.815 88.6L355.465 89.5ZM345.565 27.85L345.865 27.55V27.25L344.515 26.05L344.965 27.7L345.565 27.85ZM332.965 67.75L333.565 67.3L332.965 66.25L332.815 66.85L332.965 67.75ZM336.265 71.5L337.315 70.3L337.165 69.4L335.665 68.2C335.565 68.7 335.515 69.25 335.515 69.85C335.515 70.35 335.515 70.85 335.515 71.35L336.265 71.5ZM338.832 111.4C334.732 111.4 331.532 110.35 329.232 108.25C326.832 106.15 325.132 103.45 324.132 100.15C323.132 96.85 322.632 93.45 322.632 89.95C322.632 89.35 322.832 88.7 323.232 88C323.532 87.3 324.032 86.95 324.732 86.95L325.182 87.1C324.882 87.5 324.732 87.9 324.732 88.3C324.632 88.7 324.582 89.15 324.582 89.65C324.582 92.25 325.282 94.65 326.682 96.85C328.082 99.05 329.932 100.8 332.232 102.1C334.532 103.4 336.982 104.05 339.582 104.05C345.782 104.05 351.332 102.7 356.232 100C361.232 97.4 365.882 93.95 370.182 89.65C371.582 88.25 373.282 85.95 375.282 82.75C377.382 79.65 379.582 76.05 381.882 71.95C384.182 67.85 386.432 63.55 388.632 59.05C390.932 54.45 392.982 50 394.782 45.7C396.682 41.4 398.182 37.5 399.282 34C400.482 30.5 401.082 27.8 401.082 25.9L399.432 28.3V27.85C400.032 26.35 400.632 24.85 401.232 23.35C401.832 21.85 402.332 20.35 402.732 18.85C397.932 19.05 393.132 19.75 388.332 20.95C383.632 22.05 379.232 23.8 375.132 26.2L375.882 27.1L371.682 30.55C370.382 30.85 369.432 31.6 368.832 32.8C368.332 33.9 367.982 35.05 367.782 36.25L367.182 36.55V37.9C367.182 39.1 367.532 39.9 368.232 40.3C368.932 40.6 369.782 40.75 370.782 40.75C371.182 40.75 371.582 40.75 371.982 40.75C372.382 40.75 372.782 40.7 373.182 40.6V40.9L371.832 42.55L371.382 42.7C368.782 42.7 366.682 41.9 365.082 40.3C363.482 38.7 362.632 36.6 362.532 34C363.332 32.9 363.782 32.15 363.882 31.75C364.082 31.35 364.232 30.95 364.332 30.55C364.432 30.15 364.782 29.55 365.382 28.75C365.982 27.95 367.132 26.7 368.832 25C369.532 24.7 370.132 24.25 370.632 23.65C371.132 23.05 371.732 22.7 372.432 22.6V24.4C372.932 24.1 373.482 23.75 374.082 23.35C374.682 22.95 374.982 22.4 374.982 21.7L378.282 20.35L379.032 20.8L379.182 20.65L378.582 19.6C382.582 18.5 386.582 17.6 390.582 16.9C394.682 16.1 398.732 15.5 402.732 15.1L403.032 14.65L403.332 11.5L404.232 10.45L404.082 9.4L405.582 7.6V7.3L403.332 5.65C404.432 5.25 405.632 4.9 406.932 4.6C408.232 4.2 409.382 3.65 410.382 2.95C411.582 3.25 412.882 3.4 414.282 3.4C415.682 3.3 416.882 3.65 417.882 4.45C417.782 5.85 417.582 7.25 417.282 8.65C417.082 9.95 416.782 11.3 416.382 12.7L413.682 13.9C414.582 14 415.982 14.2 417.882 14.5C419.882 14.7 421.882 15.05 423.882 15.55C425.982 16.05 427.782 16.7 429.282 17.5C430.782 18.2 431.532 19.15 431.532 20.35C431.532 20.65 431.482 20.95 431.382 21.25C431.282 21.45 431.232 21.65 431.232 21.85C429.532 20.05 427.482 18.85 425.082 18.25C422.682 17.55 420.282 17.3 417.882 17.5L414.732 17.65C413.832 22.75 412.182 28.15 409.782 33.85C407.382 39.45 404.632 44.95 401.532 50.35C398.532 55.75 395.532 60.65 392.532 65.05C391.832 66.05 390.882 67.15 389.682 68.35C388.582 69.55 387.882 70.7 387.582 71.8C387.082 72 386.482 72.9 385.782 74.5C385.082 76.1 384.382 77.7 383.682 79.3C383.082 81 382.582 82.2 382.182 82.9C381.382 83.3 380.632 83.8 379.932 84.4C379.232 85.1 378.632 85.8 378.132 86.5C378.132 87.2 377.332 88.45 375.732 90.25C374.132 92.15 372.182 94.15 369.882 96.25C367.582 98.35 365.432 100.2 363.432 101.8C361.432 103.5 360.032 104.6 359.232 105.1C358.132 106.7 356.432 107.85 354.132 108.55C351.732 109.35 349.582 109.85 347.682 110.05L346.932 109.6L347.382 109L346.782 108.7L345.582 109.3L344.232 109L343.482 109.45L344.682 110.8C343.682 111 342.732 111.15 341.832 111.25C340.832 111.35 339.832 111.4 338.832 111.4ZM380.982 20.5C381.782 20.3 382.632 20.05 383.532 19.75C384.432 19.35 385.232 18.95 385.932 18.55V18.25C385.532 18.45 385.082 18.65 384.582 18.85C384.182 18.95 383.782 19.05 383.382 19.15L383.232 19L380.532 19.9L380.982 20.5ZM366.282 37.9L366.132 35.8H365.682C365.682 35.9 365.632 36 365.532 36.1C365.532 36.2 365.532 36.35 365.532 36.55C365.532 37.15 365.782 37.6 366.282 37.9ZM434.709 87.85L432.459 84.25C432.359 83.65 432.159 83.05 431.859 82.45C431.659 81.85 431.559 81.2 431.559 80.5C431.559 79.5 431.609 78.6 431.709 77.8C431.809 76.9 431.909 75.95 432.009 74.95L433.059 72.55L432.909 72.25C433.109 71.85 433.259 71.45 433.359 71.05C433.559 70.55 433.709 70.1 433.809 69.7L433.209 69.25C432.509 69.25 431.509 69.95 430.209 71.35C429.009 72.65 427.609 73.95 426.009 75.25C424.509 76.55 422.759 77.2 420.759 77.2C419.459 77.2 418.259 76.8 417.159 76C416.059 75.2 415.559 74 415.659 72.4L415.509 72.1C416.609 70.1 417.559 68.05 418.359 65.95C419.159 63.85 420.009 61.8 420.909 59.8L420.009 58.15L419.559 58.3L418.809 58L417.309 59.5L415.209 59.95L415.509 60.7H415.209L413.709 61.15L413.409 61.75H412.509L412.359 62.65C411.859 63.15 411.309 63.7 410.709 64.3C410.109 64.9 409.409 65.25 408.609 65.35L399.609 73.9L399.459 73.45C399.459 72.75 399.709 72.2 400.209 71.8C400.709 71.3 401.159 70.85 401.559 70.45L401.709 70.15L402.159 69.85L402.309 70L402.759 68.95H402.609C402.809 68.75 403.009 68.5 403.209 68.2C403.509 67.8 403.859 67.6 404.259 67.6H404.559C404.559 67.6 404.559 67.5 404.559 67.3C405.159 66.4 405.959 65.6 406.959 64.9H407.409L407.859 64.45L407.709 64.15L409.209 63.55C409.109 62.55 409.909 61.45 411.609 60.25C413.309 59.05 415.159 58 417.159 57.1C419.159 56.1 420.559 55.6 421.359 55.6C422.459 55.6 423.759 55.9 425.259 56.5C426.759 57 427.509 57.95 427.509 59.35C427.509 62.15 427.009 64.4 426.009 66.1C425.009 67.8 424.459 68.9 424.359 69.4L424.809 69.7C426.009 69.7 426.959 69.35 427.659 68.65C428.359 67.85 429.059 67.05 429.759 66.25C430.559 65.45 431.509 65 432.609 64.9C432.509 64.8 432.559 64.75 432.759 64.75C432.959 64.65 433.059 64.7 433.059 64.9C433.459 64.2 434.359 63.1 435.759 61.6C437.159 60 438.609 58.5 440.109 57.1C441.609 55.7 442.659 55 443.259 55C444.359 55 445.609 55.4 447.009 56.2C448.409 57 449.109 58 449.109 59.2C449.109 59.7 448.709 60.65 447.909 62.05C447.209 63.35 446.359 64.75 445.359 66.25C444.359 67.75 443.359 69.1 442.359 70.3C441.459 71.4 440.759 72.05 440.259 72.25C439.359 73.85 438.109 75.7 436.509 77.8C435.009 79.8 434.259 81.8 434.259 83.8C434.259 84.5 434.359 85.15 434.559 85.75C434.759 86.35 434.859 86.95 434.859 87.55L434.709 87.85ZM453.059 80.8C451.959 80.8 451.159 80.3 450.659 79.3C450.259 78.4 450.059 77.5 450.059 76.6C450.059 74 450.659 71.3 451.859 68.5C453.159 65.7 454.409 63.15 455.609 60.85C456.909 58.45 457.559 56.6 457.559 55.3C457.559 54.7 457.209 54.4 456.509 54.4C456.209 54.4 455.759 54.5 455.159 54.7V54.1L458.759 49.9V49.75C459.259 49.25 459.709 48.75 460.109 48.25C460.509 47.75 460.909 47.3 461.309 46.9L462.659 46C463.759 46.1 464.809 46.4 465.809 46.9C466.909 47.3 467.609 48.15 467.909 49.45L467.759 49.6C467.859 50.4 467.509 51.25 466.709 52.15C465.909 53.05 465.209 53.75 464.609 54.25C464.009 55.35 463.309 56.4 462.509 57.4C461.809 58.3 461.159 59.3 460.559 60.4V61.9L459.959 63.1H459.659C459.359 63.7 459.059 64.35 458.759 65.05C458.559 65.75 458.459 66.5 458.459 67.3L459.209 68.5C459.509 68.2 460.059 67.75 460.859 67.15C461.759 66.45 462.559 65.75 463.259 65.05C463.959 64.35 464.309 63.85 464.309 63.55L465.959 62.05C466.459 60.55 467.559 58.95 469.259 57.25C470.959 55.45 472.409 54.05 473.609 53.05L474.059 51.85C474.659 51.55 475.259 51.2 475.859 50.8C476.559 50.4 477.259 50.2 477.959 50.2C478.759 50.2 479.459 50.4 480.059 50.8C480.759 51.2 481.459 51.6 482.159 52C482.159 52.4 482.159 52.9 482.159 53.5C482.259 54 482.309 54.5 482.309 55C482.309 56.6 481.859 58.1 480.959 59.5C480.059 60.9 479.159 62.35 478.259 63.85C477.359 65.35 476.909 67.2 476.909 69.4C476.909 69.7 476.909 70.4 476.909 71.5C477.009 72.5 477.159 73.5 477.359 74.5C477.659 75.4 478.109 75.85 478.709 75.85L483.509 73.3H483.809C484.009 72.7 484.359 72.15 484.859 71.65C485.459 71.15 486.109 70.9 486.809 70.9L486.959 71.05C486.959 71.55 486.509 72.3 485.609 73.3C484.809 74.3 483.909 75.25 482.909 76.15C482.009 77.05 481.359 77.7 480.959 78.1C480.559 78.2 480.109 78.3 479.609 78.4C479.109 78.4 478.609 78.5 478.109 78.7L477.659 77.95C475.459 77.75 473.609 77 472.109 75.7C470.709 74.3 470.009 72.5 470.009 70.3C470.009 69.6 470.159 68.35 470.459 66.55C470.759 64.65 471.109 62.8 471.509 61C472.009 59.2 472.359 57.95 472.559 57.25C471.359 58.05 470.209 59.3 469.109 61C468.009 62.6 467.009 63.95 466.109 65.05C465.109 65.45 464.059 66.5 462.959 68.2C461.959 69.8 460.909 71.6 459.809 73.6C458.709 75.5 457.609 77.2 456.509 78.7C455.409 80.1 454.259 80.8 453.059 80.8ZM492.175 80.05C491.275 80.05 490.175 79.45 488.875 78.25C487.675 77.05 486.675 76.15 485.875 75.55C485.675 74.25 485.325 73.1 484.825 72.1C484.325 71 484.075 69.85 484.075 68.65C484.075 66.85 484.725 64.75 486.025 62.35C487.425 59.85 489.175 57.4 491.275 55C493.475 52.6 495.675 50.6 497.875 49C500.175 47.4 502.225 46.6 504.025 46.6V46.3C505.425 46.6 506.725 47.5 507.925 49C509.225 50.5 509.875 51.9 509.875 53.2C509.875 54.4 509.125 55.65 507.625 56.95C506.225 58.15 504.475 59.3 502.375 60.4C500.375 61.4 498.375 62.2 496.375 62.8C494.475 63.4 492.975 63.7 491.875 63.7V64C491.175 65.1 490.475 66.5 489.775 68.2C489.175 69.8 488.875 71.3 488.875 72.7C488.875 73.2 489.025 73.75 489.325 74.35C490.025 74.85 490.925 75.1 492.025 75.1C493.125 75 494.025 75 494.725 75.1L494.875 75.25L495.325 74.5C496.625 74.4 497.875 74.1 499.075 73.6V72.7H499.975V72.25L500.575 72.4C501.075 72.2 501.425 72 501.625 71.8C501.925 71.5 502.275 71.25 502.675 71.05L503.575 71.5V71.35L506.275 68.8H506.425L506.875 69.1V68.95C508.175 67.75 509.575 66.65 511.075 65.65C512.575 64.65 513.675 63.35 514.375 61.75L516.025 60.55L516.325 60.85C516.325 61.55 516.075 62.2 515.575 62.8C515.075 63.4 514.475 63.8 513.775 64C512.975 65.9 511.775 67.5 510.175 68.8C508.675 70.1 507.125 71.45 505.525 72.85H505.075L504.925 73.6C503.025 74.9 501.025 76.3 498.925 77.8C496.925 79.3 494.675 80.05 492.175 80.05ZM495.025 60.85H495.325V60.55C496.025 60.35 497.225 59.75 498.925 58.75C500.725 57.75 502.425 56.7 504.025 55.6C505.625 54.4 506.475 53.55 506.575 53.05H506.725L506.575 52.3L506.725 51.55C506.625 51.55 506.425 51.55 506.125 51.55C505.825 51.45 505.575 51.4 505.375 51.4C504.075 52.3 502.775 53.15 501.475 53.95C500.175 54.75 498.875 55.55 497.575 56.35H497.275L497.125 57.55C496.525 57.95 496.075 58.45 495.775 59.05C495.475 59.55 495.225 60.15 495.025 60.85ZM517.825 60.4L516.925 60.1L516.775 59.2L518.275 58.75L518.425 59.2L517.825 60.4ZM530.828 57.7C530.128 57 529.378 55.85 528.578 54.25C527.778 52.65 527.378 51.35 527.378 50.35V48.85L527.678 49.3C529.678 49.2 531.728 49.1 533.828 49C535.928 48.8 537.928 48.7 539.828 48.7L545.978 48.85L546.878 49.3C547.678 49 549.078 48.85 551.078 48.85C553.178 48.85 554.728 48.8 555.728 48.7L556.028 49.45C555.328 49.85 554.628 50.35 553.928 50.95C553.228 51.55 552.728 52.25 552.428 53.05L551.678 52.3C551.078 53.4 550.228 54.05 549.128 54.25C548.128 54.45 547.578 54.95 547.478 55.75L545.228 56.05L543.728 55.45C542.728 55.65 541.678 55.8 540.578 55.9C539.578 56 538.528 56.05 537.428 56.05C536.928 56.05 536.378 56.05 535.778 56.05C535.178 56.05 534.628 56 534.128 55.9L532.928 56.5L532.478 56.2L530.828 57.7ZM557.228 49.45V48.7L558.278 48.85L557.978 49.45H557.228ZM542.141 98.2C541.141 97.7 540.591 96.9 540.491 95.8C540.391 94.7 540.091 93.75 539.591 92.95L541.241 87.4L543.041 88.6H543.341L544.841 87.25L546.041 87.1L546.941 86.35C552.441 84.95 557.741 83.1 562.841 80.8H563.141C562.441 81.6 561.541 82.55 560.441 83.65C559.341 84.75 558.291 85.55 557.291 86.05L556.541 87.4L557.441 87.85C558.641 87.85 560.441 87.1 562.841 85.6C565.341 84.1 568.091 82.2 571.091 79.9C574.091 77.6 577.091 75.2 580.091 72.7C583.091 70.1 585.741 67.75 588.041 65.65C590.441 63.55 592.191 61.95 593.291 60.85C591.991 61.15 590.641 61.5 589.241 61.9C587.941 62.3 586.591 62.6 585.191 62.8C584.691 63.3 584.141 64 583.541 64.9C582.941 65.8 582.191 66.25 581.291 66.25C580.291 66.25 579.141 66 577.841 65.5C576.641 64.9 576.041 63.95 576.041 62.65C576.041 61.65 576.641 60.45 577.841 59.05C579.141 57.65 580.291 56.95 581.291 56.95L581.591 57.85C582.791 57.95 583.991 58.05 585.191 58.15C586.391 58.15 587.591 58.15 588.791 58.15L590.291 57.7L591.641 58.15C592.441 57.45 593.341 57.05 594.341 56.95C595.441 56.85 596.491 56.8 597.491 56.8C599.091 55.2 601.241 53.05 603.941 50.35C606.641 47.65 609.441 44.75 612.341 41.65C615.241 38.45 617.791 35.4 619.991 32.5C622.191 29.6 623.641 27.2 624.341 25.3L624.641 24.85L624.791 25C626.091 23.1 626.991 21 627.491 18.7C627.991 16.4 628.641 14.25 629.441 12.25V12.4C629.541 12.2 629.691 11.85 629.891 11.35C630.091 10.85 630.191 10.5 630.191 10.3C630.191 8.69999 629.741 7.25 628.841 5.95C628.841 5.35 629.241 4.64999 630.041 3.84999C630.841 2.94999 631.741 2.19999 632.741 1.6C633.741 0.899998 634.541 0.55 635.141 0.55C635.641 0.55 635.891 0.649998 635.891 0.849996L636.041 4.6C636.241 8.3 635.791 11.4 634.691 13.9C633.591 16.4 632.291 19.25 630.791 22.45V22.15C629.991 23.25 629.341 24.45 628.841 25.75C628.341 27.05 627.741 28.35 627.041 29.65C624.741 33.65 621.991 37.4 618.791 40.9C615.591 44.3 612.491 47.75 609.491 51.25H609.341C608.541 51.25 607.691 51.9 606.791 53.2C605.891 54.4 605.241 55.35 604.841 56.05H604.391L603.191 56.8V56.95C606.391 56.75 609.641 56.5 612.941 56.2C616.241 55.8 619.541 55.55 622.841 55.45L625.241 51.55L625.091 49.9L626.441 48.4C627.041 45.5 627.791 42.65 628.691 39.85C629.691 36.95 630.741 34.1 631.841 31.3V30.7C632.141 30.1 632.591 28.9 633.191 27.1C633.791 25.2 634.341 23.45 634.841 21.85C635.441 20.25 635.891 19.45 636.191 19.45C636.391 18.75 636.641 17.6 636.941 16C637.241 14.4 637.641 12.9 638.141 11.5C638.741 10.1 639.441 9.4 640.241 9.4C642.041 10.2 643.841 10.9 645.641 11.5C647.541 12 649.341 12.65 651.041 13.45L652.391 15.55C652.091 16.55 651.741 17.55 651.341 18.55C651.041 19.55 650.691 20.55 650.291 21.55L649.391 20.5L648.641 21.25C647.741 20.45 646.641 20 645.341 19.9C644.841 20.1 644.391 20.5 643.991 21.1C643.591 21.6 643.291 22.15 643.091 22.75C643.691 22.85 644.291 22.9 644.891 22.9C645.591 22.9 646.291 22.9 646.991 22.9H648.791C648.691 23.4 648.291 23.8 647.591 24.1C646.891 24.3 646.291 24.5 645.791 24.7L644.741 23.8L643.541 25.3L642.641 24.85C642.641 25.95 642.241 26.7 641.441 27.1L639.941 28L639.341 29.65L641.291 30.7L640.841 32.65L639.791 33.25L639.041 33.1C638.641 33.7 638.041 34.95 637.241 36.85C636.441 38.65 635.641 40.65 634.841 42.85C634.141 45.05 633.491 47.1 632.891 49C632.391 50.8 632.141 52.05 632.141 52.75V53.5H634.241C637.241 53.5 640.241 53.25 643.241 52.75C646.241 52.25 649.241 51.85 652.241 51.55L652.841 51.25L653.291 51.55C652.691 53.05 651.441 54 649.541 54.4C647.741 54.8 645.641 55.15 643.241 55.45C640.941 55.65 638.641 56.15 636.341 56.95C634.141 57.75 632.291 59.3 630.791 61.6C629.291 63.8 628.541 67.15 628.541 71.65V72.4L628.691 72.25L630.491 71.5C630.191 73.3 629.991 75.1 629.891 76.9C629.791 78.6 629.741 80.3 629.741 82V88L628.841 89.2C628.341 89.1 627.841 89 627.341 88.9C626.841 88.9 626.341 88.9 625.841 88.9C625.441 88.9 624.991 88.9 624.491 88.9C623.991 89 623.491 89.1 622.991 89.2C622.591 89 622.091 88.8 621.491 88.6C620.991 88.5 620.441 88.55 619.841 88.75C618.941 88.45 617.941 88.05 616.841 87.55L616.091 84.1C616.991 83.6 617.441 82.8 617.441 81.7L616.991 80.8C617.491 78.3 618.041 75.85 618.641 73.45C619.241 71.05 619.841 68.65 620.441 66.25C620.741 65.65 620.991 65.05 621.191 64.45C621.391 63.85 621.491 63.25 621.491 62.65L622.391 61.45L622.691 60.25L622.091 58.3L616.991 58.15C616.991 58.55 616.241 59 614.741 59.5C613.241 60 611.641 60.5 609.941 61C608.341 61.4 607.291 61.75 606.791 62.05C606.391 62.25 605.941 62.55 605.441 62.95C604.941 63.25 604.391 63.35 603.791 63.25L602.141 63.1L601.541 61.75L600.791 62.2H598.091L596.591 63.4H596.741L595.241 64.9H594.941L591.491 67.6L591.641 67.75C588.641 70.55 585.141 73.55 581.141 76.75C577.141 79.85 572.891 82.85 568.391 85.75C563.891 88.75 559.391 91.35 554.891 93.55C550.391 95.75 546.141 97.3 542.141 98.2ZM646.241 18.1L646.391 17.65H646.091L645.791 17.95L646.241 18.1ZM644.441 31L643.841 30.85L644.891 29.35L645.341 30.85L644.441 31ZM638.591 32.5L639.341 31.45L639.191 31L637.691 32.05L638.591 32.5ZM565.391 79.75L565.691 78.85L566.141 79L566.291 79.6L566.141 79.75H565.391ZM677.287 87.85L675.037 84.25C674.937 83.65 674.737 83.05 674.437 82.45C674.237 81.85 674.137 81.2 674.137 80.5C674.137 79.5 674.187 78.6 674.287 77.8C674.387 76.9 674.487 75.95 674.587 74.95L675.637 72.55L675.487 72.25C675.687 71.85 675.837 71.45 675.937 71.05C676.137 70.55 676.287 70.1 676.387 69.7L675.787 69.25C675.087 69.25 674.087 69.95 672.787 71.35C671.587 72.65 670.187 73.95 668.587 75.25C667.087 76.55 665.337 77.2 663.337 77.2C662.037 77.2 660.837 76.8 659.737 76C658.637 75.2 658.137 74 658.237 72.4L658.087 72.1C659.187 70.1 660.137 68.05 660.937 65.95C661.737 63.85 662.587 61.8 663.487 59.8L662.587 58.15L662.137 58.3L661.387 58L659.887 59.5L657.787 59.95L658.087 60.7H657.787L656.287 61.15L655.987 61.75H655.087L654.937 62.65C654.437 63.15 653.887 63.7 653.287 64.3C652.687 64.9 651.987 65.25 651.187 65.35L642.187 73.9L642.037 73.45C642.037 72.75 642.287 72.2 642.787 71.8C643.287 71.3 643.737 70.85 644.137 70.45L644.287 70.15L644.737 69.85L644.887 70L645.337 68.95H645.187C645.387 68.75 645.587 68.5 645.787 68.2C646.087 67.8 646.437 67.6 646.837 67.6H647.137C647.137 67.6 647.137 67.5 647.137 67.3C647.737 66.4 648.537 65.6 649.537 64.9H649.987L650.437 64.45L650.287 64.15L651.787 63.55C651.687 62.55 652.487 61.45 654.187 60.25C655.887 59.05 657.737 58 659.737 57.1C661.737 56.1 663.137 55.6 663.937 55.6C665.037 55.6 666.337 55.9 667.837 56.5C669.337 57 670.087 57.95 670.087 59.35C670.087 62.15 669.587 64.4 668.587 66.1C667.587 67.8 667.037 68.9 666.937 69.4L667.387 69.7C668.587 69.7 669.537 69.35 670.237 68.65C670.937 67.85 671.637 67.05 672.337 66.25C673.137 65.45 674.087 65 675.187 64.9C675.087 64.8 675.137 64.75 675.337 64.75C675.537 64.65 675.637 64.7 675.637 64.9C676.037 64.2 676.937 63.1 678.337 61.6C679.737 60 681.187 58.5 682.687 57.1C684.187 55.7 685.237 55 685.837 55C686.937 55 688.187 55.4 689.587 56.2C690.987 57 691.687 58 691.687 59.2C691.687 59.7 691.287 60.65 690.487 62.05C689.787 63.35 688.937 64.75 687.937 66.25C686.937 67.75 685.937 69.1 684.937 70.3C684.037 71.4 683.337 72.05 682.837 72.25C681.937 73.85 680.687 75.7 679.087 77.8C677.587 79.8 676.837 81.8 676.837 83.8C676.837 84.5 676.937 85.15 677.137 85.75C677.337 86.35 677.437 86.95 677.437 87.55L677.287 87.85ZM692.937 109.75C691.137 109.75 689.337 109.2 687.537 108.1C685.737 107 684.237 105.6 683.037 103.9C681.737 102.2 681.087 100.45 681.087 98.65L681.537 97.75C682.537 98.85 683.287 100.05 683.787 101.35C684.287 102.65 684.987 103.7 685.887 104.5C686.687 105.4 688.137 105.85 690.237 105.85C690.637 105.85 691.037 105.8 691.437 105.7C691.837 105.6 692.237 105.5 692.637 105.4C693.537 105.7 694.887 105.15 696.687 103.75C698.587 102.35 700.487 100.55 702.387 98.35C704.387 96.25 706.087 94.15 707.487 92.05C708.987 90.05 709.787 88.6 709.887 87.7C711.487 85.3 712.987 82.85 714.387 80.35C715.787 77.85 717.187 75.4 718.587 73L718.737 71.05L720.087 70.3L719.787 70.15L720.087 68.8L719.787 67.75C719.387 68.15 718.887 68.5 718.287 68.8C717.687 69 717.137 69.3 716.637 69.7L716.487 71.05C715.087 71.35 713.687 72.05 712.287 73.15C710.987 74.15 709.687 75.15 708.387 76.15C707.087 77.05 705.687 77.5 704.187 77.5C703.487 77.5 702.587 77.45 701.487 77.35C700.487 77.15 699.737 76.85 699.237 76.45C697.937 76.15 696.987 75.8 696.387 75.4C695.787 74.9 695.387 74 695.187 72.7L695.787 70.75L695.337 69.55C695.837 68.05 696.187 66.95 696.387 66.25C696.687 65.55 697.087 64.95 697.587 64.45C698.187 63.85 699.137 63.05 700.437 62.05C700.537 61.55 700.787 61.2 701.187 61C701.687 60.7 702.137 60.5 702.537 60.4L702.687 59.65L704.187 57.85L704.637 58.15L705.537 56.8C706.237 56.3 706.937 56 707.637 55.9C708.437 55.7 709.187 55.4 709.887 55C710.087 53.9 710.737 53.25 711.837 53.05C713.037 52.75 713.737 52.2 713.937 51.4H714.537L717.087 49.75L717.987 50.2L720.087 48.85C720.687 48.85 721.237 48.8 721.737 48.7C722.337 48.6 722.887 48.55 723.387 48.55L723.987 48.85C721.987 49.55 719.687 50.7 717.087 52.3C714.487 53.8 711.937 55.6 709.437 57.7C707.037 59.7 705.037 61.9 703.437 64.3C701.837 66.7 701.037 69.1 701.037 71.5C701.037 73.4 702.037 74.35 704.037 74.35C705.837 74.35 707.687 73.8 709.587 72.7C711.587 71.6 713.387 70.25 714.987 68.65C716.587 67.05 717.737 65.5 718.437 64L720.987 61.9L722.337 59.8C723.037 59.7 723.537 59.1 723.837 58C724.137 56.9 724.437 55.7 724.737 54.4C725.137 53 725.737 51.8 726.537 50.8C727.437 49.8 728.737 49.3 730.437 49.3C731.337 49.3 732.237 49.55 733.137 50.05C734.037 50.55 734.487 51.35 734.487 52.45C734.487 52.95 734.087 54.15 733.287 56.05C732.587 57.95 731.637 60.2 730.437 62.8C729.237 65.4 727.987 68 726.687 70.6C725.487 73.1 724.337 75.35 723.237 77.35C722.237 79.25 721.537 80.45 721.137 80.95C721.037 81.55 720.837 82.4 720.537 83.5C720.337 84.7 719.937 85.4 719.337 85.6C717.737 88.4 715.987 91 714.087 93.4C712.187 95.8 710.337 98.3 708.537 100.9L705.837 102.1C705.537 102.5 705.187 102.9 704.787 103.3C704.487 103.7 704.087 104.05 703.587 104.35L703.137 104.2C701.737 105.8 700.237 107.1 698.637 108.1C697.137 109.2 695.237 109.75 692.937 109.75ZM764.445 87.85L762.195 84.25C762.095 83.65 761.895 83.05 761.595 82.45C761.395 81.85 761.295 81.2 761.295 80.5C761.295 79.5 761.345 78.6 761.445 77.8C761.545 76.9 761.645 75.95 761.745 74.95L762.795 72.55L762.645 72.25C762.845 71.85 762.995 71.45 763.095 71.05C763.295 70.55 763.445 70.1 763.545 69.7L762.945 69.25C762.245 69.25 761.245 69.95 759.945 71.35C758.745 72.65 757.345 73.95 755.745 75.25C754.245 76.55 752.495 77.2 750.495 77.2C749.195 77.2 747.995 76.8 746.895 76C745.795 75.2 745.295 74 745.395 72.4L745.245 72.1C746.345 70.1 747.295 68.05 748.095 65.95C748.895 63.85 749.745 61.8 750.645 59.8L749.745 58.15L749.295 58.3L748.545 58L747.045 59.5L744.945 59.95L745.245 60.7H744.945L743.445 61.15L743.145 61.75H742.245L742.095 62.65C741.595 63.15 741.045 63.7 740.445 64.3C739.845 64.9 739.145 65.25 738.345 65.35L729.345 73.9L729.195 73.45C729.195 72.75 729.445 72.2 729.945 71.8C730.445 71.3 730.895 70.85 731.295 70.45L731.445 70.15L731.895 69.85L732.045 70L732.495 68.95H732.345C732.545 68.75 732.745 68.5 732.945 68.2C733.245 67.8 733.595 67.6 733.995 67.6H734.295C734.295 67.6 734.295 67.5 734.295 67.3C734.895 66.4 735.695 65.6 736.695 64.9H737.145L737.595 64.45L737.445 64.15L738.945 63.55C738.845 62.55 739.645 61.45 741.345 60.25C743.045 59.05 744.895 58 746.895 57.1C748.895 56.1 750.295 55.6 751.095 55.6C752.195 55.6 753.495 55.9 754.995 56.5C756.495 57 757.245 57.95 757.245 59.35C757.245 62.15 756.745 64.4 755.745 66.1C754.745 67.8 754.195 68.9 754.095 69.4L754.545 69.7C755.745 69.7 756.695 69.35 757.395 68.65C758.095 67.85 758.795 67.05 759.495 66.25C760.295 65.45 761.245 65 762.345 64.9C762.245 64.8 762.295 64.75 762.495 64.75C762.695 64.65 762.795 64.7 762.795 64.9C763.195 64.2 764.095 63.1 765.495 61.6C766.895 60 768.345 58.5 769.845 57.1C771.345 55.7 772.395 55 772.995 55C774.095 55 775.345 55.4 776.745 56.2C778.145 57 778.845 58 778.845 59.2C778.845 59.7 778.445 60.65 777.645 62.05C776.945 63.35 776.095 64.75 775.095 66.25C774.095 67.75 773.095 69.1 772.095 70.3C771.195 71.4 770.495 72.05 769.995 72.25C769.095 73.85 767.845 75.7 766.245 77.8C764.745 79.8 763.995 81.8 763.995 83.8C763.995 84.5 764.095 85.15 764.295 85.75C764.495 86.35 764.595 86.95 764.595 87.55L764.445 87.85ZM776.345 87.85C775.745 86.95 775.445 86.05 775.445 85.15C775.445 84.45 775.595 83.8 775.895 83.2C776.095 82.6 776.345 82.05 776.645 81.55H776.795L776.645 81.4C777.345 80.4 778.445 79.1 779.945 77.5C781.545 75.9 783.245 74.45 785.045 73.15C786.845 71.85 788.295 71.15 789.395 71.05L790.295 70.45C790.795 69.65 791.545 68.9 792.545 68.2C793.645 67.4 794.595 66.75 795.395 66.25L796.295 66.4L796.145 65.8L796.595 65.5L796.145 64C795.145 63.6 793.845 63.1 792.245 62.5C790.745 61.9 789.345 61.15 788.045 60.25C786.845 59.25 786.245 58.1 786.245 56.8C786.245 55.8 787.145 54.4 788.945 52.6C790.745 50.8 792.895 49 795.395 47.2C797.995 45.3 800.445 43.7 802.745 42.4C805.145 41.1 806.845 40.45 807.845 40.45C809.145 39.95 810.095 39.15 810.695 38.05C811.295 36.95 811.845 35.95 812.345 35.05C812.945 34.05 813.745 33.55 814.745 33.55C816.045 33.55 817.145 34.2 818.045 35.5C819.045 36.8 819.745 37.95 820.145 38.95C820.045 39.35 819.745 39.7 819.245 40C818.845 40.3 818.545 40.7 818.345 41.2C817.145 42.2 816.145 43.45 815.345 44.95C814.645 46.35 813.945 47.75 813.245 49.15L810.545 50.65L810.095 50.05H809.945C809.545 50.55 809.145 51 808.745 51.4C808.345 51.8 808.045 52.25 807.845 52.75C807.445 53.15 807.045 53.75 806.645 54.55C806.345 55.25 805.895 55.65 805.295 55.75L805.145 55.45C805.645 53.85 806.145 52.25 806.645 50.65C807.145 48.95 807.695 47.3 808.295 45.7L808.595 45.55L808.895 43.3C807.895 43.3 806.945 43.55 806.045 44.05C805.145 44.55 804.145 44.75 803.045 44.65C802.645 44.95 801.945 45.55 800.945 46.45C800.045 47.35 799.145 48.15 798.245 48.85C797.345 49.55 796.645 49.95 796.145 50.05C795.545 51.15 794.645 52.2 793.445 53.2C792.345 54.2 791.795 55.4 791.795 56.8C791.795 57.4 792.095 57.8 792.695 58C793.295 58.1 793.845 58.15 794.345 58.15V59.05L794.645 58.9L797.045 59.5L797.495 59.05C798.795 59.35 800.395 59.85 802.295 60.55C804.295 61.15 806.045 62 807.545 63.1C809.145 64.2 809.945 65.65 809.945 67.45C809.945 68.15 809.795 68.85 809.495 69.55C809.195 70.25 808.795 70.95 808.295 71.65L805.895 74.05L802.145 73.75C801.445 74.25 800.245 74.7 798.545 75.1C796.845 75.4 795.245 75.7 793.745 76C792.345 76.3 791.645 76.65 791.645 77.05L790.295 75.85C789.795 76.75 789.045 77.2 788.045 77.2C787.045 77.2 786.045 77.2 785.045 77.2C784.145 77.2 783.095 77.75 781.895 78.85C780.795 79.95 779.795 81.15 778.895 82.45C777.995 83.85 777.445 85 777.245 85.9L776.345 87.85ZM816.686 85.3C815.086 85.3 813.786 84.6 812.786 83.2C811.786 81.9 811.286 80.45 811.286 78.85C811.286 77.65 811.636 75.85 812.336 73.45C813.136 70.95 814.086 68.35 815.186 65.65C816.286 62.85 817.436 60.35 818.636 58.15C819.836 55.95 820.936 54.5 821.936 53.8C823.336 51.6 824.586 49.55 825.686 47.65C824.086 47.95 822.486 48.3 820.886 48.7C819.286 49 817.786 49.45 816.386 50.05C815.686 50.95 814.886 51.4 813.986 51.4C813.686 51.2 813.336 51 812.936 50.8C812.536 50.6 812.186 50.35 811.886 50.05L812.036 49.75H811.886V49.45C811.886 48.95 811.786 48.5 811.586 48.1C811.486 47.6 811.386 47.15 811.286 46.75C811.186 46.65 811.136 46.4 811.136 46C811.136 44.7 811.736 43.85 812.936 43.45C814.236 43.05 815.536 42.85 816.836 42.85C818.736 42.85 820.036 43 820.736 43.3L822.236 43H825.986C826.686 43 827.336 43 827.936 43C828.536 43 829.136 42.95 829.736 42.85L830.336 41.95L830.186 41.35C830.486 40.65 831.136 39.5 832.136 37.9C833.136 36.3 834.186 34.6 835.286 32.8C836.386 31 837.336 29.45 838.136 28.15C839.036 26.75 839.486 26.05 839.486 26.05C839.486 25.45 839.986 25.1 840.986 25C841.986 24.9 842.636 24.85 842.936 24.85C844.036 24.85 845.536 25.2 847.436 25.9C849.336 26.5 850.286 27.55 850.286 29.05C850.286 29.95 849.936 30.7 849.236 31.3C848.536 31.8 847.786 32.15 846.986 32.35V32.5C846.986 33.1 846.536 33.8 845.636 34.6C844.836 35.4 843.886 36.1 842.786 36.7C841.686 37.3 840.836 37.7 840.236 37.9C839.936 38 839.536 38.4 839.036 39.1C838.636 39.7 838.336 40.15 838.136 40.45V41.05C837.736 41.35 837.286 41.7 836.786 42.1C836.386 42.4 836.036 42.8 835.736 43.3C836.236 43.4 836.736 43.45 837.236 43.45C837.736 43.45 838.236 43.45 838.736 43.45C839.536 43.45 840.286 43.45 840.986 43.45C841.786 43.45 842.536 43.5 843.236 43.6L847.886 44.2C846.686 45.2 845.336 45.8 843.836 46C842.336 46.1 840.786 46.15 839.186 46.15C837.686 46.05 836.236 46.3 834.836 46.9C834.136 47.1 833.186 47.7 831.986 48.7C830.886 49.7 829.886 50.8 828.986 52C828.086 53.1 827.636 54.05 827.636 54.85L824.186 59.5C823.186 60 822.686 60.75 822.686 61.75C822.686 62.75 822.136 63.25 821.036 63.25L818.936 68.05C818.836 68.65 818.686 69.6 818.486 70.9C818.386 72.1 817.986 72.8 817.286 73C817.286 74.3 817.236 75.6 817.136 76.9C817.036 78.1 816.986 79.3 816.986 80.5L817.286 81.1H818.486C820.486 79.1 822.536 77.2 824.636 75.4C826.836 73.5 828.886 71.5 830.786 69.4L831.536 69.1H831.836L832.736 67.9L833.336 67.6L833.186 67.45L834.086 66.7C834.886 65.2 836.186 63.95 837.986 62.95L838.136 63.25C838.136 63.75 837.486 64.85 836.186 66.55C834.886 68.15 833.236 70.05 831.236 72.25C829.336 74.35 827.336 76.4 825.236 78.4C823.236 80.4 821.436 82.05 819.836 83.35C818.236 84.65 817.186 85.3 816.686 85.3ZM822.044 90.85C821.444 90.85 820.794 90.75 820.094 90.55C819.394 90.45 818.794 90.2 818.294 89.8C818.594 89.1 819.844 88.3 822.044 87.4C824.244 86.5 826.794 85.55 829.694 84.55C832.594 83.65 835.344 82.65 837.944 81.55C840.644 80.55 842.644 79.55 843.944 78.55L845.894 78.85C846.894 78.45 847.394 77.6 847.394 76.3C851.794 74.5 855.944 71.75 859.844 68.05C863.744 64.35 867.144 60.15 870.044 55.45C873.044 50.75 875.394 45.85 877.094 40.75C878.794 35.65 879.644 30.75 879.644 26.05C879.644 22.85 878.944 19.6 877.544 16.3C876.244 12.9 874.294 10.05 871.694 7.75C869.194 5.45 866.144 4.3 862.544 4.3C861.944 4.3 861.044 4.25 859.844 4.15C858.744 3.94999 858.194 3.39999 858.194 2.49999C859.094 1.49999 860.294 0.999994 861.794 0.999994C864.694 0.999994 867.744 1.8 870.944 3.4C874.144 5 877.144 7.15 879.944 9.85C882.744 12.45 884.994 15.3 886.694 18.4C888.494 21.5 889.394 24.5 889.394 27.4C889.394 28.6 889.094 29.75 888.494 30.85C887.994 31.85 887.594 32.9 887.294 34C886.694 32.7 886.144 31.45 885.644 30.25L885.044 29.8C884.944 29.9 884.844 30.1 884.744 30.4C884.644 30.7 884.594 30.95 884.594 31.15C884.594 33.55 884.944 35.25 885.644 36.25C886.444 37.25 887.494 38.7 888.794 40.6C887.694 41.3 886.794 42.4 886.094 43.9L886.994 44.65C886.494 46.85 885.894 48.7 885.194 50.2L884.594 50.8C883.594 52.6 882.944 54.1 882.644 55.3C882.344 56.5 881.294 57.8 879.494 59.2L879.644 60.7C879.644 62.1 879.044 62.75 877.844 62.65C878.044 62.45 877.944 62.35 877.544 62.35C877.244 62.25 877.144 62.3 877.244 62.5L875.894 61.3L874.994 62.5C873.594 62.7 872.494 63.25 871.694 64.15L872.444 65.5C871.244 66.1 870.294 66.9 869.594 67.9L869.144 67.6L868.994 68.2C867.994 68.3 867.044 68.45 866.144 68.65C865.244 68.85 864.344 69.05 863.444 69.25L862.694 71.05C861.294 71.25 860.344 71.45 859.844 71.65C859.344 71.75 859.044 72.05 858.944 72.55C858.844 73.05 858.644 74 858.344 75.4L857.894 74.2L856.694 74.65C855.394 74.65 853.944 75.4 852.344 76.9C850.744 78.3 849.244 79.25 847.844 79.75V80.8L846.344 82.45L845.894 82.15C845.194 82.25 844.544 82.5 843.944 82.9C843.444 83.3 842.944 83.75 842.444 84.25L842.294 85L842.594 85.3C842.894 85.3 843.244 85.15 843.644 84.85C844.144 84.55 844.494 84.35 844.694 84.25L845.444 84.4L846.044 83.95L845.894 83.5L846.644 83.8L847.694 82.75L849.044 83.35C848.644 83.65 848.294 83.95 847.994 84.25C847.794 84.55 847.444 84.8 846.944 85V84.25C845.544 86.05 844.144 87 842.744 87.1C841.444 87.3 839.744 87.4 837.644 87.4C837.144 87.4 836.594 87.45 835.994 87.55C835.494 87.65 834.994 87.75 834.494 87.85C833.394 88.95 832.244 89.5 831.044 89.5C829.844 89.5 828.544 89.5 827.144 89.5C826.444 90 825.644 90.35 824.744 90.55C823.744 90.75 822.844 90.85 822.044 90.85ZM874.394 61.45C875.894 60.05 877.044 58.25 877.844 56.05L878.594 56.65H879.044V53.65C879.944 53.35 880.644 52.55 881.144 51.25C881.744 49.95 882.194 48.6 882.494 47.2C882.794 45.7 882.944 44.55 882.944 43.75C882.244 44.95 881.444 45.85 880.544 46.45C879.644 46.95 879.194 47.85 879.194 49.15C879.194 49.25 879.194 49.45 879.194 49.75C879.194 49.95 879.244 50.2 879.344 50.5C879.044 51.8 878.394 52.75 877.394 53.35C877.294 54.75 876.844 56.15 876.044 57.55C875.344 58.85 874.644 60.1 873.944 61.3L874.394 61.45ZM883.244 50.65C883.444 50.25 883.644 49.85 883.844 49.45C884.044 48.95 884.194 48.5 884.294 48.1H883.844L882.794 49.15L883.244 50.65ZM882.344 54.1C882.644 53.6 882.794 53.1 882.794 52.6L882.194 53.35L882.344 54.1ZM880.994 55.6L881.144 54.1L880.694 53.95L880.394 54.4L880.994 55.6ZM865.544 67.6C866.644 67.1 867.394 66.35 867.794 65.35C867.394 65.45 866.944 65.7 866.444 66.1C865.944 66.4 865.594 66.8 865.394 67.3L865.544 67.6ZM866.144 73.3L864.644 71.95L865.544 70L866.894 69.55C867.294 69.85 867.544 70.25 867.644 70.75C867.744 71.15 867.844 71.55 867.944 71.95L866.594 73.3H866.144ZM862.694 73.45L861.794 73.3L861.194 73L862.394 72.1L863.894 73L862.694 73.45ZM862.844 76.9C862.044 76.4 861.494 75.6 861.194 74.5L861.494 74.35H862.394L862.994 75.85L864.344 74.95C864.244 75.35 863.994 75.7 863.594 76C863.294 76.3 863.044 76.6 862.844 76.9ZM857.594 77.2C856.594 77 856.094 76.45 856.094 75.55L857.744 76.15L857.894 76.6L857.594 77.2ZM859.694 77.8L858.944 76.6L861.044 76.9L859.694 77.8ZM853.244 79.45L852.194 78.55L854.144 77.95L853.244 79.45ZM857.594 79.75L856.994 78.4L858.794 78.1L857.594 79.75ZM855.044 80.5L854.894 80.35V79.75L855.344 79.6H855.944L856.244 79.9L855.794 80.5H855.044ZM851.294 83.05L850.544 82.15L849.794 81.85L851.594 80.2L852.044 82.15L853.094 81.4L853.394 81.85L851.294 83.05ZM831.344 89.05L832.694 88.3L831.794 87.4C831.394 87.6 830.994 87.7 830.594 87.7C830.194 87.8 829.744 87.85 829.244 87.85L831.344 89.05Z" fill="#BE0029"/>
</svg>
