<svg width="855" height="110" viewBox="0 0 855 110" fill="none" xmlns="http://www.w3.org/2000/svg">
<path d="M9.1 88.6C7.3 88.6 5.35 87.85 3.25 86.35C1.25 84.85 0.25 83.1 0.25 81.1C0.25 79.6 0.55 78.15 1.15 76.75C1.75 75.25 2.4 73.85 3.1 72.55V72.1C3.9 70.9 4.9 69.9 6.1 69.1C6.4 68.6 6.7 68 7 67.3C7.4 66.5 7.9 66.05 8.5 65.95L9.25 66.4C8.15 67.8 7.1 69.4 6.1 71.2L4.3 80.5C4.9 81.4 5.85 81.85 7.15 81.85C8.95 81.85 11.15 81.5 13.75 80.8C16.35 80.2 18.95 79.5 21.55 78.7C24.15 77.9 26.35 77.2 28.15 76.6V76.45C28.65 76.45 29.15 76.4 29.65 76.3C30.25 76.1 30.65 75.7 30.85 75.1L30.7 74.65L31.9 74.8C32.5 74.5 33.1 74.2 33.7 73.9C34.3 73.6 34.95 73.4 35.65 73.3C36.05 72.9 37.1 72.05 38.8 70.75C40.5 69.35 42.4 67.9 44.5 66.4C46.6 64.8 48.5 63.4 50.2 62.2C51.9 61 52.95 60.3 53.35 60.1L54.4 58.45L55.6 57.85V56.35C55.8 54.85 55.1 53.7 53.5 52.9C51.9 52 49.8 51.25 47.2 50.65C44.6 50.05 41.8 49.45 38.8 48.85C35.9 48.25 33.1 47.45 30.4 46.45C27.8 45.35 25.65 43.95 23.95 42.25C22.35 40.55 21.55 38.3 21.55 35.5L20.8 35.95L20.5 35.5C20.5 33.4 21.7 31.15 24.1 28.75C26.6 26.35 29.75 24 33.55 21.7C37.35 19.3 41.3 17.1 45.4 15.1C49.6 13 53.45 11.25 56.95 9.85C60.55 8.35 63.3 7.3 65.2 6.7C66.9 6.9 68.45 7.3 69.85 7.89999C71.35 8.4 72.3 9.65 72.7 11.65C73.8 11.25 74.35 10.4 74.35 9.1C74.35 8.4 74.3 7.75 74.2 7.15C74.1 6.45 73.9 5.85 73.6 5.35L74.2 5.05C74.7 5.05 75.6 5.25 76.9 5.65C78.3 5.95 79.8 6.35 81.4 6.84999C83 7.35 84.4 7.85 85.6 8.35C86.9 8.85 87.65 9.3 87.85 9.7L87.25 11.95L84.55 13L83.5 12.55C82.5 12.95 82.05 13.8 82.15 15.1C82.25 16.4 81.95 17.15 81.25 17.35L79.9 16.75V16.9L80.95 19L80.65 19.45L81.1 20.2L80.65 20.35L79.6 19.9C79.2 20.7 78.9 21.85 78.7 23.35C78.5 24.75 77.85 25.5 76.75 25.6C75.65 26.6 74.45 27.9 73.15 29.5C71.85 31 70.35 31.85 68.65 32.05V31.75L69.1 28.75L68.65 28C68.95 26.3 69.35 24.5 69.85 22.6C70.35 20.7 70.9 19.05 71.5 17.65C70.7 16.45 69.75 15.35 68.65 14.35C67.65 13.35 66.4 12.85 64.9 12.85C63.1 12.85 60.6 13.4 57.4 14.5C54.2 15.5 50.7 16.9 46.9 18.7C43.2 20.4 39.7 22.35 36.4 24.55C33.1 26.75 30.45 29 28.45 31.3C26.45 33.6 25.6 35.8 25.9 37.9C25.5 37.6 25.25 37.2 25.15 36.7C25.05 36.2 25 35.7 25 35.2C25 34.7 25 34.2 25 33.7C25.1 33.2 25.2 32.75 25.3 32.35C24.6 33.35 24.25 34.5 24.25 35.8C24.25 38.2 25.25 40.05 27.25 41.35C29.25 42.65 31.85 43.65 35.05 44.35C38.25 45.05 41.65 45.7 45.25 46.3C48.85 46.8 52.25 47.4 55.45 48.1C58.65 48.8 61.25 49.85 63.25 51.25C65.25 52.55 66.25 54.4 66.25 56.8C66.25 58.1 65.95 59.3 65.35 60.4C64.75 61.4 64.2 62.45 63.7 63.55C62.6 63.95 61.9 64.5 61.6 65.2C61.3 65.9 60.85 66.7 60.25 67.6C59.45 67.8 58.4 68.5 57.1 69.7C55.9 70.8 55 71.3 54.4 71.2C54 71.4 53.55 71.7 53.05 72.1C52.65 72.4 52.35 72.8 52.15 73.3L51.7 73C50.6 74.5 48.75 76 46.15 77.5C43.55 79 40.5 80.4 37 81.7C33.6 83 30.1 84.15 26.5 85.15C23 86.25 19.7 87.1 16.6 87.7C13.5 88.3 11 88.6 9.1 88.6ZM67 34.75L67.75 32.5L68.5 33.1L67 34.75ZM58 53.5L58.3 52.75L57.85 52.15L56.95 52.6L58 53.5ZM64.6 59.05V58.75L63.7 57.4L63.55 58.15V58.75L64.6 59.05ZM61.75 61.6L62.8 61L62.95 59.65L62.8 58.3C61.8 59.3 61.25 60.35 61.15 61.45L61.75 61.6ZM61.9 63.7L63.4 62.05V61.9L61 62.65L61.3 63.55L61.9 63.7ZM57.7 66.4L59.35 66.25L60.55 63.85L58.75 65.5L58.15 64.9L57.7 66.25V66.4ZM43.0094 105.55C41.0094 105.55 39.0094 105.05 37.0094 104.05C34.9094 103.15 33.1594 101.85 31.7594 100.15C30.3594 98.45 29.6594 96.5 29.6594 94.3L30.1094 93.25C31.1094 94.35 31.8594 95.55 32.3594 96.85C32.8594 98.15 33.5594 99.2 34.4594 100C35.3594 100.9 36.8594 101.35 38.9594 101.35C39.3594 101.35 39.7594 101.3 40.1594 101.2C40.5594 101.2 40.9594 101.15 41.3594 101.05C41.8594 101.25 42.8594 100.8 44.3594 99.7C45.8594 98.6 47.5594 97.2 49.4594 95.5C51.3594 93.8 53.2594 91.95 55.1594 89.95C56.9594 88.05 58.5094 86.3 59.8094 84.7C61.0094 83.2 61.6594 82.15 61.7594 81.55C62.5594 80.35 63.3594 79.05 64.1594 77.65C65.0594 76.25 65.8594 74.9 66.5594 73.6L66.8594 73.75L67.3094 73.15C68.1094 72.25 68.6094 71.35 68.8094 70.45C69.0094 69.55 69.6094 68.7 70.6094 67.9C71.4094 66.7 72.1094 65.5 72.7094 64.3C73.4094 63.1 73.7594 61.8 73.7594 60.4C73.7594 59.8 73.9094 59.25 74.2094 58.75C74.5094 58.15 74.8094 57.6 75.1094 57.1C77.1094 54 78.4094 51.15 79.0094 48.55C79.6094 45.95 80.3594 42.95 81.2594 39.55C81.0594 39.05 80.7594 38.6 80.3594 38.2C79.9594 37.8 79.6094 37.4 79.3094 37H79.6094C81.5094 37 82.8594 37.55 83.6594 38.65C84.4594 39.75 84.8594 41.15 84.8594 42.85C84.8594 43.45 84.7094 44.55 84.4094 46.15C84.1094 47.65 83.6594 49.3 83.0594 51.1C82.5594 52.9 81.9594 54.45 81.2594 55.75C80.6594 57.05 80.0094 57.7 79.3094 57.7C79.2094 58.5 79.0094 59.3 78.7094 60.1C78.5094 60.8 78.2594 61.5 77.9594 62.2C78.4594 61.7 78.9594 61.1 79.4594 60.4C80.0594 59.6 80.7094 59.15 81.4094 59.05C82.0094 58.55 82.4094 57.9 82.6094 57.1C82.9094 56.3 83.4094 55.65 84.1094 55.15C84.3094 55.15 84.6094 55.05 85.0094 54.85C85.5094 54.55 85.6094 54.3 85.3094 54.1L87.4094 52.75H88.1594C88.3594 51.75 89.0094 51.15 90.1094 50.95C91.3094 49.85 92.2094 49.1 92.8094 48.7C93.5094 48.3 94.2094 48.05 94.9094 47.95C95.7094 47.75 96.8594 47.55 98.3594 47.35L99.5594 47.95C100.059 47.65 100.509 47.5 100.909 47.5C102.309 47.5 103.309 48.35 103.909 50.05C104.609 51.75 104.959 53.15 104.959 54.25C104.959 56.95 104.409 58.95 103.309 60.25C102.209 61.45 100.959 62.55 99.5594 63.55C98.2594 64.45 97.2094 65.8 96.4094 67.6C94.6094 68.5 92.8594 69.65 91.1594 71.05C89.7594 71.45 88.5594 72.2 87.5594 73.3C86.5594 74.4 85.3594 75.2 83.9594 75.7C81.6594 76.4 79.2594 77.1 76.7594 77.8C74.3594 78.4 71.9094 78.6 69.4094 78.4C69.0094 79.9 68.1094 81.8 66.7094 84.1C65.3094 86.5 63.8094 88.8 62.2094 91C60.6094 93.3 59.3094 95.2 58.3094 96.7L55.6094 97.9C55.3094 98.3 55.0094 98.7 54.7094 99.1C54.3094 99.6 53.9094 99.95 53.5094 100.15H52.9094C51.5094 101.75 50.1094 103.05 48.7094 104.05C47.2094 105.05 45.3094 105.55 43.0094 105.55ZM71.3594 74.2C77.3594 73.9 82.8594 72.7 87.8594 70.6C92.9594 68.5 97.2094 64.8 100.609 59.5C101.409 58.2 101.809 57 101.809 55.9C101.809 54.9 101.409 54.2 100.609 53.8C99.8094 53.4 98.9594 53.2 98.0594 53.2C95.5594 53.2 92.9594 53.9 90.2594 55.3C87.5594 56.6 84.9594 58.35 82.4594 60.55C80.0594 62.65 77.8594 64.95 75.8594 67.45C73.9594 69.85 72.4594 72.1 71.3594 74.2ZM74.9594 66.55L75.4094 66.25V65.95L75.2594 66.25L74.9594 66.55ZM125.318 77.5C123.818 77.5 122.668 76.9 121.868 75.7L118.418 74.05C118.018 73.15 117.818 72.05 117.818 70.75C117.818 68.65 118.318 66.4 119.318 64C120.418 61.5 121.468 59.4 122.468 57.7C121.768 57.3 121.168 56.8 120.668 56.2C120.168 55.6 119.668 55 119.168 54.4L118.718 54.1C118.318 54.5 117.868 54.85 117.368 55.15C116.868 55.45 116.368 55.65 115.868 55.75C114.968 56.65 113.668 58.15 111.968 60.25C110.268 62.25 108.418 64.35 106.418 66.55C104.418 68.65 102.468 70.5 100.568 72.1C98.7684 73.7 97.3184 74.5 96.2184 74.5L96.0684 74.2C96.1684 73.6 96.6184 72.95 97.4184 72.25C98.3184 71.45 98.9684 70.85 99.3684 70.45C99.5684 69.65 100.068 68.95 100.868 68.35C101.668 67.75 102.418 67.3 103.118 67H103.268L104.168 65.65L104.918 65.2L104.768 65.05L105.818 64.3C106.018 63.8 106.318 63.35 106.718 62.95C107.118 62.55 107.468 62.15 107.768 61.75V61.45C109.968 59.75 111.968 57.9 113.768 55.9C115.668 53.8 117.618 51.75 119.618 49.75L119.768 49.6L119.618 48.7C119.618 47.6 119.868 46.4 120.368 45.1C120.968 43.7 121.618 42.65 122.318 41.95C123.018 40.95 123.868 39.9 124.868 38.8C125.968 37.6 127.168 37 128.468 37C129.468 37 130.068 37.5 130.268 38.5C130.468 39.4 130.568 40.2 130.568 40.9C130.568 43.4 129.918 45.35 128.618 46.75C127.318 48.05 125.968 49.05 124.568 49.75C123.268 50.45 122.618 51.2 122.618 52L125.018 53.05L125.918 52.3L126.068 52.45H126.368C126.968 52.15 127.568 51.9 128.168 51.7C128.768 51.4 129.418 51.25 130.118 51.25C130.718 51.25 131.318 51.45 131.918 51.85C132.518 52.15 133.018 52.45 133.418 52.75L133.568 54.1C133.668 55 133.268 56 132.368 57.1C131.568 58.1 130.568 59.3 129.368 60.7C128.168 62 127.118 63.6 126.218 65.5C125.318 67.3 124.868 69.4 124.868 71.8C124.868 72.4 124.968 73.05 125.168 73.75C125.468 74.35 126.018 74.65 126.818 74.65C128.018 74.65 129.368 74.2 130.868 73.3C132.368 72.4 133.868 71.4 135.368 70.3C136.868 69.1 138.118 68.2 139.118 67.6L139.718 68.35C139.718 69.05 139.118 69.9 137.918 70.9C136.718 71.9 135.268 72.9 133.568 73.9C131.868 74.9 130.218 75.75 128.618 76.45C127.118 77.15 126.018 77.5 125.318 77.5ZM158.828 41.5C158.528 41.5 157.728 41.4 156.428 41.2C155.228 40.9 154.628 40.55 154.628 40.15C154.628 38.65 155.378 37.55 156.878 36.85C158.478 36.15 159.778 35.45 160.778 34.75H161.078C162.478 33.65 164.128 32.9 166.028 32.5C168.028 32.1 169.878 31.85 171.578 31.75L171.428 31.9C169.528 32.5 167.828 33.6 166.328 35.2C164.828 36.7 163.428 38.15 162.128 39.55C160.928 40.85 159.828 41.5 158.828 41.5ZM139.478 83.2L137.078 79.75C136.978 79.05 136.828 78.4 136.628 77.8C136.428 77.1 136.328 76.4 136.328 75.7C136.328 74.8 136.378 73.9 136.478 73C136.578 72.1 136.678 71.2 136.778 70.3L137.828 67.75L137.678 67.6C138.178 66.4 138.678 64.85 139.178 62.95C139.678 61.05 140.278 59.15 140.978 57.25C141.778 55.25 142.728 53.6 143.828 52.3C144.928 50.9 146.278 50.2 147.878 50.2C148.978 50.2 150.228 50.6 151.628 51.4C153.028 52.2 153.728 53.25 153.728 54.55C153.728 55.05 153.328 55.95 152.528 57.25C151.828 58.55 150.978 60 149.978 61.6C148.978 63.1 147.978 64.45 146.978 65.65C146.078 66.75 145.428 67.4 145.028 67.6C144.128 69.2 142.878 71.05 141.278 73.15C139.678 75.25 138.878 77.2 138.878 79C138.878 79.7 138.978 80.35 139.178 80.95C139.478 81.55 139.628 82.2 139.628 82.9L139.478 83.2ZM154.963 80.8C153.863 80.8 153.063 80.3 152.563 79.3C152.163 78.4 151.963 77.5 151.963 76.6C151.963 74 152.563 71.3 153.763 68.5C155.063 65.7 156.313 63.15 157.513 60.85C158.813 58.45 159.463 56.6 159.463 55.3C159.463 54.7 159.113 54.4 158.413 54.4C158.113 54.4 157.663 54.5 157.063 54.7V54.1L160.663 49.9V49.75C161.163 49.25 161.613 48.75 162.013 48.25C162.413 47.75 162.813 47.3 163.213 46.9L164.563 46C165.663 46.1 166.713 46.4 167.713 46.9C168.813 47.3 169.513 48.15 169.813 49.45L169.663 49.6C169.763 50.4 169.413 51.25 168.613 52.15C167.813 53.05 167.113 53.75 166.513 54.25C165.913 55.35 165.213 56.4 164.413 57.4C163.713 58.3 163.063 59.3 162.463 60.4V61.9L161.863 63.1H161.563C161.263 63.7 160.963 64.35 160.663 65.05C160.463 65.75 160.363 66.5 160.363 67.3L161.113 68.5C161.413 68.2 161.963 67.75 162.763 67.15C163.663 66.45 164.463 65.75 165.163 65.05C165.863 64.35 166.213 63.85 166.213 63.55L167.863 62.05C168.363 60.55 169.463 58.95 171.163 57.25C172.863 55.45 174.313 54.05 175.513 53.05L175.963 51.85C176.563 51.55 177.163 51.2 177.763 50.8C178.463 50.4 179.163 50.2 179.863 50.2C180.663 50.2 181.363 50.4 181.963 50.8C182.663 51.2 183.363 51.6 184.063 52C184.063 52.4 184.063 52.9 184.063 53.5C184.163 54 184.213 54.5 184.213 55C184.213 56.6 183.763 58.1 182.863 59.5C181.963 60.9 181.063 62.35 180.163 63.85C179.263 65.35 178.813 67.2 178.813 69.4C178.813 69.7 178.813 70.4 178.813 71.5C178.913 72.5 179.063 73.5 179.263 74.5C179.563 75.4 180.013 75.85 180.613 75.85L185.413 73.3H185.713C185.913 72.7 186.263 72.15 186.763 71.65C187.363 71.15 188.013 70.9 188.713 70.9L188.863 71.05C188.863 71.55 188.413 72.3 187.513 73.3C186.713 74.3 185.813 75.25 184.813 76.15C183.913 77.05 183.263 77.7 182.863 78.1C182.463 78.2 182.013 78.3 181.513 78.4C181.013 78.4 180.513 78.5 180.013 78.7L179.563 77.95C177.363 77.75 175.513 77 174.013 75.7C172.613 74.3 171.913 72.5 171.913 70.3C171.913 69.6 172.063 68.35 172.363 66.55C172.663 64.65 173.013 62.8 173.413 61C173.913 59.2 174.263 57.95 174.463 57.25C173.263 58.05 172.113 59.3 171.013 61C169.913 62.6 168.913 63.95 168.013 65.05C167.013 65.45 165.963 66.5 164.863 68.2C163.863 69.8 162.813 71.6 161.713 73.6C160.613 75.5 159.513 77.2 158.413 78.7C157.313 80.1 156.163 80.8 154.963 80.8ZM184.929 109.75C183.129 109.75 181.329 109.2 179.529 108.1C177.729 107 176.229 105.6 175.029 103.9C173.729 102.2 173.079 100.45 173.079 98.65L173.529 97.75C174.529 98.85 175.279 100.05 175.779 101.35C176.279 102.65 176.979 103.7 177.879 104.5C178.679 105.4 180.129 105.85 182.229 105.85C182.629 105.85 183.029 105.8 183.429 105.7C183.829 105.6 184.229 105.5 184.629 105.4C185.529 105.7 186.879 105.15 188.679 103.75C190.579 102.35 192.479 100.55 194.379 98.35C196.379 96.25 198.079 94.15 199.479 92.05C200.979 90.05 201.779 88.6 201.879 87.7C203.479 85.3 204.979 82.85 206.379 80.35C207.779 77.85 209.179 75.4 210.579 73L210.729 71.05L212.079 70.3L211.779 70.15L212.079 68.8L211.779 67.75C211.379 68.15 210.879 68.5 210.279 68.8C209.679 69 209.129 69.3 208.629 69.7L208.479 71.05C207.079 71.35 205.679 72.05 204.279 73.15C202.979 74.15 201.679 75.15 200.379 76.15C199.079 77.05 197.679 77.5 196.179 77.5C195.479 77.5 194.579 77.45 193.479 77.35C192.479 77.15 191.729 76.85 191.229 76.45C189.929 76.15 188.979 75.8 188.379 75.4C187.779 74.9 187.379 74 187.179 72.7L187.779 70.75L187.329 69.55C187.829 68.05 188.179 66.95 188.379 66.25C188.679 65.55 189.079 64.95 189.579 64.45C190.179 63.85 191.129 63.05 192.429 62.05C192.529 61.55 192.779 61.2 193.179 61C193.679 60.7 194.129 60.5 194.529 60.4L194.679 59.65L196.179 57.85L196.629 58.15L197.529 56.8C198.229 56.3 198.929 56 199.629 55.9C200.429 55.7 201.179 55.4 201.879 55C202.079 53.9 202.729 53.25 203.829 53.05C205.029 52.75 205.729 52.2 205.929 51.4H206.529L209.079 49.75L209.979 50.2L212.079 48.85C212.679 48.85 213.229 48.8 213.729 48.7C214.329 48.6 214.879 48.55 215.379 48.55L215.979 48.85C213.979 49.55 211.679 50.7 209.079 52.3C206.479 53.8 203.929 55.6 201.429 57.7C199.029 59.7 197.029 61.9 195.429 64.3C193.829 66.7 193.029 69.1 193.029 71.5C193.029 73.4 194.029 74.35 196.029 74.35C197.829 74.35 199.679 73.8 201.579 72.7C203.579 71.6 205.379 70.25 206.979 68.65C208.579 67.05 209.729 65.5 210.429 64L212.979 61.9L214.329 59.8C215.029 59.7 215.529 59.1 215.829 58C216.129 56.9 216.429 55.7 216.729 54.4C217.129 53 217.729 51.8 218.529 50.8C219.429 49.8 220.729 49.3 222.429 49.3C223.329 49.3 224.229 49.55 225.129 50.05C226.029 50.55 226.479 51.35 226.479 52.45C226.479 52.95 226.079 54.15 225.279 56.05C224.579 57.95 223.629 60.2 222.429 62.8C221.229 65.4 219.979 68 218.679 70.6C217.479 73.1 216.329 75.35 215.229 77.35C214.229 79.25 213.529 80.45 213.129 80.95C213.029 81.55 212.829 82.4 212.529 83.5C212.329 84.7 211.929 85.4 211.329 85.6C209.729 88.4 207.979 91 206.079 93.4C204.179 95.8 202.329 98.3 200.529 100.9L197.829 102.1C197.529 102.5 197.179 102.9 196.779 103.3C196.479 103.7 196.079 104.05 195.579 104.35L195.129 104.2C193.729 105.8 192.229 107.1 190.629 108.1C189.129 109.2 187.229 109.75 184.929 109.75ZM288.522 89.5C285.422 89.5 282.422 88.45 279.522 86.35C276.622 84.35 274.072 81.85 271.872 78.85C269.772 75.85 268.122 73.05 266.922 70.45C265.122 69.05 264.222 67.2 264.222 64.9C263.522 63.9 263.172 62.75 263.172 61.45C263.172 60.65 263.272 59.9 263.472 59.2C263.672 58.4 263.872 57.65 264.072 56.95C263.472 55.45 263.172 53.85 263.172 52.15C263.172 50.75 263.622 48.8 264.522 46.3C265.522 43.8 266.672 41.15 267.972 38.35C269.372 35.45 270.772 32.8 272.172 30.4C273.572 28 274.722 26.25 275.622 25.15C278.322 21.95 281.572 18.9 285.372 16C289.272 13.1 293.472 10.5 297.972 8.2C302.472 5.89999 307.022 4.1 311.622 2.8C316.322 1.5 320.772 0.849996 324.972 0.849996C325.472 0.849996 325.922 1.05 326.322 1.45C325.122 2.54999 323.122 3.49999 320.322 4.3C317.622 5.1 314.422 6.1 310.722 7.3C307.022 8.4 303.172 10.05 299.172 12.25C295.272 14.45 291.572 17.5 288.072 21.4C286.472 23 285.122 24.8 284.022 26.8C282.922 28.8 281.672 30.75 280.272 32.65L280.422 33.7C278.822 35.3 277.372 37.5 276.072 40.3C274.872 43 273.872 45.8 273.072 48.7C272.272 51.6 271.822 54.25 271.722 56.65L270.222 57.25C270.422 57.95 270.672 58.75 270.972 59.65C271.272 60.55 271.422 61.4 271.422 62.2C271.422 62.7 271.372 63.1 271.272 63.4C272.372 68.1 273.522 71.85 274.722 74.65C275.922 77.45 277.672 79.85 279.972 81.85C282.372 83.95 285.672 86.2 289.872 88.6L288.522 89.5ZM278.622 27.85L278.922 27.55V27.25L277.572 26.05L278.022 27.7L278.622 27.85ZM266.022 67.75L266.622 67.3L266.022 66.25L265.872 66.85L266.022 67.75ZM269.322 71.5L270.372 70.3L270.222 69.4L268.722 68.2C268.622 68.7 268.572 69.25 268.572 69.85C268.572 70.35 268.572 70.85 268.572 71.35L269.322 71.5ZM307.438 84.4C306.338 84.4 305.138 83.95 303.838 83.05C302.538 82.25 301.338 81.25 300.238 80.05C299.238 78.85 298.488 77.8 297.988 76.9C299.188 75.7 299.988 74.45 300.388 73.15C301.188 72.35 301.888 71.45 302.488 70.45C303.088 69.45 303.588 68.45 303.988 67.45H304.438C304.838 66.85 305.138 66.2 305.338 65.5C305.638 64.8 305.988 64.15 306.388 63.55L307.138 60.7L309.388 59.5L311.038 56.95L312.238 55.3L311.488 54.4L311.638 53.8L312.238 53.65L312.988 54.25L314.338 52.9H314.038L313.138 53.35L314.188 50.8V50.5L312.838 51.4C313.038 50.8 313.338 50.25 313.738 49.75C314.138 49.25 314.688 49 315.388 49L316.288 46.9L316.138 46L319.288 41.95L318.988 40.75C319.388 40.15 319.738 39.6 320.038 39.1C320.438 38.5 320.738 37.85 320.938 37.15L322.888 36.55L323.038 35.95L322.288 34.3C322.288 32.8 323.088 31.95 324.688 31.75L323.788 31.3L323.638 31.15L324.838 29.95L324.988 30.55L326.038 29.5L325.288 28.45C325.788 27.75 326.088 27 326.188 26.2C326.288 25.3 326.338 24.45 326.338 23.65C328.238 21.35 329.388 19.1 329.788 16.9C330.288 14.6 330.588 12.05 330.688 9.24999L329.788 8.5C327.388 8.6 325.088 9 322.888 9.7C320.788 10.4 318.638 11.3 316.438 12.4C314.138 13.6 312.538 14.75 311.638 15.85C310.738 16.95 309.988 18.05 309.388 19.15C308.888 20.25 307.838 21.5 306.238 22.9C305.538 23.6 304.488 24.25 303.088 24.85C301.788 25.35 301.238 26.3 301.438 27.7C298.538 28.7 296.738 30.5 296.038 33.1C295.438 35.7 295.138 38.3 295.138 40.9C295.038 41 294.938 41.2 294.838 41.5C294.738 41.8 294.638 42.05 294.538 42.25C293.538 41.35 292.888 39.9 292.588 37.9C292.288 35.8 292.138 34.1 292.138 32.8C292.138 30.6 292.988 28.3 294.688 25.9C296.388 23.4 298.588 21 301.288 18.7C304.088 16.3 307.038 14.15 310.138 12.25C313.238 10.35 316.238 8.85 319.138 7.75C322.038 6.55 324.438 5.95 326.338 5.95C328.238 5.95 330.338 6.4 332.638 7.3C335.038 8.1 337.088 9.3 338.788 10.9C340.588 12.5 341.488 14.35 341.488 16.45C341.488 18.05 340.938 19.95 339.838 22.15C338.738 24.25 337.838 26 337.138 27.4C336.838 27.6 335.938 28.75 334.438 30.85C332.938 32.95 331.188 35.55 329.188 38.65C327.188 41.65 325.188 44.7 323.188 47.8C321.188 50.8 319.488 53.4 318.088 55.6C316.788 57.8 316.038 59.1 315.838 59.5C315.338 60.2 314.638 61.15 313.738 62.35C312.838 63.55 312.388 64.6 312.388 65.5L312.538 66.55C314.038 65.05 316.088 62.85 318.688 59.95C321.388 56.95 324.338 53.6 327.538 49.9C330.838 46.2 334.238 42.5 337.738 38.8C341.338 35 344.788 31.5 348.088 28.3C351.488 25.1 354.588 22.55 357.388 20.65C360.188 18.65 362.438 17.65 364.138 17.65C364.838 17.65 365.938 17.7 367.438 17.8C368.938 17.9 370.288 18.2 371.488 18.7C372.788 19.1 373.438 19.85 373.438 20.95C373.438 21.65 373.338 22.35 373.138 23.05C372.938 23.65 372.888 24.35 372.988 25.15C371.988 28.85 370.988 32.5 369.988 36.1C368.988 39.7 367.338 43.1 365.038 46.3C364.538 47 364.288 48.05 364.288 49.45C364.288 50.05 364.338 50.45 364.438 50.65C363.938 51.45 363.788 52.2 363.988 52.9C364.188 53.5 363.788 54.35 362.788 55.45C362.788 56.15 362.988 56.75 363.388 57.25C363.888 57.65 364.238 58.15 364.438 58.75C365.738 56.75 367.388 54.2 369.388 51.1C371.388 47.9 373.588 44.55 375.988 41.05C378.488 37.55 381.038 34.15 383.638 30.85C386.338 27.55 388.938 24.75 391.438 22.45C393.938 20.05 396.188 18.45 398.188 17.65C398.988 17.65 400.238 17.7 401.938 17.8C403.638 17.9 405.188 18.15 406.588 18.55C408.088 18.95 408.838 19.7 408.838 20.8C408.838 22.9 408.488 25.65 407.788 29.05C407.188 32.35 406.388 35.6 405.388 38.8C404.388 42 403.238 44.45 401.938 46.15L403.288 48.4C402.688 49.5 402.238 50.7 401.938 52C401.638 53.2 401.038 54.35 400.138 55.45C400.138 57.55 399.888 59.65 399.388 61.75C398.888 63.75 398.638 65.85 398.638 68.05C398.638 68.45 398.688 68.9 398.788 69.4C398.888 69.9 398.888 70.4 398.788 70.9L399.688 72.85C400.388 72.65 401.088 72.4 401.788 72.1C402.488 71.7 402.988 71.15 403.288 70.45L404.188 70.3H405.388C406.788 69 408.188 67.75 409.588 66.55C411.088 65.25 412.488 63.95 413.788 62.65L414.238 63.1C412.638 66.1 410.438 69.15 407.638 72.25C404.938 75.35 402.588 78.5 400.588 81.7C400.388 81.8 400.088 81.9 399.688 82C399.388 82.2 399.138 82.3 398.938 82.3C397.038 82.3 395.238 81.4 393.538 79.6C391.938 77.9 391.138 76.1 391.138 74.2C391.138 69.7 391.438 65.15 392.038 60.55C392.738 55.85 393.338 51.35 393.838 47.05L393.538 45.25C394.638 41.45 395.438 37.6 395.938 33.7C396.438 29.8 396.838 25.85 397.138 21.85C396.238 22.35 394.788 23.75 392.788 26.05C390.788 28.35 388.488 31.1 385.888 34.3C383.288 37.5 380.688 40.8 378.088 44.2C375.588 47.5 373.338 50.5 371.338 53.2C369.338 55.9 367.938 57.85 367.138 59.05C366.638 59.85 365.888 61.05 364.888 62.65C363.988 64.25 363.138 65.85 362.338 67.45C361.638 69.05 361.188 70.35 360.988 71.35C360.888 71.95 360.788 72.85 360.688 74.05C360.688 75.15 360.488 76.2 360.088 77.2C359.788 78.1 359.188 78.55 358.288 78.55C357.288 78.55 356.388 78.05 355.588 77.05C354.788 75.95 354.388 75.05 354.388 74.35C354.388 72.45 354.638 69.85 355.138 66.55C355.638 63.15 356.138 59.7 356.638 56.2C357.138 52.7 357.388 49.9 357.388 47.8C357.388 47.3 357.338 46.85 357.238 46.45C357.238 46.05 357.188 45.7 357.088 45.4L357.838 44.35L358.588 39.4L359.488 39.7H359.938L360.688 38.65L360.238 37.45L358.438 38.05C358.638 35.25 359.138 32.55 359.938 29.95C360.838 27.35 361.388 24.7 361.588 22C359.088 22.9 356.788 24.3 354.688 26.2C352.688 28.1 350.738 30.1 348.838 32.2C346.938 34.3 344.888 36.2 342.688 37.9L342.238 38.8C341.438 39.4 339.988 40.8 337.888 43C335.888 45.1 333.638 47.6 331.138 50.5C328.638 53.3 326.188 56.1 323.788 58.9C321.488 61.7 319.588 64.15 318.088 66.25C316.688 68.35 316.088 69.7 316.288 70.3C315.488 71.6 314.638 72.85 313.738 74.05C312.838 75.25 311.988 76.4 311.188 77.5C311.388 77.9 311.488 78.25 311.488 78.55C311.488 79.45 310.988 79.9 309.988 79.9C309.088 79.9 308.538 80.2 308.338 80.8L309.388 82.15C309.288 82.55 309.038 83 308.638 83.5C308.338 84.1 307.938 84.4 307.438 84.4ZM324.538 33.7C325.538 33.3 326.038 32.65 326.038 31.75V31.3L324.988 31.9V32.5L324.538 33.7ZM321.988 36.1L322.138 35.95L322.738 35.65V35.95L321.988 36.1ZM316.888 47.35L317.488 47.2L318.388 45.25H317.938L316.888 47.35ZM415.438 62.2L414.538 61.9L415.288 60.7L415.588 60.55L415.888 61L415.438 62.2ZM440.271 88.9L437.271 85.45C436.771 83.45 436.221 81.4 435.621 79.3C435.121 77.3 434.771 75.25 434.571 73.15L435.321 70.3L435.021 70.15C435.421 69.05 435.821 67.95 436.221 66.85C436.721 65.65 436.971 64.5 436.971 63.4C436.471 63.9 435.921 64.4 435.321 64.9C434.821 65.4 434.421 66 434.121 66.7C433.721 67.1 433.371 67.6 433.071 68.2C432.771 68.8 432.371 69.3 431.871 69.7L431.721 71.05C430.321 71.35 428.921 72.05 427.521 73.15C426.221 74.15 424.921 75.15 423.621 76.15C422.321 77.05 420.921 77.5 419.421 77.5C418.721 77.5 417.821 77.45 416.721 77.35C415.721 77.15 414.971 76.85 414.471 76.45C413.171 76.15 412.221 75.8 411.621 75.4C411.121 74.9 410.721 74 410.421 72.7L411.021 70.75L410.571 69.55C411.071 67.95 411.421 66.8 411.621 66.1C411.921 65.4 412.321 64.8 412.821 64.3C413.421 63.8 414.371 63.05 415.671 62.05C415.771 61.55 416.021 61.2 416.421 61C416.921 60.7 417.371 60.5 417.771 60.4L417.921 59.65L419.421 57.85L419.871 58.15L420.771 56.8C421.471 56.3 422.171 56 422.871 55.9C423.671 55.7 424.421 55.4 425.121 55C425.321 53.9 425.971 53.25 427.071 53.05C428.271 52.75 428.971 52.2 429.171 51.4H429.771L432.321 49.75L433.221 50.2L435.321 48.85C435.921 48.85 436.471 48.8 436.971 48.7C437.571 48.6 438.121 48.55 438.621 48.55L439.221 48.85C437.221 49.55 434.921 50.7 432.321 52.3C429.721 53.8 427.171 55.6 424.671 57.7C422.271 59.7 420.271 61.9 418.671 64.3C417.071 66.7 416.271 69.1 416.271 71.5C416.271 73.4 417.271 74.35 419.271 74.35C421.071 74.35 422.921 73.8 424.821 72.7C426.821 71.6 428.621 70.25 430.221 68.65C431.821 67.05 432.971 65.5 433.671 64L436.221 61.9C436.421 61.4 436.671 61.05 436.971 60.85C437.271 60.65 437.471 60.3 437.571 59.8C438.271 59.7 438.771 59.1 439.071 58C439.371 56.9 439.721 55.7 440.121 54.4C440.521 53 441.071 51.8 441.771 50.8C442.471 49.8 443.521 49.3 444.921 49.3C446.021 49.3 447.271 49.8 448.671 50.8C450.071 51.7 450.771 52.8 450.771 54.1C450.771 54.8 450.171 56.15 448.971 58.15C447.771 60.15 446.371 62.5 444.771 65.2C443.271 67.9 441.921 70.7 440.721 73.6C439.521 76.5 438.921 79.25 438.921 81.85C438.921 82.95 439.121 84.05 439.521 85.15C440.021 86.25 440.321 87.35 440.421 88.45L440.271 88.9ZM475.27 77.5C473.77 77.5 472.62 76.9 471.82 75.7L468.37 74.05C467.97 73.15 467.77 72.05 467.77 70.75C467.77 68.65 468.27 66.4 469.27 64C470.37 61.5 471.42 59.4 472.42 57.7C471.72 57.3 471.12 56.8 470.62 56.2C470.12 55.6 469.62 55 469.12 54.4L468.67 54.1C468.27 54.5 467.82 54.85 467.32 55.15C466.82 55.45 466.32 55.65 465.82 55.75C464.92 56.65 463.62 58.15 461.92 60.25C460.22 62.25 458.37 64.35 456.37 66.55C454.37 68.65 452.42 70.5 450.52 72.1C448.72 73.7 447.27 74.5 446.17 74.5L446.02 74.2C446.12 73.6 446.57 72.95 447.37 72.25C448.27 71.45 448.92 70.85 449.32 70.45C449.52 69.65 450.02 68.95 450.82 68.35C451.62 67.75 452.37 67.3 453.07 67H453.22L454.12 65.65L454.87 65.2L454.72 65.05L455.77 64.3C455.97 63.8 456.27 63.35 456.67 62.95C457.07 62.55 457.42 62.15 457.72 61.75V61.45C459.92 59.75 461.92 57.9 463.72 55.9C465.62 53.8 467.57 51.75 469.57 49.75L469.72 49.6L469.57 48.7C469.57 47.6 469.82 46.4 470.32 45.1C470.92 43.7 471.57 42.65 472.27 41.95C472.97 40.95 473.82 39.9 474.82 38.8C475.92 37.6 477.12 37 478.42 37C479.42 37 480.02 37.5 480.22 38.5C480.42 39.4 480.52 40.2 480.52 40.9C480.52 43.4 479.87 45.35 478.57 46.75C477.27 48.05 475.92 49.05 474.52 49.75C473.22 50.45 472.57 51.2 472.57 52L474.97 53.05L475.87 52.3L476.02 52.45H476.32C476.92 52.15 477.52 51.9 478.12 51.7C478.72 51.4 479.37 51.25 480.07 51.25C480.67 51.25 481.27 51.45 481.87 51.85C482.47 52.15 482.97 52.45 483.37 52.75L483.52 54.1C483.62 55 483.22 56 482.32 57.1C481.52 58.1 480.52 59.3 479.32 60.7C478.12 62 477.07 63.6 476.17 65.5C475.27 67.3 474.82 69.4 474.82 71.8C474.82 72.4 474.92 73.05 475.12 73.75C475.42 74.35 475.97 74.65 476.77 74.65C477.97 74.65 479.32 74.2 480.82 73.3C482.32 72.4 483.82 71.4 485.32 70.3C486.82 69.1 488.07 68.2 489.07 67.6L489.67 68.35C489.67 69.05 489.07 69.9 487.87 70.9C486.67 71.9 485.22 72.9 483.52 73.9C481.82 74.9 480.17 75.75 478.57 76.45C477.07 77.15 475.97 77.5 475.27 77.5ZM493.479 80.05C492.479 80.05 491.329 79.45 490.029 78.25C488.829 77.05 487.829 76.15 487.029 75.55C486.929 74.25 486.629 73.1 486.129 72.1C485.629 71 485.379 69.8 485.379 68.5C485.379 66.7 486.029 64.6 487.329 62.2C488.729 59.7 490.479 57.3 492.579 55C494.779 52.6 496.979 50.6 499.179 49C501.479 47.4 503.529 46.6 505.329 46.6V46.3C507.029 46.7 508.529 47.95 509.829 50.05C511.129 52.15 511.779 54.05 511.779 55.75C511.779 56.15 511.679 56.65 511.479 57.25C511.279 57.85 510.929 58.15 510.429 58.15C509.129 57.65 508.029 56.95 507.129 56.05C506.229 55.15 504.979 54.7 503.379 54.7C501.879 54.7 500.329 55.35 498.729 56.65C497.129 57.95 495.679 59.6 494.379 61.6C493.079 63.5 492.029 65.5 491.229 67.6C490.429 69.6 490.029 71.3 490.029 72.7C490.029 72.8 490.079 73.05 490.179 73.45C490.379 73.85 490.529 74.15 490.629 74.35C491.329 74.85 492.179 75.1 493.179 75.1C494.279 75 495.229 75 496.029 75.1L496.179 75.25L496.479 74.5C497.879 74.3 499.179 74 500.379 73.6V72.7H501.279L501.129 72.25L501.879 72.4C502.379 72.2 502.729 72 502.929 71.8C503.229 71.5 503.579 71.25 503.979 71.05L504.729 71.5V71.35L507.429 68.8H507.579L508.179 69.1V68.95C509.479 67.75 510.829 66.65 512.229 65.65C513.729 64.65 514.829 63.35 515.529 61.75L517.479 60.55L517.629 60.85C517.629 61.55 517.379 62.2 516.879 62.8C516.379 63.4 515.829 63.8 515.229 64C514.229 65.9 512.979 67.5 511.479 68.8C509.979 70.1 508.429 71.45 506.829 72.85H506.229L506.079 73.6C504.279 74.9 502.329 76.3 500.229 77.8C498.129 79.3 495.879 80.05 493.479 80.05ZM519.279 60.4L518.079 60.1V59.2L519.429 58.75L519.579 59.2L519.279 60.4ZM513.027 82.6C511.727 82.6 510.877 81.95 510.477 80.65C510.177 79.45 510.027 78.35 510.027 77.35C510.027 76.65 510.177 75.3 510.477 73.3C510.877 71.3 511.377 69.4 511.977 67.6C512.577 65.7 513.227 64.75 513.927 64.75C514.027 63.65 514.427 62.25 515.127 60.55C515.827 58.85 516.727 57.85 517.827 57.55V57.4C518.027 57.1 518.277 56.8 518.577 56.5C518.877 56.2 519.177 55.9 519.477 55.6L519.627 55.3V55.45L519.777 53.35C520.277 53.05 520.677 52.55 520.977 51.85C521.277 51.05 521.677 50.45 522.177 50.05L522.627 50.5C523.327 49.7 524.077 48.9 524.877 48.1C525.777 47.2 526.227 46.15 526.227 44.95C526.727 44.15 527.277 43.45 527.877 42.85C528.577 42.15 529.227 41.45 529.827 40.75H530.277C530.777 40.25 531.327 40 531.927 40L532.527 39.25V37.6L533.127 37.15C533.627 36.45 534.277 35.45 535.077 34.15C535.877 32.85 536.277 31.85 536.277 31.15C536.277 30.85 536.027 30.7 535.527 30.7C535.127 30.7 534.677 30.8 534.177 31C533.677 31.1 533.327 31.15 533.127 31.15V30.4L540.777 23.95V23.8C542.077 22.9 543.327 21.95 544.527 20.95C545.727 19.85 546.977 18.9 548.277 18.1C549.377 18.3 550.577 18.65 551.877 19.15C553.177 19.55 554.077 20.3 554.577 21.4V23.35C553.877 24.05 552.677 25.3 550.977 27.1C549.277 28.9 547.327 30.95 545.127 33.25C542.927 35.45 540.727 37.65 538.527 39.85C536.327 41.95 534.377 43.7 532.677 45.1C531.077 46.5 529.977 47.25 529.377 47.35L527.577 49L528.327 50.35L527.577 51.85C526.777 52.05 525.927 52.7 525.027 53.8C524.227 54.8 523.827 55.75 523.827 56.65C522.927 57.05 522.327 57.5 522.027 58C521.827 58.5 521.527 59 521.127 59.5C520.827 60 519.977 60.5 518.577 61L518.127 61.75V65.05L518.727 65.5L517.977 65.2L517.377 66.4H517.077C516.777 67.4 516.627 68.45 516.627 69.55L517.377 71.35C517.777 70.85 518.577 70.1 519.777 69.1C520.977 68 521.527 67.2 521.427 66.7L522.627 65.5C522.927 64.5 523.627 63.25 524.727 61.75C525.927 60.15 527.227 58.7 528.627 57.4C530.027 56.1 531.227 55.45 532.227 55.45V55.3L534.477 55.45C535.877 56.15 536.727 57.35 537.027 59.05C537.327 60.75 537.777 62.75 538.377 65.05C539.077 67.25 540.577 69.55 542.877 71.95L545.277 70.45H545.727C546.127 69.95 546.727 69.5 547.527 69.1C548.427 68.7 549.177 68.35 549.777 68.05L549.927 68.2C549.927 68.7 549.177 69.55 547.677 70.75C546.277 71.95 544.777 73.05 543.177 74.05C541.577 75.05 540.427 75.65 539.727 75.85L539.277 75.55L537.777 75.85L537.327 75.1C534.827 74.8 533.027 74.15 531.927 73.15C530.827 72.05 530.077 70.85 529.677 69.55C529.377 68.25 529.127 67.05 528.927 65.95C528.727 64.85 528.177 64.15 527.277 63.85C526.577 64.55 525.927 65.25 525.327 65.95C524.727 66.65 524.127 67.4 523.527 68.2C522.627 68.6 521.727 69.55 520.827 71.05C520.027 72.55 519.227 74.2 518.427 76C517.727 77.8 516.927 79.35 516.027 80.65C515.127 81.95 514.127 82.6 513.027 82.6ZM531.027 32.5L530.877 32.05L531.327 31L532.227 31.15L532.527 32.2L531.027 32.5ZM565.984 57.7C565.284 57 564.534 55.85 563.734 54.25C562.934 52.65 562.534 51.35 562.534 50.35V48.85L562.834 49.3C564.834 49.2 566.884 49.1 568.984 49C571.084 48.8 573.084 48.7 574.984 48.7L581.134 48.85L582.034 49.3C582.834 49 584.234 48.85 586.234 48.85C588.334 48.85 589.884 48.8 590.884 48.7L591.184 49.45C590.484 49.85 589.784 50.35 589.084 50.95C588.384 51.55 587.884 52.25 587.584 53.05L586.834 52.3C586.234 53.4 585.384 54.05 584.284 54.25C583.284 54.45 582.734 54.95 582.634 55.75L580.384 56.05L578.884 55.45C577.884 55.65 576.834 55.8 575.734 55.9C574.734 56 573.684 56.05 572.584 56.05C572.084 56.05 571.534 56.05 570.934 56.05C570.334 56.05 569.784 56 569.284 55.9L568.084 56.5L567.634 56.2L565.984 57.7ZM592.384 49.45V48.7L593.434 48.85L593.134 49.45H592.384ZM613.298 84.4C612.198 84.4 610.998 83.95 609.698 83.05C608.398 82.25 607.198 81.25 606.098 80.05C605.098 78.85 604.348 77.8 603.848 76.9C605.048 75.7 605.848 74.45 606.248 73.15C607.048 72.35 607.748 71.45 608.348 70.45C608.948 69.45 609.448 68.45 609.848 67.45H610.298C610.698 66.85 610.998 66.2 611.198 65.5C611.498 64.8 611.848 64.15 612.248 63.55L612.998 60.7L615.248 59.5L616.898 56.95L618.098 55.3L617.348 54.4L617.498 53.8L618.098 53.65L618.848 54.25L620.198 52.9H619.898L618.998 53.35L620.048 50.8V50.5L618.698 51.4C618.898 50.8 619.198 50.25 619.598 49.75C619.998 49.25 620.548 49 621.248 49L622.148 46.9L621.998 46L625.148 41.95L624.848 40.75C625.248 40.15 625.598 39.6 625.898 39.1C626.298 38.5 626.598 37.85 626.798 37.15L628.748 36.55L628.898 35.95L628.148 34.3C628.148 32.8 628.948 31.95 630.548 31.75L629.648 31.3L629.498 31.15L630.698 29.95L630.848 30.55L631.898 29.5L631.148 28.45C631.648 27.75 631.948 27 632.048 26.2C632.148 25.3 632.198 24.45 632.198 23.65C634.098 21.35 635.248 19.1 635.648 16.9C636.148 14.6 636.448 12.05 636.548 9.24999L635.648 8.5C633.248 8.6 630.948 9 628.748 9.7C626.648 10.4 624.498 11.3 622.298 12.4C619.998 13.6 618.398 14.75 617.498 15.85C616.598 16.95 615.848 18.05 615.248 19.15C614.748 20.25 613.698 21.5 612.098 22.9C611.398 23.6 610.348 24.25 608.948 24.85C607.648 25.35 607.098 26.3 607.298 27.7C604.398 28.7 602.598 30.5 601.898 33.1C601.298 35.7 600.998 38.3 600.998 40.9C600.898 41 600.798 41.2 600.698 41.5C600.598 41.8 600.498 42.05 600.398 42.25C599.398 41.35 598.748 39.9 598.448 37.9C598.148 35.8 597.998 34.1 597.998 32.8C597.998 30.6 598.848 28.3 600.548 25.9C602.248 23.4 604.448 21 607.148 18.7C609.948 16.3 612.898 14.15 615.998 12.25C619.098 10.35 622.098 8.85 624.998 7.75C627.898 6.55 630.298 5.95 632.198 5.95C634.098 5.95 636.198 6.4 638.498 7.3C640.898 8.1 642.948 9.3 644.648 10.9C646.448 12.5 647.348 14.35 647.348 16.45C647.348 18.05 646.798 19.95 645.698 22.15C644.598 24.25 643.698 26 642.998 27.4C642.698 27.6 641.798 28.75 640.298 30.85C638.798 32.95 637.048 35.55 635.048 38.65C633.048 41.65 631.048 44.7 629.048 47.8C627.048 50.8 625.348 53.4 623.948 55.6C622.648 57.8 621.898 59.1 621.698 59.5C621.198 60.2 620.498 61.15 619.598 62.35C618.698 63.55 618.248 64.6 618.248 65.5L618.398 66.55C619.898 65.05 621.948 62.85 624.548 59.95C627.248 56.95 630.198 53.6 633.398 49.9C636.698 46.2 640.098 42.5 643.598 38.8C647.198 35 650.648 31.5 653.948 28.3C657.348 25.1 660.448 22.55 663.248 20.65C666.048 18.65 668.298 17.65 669.998 17.65C670.698 17.65 671.798 17.7 673.298 17.8C674.798 17.9 676.148 18.2 677.348 18.7C678.648 19.1 679.298 19.85 679.298 20.95C679.298 21.65 679.198 22.35 678.998 23.05C678.798 23.65 678.748 24.35 678.848 25.15C677.848 28.85 676.848 32.5 675.848 36.1C674.848 39.7 673.198 43.1 670.898 46.3C670.398 47 670.148 48.05 670.148 49.45C670.148 50.05 670.198 50.45 670.298 50.65C669.798 51.45 669.648 52.2 669.848 52.9C670.048 53.5 669.648 54.35 668.648 55.45C668.648 56.15 668.848 56.75 669.248 57.25C669.748 57.65 670.098 58.15 670.298 58.75C671.598 56.75 673.248 54.2 675.248 51.1C677.248 47.9 679.448 44.55 681.848 41.05C684.348 37.55 686.898 34.15 689.498 30.85C692.198 27.55 694.798 24.75 697.298 22.45C699.798 20.05 702.048 18.45 704.048 17.65C704.848 17.65 706.098 17.7 707.798 17.8C709.498 17.9 711.048 18.15 712.448 18.55C713.948 18.95 714.698 19.7 714.698 20.8C714.698 22.9 714.348 25.65 713.648 29.05C713.048 32.35 712.248 35.6 711.248 38.8C710.248 42 709.098 44.45 707.798 46.15L709.148 48.4C708.548 49.5 708.098 50.7 707.798 52C707.498 53.2 706.898 54.35 705.998 55.45C705.998 57.55 705.748 59.65 705.248 61.75C704.748 63.75 704.498 65.85 704.498 68.05C704.498 68.45 704.548 68.9 704.648 69.4C704.748 69.9 704.748 70.4 704.648 70.9L705.548 72.85C706.248 72.65 706.948 72.4 707.648 72.1C708.348 71.7 708.848 71.15 709.148 70.45L710.048 70.3H711.248C712.648 69 714.048 67.75 715.448 66.55C716.948 65.25 718.348 63.95 719.648 62.65L720.098 63.1C718.498 66.1 716.298 69.15 713.498 72.25C710.798 75.35 708.448 78.5 706.448 81.7C706.248 81.8 705.948 81.9 705.548 82C705.248 82.2 704.998 82.3 704.798 82.3C702.898 82.3 701.098 81.4 699.398 79.6C697.798 77.9 696.998 76.1 696.998 74.2C696.998 69.7 697.298 65.15 697.898 60.55C698.598 55.85 699.198 51.35 699.698 47.05L699.398 45.25C700.498 41.45 701.298 37.6 701.798 33.7C702.298 29.8 702.698 25.85 702.998 21.85C702.098 22.35 700.648 23.75 698.648 26.05C696.648 28.35 694.348 31.1 691.748 34.3C689.148 37.5 686.548 40.8 683.948 44.2C681.448 47.5 679.198 50.5 677.198 53.2C675.198 55.9 673.798 57.85 672.998 59.05C672.498 59.85 671.748 61.05 670.748 62.65C669.848 64.25 668.998 65.85 668.198 67.45C667.498 69.05 667.048 70.35 666.848 71.35C666.748 71.95 666.648 72.85 666.548 74.05C666.548 75.15 666.348 76.2 665.948 77.2C665.648 78.1 665.048 78.55 664.148 78.55C663.148 78.55 662.248 78.05 661.448 77.05C660.648 75.95 660.248 75.05 660.248 74.35C660.248 72.45 660.498 69.85 660.998 66.55C661.498 63.15 661.998 59.7 662.498 56.2C662.998 52.7 663.248 49.9 663.248 47.8C663.248 47.3 663.198 46.85 663.098 46.45C663.098 46.05 663.048 45.7 662.948 45.4L663.698 44.35L664.448 39.4L665.348 39.7H665.798L666.548 38.65L666.098 37.45L664.298 38.05C664.498 35.25 664.998 32.55 665.798 29.95C666.698 27.35 667.248 24.7 667.448 22C664.948 22.9 662.648 24.3 660.548 26.2C658.548 28.1 656.598 30.1 654.698 32.2C652.798 34.3 650.748 36.2 648.548 37.9L648.098 38.8C647.298 39.4 645.848 40.8 643.748 43C641.748 45.1 639.498 47.6 636.998 50.5C634.498 53.3 632.048 56.1 629.648 58.9C627.348 61.7 625.448 64.15 623.948 66.25C622.548 68.35 621.948 69.7 622.148 70.3C621.348 71.6 620.498 72.85 619.598 74.05C618.698 75.25 617.848 76.4 617.048 77.5C617.248 77.9 617.348 78.25 617.348 78.55C617.348 79.45 616.848 79.9 615.848 79.9C614.948 79.9 614.398 80.2 614.198 80.8L615.248 82.15C615.148 82.55 614.898 83 614.498 83.5C614.198 84.1 613.798 84.4 613.298 84.4ZM630.398 33.7C631.398 33.3 631.898 32.65 631.898 31.75V31.3L630.848 31.9V32.5L630.398 33.7ZM627.848 36.1L627.998 35.95L628.598 35.65V35.95L627.848 36.1ZM622.748 47.35L623.348 47.2L624.248 45.25H623.798L622.748 47.35ZM721.298 62.2L720.398 61.9L721.148 60.7L721.448 60.55L721.748 61L721.298 62.2ZM746.131 88.9L743.131 85.45C742.631 83.45 742.081 81.4 741.481 79.3C740.981 77.3 740.631 75.25 740.431 73.15L741.181 70.3L740.881 70.15C741.281 69.05 741.681 67.95 742.081 66.85C742.581 65.65 742.831 64.5 742.831 63.4C742.331 63.9 741.781 64.4 741.181 64.9C740.681 65.4 740.281 66 739.981 66.7C739.581 67.1 739.231 67.6 738.931 68.2C738.631 68.8 738.231 69.3 737.731 69.7L737.581 71.05C736.181 71.35 734.781 72.05 733.381 73.15C732.081 74.15 730.781 75.15 729.481 76.15C728.181 77.05 726.781 77.5 725.281 77.5C724.581 77.5 723.681 77.45 722.581 77.35C721.581 77.15 720.831 76.85 720.331 76.45C719.031 76.15 718.081 75.8 717.481 75.4C716.981 74.9 716.581 74 716.281 72.7L716.881 70.75L716.431 69.55C716.931 67.95 717.281 66.8 717.481 66.1C717.781 65.4 718.181 64.8 718.681 64.3C719.281 63.8 720.231 63.05 721.531 62.05C721.631 61.55 721.881 61.2 722.281 61C722.781 60.7 723.231 60.5 723.631 60.4L723.781 59.65L725.281 57.85L725.731 58.15L726.631 56.8C727.331 56.3 728.031 56 728.731 55.9C729.531 55.7 730.281 55.4 730.981 55C731.181 53.9 731.831 53.25 732.931 53.05C734.131 52.75 734.831 52.2 735.031 51.4H735.631L738.181 49.75L739.081 50.2L741.181 48.85C741.781 48.85 742.331 48.8 742.831 48.7C743.431 48.6 743.981 48.55 744.481 48.55L745.081 48.85C743.081 49.55 740.781 50.7 738.181 52.3C735.581 53.8 733.031 55.6 730.531 57.7C728.131 59.7 726.131 61.9 724.531 64.3C722.931 66.7 722.131 69.1 722.131 71.5C722.131 73.4 723.131 74.35 725.131 74.35C726.931 74.35 728.781 73.8 730.681 72.7C732.681 71.6 734.481 70.25 736.081 68.65C737.681 67.05 738.831 65.5 739.531 64L742.081 61.9C742.281 61.4 742.531 61.05 742.831 60.85C743.131 60.65 743.331 60.3 743.431 59.8C744.131 59.7 744.631 59.1 744.931 58C745.231 56.9 745.581 55.7 745.981 54.4C746.381 53 746.931 51.8 747.631 50.8C748.331 49.8 749.381 49.3 750.781 49.3C751.881 49.3 753.131 49.8 754.531 50.8C755.931 51.7 756.631 52.8 756.631 54.1C756.631 54.8 756.031 56.15 754.831 58.15C753.631 60.15 752.231 62.5 750.631 65.2C749.131 67.9 747.781 70.7 746.581 73.6C745.381 76.5 744.781 79.25 744.781 81.85C744.781 82.95 744.981 84.05 745.381 85.15C745.881 86.25 746.181 87.35 746.281 88.45L746.131 88.9ZM759.229 109.15C757.429 109.15 755.579 108.6 753.679 107.5C751.879 106.4 750.379 105 749.179 103.3C747.979 101.6 747.379 99.85 747.379 98.05L747.829 97.15C748.929 98.25 749.729 99.4 750.229 100.6C750.629 101.9 751.229 103 752.029 103.9C752.929 104.8 754.429 105.25 756.529 105.25C757.029 105.25 757.479 105.2 757.879 105.1C758.279 105 758.679 104.9 759.079 104.8C759.979 105.1 761.329 104.5 763.129 103C764.929 101.6 766.779 99.8 768.679 97.6C770.679 95.5 772.379 93.4 773.779 91.3C775.279 89.3 776.079 87.85 776.179 86.95C777.879 84.65 779.429 82.2 780.829 79.6C782.229 77.1 783.579 74.65 784.879 72.25L785.029 70.3L786.379 69.7L786.229 69.4V67.15L789.829 60.85L789.679 60.25C787.179 63.35 784.579 66.55 781.879 69.85C779.279 73.05 776.629 76.2 773.929 79.3C773.329 79.9 772.629 80.25 771.829 80.35C771.029 80.55 770.229 80.65 769.429 80.65C767.829 80.65 766.629 80.1 765.829 79C765.029 78 764.629 76.75 764.629 75.25C764.629 73.35 764.979 71.55 765.679 69.85C766.479 68.05 767.329 66.4 768.229 64.9L768.079 64.45C768.879 63.75 769.479 62.8 769.879 61.6C770.379 60.3 770.929 59.2 771.529 58.3C768.829 60.2 766.179 62.35 763.579 64.75C761.079 67.15 758.579 69.5 756.079 71.8L755.929 71.5C755.929 71.2 756.479 70.4 757.579 69.1C758.779 67.7 760.229 66.1 761.929 64.3C763.729 62.5 765.529 60.7 767.329 58.9C769.229 57 770.879 55.35 772.279 53.95C773.779 52.55 774.779 51.65 775.279 51.25L780.529 49.9C781.029 49.7 781.879 49.9 783.079 50.5C784.279 51 784.879 51.55 784.879 52.15C784.879 52.75 784.379 53.65 783.379 54.85C782.379 55.95 781.629 56.75 781.129 57.25H780.979L781.279 57.85L777.979 61.15L777.829 62.05L776.779 62.35C776.579 62.55 776.329 62.85 776.029 63.25C775.829 63.55 775.829 63.95 776.029 64.45C774.929 64.85 774.379 65.35 774.379 65.95C774.379 66.15 774.379 66.4 774.379 66.7C774.479 66.9 774.579 67.15 774.679 67.45L773.179 68.35L773.479 68.8C772.979 69 772.729 69.55 772.729 70.45L772.879 71.95L773.179 72.4C773.179 73 773.079 73.55 772.879 74.05C772.679 74.55 772.529 75.1 772.429 75.7L772.729 76C773.629 75.9 775.029 74.9 776.929 73C778.829 71 780.829 68.6 782.929 65.8C785.029 63 786.879 60.35 788.479 57.85C790.179 55.35 791.279 53.55 791.779 52.45C792.279 51.55 792.779 50.7 793.279 49.9C793.779 49.1 794.529 48.7 795.529 48.7H796.879C797.679 48.7 798.529 48.95 799.429 49.45C800.429 49.95 800.929 50.7 800.929 51.7C800.929 52.2 800.529 53.4 799.729 55.3C798.929 57.2 797.929 59.45 796.729 62.05C795.629 64.65 794.429 67.25 793.129 69.85C791.829 72.45 790.679 74.7 789.679 76.6C788.679 78.5 787.979 79.7 787.579 80.2C787.479 80.8 787.279 81.65 786.979 82.75C786.679 83.95 786.229 84.7 785.629 85C784.129 87.8 782.379 90.35 780.379 92.65C778.479 95.05 776.629 97.55 774.829 100.15L772.279 101.35C771.879 101.75 771.529 102.15 771.229 102.55C770.929 103.05 770.529 103.45 770.029 103.75H769.579C768.079 105.25 766.529 106.5 764.929 107.5C763.429 108.6 761.529 109.15 759.229 109.15ZM787.034 90.85C786.434 90.85 785.784 90.75 785.084 90.55C784.384 90.45 783.784 90.2 783.284 89.8C783.584 89.1 784.834 88.3 787.034 87.4C789.234 86.5 791.784 85.55 794.684 84.55C797.584 83.65 800.334 82.65 802.934 81.55C805.634 80.55 807.634 79.55 808.934 78.55L810.884 78.85C811.884 78.45 812.384 77.6 812.384 76.3C816.784 74.5 820.934 71.75 824.834 68.05C828.734 64.35 832.134 60.15 835.034 55.45C838.034 50.75 840.384 45.85 842.084 40.75C843.784 35.65 844.634 30.75 844.634 26.05C844.634 22.85 843.934 19.6 842.534 16.3C841.234 12.9 839.284 10.05 836.684 7.75C834.184 5.45 831.134 4.3 827.534 4.3C826.934 4.3 826.034 4.25 824.834 4.15C823.734 3.94999 823.184 3.39999 823.184 2.49999C824.084 1.49999 825.284 0.999994 826.784 0.999994C829.684 0.999994 832.734 1.8 835.934 3.4C839.134 5 842.134 7.15 844.934 9.85C847.734 12.45 849.984 15.3 851.684 18.4C853.484 21.5 854.384 24.5 854.384 27.4C854.384 28.6 854.084 29.75 853.484 30.85C852.984 31.85 852.584 32.9 852.284 34C851.684 32.7 851.134 31.45 850.634 30.25L850.034 29.8C849.934 29.9 849.834 30.1 849.734 30.4C849.634 30.7 849.584 30.95 849.584 31.15C849.584 33.55 849.934 35.25 850.634 36.25C851.434 37.25 852.484 38.7 853.784 40.6C852.684 41.3 851.784 42.4 851.084 43.9L851.984 44.65C851.484 46.85 850.884 48.7 850.184 50.2L849.584 50.8C848.584 52.6 847.934 54.1 847.634 55.3C847.334 56.5 846.284 57.8 844.484 59.2L844.634 60.7C844.634 62.1 844.034 62.75 842.834 62.65C843.034 62.45 842.934 62.35 842.534 62.35C842.234 62.25 842.134 62.3 842.234 62.5L840.884 61.3L839.984 62.5C838.584 62.7 837.484 63.25 836.684 64.15L837.434 65.5C836.234 66.1 835.284 66.9 834.584 67.9L834.134 67.6L833.984 68.2C832.984 68.3 832.034 68.45 831.134 68.65C830.234 68.85 829.334 69.05 828.434 69.25L827.684 71.05C826.284 71.25 825.334 71.45 824.834 71.65C824.334 71.75 824.034 72.05 823.934 72.55C823.834 73.05 823.634 74 823.334 75.4L822.884 74.2L821.684 74.65C820.384 74.65 818.934 75.4 817.334 76.9C815.734 78.3 814.234 79.25 812.834 79.75V80.8L811.334 82.45L810.884 82.15C810.184 82.25 809.534 82.5 808.934 82.9C808.434 83.3 807.934 83.75 807.434 84.25L807.284 85L807.584 85.3C807.884 85.3 808.234 85.15 808.634 84.85C809.134 84.55 809.484 84.35 809.684 84.25L810.434 84.4L811.034 83.95L810.884 83.5L811.634 83.8L812.684 82.75L814.034 83.35C813.634 83.65 813.284 83.95 812.984 84.25C812.784 84.55 812.434 84.8 811.934 85V84.25C810.534 86.05 809.134 87 807.734 87.1C806.434 87.3 804.734 87.4 802.634 87.4C802.134 87.4 801.584 87.45 800.984 87.55C800.484 87.65 799.984 87.75 799.484 87.85C798.384 88.95 797.234 89.5 796.034 89.5C794.834 89.5 793.534 89.5 792.134 89.5C791.434 90 790.634 90.35 789.734 90.55C788.734 90.75 787.834 90.85 787.034 90.85ZM839.384 61.45C840.884 60.05 842.034 58.25 842.834 56.05L843.584 56.65H844.034V53.65C844.934 53.35 845.634 52.55 846.134 51.25C846.734 49.95 847.184 48.6 847.484 47.2C847.784 45.7 847.934 44.55 847.934 43.75C847.234 44.95 846.434 45.85 845.534 46.45C844.634 46.95 844.184 47.85 844.184 49.15C844.184 49.25 844.184 49.45 844.184 49.75C844.184 49.95 844.234 50.2 844.334 50.5C844.034 51.8 843.384 52.75 842.384 53.35C842.284 54.75 841.834 56.15 841.034 57.55C840.334 58.85 839.634 60.1 838.934 61.3L839.384 61.45ZM848.234 50.65C848.434 50.25 848.634 49.85 848.834 49.45C849.034 48.95 849.184 48.5 849.284 48.1H848.834L847.784 49.15L848.234 50.65ZM847.334 54.1C847.634 53.6 847.784 53.1 847.784 52.6L847.184 53.35L847.334 54.1ZM845.984 55.6L846.134 54.1L845.684 53.95L845.384 54.4L845.984 55.6ZM830.534 67.6C831.634 67.1 832.384 66.35 832.784 65.35C832.384 65.45 831.934 65.7 831.434 66.1C830.934 66.4 830.584 66.8 830.384 67.3L830.534 67.6ZM831.134 73.3L829.634 71.95L830.534 70L831.884 69.55C832.284 69.85 832.534 70.25 832.634 70.75C832.734 71.15 832.834 71.55 832.934 71.95L831.584 73.3H831.134ZM827.684 73.45L826.784 73.3L826.184 73L827.384 72.1L828.884 73L827.684 73.45ZM827.834 76.9C827.034 76.4 826.484 75.6 826.184 74.5L826.484 74.35H827.384L827.984 75.85L829.334 74.95C829.234 75.35 828.984 75.7 828.584 76C828.284 76.3 828.034 76.6 827.834 76.9ZM822.584 77.2C821.584 77 821.084 76.45 821.084 75.55L822.734 76.15L822.884 76.6L822.584 77.2ZM824.684 77.8L823.934 76.6L826.034 76.9L824.684 77.8ZM818.234 79.45L817.184 78.55L819.134 77.95L818.234 79.45ZM822.584 79.75L821.984 78.4L823.784 78.1L822.584 79.75ZM820.034 80.5L819.884 80.35V79.75L820.334 79.6H820.934L821.234 79.9L820.784 80.5H820.034ZM816.284 83.05L815.534 82.15L814.784 81.85L816.584 80.2L817.034 82.15L818.084 81.4L818.384 81.85L816.284 83.05ZM796.334 89.05L797.684 88.3L796.784 87.4C796.384 87.6 795.984 87.7 795.584 87.7C795.184 87.8 794.734 87.85 794.234 87.85L796.334 89.05Z" fill="#BE0029"/>
</svg>
