<svg width="1151" height="109" viewBox="0 0 1151 109" fill="none" xmlns="http://www.w3.org/2000/svg">
<path d="M3.45 98.2C2.45 97.7 1.9 96.9 1.8 95.8C1.7 94.7 1.4 93.75 0.899999 92.95L2.55 87.4L4.35 88.6H4.65L6.15 87.25L7.35 87.1L8.25 86.35C13.75 84.95 19.05 83.1 24.15 80.8H24.45C23.75 81.6 22.85 82.55 21.75 83.65C20.65 84.75 19.6 85.55 18.6 86.05L17.85 87.4L18.75 87.85C19.95 87.85 21.75 87.1 24.15 85.6C26.65 84.1 29.4 82.2 32.4 79.9C35.4 77.6 38.4 75.2 41.4 72.7C44.4 70.1 47.05 67.75 49.35 65.65C51.75 63.55 53.5 61.95 54.6 60.85C53.3 61.15 51.95 61.5 50.55 61.9C49.25 62.3 47.9 62.6 46.5 62.8C46 63.3 45.45 64 44.85 64.9C44.25 65.8 43.5 66.25 42.6 66.25C41.6 66.25 40.45 66 39.15 65.5C37.95 64.9 37.35 63.95 37.35 62.65C37.35 61.65 37.95 60.45 39.15 59.05C40.45 57.65 41.6 56.95 42.6 56.95L42.9 57.85C44.1 57.95 45.3 58.05 46.5 58.15C47.7 58.15 48.9 58.15 50.1 58.15L51.6 57.7L52.95 58.15C53.75 57.45 54.65 57.05 55.65 56.95C56.75 56.85 57.8 56.8 58.8 56.8C60.4 55.2 62.55 53.05 65.25 50.35C67.95 47.65 70.75 44.75 73.65 41.65C76.55 38.45 79.1 35.4 81.3 32.5C83.5 29.6 84.95 27.2 85.65 25.3L85.95 24.85L86.1 25C87.4 23.1 88.3 21 88.8 18.7C89.3 16.4 89.95 14.25 90.75 12.25V12.4C90.85 12.2 91 11.85 91.2 11.35C91.4 10.85 91.5 10.5 91.5 10.3C91.5 8.69999 91.05 7.25 90.15 5.95C90.15 5.35 90.55 4.64999 91.35 3.84999C92.15 2.94999 93.05 2.19999 94.05 1.6C95.05 0.899998 95.85 0.55 96.45 0.55C96.95 0.55 97.2 0.649998 97.2 0.849996L97.35 4.6C97.55 8.3 97.1 11.4 96 13.9C94.9 16.4 93.6 19.25 92.1 22.45V22.15C91.3 23.25 90.65 24.45 90.15 25.75C89.65 27.05 89.05 28.35 88.35 29.65C86.05 33.65 83.3 37.4 80.1 40.9C76.9 44.3 73.8 47.75 70.8 51.25H70.65C69.85 51.25 69 51.9 68.1 53.2C67.2 54.4 66.55 55.35 66.15 56.05H65.7L64.5 56.8V56.95C67.7 56.75 70.95 56.5 74.25 56.2C77.55 55.8 80.85 55.55 84.15 55.45L86.55 51.55L86.4 49.9L87.75 48.4C88.35 45.5 89.1 42.65 90 39.85C91 36.95 92.05 34.1 93.15 31.3V30.7C93.45 30.1 93.9 28.9 94.5 27.1C95.1 25.2 95.65 23.45 96.15 21.85C96.75 20.25 97.2 19.45 97.5 19.45C97.7 18.75 97.95 17.6 98.25 16C98.55 14.4 98.95 12.9 99.45 11.5C100.05 10.1 100.75 9.4 101.55 9.4C103.35 10.2 105.15 10.9 106.95 11.5C108.85 12 110.65 12.65 112.35 13.45L113.7 15.55C113.4 16.55 113.05 17.55 112.65 18.55C112.35 19.55 112 20.55 111.6 21.55L110.7 20.5L109.95 21.25C109.05 20.45 107.95 20 106.65 19.9C106.15 20.1 105.7 20.5 105.3 21.1C104.9 21.6 104.6 22.15 104.4 22.75C105 22.85 105.6 22.9 106.2 22.9C106.9 22.9 107.6 22.9 108.3 22.9H110.1C110 23.4 109.6 23.8 108.9 24.1C108.2 24.3 107.6 24.5 107.1 24.7L106.05 23.8L104.85 25.3L103.95 24.85C103.95 25.95 103.55 26.7 102.75 27.1L101.25 28L100.65 29.65L102.6 30.7L102.15 32.65L101.1 33.25L100.35 33.1C99.95 33.7 99.35 34.95 98.55 36.85C97.75 38.65 96.95 40.65 96.15 42.85C95.45 45.05 94.8 47.1 94.2 49C93.7 50.8 93.45 52.05 93.45 52.75V53.5H95.55C98.55 53.5 101.55 53.25 104.55 52.75C107.55 52.25 110.55 51.85 113.55 51.55L114.15 51.25L114.6 51.55C114 53.05 112.75 54 110.85 54.4C109.05 54.8 106.95 55.15 104.55 55.45C102.25 55.65 99.95 56.15 97.65 56.95C95.45 57.75 93.6 59.3 92.1 61.6C90.6 63.8 89.85 67.15 89.85 71.65V72.4L90 72.25L91.8 71.5C91.5 73.3 91.3 75.1 91.2 76.9C91.1 78.6 91.05 80.3 91.05 82V88L90.15 89.2C89.65 89.1 89.15 89 88.65 88.9C88.15 88.9 87.65 88.9 87.15 88.9C86.75 88.9 86.3 88.9 85.8 88.9C85.3 89 84.8 89.1 84.3 89.2C83.9 89 83.4 88.8 82.8 88.6C82.3 88.5 81.75 88.55 81.15 88.75C80.25 88.45 79.25 88.05 78.15 87.55L77.4 84.1C78.3 83.6 78.75 82.8 78.75 81.7L78.3 80.8C78.8 78.3 79.35 75.85 79.95 73.45C80.55 71.05 81.15 68.65 81.75 66.25C82.05 65.65 82.3 65.05 82.5 64.45C82.7 63.85 82.8 63.25 82.8 62.65L83.7 61.45L84 60.25L83.4 58.3L78.3 58.15C78.3 58.55 77.55 59 76.05 59.5C74.55 60 72.95 60.5 71.25 61C69.65 61.4 68.6 61.75 68.1 62.05C67.7 62.25 67.25 62.55 66.75 62.95C66.25 63.25 65.7 63.35 65.1 63.25L63.45 63.1L62.85 61.75L62.1 62.2H59.4L57.9 63.4H58.05L56.55 64.9H56.25L52.8 67.6L52.95 67.75C49.95 70.55 46.45 73.55 42.45 76.75C38.45 79.85 34.2 82.85 29.7 85.75C25.2 88.75 20.7 91.35 16.2 93.55C11.7 95.75 7.45 97.3 3.45 98.2ZM107.55 18.1L107.7 17.65H107.4L107.1 17.95L107.55 18.1ZM105.75 31L105.15 30.85L106.2 29.35L106.65 30.85L105.75 31ZM99.9 32.5L100.65 31.45L100.5 31L99 32.05L99.9 32.5ZM26.7 79.75L27 78.85L27.45 79L27.6 79.6L27.45 79.75H26.7ZM138.595 87.85L136.345 84.25C136.245 83.65 136.045 83.05 135.745 82.45C135.545 81.85 135.445 81.2 135.445 80.5C135.445 79.5 135.495 78.6 135.595 77.8C135.695 76.9 135.795 75.95 135.895 74.95L136.945 72.55L136.795 72.25C136.995 71.85 137.145 71.45 137.245 71.05C137.445 70.55 137.595 70.1 137.695 69.7L137.095 69.25C136.395 69.25 135.395 69.95 134.095 71.35C132.895 72.65 131.495 73.95 129.895 75.25C128.395 76.55 126.645 77.2 124.645 77.2C123.345 77.2 122.145 76.8 121.045 76C119.945 75.2 119.445 74 119.545 72.4L119.395 72.1C120.495 70.1 121.445 68.05 122.245 65.95C123.045 63.85 123.895 61.8 124.795 59.8L123.895 58.15L123.445 58.3L122.695 58L121.195 59.5L119.095 59.95L119.395 60.7H119.095L117.595 61.15L117.295 61.75H116.395L116.245 62.65C115.745 63.15 115.195 63.7 114.595 64.3C113.995 64.9 113.295 65.25 112.495 65.35L103.495 73.9L103.345 73.45C103.345 72.75 103.595 72.2 104.095 71.8C104.595 71.3 105.045 70.85 105.445 70.45L105.595 70.15L106.045 69.85L106.195 70L106.645 68.95H106.495C106.695 68.75 106.895 68.5 107.095 68.2C107.395 67.8 107.745 67.6 108.145 67.6H108.445C108.445 67.6 108.445 67.5 108.445 67.3C109.045 66.4 109.845 65.6 110.845 64.9H111.295L111.745 64.45L111.595 64.15L113.095 63.55C112.995 62.55 113.795 61.45 115.495 60.25C117.195 59.05 119.045 58 121.045 57.1C123.045 56.1 124.445 55.6 125.245 55.6C126.345 55.6 127.645 55.9 129.145 56.5C130.645 57 131.395 57.95 131.395 59.35C131.395 62.15 130.895 64.4 129.895 66.1C128.895 67.8 128.345 68.9 128.245 69.4L128.695 69.7C129.895 69.7 130.845 69.35 131.545 68.65C132.245 67.85 132.945 67.05 133.645 66.25C134.445 65.45 135.395 65 136.495 64.9C136.395 64.8 136.445 64.75 136.645 64.75C136.845 64.65 136.945 64.7 136.945 64.9C137.345 64.2 138.245 63.1 139.645 61.6C141.045 60 142.495 58.5 143.995 57.1C145.495 55.7 146.545 55 147.145 55C148.245 55 149.495 55.4 150.895 56.2C152.295 57 152.995 58 152.995 59.2C152.995 59.7 152.595 60.65 151.795 62.05C151.095 63.35 150.245 64.75 149.245 66.25C148.245 67.75 147.245 69.1 146.245 70.3C145.345 71.4 144.645 72.05 144.145 72.25C143.245 73.85 141.995 75.7 140.395 77.8C138.895 79.8 138.145 81.8 138.145 83.8C138.145 84.5 138.245 85.15 138.445 85.75C138.645 86.35 138.745 86.95 138.745 87.55L138.595 87.85ZM159.196 85.3C157.596 85.3 156.296 84.6 155.296 83.2C154.296 81.9 153.796 80.45 153.796 78.85C153.796 77.65 154.146 75.85 154.846 73.45C155.646 70.95 156.596 68.35 157.696 65.65C158.796 62.85 159.946 60.35 161.146 58.15C162.346 55.95 163.446 54.5 164.446 53.8C165.846 51.6 167.096 49.55 168.196 47.65C166.596 47.95 164.996 48.3 163.396 48.7C161.796 49 160.296 49.45 158.896 50.05C158.196 50.95 157.396 51.4 156.496 51.4C156.196 51.2 155.846 51 155.446 50.8C155.046 50.6 154.696 50.35 154.396 50.05L154.546 49.75H154.396V49.45C154.396 48.95 154.296 48.5 154.096 48.1C153.996 47.6 153.896 47.15 153.796 46.75C153.696 46.65 153.646 46.4 153.646 46C153.646 44.7 154.246 43.85 155.446 43.45C156.746 43.05 158.046 42.85 159.346 42.85C161.246 42.85 162.546 43 163.246 43.3L164.746 43H168.496C169.196 43 169.846 43 170.446 43C171.046 43 171.646 42.95 172.246 42.85L172.846 41.95L172.696 41.35C172.996 40.65 173.646 39.5 174.646 37.9C175.646 36.3 176.696 34.6 177.796 32.8C178.896 31 179.846 29.45 180.646 28.15C181.546 26.75 181.996 26.05 181.996 26.05C181.996 25.45 182.496 25.1 183.496 25C184.496 24.9 185.146 24.85 185.446 24.85C186.546 24.85 188.046 25.2 189.946 25.9C191.846 26.5 192.796 27.55 192.796 29.05C192.796 29.95 192.446 30.7 191.746 31.3C191.046 31.8 190.296 32.15 189.496 32.35V32.5C189.496 33.1 189.046 33.8 188.146 34.6C187.346 35.4 186.396 36.1 185.296 36.7C184.196 37.3 183.346 37.7 182.746 37.9C182.446 38 182.046 38.4 181.546 39.1C181.146 39.7 180.846 40.15 180.646 40.45V41.05C180.246 41.35 179.796 41.7 179.296 42.1C178.896 42.4 178.546 42.8 178.246 43.3C178.746 43.4 179.246 43.45 179.746 43.45C180.246 43.45 180.746 43.45 181.246 43.45C182.046 43.45 182.796 43.45 183.496 43.45C184.296 43.45 185.046 43.5 185.746 43.6L190.396 44.2C189.196 45.2 187.846 45.8 186.346 46C184.846 46.1 183.296 46.15 181.696 46.15C180.196 46.05 178.746 46.3 177.346 46.9C176.646 47.1 175.696 47.7 174.496 48.7C173.396 49.7 172.396 50.8 171.496 52C170.596 53.1 170.146 54.05 170.146 54.85L166.696 59.5C165.696 60 165.196 60.75 165.196 61.75C165.196 62.75 164.646 63.25 163.546 63.25L161.446 68.05C161.346 68.65 161.196 69.6 160.996 70.9C160.896 72.1 160.496 72.8 159.796 73C159.796 74.3 159.746 75.6 159.646 76.9C159.546 78.1 159.496 79.3 159.496 80.5L159.796 81.1H160.996C162.996 79.1 165.046 77.2 167.146 75.4C169.346 73.5 171.396 71.5 173.296 69.4L174.046 69.1H174.346L175.246 67.9L175.846 67.6L175.696 67.45L176.596 66.7C177.396 65.2 178.696 63.95 180.496 62.95L180.646 63.25C180.646 63.75 179.996 64.85 178.696 66.55C177.396 68.15 175.746 70.05 173.746 72.25C171.846 74.35 169.846 76.4 167.746 78.4C165.746 80.4 163.946 82.05 162.346 83.35C160.746 84.65 159.696 85.3 159.196 85.3ZM207.004 87.85L204.754 84.25C204.654 83.65 204.454 83.05 204.154 82.45C203.954 81.85 203.854 81.2 203.854 80.5C203.854 79.5 203.904 78.6 204.004 77.8C204.104 76.9 204.204 75.95 204.304 74.95L205.354 72.55L205.204 72.25C205.404 71.85 205.554 71.45 205.654 71.05C205.854 70.55 206.004 70.1 206.104 69.7L205.504 69.25C204.804 69.25 203.804 69.95 202.504 71.35C201.304 72.65 199.904 73.95 198.304 75.25C196.804 76.55 195.054 77.2 193.054 77.2C191.754 77.2 190.554 76.8 189.454 76C188.354 75.2 187.854 74 187.954 72.4L187.804 72.1C188.904 70.1 189.854 68.05 190.654 65.95C191.454 63.85 192.304 61.8 193.204 59.8L192.304 58.15L191.854 58.3L191.104 58L189.604 59.5L187.504 59.95L187.804 60.7H187.504L186.004 61.15L185.704 61.75H184.804L184.654 62.65C184.154 63.15 183.604 63.7 183.004 64.3C182.404 64.9 181.704 65.25 180.904 65.35L171.904 73.9L171.754 73.45C171.754 72.75 172.004 72.2 172.504 71.8C173.004 71.3 173.454 70.85 173.854 70.45L174.004 70.15L174.454 69.85L174.604 70L175.054 68.95H174.904C175.104 68.75 175.304 68.5 175.504 68.2C175.804 67.8 176.154 67.6 176.554 67.6H176.854C176.854 67.6 176.854 67.5 176.854 67.3C177.454 66.4 178.254 65.6 179.254 64.9H179.704L180.154 64.45L180.004 64.15L181.504 63.55C181.404 62.55 182.204 61.45 183.904 60.25C185.604 59.05 187.454 58 189.454 57.1C191.454 56.1 192.854 55.6 193.654 55.6C194.754 55.6 196.054 55.9 197.554 56.5C199.054 57 199.804 57.95 199.804 59.35C199.804 62.15 199.304 64.4 198.304 66.1C197.304 67.8 196.754 68.9 196.654 69.4L197.104 69.7C198.304 69.7 199.254 69.35 199.954 68.65C200.654 67.85 201.354 67.05 202.054 66.25C202.854 65.45 203.804 65 204.904 64.9C204.804 64.8 204.854 64.75 205.054 64.75C205.254 64.65 205.354 64.7 205.354 64.9C205.754 64.2 206.654 63.1 208.054 61.6C209.454 60 210.904 58.5 212.404 57.1C213.904 55.7 214.954 55 215.554 55C216.654 55 217.904 55.4 219.304 56.2C220.704 57 221.404 58 221.404 59.2C221.404 59.7 221.004 60.65 220.204 62.05C219.504 63.35 218.654 64.75 217.654 66.25C216.654 67.75 215.654 69.1 214.654 70.3C213.754 71.4 213.054 72.05 212.554 72.25C211.654 73.85 210.404 75.7 208.804 77.8C207.304 79.8 206.554 81.8 206.554 83.8C206.554 84.5 206.654 85.15 206.854 85.75C207.054 86.35 207.154 86.95 207.154 87.55L207.004 87.85ZM226.404 78.85C225.404 78.95 224.554 78.55 223.854 77.65C223.254 76.65 222.954 75.65 222.954 74.65C222.954 74.05 223.054 73.45 223.254 72.85C223.454 72.15 223.654 71.55 223.854 71.05C224.054 71.15 224.154 71.15 224.154 71.05C224.254 70.85 224.354 70.7 224.454 70.6L224.304 68.95C224.504 68.75 224.754 68.3 225.054 67.6C225.454 66.8 225.704 66.3 225.804 66.1V65.95H225.954L226.554 66.25C227.054 65.45 227.604 64.65 228.204 63.85C228.804 63.05 229.004 62.15 228.804 61.15L230.904 58.3V58.15C230.904 57.55 231.154 56.9 231.654 56.2C232.254 55.4 232.554 54.85 232.554 54.55C232.554 53.75 232.204 53.35 231.504 53.35C231.204 53.35 230.854 53.4 230.454 53.5C230.154 53.6 229.854 53.7 229.554 53.8L229.404 53.05L235.404 47.2V46.9C236.504 46.1 237.504 45.25 238.404 44.35C239.304 43.45 240.354 42.65 241.554 41.95C242.654 42.05 243.754 42.3 244.854 42.7C246.054 43.1 246.954 43.75 247.554 44.65L247.704 46.6V46.75C247.604 47.15 246.854 48.2 245.454 49.9C244.054 51.6 242.404 53.5 240.504 55.6C238.604 57.6 236.804 59.5 235.104 61.3C233.504 63.1 232.404 64.3 231.804 64.9L231.354 67.6C230.554 67.7 229.854 68.25 229.254 69.25C228.654 70.15 228.404 71 228.504 71.8C228.204 71.9 228.054 72.15 228.054 72.55C228.054 72.85 227.954 73 227.754 73C227.654 73.4 227.554 73.75 227.454 74.05C227.454 74.35 227.454 74.7 227.454 75.1V75.85C228.254 74.35 229.654 72.35 231.654 69.85C233.654 67.35 235.904 64.85 238.404 62.35C241.004 59.75 243.554 57.6 246.054 55.9C248.554 54.1 250.654 53.2 252.354 53.2C253.554 53.2 254.354 53.95 254.754 55.45C254.454 57.35 253.954 59.25 253.254 61.15C252.554 62.95 252.204 64.85 252.204 66.85L252.504 67.45L256.104 64.9L256.404 64.45L258.654 62.8C259.354 61.7 260.554 60.25 262.254 58.45C263.954 56.65 265.754 55.05 267.654 53.65C269.554 52.15 271.104 51.4 272.304 51.4C272.204 51.2 272.354 51.1 272.754 51.1C274.454 51.1 275.554 51.5 276.054 52.3C276.554 53.1 276.804 54.25 276.804 55.75C276.804 57.25 276.404 58.65 275.604 59.95C274.904 61.15 274.554 62.45 274.554 63.85C274.554 65.15 274.904 66.55 275.604 68.05C276.304 69.55 277.404 70.3 278.904 70.3C279.404 70.3 279.854 70.2 280.254 70C280.654 69.7 281.104 69.6 281.604 69.7C282.404 68.9 283.254 68.2 284.154 67.6C285.154 66.9 286.154 66.25 287.154 65.65L288.054 66.25C287.754 66.85 286.954 67.7 285.654 68.8C284.454 69.8 283.004 70.85 281.304 71.95C279.704 72.95 278.154 73.85 276.654 74.65C275.254 75.35 274.204 75.7 273.504 75.7C271.304 75.7 269.754 74.85 268.854 73.15C268.054 71.35 267.504 69.3 267.204 67C266.904 64.7 266.404 62.85 265.704 61.45L264.954 60.85C264.154 61.35 262.904 62.2 261.204 63.4C259.604 64.5 258.604 65.45 258.204 66.25C257.004 66.65 255.954 67.5 255.054 68.8C254.254 70 253.454 71.35 252.654 72.85C251.854 74.25 250.954 75.5 249.954 76.6C248.954 77.7 247.654 78.25 246.054 78.25C245.354 78.25 244.704 78.1 244.104 77.8C243.604 77.5 243.354 76.95 243.354 76.15C243.354 74.45 243.654 72.9 244.254 71.5C244.954 70 245.604 68.5 246.204 67C246.904 65.5 247.254 63.9 247.254 62.2L246.354 60.85C245.154 60.85 243.654 61.55 241.854 62.95C240.054 64.25 238.154 65.9 236.154 67.9C234.254 69.8 232.504 71.7 230.904 73.6C229.404 75.5 228.354 76.95 227.754 77.95V78.7L226.404 78.85ZM283.948 80.8C282.848 80.8 282.048 80.3 281.548 79.3C281.148 78.4 280.948 77.5 280.948 76.6C280.948 74 281.548 71.3 282.748 68.5C284.048 65.7 285.298 63.15 286.498 60.85C287.798 58.45 288.448 56.6 288.448 55.3C288.448 54.7 288.098 54.4 287.398 54.4C287.098 54.4 286.648 54.5 286.048 54.7V54.1L289.648 49.9V49.75C290.148 49.25 290.598 48.75 290.998 48.25C291.398 47.75 291.798 47.3 292.198 46.9L293.548 46C294.648 46.1 295.698 46.4 296.698 46.9C297.798 47.3 298.498 48.15 298.798 49.45L298.648 49.6C298.748 50.4 298.398 51.25 297.598 52.15C296.798 53.05 296.098 53.75 295.498 54.25C294.898 55.35 294.198 56.4 293.398 57.4C292.698 58.3 292.048 59.3 291.448 60.4V61.9L290.848 63.1H290.548C290.248 63.7 289.948 64.35 289.648 65.05C289.448 65.75 289.348 66.5 289.348 67.3L290.098 68.5C290.398 68.2 290.948 67.75 291.748 67.15C292.648 66.45 293.448 65.75 294.148 65.05C294.848 64.35 295.198 63.85 295.198 63.55L296.848 62.05C297.348 60.55 298.448 58.95 300.148 57.25C301.848 55.45 303.298 54.05 304.498 53.05L304.948 51.85C305.548 51.55 306.148 51.2 306.748 50.8C307.448 50.4 308.148 50.2 308.848 50.2C309.648 50.2 310.348 50.4 310.948 50.8C311.648 51.2 312.348 51.6 313.048 52C313.048 52.4 313.048 52.9 313.048 53.5C313.148 54 313.198 54.5 313.198 55C313.198 56.6 312.748 58.1 311.848 59.5C310.948 60.9 310.048 62.35 309.148 63.85C308.248 65.35 307.798 67.2 307.798 69.4C307.798 69.7 307.798 70.4 307.798 71.5C307.898 72.5 308.048 73.5 308.248 74.5C308.548 75.4 308.998 75.85 309.598 75.85L314.398 73.3H314.698C314.898 72.7 315.248 72.15 315.748 71.65C316.348 71.15 316.998 70.9 317.698 70.9L317.848 71.05C317.848 71.55 317.398 72.3 316.498 73.3C315.698 74.3 314.798 75.25 313.798 76.15C312.898 77.05 312.248 77.7 311.848 78.1C311.448 78.2 310.998 78.3 310.498 78.4C309.998 78.4 309.498 78.5 308.998 78.7L308.548 77.95C306.348 77.75 304.498 77 302.998 75.7C301.598 74.3 300.898 72.5 300.898 70.3C300.898 69.6 301.048 68.35 301.348 66.55C301.648 64.65 301.998 62.8 302.398 61C302.898 59.2 303.248 57.95 303.448 57.25C302.248 58.05 301.098 59.3 299.998 61C298.898 62.6 297.898 63.95 296.998 65.05C295.998 65.45 294.948 66.5 293.848 68.2C292.848 69.8 291.798 71.6 290.698 73.6C289.598 75.5 288.498 77.2 287.398 78.7C286.298 80.1 285.148 80.8 283.948 80.8ZM378.248 89.5C375.148 89.5 372.148 88.45 369.248 86.35C366.348 84.35 363.798 81.85 361.598 78.85C359.498 75.85 357.848 73.05 356.648 70.45C354.848 69.05 353.948 67.2 353.948 64.9C353.248 63.9 352.898 62.75 352.898 61.45C352.898 60.65 352.998 59.9 353.198 59.2C353.398 58.4 353.598 57.65 353.798 56.95C353.198 55.45 352.898 53.85 352.898 52.15C352.898 50.75 353.348 48.8 354.248 46.3C355.248 43.8 356.398 41.15 357.698 38.35C359.098 35.45 360.498 32.8 361.898 30.4C363.298 28 364.448 26.25 365.348 25.15C368.048 21.95 371.298 18.9 375.098 16C378.998 13.1 383.198 10.5 387.698 8.2C392.198 5.89999 396.748 4.1 401.348 2.8C406.048 1.5 410.498 0.849996 414.698 0.849996C415.198 0.849996 415.648 1.05 416.048 1.45C414.848 2.54999 412.848 3.49999 410.048 4.3C407.348 5.1 404.148 6.1 400.448 7.3C396.748 8.4 392.898 10.05 388.898 12.25C384.998 14.45 381.298 17.5 377.798 21.4C376.198 23 374.848 24.8 373.748 26.8C372.648 28.8 371.398 30.75 369.998 32.65L370.148 33.7C368.548 35.3 367.098 37.5 365.798 40.3C364.598 43 363.598 45.8 362.798 48.7C361.998 51.6 361.548 54.25 361.448 56.65L359.948 57.25C360.148 57.95 360.398 58.75 360.698 59.65C360.998 60.55 361.148 61.4 361.148 62.2C361.148 62.7 361.098 63.1 360.998 63.4C362.098 68.1 363.248 71.85 364.448 74.65C365.648 77.45 367.398 79.85 369.698 81.85C372.098 83.95 375.398 86.2 379.598 88.6L378.248 89.5ZM368.348 27.85L368.648 27.55V27.25L367.298 26.05L367.748 27.7L368.348 27.85ZM355.748 67.75L356.348 67.3L355.748 66.25L355.598 66.85L355.748 67.75ZM359.048 71.5L360.098 70.3L359.948 69.4L358.448 68.2C358.348 68.7 358.298 69.25 358.298 69.85C358.298 70.35 358.298 70.85 358.298 71.35L359.048 71.5ZM386.815 88.6C385.015 88.6 383.065 87.85 380.965 86.35C378.965 84.85 377.965 83.1 377.965 81.1C377.965 79.6 378.265 78.15 378.865 76.75C379.465 75.25 380.115 73.85 380.815 72.55V72.1C381.615 70.9 382.615 69.9 383.815 69.1C384.115 68.6 384.415 68 384.715 67.3C385.115 66.5 385.615 66.05 386.215 65.95L386.965 66.4C385.865 67.8 384.815 69.4 383.815 71.2L382.015 80.5C382.615 81.4 383.565 81.85 384.865 81.85C386.665 81.85 388.865 81.5 391.465 80.8C394.065 80.2 396.665 79.5 399.265 78.7C401.865 77.9 404.065 77.2 405.865 76.6V76.45C406.365 76.45 406.865 76.4 407.365 76.3C407.965 76.1 408.365 75.7 408.565 75.1L408.415 74.65L409.615 74.8C410.215 74.5 410.815 74.2 411.415 73.9C412.015 73.6 412.665 73.4 413.365 73.3C413.765 72.9 414.815 72.05 416.515 70.75C418.215 69.35 420.115 67.9 422.215 66.4C424.315 64.8 426.215 63.4 427.915 62.2C429.615 61 430.665 60.3 431.065 60.1L432.115 58.45L433.315 57.85V56.35C433.515 54.85 432.815 53.7 431.215 52.9C429.615 52 427.515 51.25 424.915 50.65C422.315 50.05 419.515 49.45 416.515 48.85C413.615 48.25 410.815 47.45 408.115 46.45C405.515 45.35 403.365 43.95 401.665 42.25C400.065 40.55 399.265 38.3 399.265 35.5L398.515 35.95L398.215 35.5C398.215 33.4 399.415 31.15 401.815 28.75C404.315 26.35 407.465 24 411.265 21.7C415.065 19.3 419.015 17.1 423.115 15.1C427.315 13 431.165 11.25 434.665 9.85C438.265 8.35 441.015 7.3 442.915 6.7C444.615 6.9 446.165 7.3 447.565 7.89999C449.065 8.4 450.015 9.65 450.415 11.65C451.515 11.25 452.065 10.4 452.065 9.1C452.065 8.4 452.015 7.75 451.915 7.15C451.815 6.45 451.615 5.85 451.315 5.35L451.915 5.05C452.415 5.05 453.315 5.25 454.615 5.65C456.015 5.95 457.515 6.35 459.115 6.84999C460.715 7.35 462.115 7.85 463.315 8.35C464.615 8.85 465.365 9.3 465.565 9.7L464.965 11.95L462.265 13L461.215 12.55C460.215 12.95 459.765 13.8 459.865 15.1C459.965 16.4 459.665 17.15 458.965 17.35L457.615 16.75V16.9L458.665 19L458.365 19.45L458.815 20.2L458.365 20.35L457.315 19.9C456.915 20.7 456.615 21.85 456.415 23.35C456.215 24.75 455.565 25.5 454.465 25.6C453.365 26.6 452.165 27.9 450.865 29.5C449.565 31 448.065 31.85 446.365 32.05V31.75L446.815 28.75L446.365 28C446.665 26.3 447.065 24.5 447.565 22.6C448.065 20.7 448.615 19.05 449.215 17.65C448.415 16.45 447.465 15.35 446.365 14.35C445.365 13.35 444.115 12.85 442.615 12.85C440.815 12.85 438.315 13.4 435.115 14.5C431.915 15.5 428.415 16.9 424.615 18.7C420.915 20.4 417.415 22.35 414.115 24.55C410.815 26.75 408.165 29 406.165 31.3C404.165 33.6 403.315 35.8 403.615 37.9C403.215 37.6 402.965 37.2 402.865 36.7C402.765 36.2 402.715 35.7 402.715 35.2C402.715 34.7 402.715 34.2 402.715 33.7C402.815 33.2 402.915 32.75 403.015 32.35C402.315 33.35 401.965 34.5 401.965 35.8C401.965 38.2 402.965 40.05 404.965 41.35C406.965 42.65 409.565 43.65 412.765 44.35C415.965 45.05 419.365 45.7 422.965 46.3C426.565 46.8 429.965 47.4 433.165 48.1C436.365 48.8 438.965 49.85 440.965 51.25C442.965 52.55 443.965 54.4 443.965 56.8C443.965 58.1 443.665 59.3 443.065 60.4C442.465 61.4 441.915 62.45 441.415 63.55C440.315 63.95 439.615 64.5 439.315 65.2C439.015 65.9 438.565 66.7 437.965 67.6C437.165 67.8 436.115 68.5 434.815 69.7C433.615 70.8 432.715 71.3 432.115 71.2C431.715 71.4 431.265 71.7 430.765 72.1C430.365 72.4 430.065 72.8 429.865 73.3L429.415 73C428.315 74.5 426.465 76 423.865 77.5C421.265 79 418.215 80.4 414.715 81.7C411.315 83 407.815 84.15 404.215 85.15C400.715 86.25 397.415 87.1 394.315 87.7C391.215 88.3 388.715 88.6 386.815 88.6ZM444.715 34.75L445.465 32.5L446.215 33.1L444.715 34.75ZM435.715 53.5L436.015 52.75L435.565 52.15L434.665 52.6L435.715 53.5ZM442.315 59.05V58.75L441.415 57.4L441.265 58.15V58.75L442.315 59.05ZM439.465 61.6L440.515 61L440.665 59.65L440.515 58.3C439.515 59.3 438.965 60.35 438.865 61.45L439.465 61.6ZM439.615 63.7L441.115 62.05V61.9L438.715 62.65L439.015 63.55L439.615 63.7ZM435.415 66.4L437.065 66.25L438.265 63.85L436.465 65.5L435.865 64.9L435.415 66.25V66.4ZM453.874 80.05C452.974 80.05 451.874 79.45 450.574 78.25C449.374 77.05 448.374 76.15 447.574 75.55C447.374 74.25 447.024 73.1 446.524 72.1C446.024 71 445.774 69.85 445.774 68.65C445.774 66.85 446.424 64.75 447.724 62.35C449.124 59.85 450.874 57.4 452.974 55C455.174 52.6 457.374 50.6 459.574 49C461.874 47.4 463.924 46.6 465.724 46.6V46.3C467.124 46.6 468.424 47.5 469.624 49C470.924 50.5 471.574 51.9 471.574 53.2C471.574 54.4 470.824 55.65 469.324 56.95C467.924 58.15 466.174 59.3 464.074 60.4C462.074 61.4 460.074 62.2 458.074 62.8C456.174 63.4 454.674 63.7 453.574 63.7V64C452.874 65.1 452.174 66.5 451.474 68.2C450.874 69.8 450.574 71.3 450.574 72.7C450.574 73.2 450.724 73.75 451.024 74.35C451.724 74.85 452.624 75.1 453.724 75.1C454.824 75 455.724 75 456.424 75.1L456.574 75.25L457.024 74.5C458.324 74.4 459.574 74.1 460.774 73.6V72.7H461.674V72.25L462.274 72.4C462.774 72.2 463.124 72 463.324 71.8C463.624 71.5 463.974 71.25 464.374 71.05L465.274 71.5V71.35L467.974 68.8H468.124L468.574 69.1V68.95C469.874 67.75 471.274 66.65 472.774 65.65C474.274 64.65 475.374 63.35 476.074 61.75L477.724 60.55L478.024 60.85C478.024 61.55 477.774 62.2 477.274 62.8C476.774 63.4 476.174 63.8 475.474 64C474.674 65.9 473.474 67.5 471.874 68.8C470.374 70.1 468.824 71.45 467.224 72.85H466.774L466.624 73.6C464.724 74.9 462.724 76.3 460.624 77.8C458.624 79.3 456.374 80.05 453.874 80.05ZM456.724 60.85H457.024V60.55C457.724 60.35 458.924 59.75 460.624 58.75C462.424 57.75 464.124 56.7 465.724 55.6C467.324 54.4 468.174 53.55 468.274 53.05H468.424L468.274 52.3L468.424 51.55C468.324 51.55 468.124 51.55 467.824 51.55C467.524 51.45 467.274 51.4 467.074 51.4C465.774 52.3 464.474 53.15 463.174 53.95C461.874 54.75 460.574 55.55 459.274 56.35H458.974L458.824 57.55C458.224 57.95 457.774 58.45 457.474 59.05C457.174 59.55 456.924 60.15 456.724 60.85ZM479.524 60.4L478.624 60.1L478.474 59.2L479.974 58.75L480.124 59.2L479.524 60.4ZM447.677 105.55C445.677 105.55 443.677 105.05 441.677 104.05C439.577 103.15 437.827 101.85 436.427 100.15C435.027 98.45 434.327 96.5 434.327 94.3L434.777 93.25C435.777 94.35 436.527 95.55 437.027 96.85C437.527 98.15 438.227 99.2 439.127 100C440.027 100.9 441.527 101.35 443.627 101.35C444.027 101.35 444.427 101.3 444.827 101.2C445.227 101.2 445.627 101.15 446.027 101.05C446.527 101.25 447.527 100.8 449.027 99.7C450.527 98.6 452.227 97.2 454.127 95.5C456.027 93.8 457.927 91.95 459.827 89.95C461.627 88.05 463.177 86.3 464.477 84.7C465.677 83.2 466.327 82.15 466.427 81.55C467.227 80.35 468.027 79.05 468.827 77.65C469.727 76.25 470.527 74.9 471.227 73.6L471.527 73.75L471.977 73.15C472.777 72.25 473.277 71.35 473.477 70.45C473.677 69.55 474.277 68.7 475.277 67.9C476.077 66.7 476.777 65.5 477.377 64.3C478.077 63.1 478.427 61.8 478.427 60.4C478.427 59.8 478.577 59.25 478.877 58.75C479.177 58.15 479.477 57.6 479.777 57.1C481.777 54 483.077 51.15 483.677 48.55C484.277 45.95 485.027 42.95 485.927 39.55C485.727 39.05 485.427 38.6 485.027 38.2C484.627 37.8 484.277 37.4 483.977 37H484.277C486.177 37 487.527 37.55 488.327 38.65C489.127 39.75 489.527 41.15 489.527 42.85C489.527 43.45 489.377 44.55 489.077 46.15C488.777 47.65 488.327 49.3 487.727 51.1C487.227 52.9 486.627 54.45 485.927 55.75C485.327 57.05 484.677 57.7 483.977 57.7C483.877 58.5 483.677 59.3 483.377 60.1C483.177 60.8 482.927 61.5 482.627 62.2C483.127 61.7 483.627 61.1 484.127 60.4C484.727 59.6 485.377 59.15 486.077 59.05C486.677 58.55 487.077 57.9 487.277 57.1C487.577 56.3 488.077 55.65 488.777 55.15C488.977 55.15 489.277 55.05 489.677 54.85C490.177 54.55 490.277 54.3 489.977 54.1L492.077 52.75H492.827C493.027 51.75 493.677 51.15 494.777 50.95C495.977 49.85 496.877 49.1 497.477 48.7C498.177 48.3 498.877 48.05 499.577 47.95C500.377 47.75 501.527 47.55 503.027 47.35L504.227 47.95C504.727 47.65 505.177 47.5 505.577 47.5C506.977 47.5 507.977 48.35 508.577 50.05C509.277 51.75 509.627 53.15 509.627 54.25C509.627 56.95 509.077 58.95 507.977 60.25C506.877 61.45 505.627 62.55 504.227 63.55C502.927 64.45 501.877 65.8 501.077 67.6C499.277 68.5 497.527 69.65 495.827 71.05C494.427 71.45 493.227 72.2 492.227 73.3C491.227 74.4 490.027 75.2 488.627 75.7C486.327 76.4 483.927 77.1 481.427 77.8C479.027 78.4 476.577 78.6 474.077 78.4C473.677 79.9 472.777 81.8 471.377 84.1C469.977 86.5 468.477 88.8 466.877 91C465.277 93.3 463.977 95.2 462.977 96.7L460.277 97.9C459.977 98.3 459.677 98.7 459.377 99.1C458.977 99.6 458.577 99.95 458.177 100.15H457.577C456.177 101.75 454.777 103.05 453.377 104.05C451.877 105.05 449.977 105.55 447.677 105.55ZM476.027 74.2C482.027 73.9 487.527 72.7 492.527 70.6C497.627 68.5 501.877 64.8 505.277 59.5C506.077 58.2 506.477 57 506.477 55.9C506.477 54.9 506.077 54.2 505.277 53.8C504.477 53.4 503.627 53.2 502.727 53.2C500.227 53.2 497.627 53.9 494.927 55.3C492.227 56.6 489.627 58.35 487.127 60.55C484.727 62.65 482.527 64.95 480.527 67.45C478.627 69.85 477.127 72.1 476.027 74.2ZM479.627 66.55L480.077 66.25V65.95L479.927 66.25L479.627 66.55ZM509.586 85.3C507.986 85.3 506.686 84.6 505.686 83.2C504.686 81.9 504.186 80.45 504.186 78.85C504.186 77.65 504.536 75.85 505.236 73.45C506.036 70.95 506.986 68.35 508.086 65.65C509.186 62.85 510.336 60.35 511.536 58.15C512.736 55.95 513.836 54.5 514.836 53.8C516.236 51.6 517.486 49.55 518.586 47.65C516.986 47.95 515.386 48.3 513.786 48.7C512.186 49 510.686 49.45 509.286 50.05C508.586 50.95 507.786 51.4 506.886 51.4C506.586 51.2 506.236 51 505.836 50.8C505.436 50.6 505.086 50.35 504.786 50.05L504.936 49.75H504.786V49.45C504.786 48.95 504.686 48.5 504.486 48.1C504.386 47.6 504.286 47.15 504.186 46.75C504.086 46.65 504.036 46.4 504.036 46C504.036 44.7 504.636 43.85 505.836 43.45C507.136 43.05 508.436 42.85 509.736 42.85C511.636 42.85 512.936 43 513.636 43.3L515.136 43H518.886C519.586 43 520.236 43 520.836 43C521.436 43 522.036 42.95 522.636 42.85L523.236 41.95L523.086 41.35C523.386 40.65 524.036 39.5 525.036 37.9C526.036 36.3 527.086 34.6 528.186 32.8C529.286 31 530.236 29.45 531.036 28.15C531.936 26.75 532.386 26.05 532.386 26.05C532.386 25.45 532.886 25.1 533.886 25C534.886 24.9 535.536 24.85 535.836 24.85C536.936 24.85 538.436 25.2 540.336 25.9C542.236 26.5 543.186 27.55 543.186 29.05C543.186 29.95 542.836 30.7 542.136 31.3C541.436 31.8 540.686 32.15 539.886 32.35V32.5C539.886 33.1 539.436 33.8 538.536 34.6C537.736 35.4 536.786 36.1 535.686 36.7C534.586 37.3 533.736 37.7 533.136 37.9C532.836 38 532.436 38.4 531.936 39.1C531.536 39.7 531.236 40.15 531.036 40.45V41.05C530.636 41.35 530.186 41.7 529.686 42.1C529.286 42.4 528.936 42.8 528.636 43.3C529.136 43.4 529.636 43.45 530.136 43.45C530.636 43.45 531.136 43.45 531.636 43.45C532.436 43.45 533.186 43.45 533.886 43.45C534.686 43.45 535.436 43.5 536.136 43.6L540.786 44.2C539.586 45.2 538.236 45.8 536.736 46C535.236 46.1 533.686 46.15 532.086 46.15C530.586 46.05 529.136 46.3 527.736 46.9C527.036 47.1 526.086 47.7 524.886 48.7C523.786 49.7 522.786 50.8 521.886 52C520.986 53.1 520.536 54.05 520.536 54.85L517.086 59.5C516.086 60 515.586 60.75 515.586 61.75C515.586 62.75 515.036 63.25 513.936 63.25L511.836 68.05C511.736 68.65 511.586 69.6 511.386 70.9C511.286 72.1 510.886 72.8 510.186 73C510.186 74.3 510.136 75.6 510.036 76.9C509.936 78.1 509.886 79.3 509.886 80.5L510.186 81.1H511.386C513.386 79.1 515.436 77.2 517.536 75.4C519.736 73.5 521.786 71.5 523.686 69.4L524.436 69.1H524.736L525.636 67.9L526.236 67.6L526.086 67.45L526.986 66.7C527.786 65.2 529.086 63.95 530.886 62.95L531.036 63.25C531.036 63.75 530.386 64.85 529.086 66.55C527.786 68.15 526.136 70.05 524.136 72.25C522.236 74.35 520.236 76.4 518.136 78.4C516.136 80.4 514.336 82.05 512.736 83.35C511.136 84.65 510.086 85.3 509.586 85.3ZM534.294 80.05C533.394 80.05 532.294 79.45 530.994 78.25C529.794 77.05 528.794 76.15 527.994 75.55C527.794 74.25 527.444 73.1 526.944 72.1C526.444 71 526.194 69.85 526.194 68.65C526.194 66.85 526.844 64.75 528.144 62.35C529.544 59.85 531.294 57.4 533.394 55C535.594 52.6 537.794 50.6 539.994 49C542.294 47.4 544.344 46.6 546.144 46.6V46.3C547.544 46.6 548.844 47.5 550.044 49C551.344 50.5 551.994 51.9 551.994 53.2C551.994 54.4 551.244 55.65 549.744 56.95C548.344 58.15 546.594 59.3 544.494 60.4C542.494 61.4 540.494 62.2 538.494 62.8C536.594 63.4 535.094 63.7 533.994 63.7V64C533.294 65.1 532.594 66.5 531.894 68.2C531.294 69.8 530.994 71.3 530.994 72.7C530.994 73.2 531.144 73.75 531.444 74.35C532.144 74.85 533.044 75.1 534.144 75.1C535.244 75 536.144 75 536.844 75.1L536.994 75.25L537.444 74.5C538.744 74.4 539.994 74.1 541.194 73.6V72.7H542.094V72.25L542.694 72.4C543.194 72.2 543.544 72 543.744 71.8C544.044 71.5 544.394 71.25 544.794 71.05L545.694 71.5V71.35L548.394 68.8H548.544L548.994 69.1V68.95C550.294 67.75 551.694 66.65 553.194 65.65C554.694 64.65 555.794 63.35 556.494 61.75L558.144 60.55L558.444 60.85C558.444 61.55 558.194 62.2 557.694 62.8C557.194 63.4 556.594 63.8 555.894 64C555.094 65.9 553.894 67.5 552.294 68.8C550.794 70.1 549.244 71.45 547.644 72.85H547.194L547.044 73.6C545.144 74.9 543.144 76.3 541.044 77.8C539.044 79.3 536.794 80.05 534.294 80.05ZM537.144 60.85H537.444V60.55C538.144 60.35 539.344 59.75 541.044 58.75C542.844 57.75 544.544 56.7 546.144 55.6C547.744 54.4 548.594 53.55 548.694 53.05H548.844L548.694 52.3L548.844 51.55C548.744 51.55 548.544 51.55 548.244 51.55C547.944 51.45 547.694 51.4 547.494 51.4C546.194 52.3 544.894 53.15 543.594 53.95C542.294 54.75 540.994 55.55 539.694 56.35H539.394L539.244 57.55C538.644 57.95 538.194 58.45 537.894 59.05C537.594 59.55 537.344 60.15 537.144 60.85ZM559.944 60.4L559.044 60.1L558.894 59.2L560.394 58.75L560.544 59.2L559.944 60.4ZM555.847 78.85C554.847 78.95 553.997 78.55 553.297 77.65C552.697 76.65 552.397 75.65 552.397 74.65C552.397 74.05 552.497 73.45 552.697 72.85C552.897 72.15 553.097 71.55 553.297 71.05C553.497 71.15 553.597 71.15 553.597 71.05C553.697 70.85 553.797 70.7 553.897 70.6L553.747 68.95C553.947 68.75 554.197 68.3 554.497 67.6C554.897 66.8 555.147 66.3 555.247 66.1V65.95H555.397L555.997 66.25C556.497 65.45 557.047 64.65 557.647 63.85C558.247 63.05 558.447 62.15 558.247 61.15L560.347 58.3V58.15C560.347 57.55 560.597 56.9 561.097 56.2C561.697 55.4 561.997 54.85 561.997 54.55C561.997 53.75 561.647 53.35 560.947 53.35C560.647 53.35 560.297 53.4 559.897 53.5C559.597 53.6 559.297 53.7 558.997 53.8L558.847 53.05L564.847 47.2V46.9C565.947 46.1 566.947 45.25 567.847 44.35C568.747 43.45 569.797 42.65 570.997 41.95C572.097 42.05 573.197 42.3 574.297 42.7C575.497 43.1 576.397 43.75 576.997 44.65L577.147 46.6V46.75C577.047 47.15 576.297 48.2 574.897 49.9C573.497 51.6 571.847 53.5 569.947 55.6C568.047 57.6 566.247 59.5 564.547 61.3C562.947 63.1 561.847 64.3 561.247 64.9L560.797 67.6C559.997 67.7 559.297 68.25 558.697 69.25C558.097 70.15 557.847 71 557.947 71.8C557.647 71.9 557.497 72.15 557.497 72.55C557.497 72.85 557.397 73 557.197 73C557.097 73.4 556.997 73.75 556.897 74.05C556.897 74.35 556.897 74.7 556.897 75.1V75.85C557.697 74.35 559.097 72.35 561.097 69.85C563.097 67.35 565.347 64.85 567.847 62.35C570.447 59.75 572.997 57.6 575.497 55.9C577.997 54.1 580.097 53.2 581.797 53.2C582.997 53.2 583.797 53.95 584.197 55.45C583.897 57.35 583.397 59.25 582.697 61.15C581.997 62.95 581.647 64.85 581.647 66.85L581.947 67.45L585.547 64.9L585.847 64.45L588.097 62.8C588.797 61.7 589.997 60.25 591.697 58.45C593.397 56.65 595.197 55.05 597.097 53.65C598.997 52.15 600.547 51.4 601.747 51.4C601.647 51.2 601.797 51.1 602.197 51.1C603.897 51.1 604.997 51.5 605.497 52.3C605.997 53.1 606.247 54.25 606.247 55.75C606.247 57.25 605.847 58.65 605.047 59.95C604.347 61.15 603.997 62.45 603.997 63.85C603.997 65.15 604.347 66.55 605.047 68.05C605.747 69.55 606.847 70.3 608.347 70.3C608.847 70.3 609.297 70.2 609.697 70C610.097 69.7 610.547 69.6 611.047 69.7C611.847 68.9 612.697 68.2 613.597 67.6C614.597 66.9 615.597 66.25 616.597 65.65L617.497 66.25C617.197 66.85 616.397 67.7 615.097 68.8C613.897 69.8 612.447 70.85 610.747 71.95C609.147 72.95 607.597 73.85 606.097 74.65C604.697 75.35 603.647 75.7 602.947 75.7C600.747 75.7 599.197 74.85 598.297 73.15C597.497 71.35 596.947 69.3 596.647 67C596.347 64.7 595.847 62.85 595.147 61.45L594.397 60.85C593.597 61.35 592.347 62.2 590.647 63.4C589.047 64.5 588.047 65.45 587.647 66.25C586.447 66.65 585.397 67.5 584.497 68.8C583.697 70 582.897 71.35 582.097 72.85C581.297 74.25 580.397 75.5 579.397 76.6C578.397 77.7 577.097 78.25 575.497 78.25C574.797 78.25 574.147 78.1 573.547 77.8C573.047 77.5 572.797 76.95 572.797 76.15C572.797 74.45 573.097 72.9 573.697 71.5C574.397 70 575.047 68.5 575.647 67C576.347 65.5 576.697 63.9 576.697 62.2L575.797 60.85C574.597 60.85 573.097 61.55 571.297 62.95C569.497 64.25 567.597 65.9 565.597 67.9C563.697 69.8 561.947 71.7 560.347 73.6C558.847 75.5 557.797 76.95 557.197 77.95V78.7L555.847 78.85ZM619.541 83.5C618.641 83.5 617.791 83.35 616.991 83.05L616.241 82.15C614.741 81.75 613.691 81.2 613.091 80.5C612.491 79.8 612.191 78.65 612.191 77.05C612.191 76.35 612.391 75.05 612.791 73.15C613.291 71.15 613.891 69.25 614.591 67.45C615.291 65.65 615.991 64.75 616.691 64.75C616.791 63.65 617.191 62.25 617.891 60.55C618.591 58.85 619.491 57.85 620.591 57.55V57.4L621.941 55.6H622.241L622.541 53.35C622.841 53.25 623.091 52.95 623.291 52.45L614.141 56.05L613.241 55.45C613.341 54.95 613.791 54.45 614.591 53.95C615.491 53.35 616.391 52.85 617.291 52.45C618.291 51.95 618.991 51.7 619.391 51.7C620.791 50.8 622.141 50.3 623.441 50.2L624.041 49.6L624.941 49.75L626.741 49.15C627.241 48.55 627.741 47.9 628.241 47.2C628.741 46.5 628.991 45.75 628.991 44.95C629.491 44.15 630.041 43.45 630.641 42.85C631.341 42.15 631.991 41.45 632.591 40.75H633.041C633.541 40.25 634.091 40 634.691 40L635.291 39.25V37.6L635.891 37.15C636.391 36.55 637.041 35.65 637.841 34.45C638.741 33.15 639.191 32.15 639.191 31.45C639.191 31.05 638.841 30.85 638.141 30.85C637.241 30.85 636.491 30.95 635.891 31.15V30.4L643.541 23.95V23.8C644.841 22.9 646.091 21.95 647.291 20.95C648.491 19.85 649.741 18.9 651.041 18.1C652.141 18.3 653.341 18.65 654.641 19.15C655.941 19.55 656.841 20.3 657.341 21.4V23.35C656.641 24.05 655.441 25.3 653.741 27.1C652.041 28.9 650.091 30.95 647.891 33.25C645.691 35.45 643.491 37.65 641.291 39.85C639.091 41.95 637.141 43.7 635.441 45.1C633.841 46.5 632.741 47.25 632.141 47.35L631.241 48.1C632.841 47.9 634.341 47.7 635.741 47.5C637.241 47.2 638.741 47.05 640.241 47.05C642.141 47.05 644.191 47.35 646.391 47.95C648.691 48.55 650.241 49.85 651.041 51.85L651.941 52.75V54.25C652.041 54.65 652.141 55.05 652.241 55.45C652.341 55.85 652.391 56.25 652.391 56.65C652.391 57.75 652.141 58.5 651.641 58.9C651.141 59.2 650.641 59.4 650.141 59.5C649.641 59.6 649.391 59.85 649.391 60.25L650.591 60.7V60.85C650.591 61.85 649.691 63.25 647.891 65.05C646.191 66.85 643.991 68.8 641.291 70.9C638.591 73 635.741 75.05 632.741 77.05C629.841 78.95 627.191 80.5 624.791 81.7C622.391 82.9 620.641 83.5 619.541 83.5ZM633.791 32.5L633.641 32.05L634.091 31L634.991 31.15L635.291 32.2L633.791 32.5ZM621.041 81.4C622.841 81.4 624.891 80.45 627.191 78.55C629.491 76.65 631.741 74.3 633.941 71.5C636.141 68.6 637.941 65.8 639.341 63.1C640.841 60.3 641.591 58.1 641.591 56.5C641.591 54.4 640.591 52.9 638.591 52C636.691 51.1 634.891 50.65 633.191 50.65C632.991 50.65 632.591 50.75 631.991 50.95C631.391 51.15 630.941 51.3 630.641 51.4L630.341 51.85C629.241 52.15 628.291 52.75 627.491 53.65C626.791 54.55 626.441 55.6 626.441 56.8C626.041 56.9 625.341 57.55 624.341 58.75C623.441 59.85 622.441 60.6 621.341 61L620.741 62.8C620.641 63.5 620.241 64.2 619.541 64.9C618.941 65.5 618.391 66.05 617.891 66.55C617.391 68.05 616.841 69.55 616.241 71.05C615.741 72.55 615.391 74.1 615.191 75.7C615.391 75 615.691 74.35 616.091 73.75C616.591 73.05 616.841 72.35 616.841 71.65L617.591 71.2L618.941 68.5V67.9L619.841 66.25L620.291 66.4L620.741 65.35L621.491 64.75V64.6C621.891 64.4 622.241 64.2 622.541 64C622.941 63.7 623.291 63.45 623.591 63.25C623.591 62.45 623.991 61.85 624.791 61.45C625.591 61.05 626.041 60.5 626.141 59.8L627.041 59.5L628.091 58.15H628.691L630.191 56.8L631.691 56.35V56.95C629.891 57.95 628.041 59.65 626.141 62.05C624.241 64.35 622.591 66.9 621.191 69.7C619.891 72.4 619.241 74.8 619.241 76.9C619.241 77.6 619.291 78.5 619.391 79.6C619.591 80.8 620.141 81.4 621.041 81.4ZM614.891 78.25L615.341 77.35V77.05L615.041 76.9L614.891 78.25ZM615.041 79.6V79.45L615.791 78.55H615.641L614.891 78.4L615.041 79.6ZM659.245 80.05C658.345 80.05 657.245 79.45 655.945 78.25C654.745 77.05 653.745 76.15 652.945 75.55C652.745 74.25 652.395 73.1 651.895 72.1C651.395 71 651.145 69.85 651.145 68.65C651.145 66.85 651.795 64.75 653.095 62.35C654.495 59.85 656.245 57.4 658.345 55C660.545 52.6 662.745 50.6 664.945 49C667.245 47.4 669.295 46.6 671.095 46.6V46.3C672.495 46.6 673.795 47.5 674.995 49C676.295 50.5 676.945 51.9 676.945 53.2C676.945 54.4 676.195 55.65 674.695 56.95C673.295 58.15 671.545 59.3 669.445 60.4C667.445 61.4 665.445 62.2 663.445 62.8C661.545 63.4 660.045 63.7 658.945 63.7V64C658.245 65.1 657.545 66.5 656.845 68.2C656.245 69.8 655.945 71.3 655.945 72.7C655.945 73.2 656.095 73.75 656.395 74.35C657.095 74.85 657.995 75.1 659.095 75.1C660.195 75 661.095 75 661.795 75.1L661.945 75.25L662.395 74.5C663.695 74.4 664.945 74.1 666.145 73.6V72.7H667.045V72.25L667.645 72.4C668.145 72.2 668.495 72 668.695 71.8C668.995 71.5 669.345 71.25 669.745 71.05L670.645 71.5V71.35L673.345 68.8H673.495L673.945 69.1V68.95C675.245 67.75 676.645 66.65 678.145 65.65C679.645 64.65 680.745 63.35 681.445 61.75L683.095 60.55L683.395 60.85C683.395 61.55 683.145 62.2 682.645 62.8C682.145 63.4 681.545 63.8 680.845 64C680.045 65.9 678.845 67.5 677.245 68.8C675.745 70.1 674.195 71.45 672.595 72.85H672.145L671.995 73.6C670.095 74.9 668.095 76.3 665.995 77.8C663.995 79.3 661.745 80.05 659.245 80.05ZM662.095 60.85H662.395V60.55C663.095 60.35 664.295 59.75 665.995 58.75C667.795 57.75 669.495 56.7 671.095 55.6C672.695 54.4 673.545 53.55 673.645 53.05H673.795L673.645 52.3L673.795 51.55C673.695 51.55 673.495 51.55 673.195 51.55C672.895 51.45 672.645 51.4 672.445 51.4C671.145 52.3 669.845 53.15 668.545 53.95C667.245 54.75 665.945 55.55 664.645 56.35H664.345L664.195 57.55C663.595 57.95 663.145 58.45 662.845 59.05C662.545 59.55 662.295 60.15 662.095 60.85ZM684.895 60.4L683.995 60.1L683.845 59.2L685.345 58.75L685.495 59.2L684.895 60.4ZM699.469 77.5C697.969 77.5 696.819 76.9 696.019 75.7L692.569 74.05C692.169 73.15 691.969 72.05 691.969 70.75C691.969 68.65 692.469 66.4 693.469 64C694.569 61.5 695.619 59.4 696.619 57.7C695.919 57.3 695.319 56.8 694.819 56.2C694.319 55.6 693.819 55 693.319 54.4L692.869 54.1C692.469 54.5 692.019 54.85 691.519 55.15C691.019 55.45 690.519 55.65 690.019 55.75C689.119 56.65 687.819 58.15 686.119 60.25C684.419 62.25 682.569 64.35 680.569 66.55C678.569 68.65 676.619 70.5 674.719 72.1C672.919 73.7 671.469 74.5 670.369 74.5L670.219 74.2C670.319 73.6 670.769 72.95 671.569 72.25C672.469 71.45 673.119 70.85 673.519 70.45C673.719 69.65 674.219 68.95 675.019 68.35C675.819 67.75 676.569 67.3 677.269 67H677.419L678.319 65.65L679.069 65.2L678.919 65.05L679.969 64.3C680.169 63.8 680.469 63.35 680.869 62.95C681.269 62.55 681.619 62.15 681.919 61.75V61.45C684.119 59.75 686.119 57.9 687.919 55.9C689.819 53.8 691.769 51.75 693.769 49.75L693.919 49.6L693.769 48.7C693.769 47.6 694.019 46.4 694.519 45.1C695.119 43.7 695.769 42.65 696.469 41.95C697.169 40.95 698.019 39.9 699.019 38.8C700.119 37.6 701.319 37 702.619 37C703.619 37 704.219 37.5 704.419 38.5C704.619 39.4 704.719 40.2 704.719 40.9C704.719 43.4 704.069 45.35 702.769 46.75C701.469 48.05 700.119 49.05 698.719 49.75C697.419 50.45 696.769 51.2 696.769 52L699.169 53.05L700.069 52.3L700.219 52.45H700.519C701.119 52.15 701.719 51.9 702.319 51.7C702.919 51.4 703.569 51.25 704.269 51.25C704.869 51.25 705.469 51.45 706.069 51.85C706.669 52.15 707.169 52.45 707.569 52.75L707.719 54.1C707.819 55 707.419 56 706.519 57.1C705.719 58.1 704.719 59.3 703.519 60.7C702.319 62 701.269 63.6 700.369 65.5C699.469 67.3 699.019 69.4 699.019 71.8C699.019 72.4 699.119 73.05 699.319 73.75C699.619 74.35 700.169 74.65 700.969 74.65C702.169 74.65 703.519 74.2 705.019 73.3C706.519 72.4 708.019 71.4 709.519 70.3C711.019 69.1 712.269 68.2 713.269 67.6L713.869 68.35C713.869 69.05 713.269 69.9 712.069 70.9C710.869 71.9 709.419 72.9 707.719 73.9C706.019 74.9 704.369 75.75 702.769 76.45C701.269 77.15 700.169 77.5 699.469 77.5ZM729.979 57.7C729.279 57 728.529 55.85 727.729 54.25C726.929 52.65 726.529 51.35 726.529 50.35V48.85L726.829 49.3C728.829 49.2 730.879 49.1 732.979 49C735.079 48.8 737.079 48.7 738.979 48.7L745.129 48.85L746.029 49.3C746.829 49 748.229 48.85 750.229 48.85C752.329 48.85 753.879 48.8 754.879 48.7L755.179 49.45C754.479 49.85 753.779 50.35 753.079 50.95C752.379 51.55 751.879 52.25 751.579 53.05L750.829 52.3C750.229 53.4 749.379 54.05 748.279 54.25C747.279 54.45 746.729 54.95 746.629 55.75L744.379 56.05L742.879 55.45C741.879 55.65 740.829 55.8 739.729 55.9C738.729 56 737.679 56.05 736.579 56.05C736.079 56.05 735.529 56.05 734.929 56.05C734.329 56.05 733.779 56 733.279 55.9L732.079 56.5L731.629 56.2L729.979 57.7ZM756.379 49.45V48.7L757.429 48.85L757.129 49.45H756.379ZM741.292 108.85C740.292 108.25 739.642 107.45 739.342 106.45C738.942 105.45 738.442 104.5 737.842 103.6V103.15C737.842 102.65 737.792 102.15 737.692 101.65C737.592 101.25 737.542 100.85 737.542 100.45V98.05L739.342 99.4L739.642 99.25L740.542 97.9L741.292 97.75L741.892 97C744.192 96 746.092 95.15 747.592 94.45C748.992 93.85 750.692 92.75 752.692 91.15L752.992 91C752.292 91.9 751.792 92.85 751.492 93.85C751.192 94.85 750.642 95.75 749.842 96.55L749.692 97.45L750.292 98.2C752.392 97.4 754.842 95.3 757.642 91.9C760.442 88.5 763.342 84.4 766.342 79.6C769.342 74.8 772.192 69.85 774.892 64.75C777.592 59.55 779.842 54.8 781.642 50.5C783.542 46.2 784.742 42.9 785.242 40.6L784.942 40.15L784.042 41.2L783.442 37.9C782.542 38 781.992 37.5 781.792 36.4C781.592 35.2 781.492 34 781.492 32.8C781.492 31.8 781.442 30.95 781.342 30.25C781.342 29.45 781.192 29.05 780.892 29.05L780.592 27.85L781.192 25.75L786.442 24.7V21.85C786.842 20.45 786.642 19.25 785.842 18.25C785.142 17.15 784.542 16.05 784.042 14.95C784.042 14.25 784.442 13.25 785.242 11.95C786.042 10.55 786.842 9.85 787.642 9.85L788.392 10.15C788.992 12.45 789.492 14.75 789.892 17.05C790.392 19.35 790.742 21.7 790.942 24.1H791.542C792.342 24.1 792.842 24.25 793.042 24.55C793.242 24.85 793.342 25.45 793.342 26.35C793.342 29.65 793.792 32.9 794.692 36.1C795.692 39.3 796.192 42.6 796.192 46C796.192 47.3 796.592 49.5 797.392 52.6C798.192 55.6 799.242 58.75 800.542 62.05C801.842 65.25 803.242 68.05 804.742 70.45C806.342 72.75 807.942 73.9 809.542 73.9H811.192C812.292 73 813.342 72.2 814.342 71.5C815.342 70.7 816.342 69.85 817.342 68.95C818.442 67.95 818.992 67.25 818.992 66.85C819.092 66.45 819.292 65.6 819.592 64.3C819.792 63.5 820.092 62.8 820.492 62.2C820.992 61.5 821.342 60.8 821.542 60.1C824.642 53.3 827.242 46.15 829.342 38.65C831.542 31.05 832.642 23.55 832.642 16.15L831.742 14.05C830.942 14.45 830.092 14.85 829.192 15.25C828.292 15.55 827.592 16.1 827.092 16.9L826.192 17.35L824.992 17.2C823.192 18.8 821.342 20.35 819.442 21.85C817.642 23.25 815.892 24.8 814.192 26.5L813.442 26.2C814.042 25.3 815.092 23.95 816.592 22.15C818.092 20.35 819.792 18.45 821.692 16.45C823.592 14.35 825.392 12.35 827.092 10.45C828.792 8.45 830.092 6.8 830.992 5.5C831.492 5.3 831.942 5.1 832.342 4.9C832.842 4.7 833.292 4.6 833.692 4.6C835.692 4.6 837.192 5.3 838.192 6.7C839.192 8.1 839.692 9.7 839.692 11.5C839.692 14 839.342 16.4 838.642 18.7C837.942 21 837.692 23.45 837.892 26.05L837.292 27.1H836.542L836.692 25.75L836.392 25.3C836.192 26.7 835.542 28.3 834.442 30.1C833.442 31.9 833.192 33.45 833.692 34.75L832.492 36.4C832.692 36.8 832.792 37.3 832.792 37.9C832.792 41.3 832.142 44.65 830.842 47.95C829.542 51.15 828.192 54.4 826.792 57.7C825.492 60.9 824.842 64.25 824.842 67.75C824.842 68.45 825.092 69.05 825.592 69.55C826.092 69.95 826.342 70.5 826.342 71.2C826.342 72.8 825.792 74.75 824.692 77.05C823.692 79.35 822.392 81.45 820.792 83.35C819.292 85.35 817.792 86.8 816.292 87.7L813.892 87.85C812.892 87.95 811.642 87.75 810.142 87.25C808.742 86.85 807.642 86.2 806.842 85.3V85L805.492 85.15C803.692 85.35 801.892 84.6 800.092 82.9C798.392 81.2 796.792 79.05 795.292 76.45C793.892 73.85 792.742 71.25 791.842 68.65C791.042 66.05 790.642 63.95 790.642 62.35C790.642 62.25 790.742 61.9 790.942 61.3C791.142 60.7 791.292 60.3 791.392 60.1L790.792 59.35L790.492 59.5L789.292 56.65L790.042 54.85L788.542 52.75H788.392C787.592 52.75 786.992 52.4 786.592 51.7C786.292 51 786.042 50.3 785.842 49.6C785.442 50.7 784.742 52.4 783.742 54.7C782.742 56.9 781.642 59.3 780.442 61.9C779.242 64.4 778.092 66.7 776.992 68.8C775.892 70.9 775.042 72.35 774.442 73.15L774.592 73.3C774.092 74 773.592 74.7 773.092 75.4C772.692 76.1 772.242 76.85 771.742 77.65L771.892 77.8L771.592 78.4C771.192 78.9 770.792 79.4 770.392 79.9C770.092 80.4 769.742 80.95 769.342 81.55C768.242 83.75 766.592 86.25 764.392 89.05C762.292 91.85 759.892 94.6 757.192 97.3C754.492 100.1 751.742 102.5 748.942 104.5C746.142 106.6 743.592 108.05 741.292 108.85ZM835.192 32.05L834.742 31.45C834.842 31.15 834.992 30.85 835.192 30.55C835.492 30.15 835.742 29.85 835.942 29.65L835.642 28.75L836.092 28.45H836.842C836.742 29.15 836.592 29.8 836.392 30.4C836.192 31 835.792 31.55 835.192 32.05ZM833.692 37.3C833.692 36.6 833.792 35.95 833.992 35.35C834.292 34.75 834.642 34.15 835.042 33.55L835.192 34.3C835.092 34.9 834.892 35.45 834.592 35.95C834.392 36.35 834.092 36.8 833.692 37.3ZM808.042 79.3L808.192 78.85L808.042 78.1L807.592 79.15L808.042 79.3ZM754.042 90.55L754.342 89.65L754.792 89.95L755.092 90.55H754.042ZM849.209 75.55C847.709 75.55 846.459 75.2 845.459 74.5C844.459 73.7 843.559 72.65 842.759 71.35H842.459L842.609 70.15L842.309 70.3V69.4L843.059 68.8H842.759L841.859 68.05H842.159L842.459 67.45V67.15L842.159 66.4V66.1H841.859L839.759 65.05V64.6C839.059 63.9 838.459 63.15 837.959 62.35C837.559 61.45 837.359 60.5 837.359 59.5C837.359 58.1 837.959 56.45 839.159 54.55C840.459 52.65 841.959 50.95 843.659 49.45C845.459 47.95 847.059 47.2 848.459 47.2C849.159 46.5 850.159 46.15 851.459 46.15L851.909 45.7L852.659 45.85C853.759 45.35 854.959 45.2 856.259 45.4L856.409 45.1H864.809C865.609 45.1 866.609 45.3 867.809 45.7C869.109 46.1 870.109 46.4 870.809 46.6C871.709 47.6 872.909 48.4 874.409 49C875.909 49.5 876.659 50.6 876.659 52.3C876.659 54.4 876.059 56.4 874.859 58.3C873.659 60.2 872.259 61.7 870.659 62.8H870.509C870.409 63.1 869.909 63.6 869.009 64.3C868.209 64.9 867.309 65.55 866.309 66.25C865.409 66.85 864.809 67.3 864.509 67.6L864.059 68.95C863.359 68.95 862.709 69.2 862.109 69.7C861.509 70.1 861.209 70.65 861.209 71.35C861.409 71.75 861.859 72.1 862.559 72.4C863.259 72.6 863.859 72.7 864.359 72.7L863.759 73C860.559 73 858.109 73.25 856.409 73.75C854.709 74.15 853.359 74.55 852.359 74.95C851.359 75.35 850.309 75.55 849.209 75.55ZM853.259 71.65C856.359 70.15 858.509 69 859.709 68.2C861.009 67.3 861.909 66.55 862.409 65.95C862.909 65.25 863.559 64.35 864.359 63.25C865.159 62.15 866.609 60.6 868.709 58.6V58.3C868.309 58.3 867.959 58.25 867.659 58.15C867.759 57.25 867.959 56.4 868.259 55.6C868.659 54.7 868.859 53.75 868.859 52.75C868.859 50.95 868.159 49.5 866.759 48.4C865.459 47.2 863.959 46.6 862.259 46.6C861.359 46.6 860.409 46.7 859.409 46.9C858.509 47.1 857.659 47.35 856.859 47.65L854.909 47.5C853.309 48.1 851.509 49 849.509 50.2C847.609 51.4 845.959 52.85 844.559 54.55C843.159 56.15 842.459 57.95 842.459 59.95C842.459 60.95 842.659 61.8 843.059 62.5L843.659 62.65V62.2L844.409 61.75L845.459 59.5V58.9L846.359 57.55L846.659 57.7L847.109 56.8L847.859 56.35V56.2C848.159 56.1 848.459 56 848.759 55.9C849.159 55.8 849.509 55.65 849.809 55.45C849.809 54.65 850.159 54.2 850.859 54.1C851.559 53.9 851.959 53.45 852.059 52.75H852.959L854.009 51.55L854.609 52L855.959 51.1H857.309V51.55C855.809 51.95 854.159 53.05 852.359 54.85C850.559 56.55 849.059 58.45 847.859 60.55C846.659 62.65 846.109 64.55 846.209 66.25L846.359 68.95C847.459 69.45 848.559 70.05 849.659 70.75C850.759 71.35 851.959 71.65 853.259 71.65ZM848.909 72.7L849.809 72.25L846.359 70.6L846.059 70.75L846.659 72.1L848.909 72.7ZM885.927 80.65C884.327 80.65 883.127 80.1 882.327 79C881.627 77.9 881.277 76.65 881.277 75.25C881.277 73.35 881.677 71.55 882.477 69.85C883.277 68.05 884.127 66.4 885.027 64.9L884.877 64.45C885.677 63.75 886.277 62.8 886.677 61.6C887.177 60.3 887.727 59.2 888.327 58.3C885.627 60.3 882.977 62.5 880.377 64.9C877.877 67.2 875.377 69.5 872.877 71.8L872.727 71.5C872.727 71.2 873.277 70.4 874.377 69.1C875.577 67.7 877.027 66.1 878.727 64.3C880.527 62.5 882.327 60.7 884.127 58.9C886.027 57 887.677 55.35 889.077 53.95C890.577 52.55 891.577 51.65 892.077 51.25C892.577 51.05 893.527 50.8 894.927 50.5C896.327 50.1 897.177 49.9 897.477 49.9C898.077 49.9 898.877 50.1 899.877 50.5C900.977 50.9 901.527 51.45 901.527 52.15C901.527 52.75 901.027 53.65 900.027 54.85C899.127 55.95 898.427 56.75 897.927 57.25H897.777L898.077 57.85C897.977 58.55 897.527 59.2 896.727 59.8C895.927 60.3 895.277 60.75 894.777 61.15L894.627 62.05L893.427 62.35C893.327 62.55 893.127 62.85 892.827 63.25C892.627 63.55 892.627 63.95 892.827 64.45C891.727 64.85 891.177 65.35 891.177 65.95C891.177 66.15 891.177 66.4 891.177 66.7C891.277 66.9 891.377 67.15 891.477 67.45L889.977 68.35L890.277 68.8C889.377 69.5 888.927 70.6 888.927 72.1L889.527 73L889.377 75.7C889.377 76 889.427 76.3 889.527 76.6C889.627 76.9 889.677 77.15 889.677 77.35C891.577 75.95 893.627 73.95 895.827 71.35C898.027 68.75 900.227 66.1 902.427 63.4C904.627 60.6 906.677 58.1 908.577 55.9C910.577 53.7 912.327 52.25 913.827 51.55C913.827 50.85 914.327 50.1 915.327 49.3C916.327 48.5 917.477 47.75 918.777 47.05C920.077 46.25 920.977 45.75 921.477 45.55C922.177 45.45 922.827 45.35 923.427 45.25C924.027 45.05 924.677 44.95 925.377 44.95L925.827 45.1C923.927 46.2 922.177 47.55 920.577 49.15C918.977 50.65 917.277 51.85 915.477 52.75C911.177 56.95 907.077 61.4 903.177 66.1C899.377 70.7 895.377 75.2 891.177 79.6C890.577 80.2 889.777 80.5 888.777 80.5C887.777 80.6 886.827 80.65 885.927 80.65ZM918.083 80.05C917.183 80.05 916.083 79.45 914.783 78.25C913.583 77.05 912.583 76.15 911.783 75.55C911.583 74.25 911.233 73.1 910.733 72.1C910.233 71 909.983 69.85 909.983 68.65C909.983 66.85 910.633 64.75 911.933 62.35C913.333 59.85 915.083 57.4 917.183 55C919.383 52.6 921.583 50.6 923.783 49C926.083 47.4 928.133 46.6 929.933 46.6V46.3C931.333 46.6 932.633 47.5 933.833 49C935.133 50.5 935.783 51.9 935.783 53.2C935.783 54.4 935.033 55.65 933.533 56.95C932.133 58.15 930.383 59.3 928.283 60.4C926.283 61.4 924.283 62.2 922.283 62.8C920.383 63.4 918.883 63.7 917.783 63.7V64C917.083 65.1 916.383 66.5 915.683 68.2C915.083 69.8 914.783 71.3 914.783 72.7C914.783 73.2 914.933 73.75 915.233 74.35C915.933 74.85 916.833 75.1 917.933 75.1C919.033 75 919.933 75 920.633 75.1L920.783 75.25L921.233 74.5C922.533 74.4 923.783 74.1 924.983 73.6V72.7H925.883V72.25L926.483 72.4C926.983 72.2 927.333 72 927.533 71.8C927.833 71.5 928.183 71.25 928.583 71.05L929.483 71.5V71.35L932.183 68.8H932.333L932.783 69.1V68.95C934.083 67.75 935.483 66.65 936.983 65.65C938.483 64.65 939.583 63.35 940.283 61.75L941.933 60.55L942.233 60.85C942.233 61.55 941.983 62.2 941.483 62.8C940.983 63.4 940.383 63.8 939.683 64C938.883 65.9 937.683 67.5 936.083 68.8C934.583 70.1 933.033 71.45 931.433 72.85H930.983L930.833 73.6C928.933 74.9 926.933 76.3 924.833 77.8C922.833 79.3 920.583 80.05 918.083 80.05ZM920.933 60.85H921.233V60.55C921.933 60.35 923.133 59.75 924.833 58.75C926.633 57.75 928.333 56.7 929.933 55.6C931.533 54.4 932.383 53.55 932.483 53.05H932.633L932.483 52.3L932.633 51.55C932.533 51.55 932.333 51.55 932.033 51.55C931.733 51.45 931.483 51.4 931.283 51.4C929.983 52.3 928.683 53.15 927.383 53.95C926.083 54.75 924.783 55.55 923.483 56.35H923.183L923.033 57.55C922.433 57.95 921.983 58.45 921.683 59.05C921.383 59.55 921.133 60.15 920.933 60.85ZM943.733 60.4L942.833 60.1L942.683 59.2L944.183 58.75L944.333 59.2L943.733 60.4ZM939.636 78.85C938.636 78.95 937.786 78.55 937.086 77.65C936.486 76.65 936.186 75.65 936.186 74.65C936.186 74.05 936.286 73.45 936.486 72.85C936.686 72.15 936.886 71.55 937.086 71.05C937.286 71.15 937.386 71.15 937.386 71.05C937.486 70.85 937.586 70.7 937.686 70.6L937.536 68.95C937.736 68.75 937.986 68.3 938.286 67.6C938.686 66.8 938.936 66.3 939.036 66.1V65.95H939.186L939.786 66.25C940.286 65.45 940.836 64.65 941.436 63.85C942.036 63.05 942.236 62.15 942.036 61.15L944.136 58.3V58.15C944.136 57.55 944.386 56.9 944.886 56.2C945.486 55.4 945.786 54.85 945.786 54.55C945.786 53.75 945.436 53.35 944.736 53.35C944.436 53.35 944.086 53.4 943.686 53.5C943.386 53.6 943.086 53.7 942.786 53.8L942.636 53.05L948.636 47.2V46.9C949.736 46.1 950.736 45.25 951.636 44.35C952.536 43.45 953.586 42.65 954.786 41.95C955.886 42.05 956.986 42.3 958.086 42.7C959.286 43.1 960.186 43.75 960.786 44.65L960.936 46.6V46.75C960.836 47.15 960.086 48.2 958.686 49.9C957.286 51.6 955.636 53.5 953.736 55.6C951.836 57.6 950.036 59.5 948.336 61.3C946.736 63.1 945.636 64.3 945.036 64.9L944.586 67.6C943.786 67.7 943.086 68.25 942.486 69.25C941.886 70.15 941.636 71 941.736 71.8C941.436 71.9 941.286 72.15 941.286 72.55C941.286 72.85 941.186 73 940.986 73C940.886 73.4 940.786 73.75 940.686 74.05C940.686 74.35 940.686 74.7 940.686 75.1V75.85C941.486 74.35 942.886 72.35 944.886 69.85C946.886 67.35 949.136 64.85 951.636 62.35C954.236 59.75 956.786 57.6 959.286 55.9C961.786 54.1 963.886 53.2 965.586 53.2C966.786 53.2 967.586 53.95 967.986 55.45C967.686 57.35 967.186 59.25 966.486 61.15C965.786 62.95 965.436 64.85 965.436 66.85L965.736 67.45L969.336 64.9L969.636 64.45L971.886 62.8C972.586 61.7 973.786 60.25 975.486 58.45C977.186 56.65 978.986 55.05 980.886 53.65C982.786 52.15 984.336 51.4 985.536 51.4C985.436 51.2 985.586 51.1 985.986 51.1C987.686 51.1 988.786 51.5 989.286 52.3C989.786 53.1 990.036 54.25 990.036 55.75C990.036 57.25 989.636 58.65 988.836 59.95C988.136 61.15 987.786 62.45 987.786 63.85C987.786 65.15 988.136 66.55 988.836 68.05C989.536 69.55 990.636 70.3 992.136 70.3C992.636 70.3 993.086 70.2 993.486 70C993.886 69.7 994.336 69.6 994.836 69.7C995.636 68.9 996.486 68.2 997.386 67.6C998.386 66.9 999.386 66.25 1000.39 65.65L1001.29 66.25C1000.99 66.85 1000.19 67.7 998.886 68.8C997.686 69.8 996.236 70.85 994.536 71.95C992.936 72.95 991.386 73.85 989.886 74.65C988.486 75.35 987.436 75.7 986.736 75.7C984.536 75.7 982.986 74.85 982.086 73.15C981.286 71.35 980.736 69.3 980.436 67C980.136 64.7 979.636 62.85 978.936 61.45L978.186 60.85C977.386 61.35 976.136 62.2 974.436 63.4C972.836 64.5 971.836 65.45 971.436 66.25C970.236 66.65 969.186 67.5 968.286 68.8C967.486 70 966.686 71.35 965.886 72.85C965.086 74.25 964.186 75.5 963.186 76.6C962.186 77.7 960.886 78.25 959.286 78.25C958.586 78.25 957.936 78.1 957.336 77.8C956.836 77.5 956.586 76.95 956.586 76.15C956.586 74.45 956.886 72.9 957.486 71.5C958.186 70 958.836 68.5 959.436 67C960.136 65.5 960.486 63.9 960.486 62.2L959.586 60.85C958.386 60.85 956.886 61.55 955.086 62.95C953.286 64.25 951.386 65.9 949.386 67.9C947.486 69.8 945.736 71.7 944.136 73.6C942.636 75.5 941.586 76.95 940.986 77.95V78.7L939.636 78.85ZM1003.33 83.5C1002.43 83.5 1001.58 83.35 1000.78 83.05L1000.03 82.15C998.53 81.75 997.48 81.2 996.88 80.5C996.28 79.8 995.98 78.65 995.98 77.05C995.98 76.35 996.18 75.05 996.58 73.15C997.08 71.15 997.68 69.25 998.38 67.45C999.08 65.65 999.78 64.75 1000.48 64.75C1000.58 63.65 1000.98 62.25 1001.68 60.55C1002.38 58.85 1003.28 57.85 1004.38 57.55V57.4L1005.73 55.6H1006.03L1006.33 53.35C1006.63 53.25 1006.88 52.95 1007.08 52.45L997.93 56.05L997.03 55.45C997.13 54.95 997.58 54.45 998.38 53.95C999.28 53.35 1000.18 52.85 1001.08 52.45C1002.08 51.95 1002.78 51.7 1003.18 51.7C1004.58 50.8 1005.93 50.3 1007.23 50.2L1007.83 49.6L1008.73 49.75L1010.53 49.15C1011.03 48.55 1011.53 47.9 1012.03 47.2C1012.53 46.5 1012.78 45.75 1012.78 44.95C1013.28 44.15 1013.83 43.45 1014.43 42.85C1015.13 42.15 1015.78 41.45 1016.38 40.75H1016.83C1017.33 40.25 1017.88 40 1018.48 40L1019.08 39.25V37.6L1019.68 37.15C1020.18 36.55 1020.83 35.65 1021.63 34.45C1022.53 33.15 1022.98 32.15 1022.98 31.45C1022.98 31.05 1022.63 30.85 1021.93 30.85C1021.03 30.85 1020.28 30.95 1019.68 31.15V30.4L1027.33 23.95V23.8C1028.63 22.9 1029.88 21.95 1031.08 20.95C1032.28 19.85 1033.53 18.9 1034.83 18.1C1035.93 18.3 1037.13 18.65 1038.43 19.15C1039.73 19.55 1040.63 20.3 1041.13 21.4V23.35C1040.43 24.05 1039.23 25.3 1037.53 27.1C1035.83 28.9 1033.88 30.95 1031.68 33.25C1029.48 35.45 1027.28 37.65 1025.08 39.85C1022.88 41.95 1020.93 43.7 1019.23 45.1C1017.63 46.5 1016.53 47.25 1015.93 47.35L1015.03 48.1C1016.63 47.9 1018.13 47.7 1019.53 47.5C1021.03 47.2 1022.53 47.05 1024.03 47.05C1025.93 47.05 1027.98 47.35 1030.18 47.95C1032.48 48.55 1034.03 49.85 1034.83 51.85L1035.73 52.75V54.25C1035.83 54.65 1035.93 55.05 1036.03 55.45C1036.13 55.85 1036.18 56.25 1036.18 56.65C1036.18 57.75 1035.93 58.5 1035.43 58.9C1034.93 59.2 1034.43 59.4 1033.93 59.5C1033.43 59.6 1033.18 59.85 1033.18 60.25L1034.38 60.7V60.85C1034.38 61.85 1033.48 63.25 1031.68 65.05C1029.98 66.85 1027.78 68.8 1025.08 70.9C1022.38 73 1019.53 75.05 1016.53 77.05C1013.63 78.95 1010.98 80.5 1008.58 81.7C1006.18 82.9 1004.43 83.5 1003.33 83.5ZM1017.58 32.5L1017.43 32.05L1017.88 31L1018.78 31.15L1019.08 32.2L1017.58 32.5ZM1004.83 81.4C1006.63 81.4 1008.68 80.45 1010.98 78.55C1013.28 76.65 1015.53 74.3 1017.73 71.5C1019.93 68.6 1021.73 65.8 1023.13 63.1C1024.63 60.3 1025.38 58.1 1025.38 56.5C1025.38 54.4 1024.38 52.9 1022.38 52C1020.48 51.1 1018.68 50.65 1016.98 50.65C1016.78 50.65 1016.38 50.75 1015.78 50.95C1015.18 51.15 1014.73 51.3 1014.43 51.4L1014.13 51.85C1013.03 52.15 1012.08 52.75 1011.28 53.65C1010.58 54.55 1010.23 55.6 1010.23 56.8C1009.83 56.9 1009.13 57.55 1008.13 58.75C1007.23 59.85 1006.23 60.6 1005.13 61L1004.53 62.8C1004.43 63.5 1004.03 64.2 1003.33 64.9C1002.73 65.5 1002.18 66.05 1001.68 66.55C1001.18 68.05 1000.63 69.55 1000.03 71.05C999.53 72.55 999.18 74.1 998.98 75.7C999.18 75 999.48 74.35 999.88 73.75C1000.38 73.05 1000.63 72.35 1000.63 71.65L1001.38 71.2L1002.73 68.5V67.9L1003.63 66.25L1004.08 66.4L1004.53 65.35L1005.28 64.75V64.6C1005.68 64.4 1006.03 64.2 1006.33 64C1006.73 63.7 1007.08 63.45 1007.38 63.25C1007.38 62.45 1007.78 61.85 1008.58 61.45C1009.38 61.05 1009.83 60.5 1009.93 59.8L1010.83 59.5L1011.88 58.15H1012.48L1013.98 56.8L1015.48 56.35V56.95C1013.68 57.95 1011.83 59.65 1009.93 62.05C1008.03 64.35 1006.38 66.9 1004.98 69.7C1003.68 72.4 1003.03 74.8 1003.03 76.9C1003.03 77.6 1003.08 78.5 1003.18 79.6C1003.38 80.8 1003.93 81.4 1004.83 81.4ZM998.68 78.25L999.13 77.35V77.05L998.83 76.9L998.68 78.25ZM998.83 79.6V79.45L999.58 78.55H999.43L998.68 78.4L998.83 79.6ZM1043.03 80.05C1042.13 80.05 1041.03 79.45 1039.73 78.25C1038.53 77.05 1037.53 76.15 1036.73 75.55C1036.53 74.25 1036.18 73.1 1035.68 72.1C1035.18 71 1034.93 69.85 1034.93 68.65C1034.93 66.85 1035.58 64.75 1036.88 62.35C1038.28 59.85 1040.03 57.4 1042.13 55C1044.33 52.6 1046.53 50.6 1048.73 49C1051.03 47.4 1053.08 46.6 1054.88 46.6V46.3C1056.28 46.6 1057.58 47.5 1058.78 49C1060.08 50.5 1060.73 51.9 1060.73 53.2C1060.73 54.4 1059.98 55.65 1058.48 56.95C1057.08 58.15 1055.33 59.3 1053.23 60.4C1051.23 61.4 1049.23 62.2 1047.23 62.8C1045.33 63.4 1043.83 63.7 1042.73 63.7V64C1042.03 65.1 1041.33 66.5 1040.63 68.2C1040.03 69.8 1039.73 71.3 1039.73 72.7C1039.73 73.2 1039.88 73.75 1040.18 74.35C1040.88 74.85 1041.78 75.1 1042.88 75.1C1043.98 75 1044.88 75 1045.58 75.1L1045.73 75.25L1046.18 74.5C1047.48 74.4 1048.73 74.1 1049.93 73.6V72.7H1050.83V72.25L1051.43 72.4C1051.93 72.2 1052.28 72 1052.48 71.8C1052.78 71.5 1053.13 71.25 1053.53 71.05L1054.43 71.5V71.35L1057.13 68.8H1057.28L1057.73 69.1V68.95C1059.03 67.75 1060.43 66.65 1061.93 65.65C1063.43 64.65 1064.53 63.35 1065.23 61.75L1066.88 60.55L1067.18 60.85C1067.18 61.55 1066.93 62.2 1066.43 62.8C1065.93 63.4 1065.33 63.8 1064.63 64C1063.83 65.9 1062.63 67.5 1061.03 68.8C1059.53 70.1 1057.98 71.45 1056.38 72.85H1055.93L1055.78 73.6C1053.88 74.9 1051.88 76.3 1049.78 77.8C1047.78 79.3 1045.53 80.05 1043.03 80.05ZM1045.88 60.85H1046.18V60.55C1046.88 60.35 1048.08 59.75 1049.78 58.75C1051.58 57.75 1053.28 56.7 1054.88 55.6C1056.48 54.4 1057.33 53.55 1057.43 53.05H1057.58L1057.43 52.3L1057.58 51.55C1057.48 51.55 1057.28 51.55 1056.98 51.55C1056.68 51.45 1056.43 51.4 1056.23 51.4C1054.93 52.3 1053.63 53.15 1052.33 53.95C1051.03 54.75 1049.73 55.55 1048.43 56.35H1048.13L1047.98 57.55C1047.38 57.95 1046.93 58.45 1046.63 59.05C1046.33 59.55 1046.08 60.15 1045.88 60.85ZM1068.68 60.4L1067.78 60.1L1067.63 59.2L1069.13 58.75L1069.28 59.2L1068.68 60.4ZM1083.26 77.5C1081.76 77.5 1080.61 76.9 1079.81 75.7L1076.36 74.05C1075.96 73.15 1075.76 72.05 1075.76 70.75C1075.76 68.65 1076.26 66.4 1077.26 64C1078.36 61.5 1079.41 59.4 1080.41 57.7C1079.71 57.3 1079.11 56.8 1078.61 56.2C1078.11 55.6 1077.61 55 1077.11 54.4L1076.66 54.1C1076.26 54.5 1075.81 54.85 1075.31 55.15C1074.81 55.45 1074.31 55.65 1073.81 55.75C1072.91 56.65 1071.61 58.15 1069.91 60.25C1068.21 62.25 1066.36 64.35 1064.36 66.55C1062.36 68.65 1060.41 70.5 1058.51 72.1C1056.71 73.7 1055.26 74.5 1054.16 74.5L1054.01 74.2C1054.11 73.6 1054.56 72.95 1055.36 72.25C1056.26 71.45 1056.91 70.85 1057.31 70.45C1057.51 69.65 1058.01 68.95 1058.81 68.35C1059.61 67.75 1060.36 67.3 1061.06 67H1061.21L1062.11 65.65L1062.86 65.2L1062.71 65.05L1063.76 64.3C1063.96 63.8 1064.26 63.35 1064.66 62.95C1065.06 62.55 1065.41 62.15 1065.71 61.75V61.45C1067.91 59.75 1069.91 57.9 1071.71 55.9C1073.61 53.8 1075.56 51.75 1077.56 49.75L1077.71 49.6L1077.56 48.7C1077.56 47.6 1077.81 46.4 1078.31 45.1C1078.91 43.7 1079.56 42.65 1080.26 41.95C1080.96 40.95 1081.81 39.9 1082.81 38.8C1083.91 37.6 1085.11 37 1086.41 37C1087.41 37 1088.01 37.5 1088.21 38.5C1088.41 39.4 1088.51 40.2 1088.51 40.9C1088.51 43.4 1087.86 45.35 1086.56 46.75C1085.26 48.05 1083.91 49.05 1082.51 49.75C1081.21 50.45 1080.56 51.2 1080.56 52L1082.96 53.05L1083.86 52.3L1084.01 52.45H1084.31C1084.91 52.15 1085.51 51.9 1086.11 51.7C1086.71 51.4 1087.36 51.25 1088.06 51.25C1088.66 51.25 1089.26 51.45 1089.86 51.85C1090.46 52.15 1090.96 52.45 1091.36 52.75L1091.51 54.1C1091.61 55 1091.21 56 1090.31 57.1C1089.51 58.1 1088.51 59.3 1087.31 60.7C1086.11 62 1085.06 63.6 1084.16 65.5C1083.26 67.3 1082.81 69.4 1082.81 71.8C1082.81 72.4 1082.91 73.05 1083.11 73.75C1083.41 74.35 1083.96 74.65 1084.76 74.65C1085.96 74.65 1087.31 74.2 1088.81 73.3C1090.31 72.4 1091.81 71.4 1093.31 70.3C1094.81 69.1 1096.06 68.2 1097.06 67.6L1097.66 68.35C1097.66 69.05 1097.06 69.9 1095.86 70.9C1094.66 71.9 1093.21 72.9 1091.51 73.9C1089.81 74.9 1088.16 75.75 1086.56 76.45C1085.06 77.15 1083.96 77.5 1083.26 77.5ZM1082.72 90.85C1082.12 90.85 1081.47 90.75 1080.77 90.55C1080.07 90.45 1079.47 90.2 1078.97 89.8C1079.27 89.1 1080.52 88.3 1082.72 87.4C1084.92 86.5 1087.47 85.55 1090.37 84.55C1093.27 83.65 1096.02 82.65 1098.62 81.55C1101.32 80.55 1103.32 79.55 1104.62 78.55L1106.57 78.85C1107.57 78.45 1108.07 77.6 1108.07 76.3C1112.47 74.5 1116.62 71.75 1120.52 68.05C1124.42 64.35 1127.82 60.15 1130.72 55.45C1133.72 50.75 1136.07 45.85 1137.77 40.75C1139.47 35.65 1140.32 30.75 1140.32 26.05C1140.32 22.85 1139.62 19.6 1138.22 16.3C1136.92 12.9 1134.97 10.05 1132.37 7.75C1129.87 5.45 1126.82 4.3 1123.22 4.3C1122.62 4.3 1121.72 4.25 1120.52 4.15C1119.42 3.94999 1118.87 3.39999 1118.87 2.49999C1119.77 1.49999 1120.97 0.999994 1122.47 0.999994C1125.37 0.999994 1128.42 1.8 1131.62 3.4C1134.82 5 1137.82 7.15 1140.62 9.85C1143.42 12.45 1145.67 15.3 1147.37 18.4C1149.17 21.5 1150.07 24.5 1150.07 27.4C1150.07 28.6 1149.77 29.75 1149.17 30.85C1148.67 31.85 1148.27 32.9 1147.97 34C1147.37 32.7 1146.82 31.45 1146.32 30.25L1145.72 29.8C1145.62 29.9 1145.52 30.1 1145.42 30.4C1145.32 30.7 1145.27 30.95 1145.27 31.15C1145.27 33.55 1145.62 35.25 1146.32 36.25C1147.12 37.25 1148.17 38.7 1149.47 40.6C1148.37 41.3 1147.47 42.4 1146.77 43.9L1147.67 44.65C1147.17 46.85 1146.57 48.7 1145.87 50.2L1145.27 50.8C1144.27 52.6 1143.62 54.1 1143.32 55.3C1143.02 56.5 1141.97 57.8 1140.17 59.2L1140.32 60.7C1140.32 62.1 1139.72 62.75 1138.52 62.65C1138.72 62.45 1138.62 62.35 1138.22 62.35C1137.92 62.25 1137.82 62.3 1137.92 62.5L1136.57 61.3L1135.67 62.5C1134.27 62.7 1133.17 63.25 1132.37 64.15L1133.12 65.5C1131.92 66.1 1130.97 66.9 1130.27 67.9L1129.82 67.6L1129.67 68.2C1128.67 68.3 1127.72 68.45 1126.82 68.65C1125.92 68.85 1125.02 69.05 1124.12 69.25L1123.37 71.05C1121.97 71.25 1121.02 71.45 1120.52 71.65C1120.02 71.75 1119.72 72.05 1119.62 72.55C1119.52 73.05 1119.32 74 1119.02 75.4L1118.57 74.2L1117.37 74.65C1116.07 74.65 1114.62 75.4 1113.02 76.9C1111.42 78.3 1109.92 79.25 1108.52 79.75V80.8L1107.02 82.45L1106.57 82.15C1105.87 82.25 1105.22 82.5 1104.62 82.9C1104.12 83.3 1103.62 83.75 1103.12 84.25L1102.97 85L1103.27 85.3C1103.57 85.3 1103.92 85.15 1104.32 84.85C1104.82 84.55 1105.17 84.35 1105.37 84.25L1106.12 84.4L1106.72 83.95L1106.57 83.5L1107.32 83.8L1108.37 82.75L1109.72 83.35C1109.32 83.65 1108.97 83.95 1108.67 84.25C1108.47 84.55 1108.12 84.8 1107.62 85V84.25C1106.22 86.05 1104.82 87 1103.42 87.1C1102.12 87.3 1100.42 87.4 1098.32 87.4C1097.82 87.4 1097.27 87.45 1096.67 87.55C1096.17 87.65 1095.67 87.75 1095.17 87.85C1094.07 88.95 1092.92 89.5 1091.72 89.5C1090.52 89.5 1089.22 89.5 1087.82 89.5C1087.12 90 1086.32 90.35 1085.42 90.55C1084.42 90.75 1083.52 90.85 1082.72 90.85ZM1135.07 61.45C1136.57 60.05 1137.72 58.25 1138.52 56.05L1139.27 56.65H1139.72V53.65C1140.62 53.35 1141.32 52.55 1141.82 51.25C1142.42 49.95 1142.87 48.6 1143.17 47.2C1143.47 45.7 1143.62 44.55 1143.62 43.75C1142.92 44.95 1142.12 45.85 1141.22 46.45C1140.32 46.95 1139.87 47.85 1139.87 49.15C1139.87 49.25 1139.87 49.45 1139.87 49.75C1139.87 49.95 1139.92 50.2 1140.02 50.5C1139.72 51.8 1139.07 52.75 1138.07 53.35C1137.97 54.75 1137.52 56.15 1136.72 57.55C1136.02 58.85 1135.32 60.1 1134.62 61.3L1135.07 61.45ZM1143.92 50.65C1144.12 50.25 1144.32 49.85 1144.52 49.45C1144.72 48.95 1144.87 48.5 1144.97 48.1H1144.52L1143.47 49.15L1143.92 50.65ZM1143.02 54.1C1143.32 53.6 1143.47 53.1 1143.47 52.6L1142.87 53.35L1143.02 54.1ZM1141.67 55.6L1141.82 54.1L1141.37 53.95L1141.07 54.4L1141.67 55.6ZM1126.22 67.6C1127.32 67.1 1128.07 66.35 1128.47 65.35C1128.07 65.45 1127.62 65.7 1127.12 66.1C1126.62 66.4 1126.27 66.8 1126.07 67.3L1126.22 67.6ZM1126.82 73.3L1125.32 71.95L1126.22 70L1127.57 69.55C1127.97 69.85 1128.22 70.25 1128.32 70.75C1128.42 71.15 1128.52 71.55 1128.62 71.95L1127.27 73.3H1126.82ZM1123.37 73.45L1122.47 73.3L1121.87 73L1123.07 72.1L1124.57 73L1123.37 73.45ZM1123.52 76.9C1122.72 76.4 1122.17 75.6 1121.87 74.5L1122.17 74.35H1123.07L1123.67 75.85L1125.02 74.95C1124.92 75.35 1124.67 75.7 1124.27 76C1123.97 76.3 1123.72 76.6 1123.52 76.9ZM1118.27 77.2C1117.27 77 1116.77 76.45 1116.77 75.55L1118.42 76.15L1118.57 76.6L1118.27 77.2ZM1120.37 77.8L1119.62 76.6L1121.72 76.9L1120.37 77.8ZM1113.92 79.45L1112.87 78.55L1114.82 77.95L1113.92 79.45ZM1118.27 79.75L1117.67 78.4L1119.47 78.1L1118.27 79.75ZM1115.72 80.5L1115.57 80.35V79.75L1116.02 79.6H1116.62L1116.92 79.9L1116.47 80.5H1115.72ZM1111.97 83.05L1111.22 82.15L1110.47 81.85L1112.27 80.2L1112.72 82.15L1113.77 81.4L1114.07 81.85L1111.97 83.05ZM1092.02 89.05L1093.37 88.3L1092.47 87.4C1092.07 87.6 1091.67 87.7 1091.27 87.7C1090.87 87.8 1090.42 87.85 1089.92 87.85L1092.02 89.05Z" fill="#BE0029"/>
</svg>
