<svg width="1077" height="124" viewBox="0 0 1077 124" fill="none" xmlns="http://www.w3.org/2000/svg">
<path d="M72.1 97.05L70 96.6L67.3 96.45L66.55 95.7C65.95 95.4 65.35 95.2 64.75 95.1C64.15 95 63.6 94.95 63.1 94.95C62.1 93.55 61.1 92.1 60.1 90.6C59.2 89 58.4 87.35 57.7 85.65L59.05 85.8V85.5L58.6 85.05C57.7 74.55 57.25 63.85 57.25 52.95C56.55 53.15 56.1 53.6 55.9 54.3C55.8 54.9 55.75 55.45 55.75 55.95C55.35 56.65 54.85 57.05 54.25 57.15C53.65 57.15 53.1 57.35 52.6 57.75C48.1 61.95 43.7 66.6 39.4 71.7C35.1 76.7 31.05 81.65 27.25 86.55C25.35 87.05 23.7 87.9 22.3 89.1C20.9 90.2 19.2 90.75 17.2 90.75C15.3 90.75 14 89.95 13.3 88.35C12.6 86.75 12.25 85.15 12.25 83.55C12.25 81.05 12.65 78.6 13.45 76.2C14.35 73.7 15.25 71.35 16.15 69.15C17.55 68.75 18.1 67.75 17.8 66.15C18.6 64.85 19.65 63.05 20.95 60.75C22.35 58.45 23.7 56 25 53.4C26.4 50.8 27.55 48.35 28.45 46.05C29.45 43.65 29.95 41.75 29.95 40.35C29.95 40.05 29.9 39.8 29.8 39.6C29.7 39.3 29.6 39 29.5 38.7L29.65 37.95C28.15 38.05 26.8 38.25 25.6 38.55C24.5 38.75 23.2 38.85 21.7 38.85C21.6 38.85 20.75 39.15 19.15 39.75C17.65 40.25 15.8 40.9 13.6 41.7C11.5 42.5 9.55 43.25 7.75 43.95C6.05 44.55 5 44.95 4.6 45.15L3.7 44.4C9 42.1 14.1 39.5 19 36.6C24 33.7 29.1 31.05 34.3 28.65H34.45C35.65 28.65 37.1 28.9 38.8 29.4C40.5 29.9 42 30.65 43.3 31.65C44.6 32.55 45.25 33.75 45.25 35.25C45.25 36.05 44.55 37.4 43.15 39.3C41.75 41.1 40.1 43.1 38.2 45.3C36.3 47.5 34.45 49.5 32.65 51.3C30.95 53 29.7 54.15 28.9 54.75C28.7 55.55 28.4 56.25 28 56.85C27.6 57.35 27.4 58 27.4 58.8C27.4 59.3 27.45 59.7 27.55 60H26.8L26.35 60.6C26.35 61 26.25 61.5 26.05 62.1C25.85 62.6 25.45 62.95 24.85 63.15V62.55C25.25 61.65 25.35 60.8 25.15 60L26.2 58.35L25.15 58.65H24.7V58.8L23.35 60.6C23.35 61.1 23.4 61.65 23.5 62.25C23.7 62.75 23.8 63.3 23.8 63.9L23.05 64.5C22.65 65.8 22.05 67.1 21.25 68.4C20.55 69.7 20.2 71.1 20.2 72.6C19.2 74.2 18.25 75.7 17.35 77.1C16.55 78.5 16.15 80.2 16.15 82.2C16.15 82.8 16.15 83.4 16.15 84C16.25 84.6 16.4 85.15 16.6 85.65C17.2 85.85 17.8 86.1 18.4 86.4C19 86.6 19.65 86.7 20.35 86.7C21.35 86.7 22.95 85.8 25.15 84C27.35 82.1 29.8 79.75 32.5 76.95C35.3 74.05 38.05 71.05 40.75 67.95C43.45 64.85 45.75 62.05 47.65 59.55C49.65 57.05 50.95 55.25 51.55 54.15C52.25 52.95 52.7 51.6 52.9 50.1C53.2 48.6 53.5 47.2 53.8 45.9C53.8 45.7 53.75 45.55 53.65 45.45C53.65 45.25 53.65 45.05 53.65 44.85C53.65 44.35 53.7 43.9 53.8 43.5C53.9 43 53.95 42.5 53.95 42C53.95 41.5 53.85 41 53.65 40.5C53.45 39.9 53.25 39.4 53.05 39L52.9 38.7C53.5 38.5 54.35 38.1 55.45 37.5C56.55 36.9 57.65 36.35 58.75 35.85C59.85 35.25 60.65 34.95 61.15 34.95C62.45 34.95 63.3 35.3 63.7 36C64.2 36.6 64.45 37.55 64.45 38.85C64.45 40.05 64.4 41.3 64.3 42.6C64.2 43.8 64.1 45 64 46.2L63.25 46.5L63.55 49.2L62.95 50.4L62.2 49.5L61.3 50.7L61.9 51.9L62.8 51.6L63.25 52.05L61.3 53.55C61.3 54.85 61.35 56.95 61.45 59.85C61.55 62.75 61.7 65.95 61.9 69.45C62.1 72.85 62.4 76.25 62.8 79.65C63.3 82.95 63.9 85.8 64.6 88.2C65.3 90.6 66.2 92.1 67.3 92.7L70.6 91.05L70.9 90.15L71.95 90C71.95 89.8 72 89.55 72.1 89.25C72.2 88.85 72.2 88.5 72.1 88.2V87.3L71.5 87C72 86 72.45 84.9 72.85 83.7C73.25 82.4 73.6 81.2 73.9 80.1L74.8 79.8V76.95C75.1 76.45 75.3 75.95 75.4 75.45C75.6 74.85 75.75 74.3 75.85 73.8L76.9 72.75L76.45 71.55H77.65L77.8 70.8L76.45 69.75L77.5 67.65C77.7 66.55 77.9 65.3 78.1 63.9C78.4 62.5 79.05 61.5 80.05 60.9L79.9 58.5L80.2 58.95L81.7 59.55C81.5 59.05 81.2 58.55 80.8 58.05C80.4 57.55 80.05 57.1 79.75 56.7C80.55 53.8 81.55 50 82.75 45.3C83.95 40.6 85.4 35.7 87.1 30.6C88.8 25.4 90.85 20.5 93.25 15.9C95.65 11.3 98.35 7.55 101.35 4.64999C104.45 1.74999 107.95 0.299995 111.85 0.299995C112.35 0.299995 113.2 0.399994 114.4 0.599992C115.7 0.699996 116.95 0.899997 118.15 1.19999C119.35 1.49999 119.95 1.95 119.95 2.54999C117.45 2.94999 115.25 3.7 113.35 4.8C111.55 5.8 109.8 7.3 108.1 9.3C108 10.4 107.3 11.35 106 12.15C105.2 13.65 104.2 15.6 103 18C101.8 20.3 100.6 22.75 99.4 25.35C98.3 27.95 97.35 30.45 96.55 32.85C95.75 35.25 95.35 37.3 95.35 39C95.35 39.2 95.55 39.2 95.95 39L96.1 39.75L95.95 40.8L95.5 41.1L94.6 40.5C95 41 95.2 41.65 95.2 42.45C95.2 43.55 94.9 44.35 94.3 44.85L92.35 45.3L91.9 46.05L92.8 48.3C91.2 52.8 89.95 57.45 89.05 62.25C88.15 67.05 86.7 71.7 84.7 76.2H83.65V76.95C83.65 77.55 83.8 78.25 84.1 79.05L83.05 80.55L82.75 80.7V80.55L82.9 79.2L82.6 79.65L82.3 81.45L82.9 81.6C82 83.3 81.1 85.25 80.2 87.45C79.4 89.65 78.35 91.65 77.05 93.45C75.85 95.25 74.2 96.45 72.1 97.05ZM0.7 46.65L0.4 46.5L1.9 45.15L2.65 45.9L0.7 46.65ZM87.85 67.2L88.15 66L88.75 65.7V66.75L87.85 67.2ZM31.6 79.35L32.05 78C31.85 78.2 31.55 78.55 31.15 79.05L31.6 79.35ZM113.928 55.5C113.628 55.5 112.828 55.4 111.528 55.2C110.328 54.9 109.728 54.55 109.728 54.15C109.728 52.65 110.478 51.55 111.978 50.85C113.578 50.15 114.878 49.45 115.878 48.75H116.178C117.578 47.65 119.228 46.9 121.128 46.5C123.128 46.1 124.978 45.85 126.678 45.75L126.528 45.9C124.628 46.5 122.928 47.6 121.428 49.2C119.928 50.7 118.528 52.15 117.228 53.55C116.028 54.85 114.928 55.5 113.928 55.5ZM94.5777 97.2L92.1777 93.75C92.0777 93.05 91.9277 92.4 91.7277 91.8C91.5277 91.1 91.4277 90.4 91.4277 89.7C91.4277 88.8 91.4777 87.9 91.5777 87C91.6777 86.1 91.7777 85.2 91.8777 84.3L92.9277 81.75L92.7777 81.6C93.2777 80.4 93.7777 78.85 94.2777 76.95C94.7777 75.05 95.3777 73.15 96.0777 71.25C96.8777 69.25 97.8277 67.6 98.9277 66.3C100.028 64.9 101.378 64.2 102.978 64.2C104.078 64.2 105.328 64.6 106.728 65.4C108.128 66.2 108.828 67.25 108.828 68.55C108.828 69.05 108.428 69.95 107.628 71.25C106.928 72.55 106.078 74 105.078 75.6C104.078 77.1 103.078 78.45 102.078 79.65C101.178 80.75 100.528 81.4 100.128 81.6C99.2277 83.2 97.9777 85.05 96.3777 87.15C94.7777 89.25 93.9777 91.2 93.9777 93C93.9777 93.7 94.0777 94.35 94.2777 94.95C94.5777 95.55 94.7277 96.2 94.7277 96.9L94.5777 97.2ZM110.063 94.8C108.963 94.8 108.163 94.3 107.663 93.3C107.263 92.4 107.063 91.5 107.063 90.6C107.063 88 107.663 85.3 108.863 82.5C110.163 79.7 111.413 77.15 112.613 74.85C113.913 72.45 114.563 70.6 114.563 69.3C114.563 68.7 114.213 68.4 113.513 68.4C113.213 68.4 112.763 68.5 112.163 68.7V68.1L115.763 63.9V63.75C116.263 63.25 116.713 62.75 117.113 62.25C117.513 61.75 117.913 61.3 118.313 60.9L119.663 60C120.763 60.1 121.813 60.4 122.813 60.9C123.913 61.3 124.613 62.15 124.913 63.45L124.763 63.6C124.863 64.4 124.513 65.25 123.713 66.15C122.913 67.05 122.213 67.75 121.613 68.25C121.013 69.35 120.313 70.4 119.513 71.4C118.813 72.3 118.163 73.3 117.563 74.4V75.9L116.963 77.1H116.663C116.363 77.7 116.063 78.35 115.763 79.05C115.563 79.75 115.463 80.5 115.463 81.3L116.213 82.5C116.513 82.2 117.063 81.75 117.863 81.15C118.763 80.45 119.563 79.75 120.263 79.05C120.963 78.35 121.313 77.85 121.313 77.55L122.963 76.05C123.463 74.55 124.563 72.95 126.263 71.25C127.963 69.45 129.413 68.05 130.613 67.05L131.063 65.85C131.663 65.55 132.263 65.2 132.863 64.8C133.563 64.4 134.263 64.2 134.963 64.2C135.763 64.2 136.463 64.4 137.063 64.8C137.763 65.2 138.463 65.6 139.163 66C139.163 66.4 139.163 66.9 139.163 67.5C139.263 68 139.313 68.5 139.313 69C139.313 70.6 138.863 72.1 137.963 73.5C137.063 74.9 136.163 76.35 135.263 77.85C134.363 79.35 133.913 81.2 133.913 83.4C133.913 83.7 133.913 84.4 133.913 85.5C134.013 86.5 134.163 87.5 134.363 88.5C134.663 89.4 135.113 89.85 135.713 89.85L140.513 87.3H140.813C141.013 86.7 141.363 86.15 141.863 85.65C142.463 85.15 143.113 84.9 143.813 84.9L143.963 85.05C143.963 85.55 143.513 86.3 142.613 87.3C141.813 88.3 140.913 89.25 139.913 90.15C139.013 91.05 138.363 91.7 137.963 92.1C137.563 92.2 137.113 92.3 136.613 92.4C136.113 92.4 135.613 92.5 135.113 92.7L134.663 91.95C132.463 91.75 130.613 91 129.113 89.7C127.713 88.3 127.013 86.5 127.013 84.3C127.013 83.6 127.163 82.35 127.463 80.55C127.763 78.65 128.113 76.8 128.513 75C129.013 73.2 129.363 71.95 129.563 71.25C128.363 72.05 127.213 73.3 126.113 75C125.013 76.6 124.013 77.95 123.113 79.05C122.113 79.45 121.063 80.5 119.963 82.2C118.963 83.8 117.913 85.6 116.813 87.6C115.713 89.5 114.613 91.2 113.513 92.7C112.413 94.1 111.263 94.8 110.063 94.8ZM144.979 99.3C143.379 99.3 142.079 98.6 141.079 97.2C140.079 95.9 139.579 94.45 139.579 92.85C139.579 91.65 139.929 89.85 140.629 87.45C141.429 84.95 142.379 82.35 143.479 79.65C144.579 76.85 145.729 74.35 146.929 72.15C148.129 69.95 149.229 68.5 150.229 67.8C151.629 65.6 152.879 63.55 153.979 61.65C152.379 61.95 150.779 62.3 149.179 62.7C147.579 63 146.079 63.45 144.679 64.05C143.979 64.95 143.179 65.4 142.279 65.4C141.979 65.2 141.629 65 141.229 64.8C140.829 64.6 140.479 64.35 140.179 64.05L140.329 63.75H140.179V63.45C140.179 62.95 140.079 62.5 139.879 62.1C139.779 61.6 139.679 61.15 139.579 60.75C139.479 60.65 139.429 60.4 139.429 60C139.429 58.7 140.029 57.85 141.229 57.45C142.529 57.05 143.829 56.85 145.129 56.85C147.029 56.85 148.329 57 149.029 57.3L150.529 57H154.279C154.979 57 155.629 57 156.229 57C156.829 57 157.429 56.95 158.029 56.85L158.629 55.95L158.479 55.35C158.779 54.65 159.429 53.5 160.429 51.9C161.429 50.3 162.479 48.6 163.579 46.8C164.679 45 165.629 43.45 166.429 42.15C167.329 40.75 167.779 40.05 167.779 40.05C167.779 39.45 168.279 39.1 169.279 39C170.279 38.9 170.929 38.85 171.229 38.85C172.329 38.85 173.829 39.2 175.729 39.9C177.629 40.5 178.579 41.55 178.579 43.05C178.579 43.95 178.229 44.7 177.529 45.3C176.829 45.8 176.079 46.15 175.279 46.35V46.5C175.279 47.1 174.829 47.8 173.929 48.6C173.129 49.4 172.179 50.1 171.079 50.7C169.979 51.3 169.129 51.7 168.529 51.9C168.229 52 167.829 52.4 167.329 53.1C166.929 53.7 166.629 54.15 166.429 54.45V55.05C166.029 55.35 165.579 55.7 165.079 56.1C164.679 56.4 164.329 56.8 164.029 57.3C164.529 57.4 165.029 57.45 165.529 57.45C166.029 57.45 166.529 57.45 167.029 57.45C167.829 57.45 168.579 57.45 169.279 57.45C170.079 57.45 170.829 57.5 171.529 57.6L176.179 58.2C174.979 59.2 173.629 59.8 172.129 60C170.629 60.1 169.079 60.15 167.479 60.15C165.979 60.05 164.529 60.3 163.129 60.9C162.429 61.1 161.479 61.7 160.279 62.7C159.179 63.7 158.179 64.8 157.279 66C156.379 67.1 155.929 68.05 155.929 68.85L152.479 73.5C151.479 74 150.979 74.75 150.979 75.75C150.979 76.75 150.429 77.25 149.329 77.25L147.229 82.05C147.129 82.65 146.979 83.6 146.779 84.9C146.679 86.1 146.279 86.8 145.579 87C145.579 88.3 145.529 89.6 145.429 90.9C145.329 92.1 145.279 93.3 145.279 94.5L145.579 95.1H146.779C148.779 93.1 150.829 91.2 152.929 89.4C155.129 87.5 157.179 85.5 159.079 83.4L159.829 83.1H160.129L161.029 81.9L161.629 81.6L161.479 81.45L162.379 80.7C163.179 79.2 164.479 77.95 166.279 76.95L166.429 77.25C166.429 77.75 165.779 78.85 164.479 80.55C163.179 82.15 161.529 84.05 159.529 86.25C157.629 88.35 155.629 90.4 153.529 92.4C151.529 94.4 149.729 96.05 148.129 97.35C146.529 98.65 145.479 99.3 144.979 99.3ZM169.687 94.05C168.787 94.05 167.687 93.45 166.387 92.25C165.187 91.05 164.187 90.15 163.387 89.55C163.187 88.25 162.837 87.1 162.337 86.1C161.837 85 161.587 83.85 161.587 82.65C161.587 80.85 162.237 78.75 163.537 76.35C164.937 73.85 166.687 71.4 168.787 69C170.987 66.6 173.187 64.6 175.387 63C177.687 61.4 179.737 60.6 181.537 60.6V60.3C182.937 60.6 184.237 61.5 185.437 63C186.737 64.5 187.387 65.9 187.387 67.2C187.387 68.4 186.637 69.65 185.137 70.95C183.737 72.15 181.987 73.3 179.887 74.4C177.887 75.4 175.887 76.2 173.887 76.8C171.987 77.4 170.487 77.7 169.387 77.7V78C168.687 79.1 167.987 80.5 167.287 82.2C166.687 83.8 166.387 85.3 166.387 86.7C166.387 87.2 166.537 87.75 166.837 88.35C167.537 88.85 168.437 89.1 169.537 89.1C170.637 89 171.537 89 172.237 89.1L172.387 89.25L172.837 88.5C174.137 88.4 175.387 88.1 176.587 87.6V86.7H177.487V86.25L178.087 86.4C178.587 86.2 178.937 86 179.137 85.8C179.437 85.5 179.787 85.25 180.187 85.05L181.087 85.5V85.35L183.787 82.8H183.937L184.387 83.1V82.95C185.687 81.75 187.087 80.65 188.587 79.65C190.087 78.65 191.187 77.35 191.887 75.75L193.537 74.55L193.837 74.85C193.837 75.55 193.587 76.2 193.087 76.8C192.587 77.4 191.987 77.8 191.287 78C190.487 79.9 189.287 81.5 187.687 82.8C186.187 84.1 184.637 85.45 183.037 86.85H182.587L182.437 87.6C180.537 88.9 178.537 90.3 176.437 91.8C174.437 93.3 172.187 94.05 169.687 94.05ZM172.537 74.85H172.837V74.55C173.537 74.35 174.737 73.75 176.437 72.75C178.237 71.75 179.937 70.7 181.537 69.6C183.137 68.4 183.987 67.55 184.087 67.05H184.237L184.087 66.3L184.237 65.55C184.137 65.55 183.937 65.55 183.637 65.55C183.337 65.45 183.087 65.4 182.887 65.4C181.587 66.3 180.287 67.15 178.987 67.95C177.687 68.75 176.387 69.55 175.087 70.35H174.787L174.637 71.55C174.037 71.95 173.587 72.45 173.287 73.05C172.987 73.55 172.737 74.15 172.537 74.85ZM195.337 74.4L194.437 74.1L194.287 73.2L195.787 72.75L195.937 73.2L195.337 74.4ZM209.91 91.5C208.41 91.5 207.26 90.9 206.46 89.7L203.01 88.05C202.61 87.15 202.41 86.05 202.41 84.75C202.41 82.65 202.91 80.4 203.91 78C205.01 75.5 206.06 73.4 207.06 71.7C206.36 71.3 205.76 70.8 205.26 70.2C204.76 69.6 204.26 69 203.76 68.4L203.31 68.1C202.91 68.5 202.46 68.85 201.96 69.15C201.46 69.45 200.96 69.65 200.46 69.75C199.56 70.65 198.26 72.15 196.56 74.25C194.86 76.25 193.01 78.35 191.01 80.55C189.01 82.65 187.06 84.5 185.16 86.1C183.36 87.7 181.91 88.5 180.81 88.5L180.66 88.2C180.76 87.6 181.21 86.95 182.01 86.25C182.91 85.45 183.56 84.85 183.96 84.45C184.16 83.65 184.66 82.95 185.46 82.35C186.26 81.75 187.01 81.3 187.71 81H187.86L188.76 79.65L189.51 79.2L189.36 79.05L190.41 78.3C190.61 77.8 190.91 77.35 191.31 76.95C191.71 76.55 192.06 76.15 192.36 75.75V75.45C194.56 73.75 196.56 71.9 198.36 69.9C200.26 67.8 202.21 65.75 204.21 63.75L204.36 63.6L204.21 62.7C204.21 61.6 204.46 60.4 204.96 59.1C205.56 57.7 206.21 56.65 206.91 55.95C207.61 54.95 208.46 53.9 209.46 52.8C210.56 51.6 211.76 51 213.06 51C214.06 51 214.66 51.5 214.86 52.5C215.06 53.4 215.16 54.2 215.16 54.9C215.16 57.4 214.51 59.35 213.21 60.75C211.91 62.05 210.56 63.05 209.16 63.75C207.86 64.45 207.21 65.2 207.21 66L209.61 67.05L210.51 66.3L210.66 66.45H210.96C211.56 66.15 212.16 65.9 212.76 65.7C213.36 65.4 214.01 65.25 214.71 65.25C215.31 65.25 215.91 65.45 216.51 65.85C217.11 66.15 217.61 66.45 218.01 66.75L218.16 68.1C218.26 69 217.86 70 216.96 71.1C216.16 72.1 215.16 73.3 213.96 74.7C212.76 76 211.71 77.6 210.81 79.5C209.91 81.3 209.46 83.4 209.46 85.8C209.46 86.4 209.56 87.05 209.76 87.75C210.06 88.35 210.61 88.65 211.41 88.65C212.61 88.65 213.96 88.2 215.46 87.3C216.96 86.4 218.46 85.4 219.96 84.3C221.46 83.1 222.71 82.2 223.71 81.6L224.31 82.35C224.31 83.05 223.71 83.9 222.51 84.9C221.31 85.9 219.86 86.9 218.16 87.9C216.46 88.9 214.81 89.75 213.21 90.45C211.71 91.15 210.61 91.5 209.91 91.5ZM283.905 103.5C280.805 103.5 277.805 102.45 274.905 100.35C272.005 98.35 269.455 95.85 267.255 92.85C265.155 89.85 263.505 87.05 262.305 84.45C260.505 83.05 259.605 81.2 259.605 78.9C258.905 77.9 258.555 76.75 258.555 75.45C258.555 74.65 258.655 73.9 258.855 73.2C259.055 72.4 259.255 71.65 259.455 70.95C258.855 69.45 258.555 67.85 258.555 66.15C258.555 64.75 259.005 62.8 259.905 60.3C260.905 57.8 262.055 55.15 263.355 52.35C264.755 49.45 266.155 46.8 267.555 44.4C268.955 42 270.105 40.25 271.005 39.15C273.705 35.95 276.955 32.9 280.755 30C284.655 27.1 288.855 24.5 293.355 22.2C297.855 19.9 302.405 18.1 307.005 16.8C311.705 15.5 316.155 14.85 320.355 14.85C320.855 14.85 321.305 15.05 321.705 15.45C320.505 16.55 318.505 17.5 315.705 18.3C313.005 19.1 309.805 20.1 306.105 21.3C302.405 22.4 298.555 24.05 294.555 26.25C290.655 28.45 286.955 31.5 283.455 35.4C281.855 37 280.505 38.8 279.405 40.8C278.305 42.8 277.055 44.75 275.655 46.65L275.805 47.7C274.205 49.3 272.755 51.5 271.455 54.3C270.255 57 269.255 59.8 268.455 62.7C267.655 65.6 267.205 68.25 267.105 70.65L265.605 71.25C265.805 71.95 266.055 72.75 266.355 73.65C266.655 74.55 266.805 75.4 266.805 76.2C266.805 76.7 266.755 77.1 266.655 77.4C267.755 82.1 268.905 85.85 270.105 88.65C271.305 91.45 273.055 93.85 275.355 95.85C277.755 97.95 281.055 100.2 285.255 102.6L283.905 103.5ZM274.005 41.85L274.305 41.55V41.25L272.955 40.05L273.405 41.7L274.005 41.85ZM261.405 81.75L262.005 81.3L261.405 80.25L261.255 80.85L261.405 81.75ZM264.705 85.5L265.755 84.3L265.605 83.4L264.105 82.2C264.005 82.7 263.955 83.25 263.955 83.85C263.955 84.35 263.955 84.85 263.955 85.35L264.705 85.5ZM323.671 103.2L320.071 102.75C318.871 101.95 317.921 100.9 317.221 99.6C316.621 98.4 316.071 97.2 315.571 96H314.821C313.121 96 312.021 96.3 311.521 96.9C311.121 97.6 310.721 98.25 310.321 98.85C309.921 99.55 308.921 99.9 307.321 99.9C306.221 99.9 305.071 99.75 303.871 99.45C302.671 99.25 301.471 99.15 300.271 99.15C299.571 99.15 298.921 99.25 298.321 99.45C297.821 99.65 297.221 99.75 296.521 99.75C295.021 99.75 293.421 99.5 291.721 99C290.021 98.5 288.521 97.7 287.221 96.6C286.021 95.5 285.421 94.1 285.421 92.4C285.421 90 286.371 88.1 288.271 86.7C290.271 85.2 292.321 84.3 294.421 84L294.121 84.3C293.021 85 291.721 85.9 290.221 87C288.721 88 287.971 89.3 287.971 90.9C287.971 92.3 288.821 93.4 290.521 94.2C292.321 95 293.821 95.4 295.021 95.4L295.771 95.1C296.971 95.4 298.371 95.55 299.971 95.55C302.371 95.55 304.871 95.35 307.471 94.95C310.171 94.55 312.421 94.15 314.221 93.75V92.7C313.321 91.4 312.871 90.15 312.871 88.95L314.521 84.9L313.471 83.4L314.821 80.85V80.4L313.621 80.25L312.871 80.85V80.7L313.471 79.8C313.171 78.5 313.371 77.05 314.071 75.45C314.871 73.85 315.671 72.25 316.471 70.65C317.371 68.95 317.821 67.45 317.821 66.15C318.621 65.45 319.521 64.1 320.521 62.1C321.621 60 322.671 57.85 323.671 55.65C324.671 53.45 325.471 51.8 326.071 50.7C327.971 46.9 330.121 43.25 332.521 39.75C334.921 36.15 337.471 32.65 340.171 29.25C339.171 29.55 338.171 29.85 337.171 30.15C336.271 30.45 335.271 30.6 334.171 30.6C333.471 31.1 332.021 31.65 329.821 32.25C327.621 32.85 325.271 33.5 322.771 34.2C320.371 34.8 318.271 35.45 316.471 36.15C314.671 36.75 313.771 37.35 313.771 37.95L314.221 38.7L316.621 37.05L317.221 37.35L318.121 36.6L318.271 37.2C318.271 38.4 317.971 39.45 317.371 40.35L316.771 39L315.421 39.9L315.721 40.95L314.821 41.25C315.321 41.55 315.721 41.95 316.021 42.45C316.421 42.95 316.771 43.45 317.071 43.95C314.771 44.05 312.571 44.85 310.471 46.35C308.471 47.75 306.321 48.6 304.021 48.9C303.521 49.6 302.871 50.05 302.071 50.25C301.271 50.45 300.471 50.55 299.671 50.55C299.171 50.55 298.421 50.1 297.421 49.2C296.421 48.2 295.521 47.15 294.721 46.05C294.021 44.85 293.671 44 293.671 43.5C293.671 42.4 294.321 41.25 295.621 40.05C296.921 38.85 297.921 37.95 298.621 37.35L296.971 40.35C298.171 39.55 299.871 38.7 302.071 37.8C304.271 36.9 306.521 36.05 308.821 35.25C311.221 34.35 313.371 33.5 315.271 32.7C317.171 31.8 318.471 31.05 319.171 30.45C323.071 29.35 327.021 28.35 331.021 27.45C335.121 26.45 339.171 25.75 343.171 25.35C343.671 24.75 344.471 23.85 345.571 22.65C346.771 21.35 347.971 20.2 349.171 19.2C350.371 18.1 351.371 17.55 352.171 17.55C353.971 17.55 355.571 17.65 356.971 17.85C358.371 17.95 359.421 18.95 360.121 20.85C360.121 21.95 359.671 22.95 358.771 23.85C357.971 24.65 357.171 25.3 356.371 25.8L357.871 26.1C358.671 25.8 359.321 25.3 359.821 24.6L360.721 24.45H361.021C361.621 24.45 362.121 24.6 362.521 24.9C363.021 25.2 363.471 25.55 363.871 25.95L365.521 25.2C368.021 25.2 371.071 25.85 374.671 27.15C378.271 28.35 381.821 30 385.321 32.1C388.921 34.2 391.871 36.6 394.171 39.3C396.571 41.9 397.771 44.65 397.771 47.55C397.771 48.85 397.671 50.15 397.471 51.45C397.271 52.65 397.071 53.85 396.871 55.05L395.971 54.75L395.221 55.35V55.65L396.421 57C395.721 59.2 394.621 61.3 393.121 63.3C391.721 65.2 390.171 66.9 388.471 68.4C386.871 68.8 385.271 69.85 383.671 71.55C382.071 73.25 380.421 74.5 378.721 75.3C377.621 76.6 376.471 77.5 375.271 78C374.071 78.5 372.921 79.6 371.821 81.3L370.471 79.95L370.171 80.4L370.321 81.3C370.321 82.1 369.571 82.5 368.071 82.5C367.671 82.5 367.271 82.5 366.871 82.5C366.571 82.4 366.321 82.35 366.121 82.35L365.371 83.1L365.521 84.3C365.421 84.4 364.921 84.75 364.021 85.35C363.221 85.95 362.821 86 362.821 85.5H362.521C360.821 86.5 359.271 87.45 357.871 88.35L356.821 87.6L356.071 88.95C355.971 88.75 355.771 88.45 355.471 88.05C355.171 87.55 354.821 87.25 354.421 87.15L352.771 88.95H352.621L350.821 88.05L349.171 89.25L348.421 88.65L345.871 89.85L346.021 90H347.071L347.971 90.9V91.05H347.521L345.121 90.45L343.471 91.05L342.571 90.9C343.571 90.1 344.721 89.4 346.021 88.8L345.121 88.35L343.171 89.85L341.821 89.25V89.85C340.921 90.05 340.271 90.45 339.871 91.05V92.4L339.271 92.55L337.621 91.8C337.121 92 336.621 92.2 336.121 92.4C335.721 92.6 335.321 92.85 334.921 93.15C332.921 93.35 330.971 93.85 329.071 94.65C327.171 95.55 325.171 96 323.071 96L321.871 95.4L321.721 99.15L322.771 101.4H322.921L323.821 102.75V102.9L323.671 103.2ZM322.021 91.5C330.021 89.1 337.771 86.2 345.271 82.8C352.871 79.3 360.321 75.55 367.621 71.55L368.371 71.7L369.121 71.55L368.971 70.95L369.421 70.35L370.171 70.95L371.971 69.6L371.821 69.3L370.921 69C371.221 68.2 372.471 67.2 374.671 66C376.871 64.7 379.271 63.2 381.871 61.5C384.571 59.7 386.921 57.65 388.921 55.35C390.921 52.95 391.921 50.2 391.921 47.1C391.921 43.7 390.971 40.9 389.071 38.7C387.171 36.4 384.721 34.55 381.721 33.15C378.721 31.75 375.421 30.7 371.821 30C368.321 29.3 364.921 28.8 361.621 28.5C358.321 28.2 355.471 28.05 353.071 28.05C352.071 29.05 351.321 30.1 350.821 31.2C350.421 32.2 349.871 33.05 349.171 33.75C348.471 34.45 347.271 34.8 345.571 34.8L344.371 35.85V37.35C342.871 38.05 341.771 39.4 341.071 41.4C340.371 43.3 339.521 44.9 338.521 46.2L338.221 47.4L338.671 47.85L335.821 52.65L335.521 53.85L334.921 53.4C334.921 54 334.521 55.25 333.721 57.15C332.921 58.95 331.971 61 330.871 63.3C329.771 65.5 328.771 67.65 327.871 69.75C327.071 71.85 326.571 73.45 326.371 74.55C325.671 75.25 325.021 76.8 324.421 79.2C323.821 81.5 323.321 83.85 322.921 86.25C322.521 88.65 322.221 90.4 322.021 91.5ZM347.821 88.05C348.621 87.75 349.371 87.25 350.071 86.55L349.471 86.25C349.071 86.35 348.671 86.55 348.271 86.85C347.971 87.05 347.621 87.25 347.221 87.45L347.821 88.05ZM396.884 94.05C395.984 94.05 394.884 93.45 393.584 92.25C392.384 91.05 391.384 90.15 390.584 89.55C390.384 88.25 390.034 87.1 389.534 86.1C389.034 85 388.784 83.85 388.784 82.65C388.784 80.85 389.434 78.75 390.734 76.35C392.134 73.85 393.884 71.4 395.984 69C398.184 66.6 400.384 64.6 402.584 63C404.884 61.4 406.934 60.6 408.734 60.6V60.3C410.134 60.6 411.434 61.5 412.634 63C413.934 64.5 414.584 65.9 414.584 67.2C414.584 68.4 413.834 69.65 412.334 70.95C410.934 72.15 409.184 73.3 407.084 74.4C405.084 75.4 403.084 76.2 401.084 76.8C399.184 77.4 397.684 77.7 396.584 77.7V78C395.884 79.1 395.184 80.5 394.484 82.2C393.884 83.8 393.584 85.3 393.584 86.7C393.584 87.2 393.734 87.75 394.034 88.35C394.734 88.85 395.634 89.1 396.734 89.1C397.834 89 398.734 89 399.434 89.1L399.584 89.25L400.034 88.5C401.334 88.4 402.584 88.1 403.784 87.6V86.7H404.684V86.25L405.284 86.4C405.784 86.2 406.134 86 406.334 85.8C406.634 85.5 406.984 85.25 407.384 85.05L408.284 85.5V85.35L410.984 82.8H411.134L411.584 83.1V82.95C412.884 81.75 414.284 80.65 415.784 79.65C417.284 78.65 418.384 77.35 419.084 75.75L420.734 74.55L421.034 74.85C421.034 75.55 420.784 76.2 420.284 76.8C419.784 77.4 419.184 77.8 418.484 78C417.684 79.9 416.484 81.5 414.884 82.8C413.384 84.1 411.834 85.45 410.234 86.85H409.784L409.634 87.6C407.734 88.9 405.734 90.3 403.634 91.8C401.634 93.3 399.384 94.05 396.884 94.05ZM399.734 74.85H400.034V74.55C400.734 74.35 401.934 73.75 403.634 72.75C405.434 71.75 407.134 70.7 408.734 69.6C410.334 68.4 411.184 67.55 411.284 67.05H411.434L411.284 66.3L411.434 65.55C411.334 65.55 411.134 65.55 410.834 65.55C410.534 65.45 410.284 65.4 410.084 65.4C408.784 66.3 407.484 67.15 406.184 67.95C404.884 68.75 403.584 69.55 402.284 70.35H401.984L401.834 71.55C401.234 71.95 400.784 72.45 400.484 73.05C400.184 73.55 399.934 74.15 399.734 74.85ZM422.534 74.4L421.634 74.1L421.484 73.2L422.984 72.75L423.134 73.2L422.534 74.4ZM423.237 94.05C422.237 94.05 421.087 93.45 419.787 92.25C418.587 91.05 417.587 90.15 416.787 89.55C416.687 88.25 416.387 87.1 415.887 86.1C415.387 85 415.137 83.8 415.137 82.5C415.137 80.7 415.787 78.6 417.087 76.2C418.487 73.7 420.237 71.3 422.337 69C424.537 66.6 426.737 64.6 428.937 63C431.237 61.4 433.287 60.6 435.087 60.6V60.3C436.787 60.7 438.287 61.95 439.587 64.05C440.887 66.15 441.537 68.05 441.537 69.75C441.537 70.15 441.437 70.65 441.237 71.25C441.037 71.85 440.687 72.15 440.187 72.15C438.887 71.65 437.787 70.95 436.887 70.05C435.987 69.15 434.737 68.7 433.137 68.7C431.637 68.7 430.087 69.35 428.487 70.65C426.887 71.95 425.437 73.6 424.137 75.6C422.837 77.5 421.787 79.5 420.987 81.6C420.187 83.6 419.787 85.3 419.787 86.7C419.787 86.8 419.837 87.05 419.937 87.45C420.137 87.85 420.287 88.15 420.387 88.35C421.087 88.85 421.937 89.1 422.937 89.1C424.037 89 424.987 89 425.787 89.1L425.937 89.25L426.237 88.5C427.637 88.3 428.937 88 430.137 87.6V86.7H431.037L430.887 86.25L431.637 86.4C432.137 86.2 432.487 86 432.687 85.8C432.987 85.5 433.337 85.25 433.737 85.05L434.487 85.5V85.35L437.187 82.8H437.337L437.937 83.1V82.95C439.237 81.75 440.587 80.65 441.987 79.65C443.487 78.65 444.587 77.35 445.287 75.75L447.237 74.55L447.387 74.85C447.387 75.55 447.137 76.2 446.637 76.8C446.137 77.4 445.587 77.8 444.987 78C443.987 79.9 442.737 81.5 441.237 82.8C439.737 84.1 438.187 85.45 436.587 86.85H435.987L435.837 87.6C434.037 88.9 432.087 90.3 429.987 91.8C427.887 93.3 425.637 94.05 423.237 94.05ZM449.037 74.4L447.837 74.1V73.2L449.187 72.75L449.337 73.2L449.037 74.4ZM446.835 94.05C445.935 94.05 444.835 93.45 443.535 92.25C442.335 91.05 441.335 90.15 440.535 89.55C440.335 88.25 439.985 87.1 439.485 86.1C438.985 85 438.735 83.85 438.735 82.65C438.735 80.85 439.385 78.75 440.685 76.35C442.085 73.85 443.835 71.4 445.935 69C448.135 66.6 450.335 64.6 452.535 63C454.835 61.4 456.885 60.6 458.685 60.6V60.3C460.085 60.6 461.385 61.5 462.585 63C463.885 64.5 464.535 65.9 464.535 67.2C464.535 68.4 463.785 69.65 462.285 70.95C460.885 72.15 459.135 73.3 457.035 74.4C455.035 75.4 453.035 76.2 451.035 76.8C449.135 77.4 447.635 77.7 446.535 77.7V78C445.835 79.1 445.135 80.5 444.435 82.2C443.835 83.8 443.535 85.3 443.535 86.7C443.535 87.2 443.685 87.75 443.985 88.35C444.685 88.85 445.585 89.1 446.685 89.1C447.785 89 448.685 89 449.385 89.1L449.535 89.25L449.985 88.5C451.285 88.4 452.535 88.1 453.735 87.6V86.7H454.635V86.25L455.235 86.4C455.735 86.2 456.085 86 456.285 85.8C456.585 85.5 456.935 85.25 457.335 85.05L458.235 85.5V85.35L460.935 82.8H461.085L461.535 83.1V82.95C462.835 81.75 464.235 80.65 465.735 79.65C467.235 78.65 468.335 77.35 469.035 75.75L470.685 74.55L470.985 74.85C470.985 75.55 470.735 76.2 470.235 76.8C469.735 77.4 469.135 77.8 468.435 78C467.635 79.9 466.435 81.5 464.835 82.8C463.335 84.1 461.785 85.45 460.185 86.85H459.735L459.585 87.6C457.685 88.9 455.685 90.3 453.585 91.8C451.585 93.3 449.335 94.05 446.835 94.05ZM449.685 74.85H449.985V74.55C450.685 74.35 451.885 73.75 453.585 72.75C455.385 71.75 457.085 70.7 458.685 69.6C460.285 68.4 461.135 67.55 461.235 67.05H461.385L461.235 66.3L461.385 65.55C461.285 65.55 461.085 65.55 460.785 65.55C460.485 65.45 460.235 65.4 460.035 65.4C458.735 66.3 457.435 67.15 456.135 67.95C454.835 68.75 453.535 69.55 452.235 70.35H451.935L451.785 71.55C451.185 71.95 450.735 72.45 450.435 73.05C450.135 73.55 449.885 74.15 449.685 74.85ZM472.485 74.4L471.585 74.1L471.435 73.2L472.935 72.75L473.085 73.2L472.485 74.4ZM468.388 92.85C467.388 92.95 466.538 92.55 465.838 91.65C465.238 90.65 464.938 89.65 464.938 88.65C464.938 88.05 465.038 87.45 465.238 86.85C465.438 86.15 465.638 85.55 465.838 85.05C466.038 85.15 466.138 85.15 466.138 85.05C466.238 84.85 466.338 84.7 466.438 84.6L466.288 82.95C466.488 82.75 466.738 82.3 467.038 81.6C467.438 80.8 467.688 80.3 467.788 80.1V79.95H467.938L468.538 80.25C469.038 79.45 469.588 78.65 470.188 77.85C470.788 77.05 470.988 76.15 470.788 75.15L472.888 72.3V72.15C472.888 71.55 473.138 70.9 473.638 70.2C474.238 69.4 474.538 68.85 474.538 68.55C474.538 67.75 474.188 67.35 473.488 67.35C473.188 67.35 472.838 67.4 472.438 67.5C472.138 67.6 471.838 67.7 471.538 67.8L471.388 67.05L477.388 61.2V60.9C478.488 60.1 479.488 59.25 480.388 58.35C481.288 57.45 482.338 56.65 483.538 55.95C484.638 56.05 485.738 56.3 486.838 56.7C488.038 57.1 488.938 57.75 489.538 58.65L489.688 60.6V60.75C489.588 61.15 488.838 62.2 487.438 63.9C486.038 65.6 484.388 67.5 482.488 69.6C480.588 71.6 478.788 73.5 477.088 75.3C475.488 77.1 474.388 78.3 473.788 78.9L473.338 81.6C472.538 81.7 471.838 82.25 471.238 83.25C470.638 84.15 470.388 85 470.488 85.8C470.188 85.9 470.038 86.15 470.038 86.55C470.038 86.85 469.938 87 469.738 87C469.638 87.4 469.538 87.75 469.438 88.05C469.438 88.35 469.438 88.7 469.438 89.1V89.85C470.238 88.35 471.638 86.35 473.638 83.85C475.638 81.35 477.888 78.85 480.388 76.35C482.988 73.75 485.538 71.6 488.038 69.9C490.538 68.1 492.638 67.2 494.338 67.2C495.538 67.2 496.338 67.95 496.738 69.45C496.438 71.35 495.938 73.25 495.238 75.15C494.538 76.95 494.188 78.85 494.188 80.85L494.488 81.45L498.088 78.9L498.388 78.45L500.638 76.8C501.338 75.7 502.538 74.25 504.238 72.45C505.938 70.65 507.738 69.05 509.638 67.65C511.538 66.15 513.088 65.4 514.288 65.4C514.188 65.2 514.338 65.1 514.738 65.1C516.438 65.1 517.538 65.5 518.038 66.3C518.538 67.1 518.788 68.25 518.788 69.75C518.788 71.25 518.388 72.65 517.588 73.95C516.888 75.15 516.538 76.45 516.538 77.85C516.538 79.15 516.888 80.55 517.588 82.05C518.288 83.55 519.388 84.3 520.888 84.3C521.388 84.3 521.838 84.2 522.238 84C522.638 83.7 523.088 83.6 523.588 83.7C524.388 82.9 525.238 82.2 526.138 81.6C527.138 80.9 528.138 80.25 529.138 79.65L530.038 80.25C529.738 80.85 528.938 81.7 527.638 82.8C526.438 83.8 524.988 84.85 523.288 85.95C521.688 86.95 520.138 87.85 518.638 88.65C517.238 89.35 516.188 89.7 515.488 89.7C513.288 89.7 511.738 88.85 510.838 87.15C510.038 85.35 509.488 83.3 509.188 81C508.888 78.7 508.388 76.85 507.688 75.45L506.938 74.85C506.138 75.35 504.888 76.2 503.188 77.4C501.588 78.5 500.588 79.45 500.188 80.25C498.988 80.65 497.938 81.5 497.038 82.8C496.238 84 495.438 85.35 494.638 86.85C493.838 88.25 492.938 89.5 491.938 90.6C490.938 91.7 489.638 92.25 488.038 92.25C487.338 92.25 486.688 92.1 486.088 91.8C485.588 91.5 485.338 90.95 485.338 90.15C485.338 88.45 485.638 86.9 486.238 85.5C486.938 84 487.588 82.5 488.188 81C488.888 79.5 489.238 77.9 489.238 76.2L488.338 74.85C487.138 74.85 485.638 75.55 483.838 76.95C482.038 78.25 480.138 79.9 478.138 81.9C476.238 83.8 474.488 85.7 472.888 87.6C471.388 89.5 470.338 90.95 469.738 91.95V92.7L468.388 92.85ZM532.082 97.5C531.182 97.5 530.332 97.35 529.532 97.05L528.782 96.15C527.282 95.75 526.232 95.2 525.632 94.5C525.032 93.8 524.732 92.65 524.732 91.05C524.732 90.35 524.932 89.05 525.332 87.15C525.832 85.15 526.432 83.25 527.132 81.45C527.832 79.65 528.532 78.75 529.232 78.75C529.332 77.65 529.732 76.25 530.432 74.55C531.132 72.85 532.032 71.85 533.132 71.55V71.4L534.482 69.6H534.782L535.082 67.35C535.382 67.25 535.632 66.95 535.832 66.45L526.682 70.05L525.782 69.45C525.882 68.95 526.332 68.45 527.132 67.95C528.032 67.35 528.932 66.85 529.832 66.45C530.832 65.95 531.532 65.7 531.932 65.7C533.332 64.8 534.682 64.3 535.982 64.2L536.582 63.6L537.482 63.75L539.282 63.15C539.782 62.55 540.282 61.9 540.782 61.2C541.282 60.5 541.532 59.75 541.532 58.95C542.032 58.15 542.582 57.45 543.182 56.85C543.882 56.15 544.532 55.45 545.132 54.75H545.582C546.082 54.25 546.632 54 547.232 54L547.832 53.25V51.6L548.432 51.15C548.932 50.55 549.582 49.65 550.382 48.45C551.282 47.15 551.732 46.15 551.732 45.45C551.732 45.05 551.382 44.85 550.682 44.85C549.782 44.85 549.032 44.95 548.432 45.15V44.4L556.082 37.95V37.8C557.382 36.9 558.632 35.95 559.832 34.95C561.032 33.85 562.282 32.9 563.582 32.1C564.682 32.3 565.882 32.65 567.182 33.15C568.482 33.55 569.382 34.3 569.882 35.4V37.35C569.182 38.05 567.982 39.3 566.282 41.1C564.582 42.9 562.632 44.95 560.432 47.25C558.232 49.45 556.032 51.65 553.832 53.85C551.632 55.95 549.682 57.7 547.982 59.1C546.382 60.5 545.282 61.25 544.682 61.35L543.782 62.1C545.382 61.9 546.882 61.7 548.282 61.5C549.782 61.2 551.282 61.05 552.782 61.05C554.682 61.05 556.732 61.35 558.932 61.95C561.232 62.55 562.782 63.85 563.582 65.85L564.482 66.75V68.25C564.582 68.65 564.682 69.05 564.782 69.45C564.882 69.85 564.932 70.25 564.932 70.65C564.932 71.75 564.682 72.5 564.182 72.9C563.682 73.2 563.182 73.4 562.682 73.5C562.182 73.6 561.932 73.85 561.932 74.25L563.132 74.7V74.85C563.132 75.85 562.232 77.25 560.432 79.05C558.732 80.85 556.532 82.8 553.832 84.9C551.132 87 548.282 89.05 545.282 91.05C542.382 92.95 539.732 94.5 537.332 95.7C534.932 96.9 533.182 97.5 532.082 97.5ZM546.332 46.5L546.182 46.05L546.632 45L547.532 45.15L547.832 46.2L546.332 46.5ZM533.582 95.4C535.382 95.4 537.432 94.45 539.732 92.55C542.032 90.65 544.282 88.3 546.482 85.5C548.682 82.6 550.482 79.8 551.882 77.1C553.382 74.3 554.132 72.1 554.132 70.5C554.132 68.4 553.132 66.9 551.132 66C549.232 65.1 547.432 64.65 545.732 64.65C545.532 64.65 545.132 64.75 544.532 64.95C543.932 65.15 543.482 65.3 543.182 65.4L542.882 65.85C541.782 66.15 540.832 66.75 540.032 67.65C539.332 68.55 538.982 69.6 538.982 70.8C538.582 70.9 537.882 71.55 536.882 72.75C535.982 73.85 534.982 74.6 533.882 75L533.282 76.8C533.182 77.5 532.782 78.2 532.082 78.9C531.482 79.5 530.932 80.05 530.432 80.55C529.932 82.05 529.382 83.55 528.782 85.05C528.282 86.55 527.932 88.1 527.732 89.7C527.932 89 528.232 88.35 528.632 87.75C529.132 87.05 529.382 86.35 529.382 85.65L530.132 85.2L531.482 82.5V81.9L532.382 80.25L532.832 80.4L533.282 79.35L534.032 78.75V78.6C534.432 78.4 534.782 78.2 535.082 78C535.482 77.7 535.832 77.45 536.132 77.25C536.132 76.45 536.532 75.85 537.332 75.45C538.132 75.05 538.582 74.5 538.682 73.8L539.582 73.5L540.632 72.15H541.232L542.732 70.8L544.232 70.35V70.95C542.432 71.95 540.582 73.65 538.682 76.05C536.782 78.35 535.132 80.9 533.732 83.7C532.432 86.4 531.782 88.8 531.782 90.9C531.782 91.6 531.832 92.5 531.932 93.6C532.132 94.8 532.682 95.4 533.582 95.4ZM527.432 92.25L527.882 91.35V91.05L527.582 90.9L527.432 92.25ZM527.582 93.6V93.45L528.332 92.55H528.182L527.432 92.4L527.582 93.6ZM571.786 94.05C570.886 94.05 569.786 93.45 568.486 92.25C567.286 91.05 566.286 90.15 565.486 89.55C565.286 88.25 564.936 87.1 564.436 86.1C563.936 85 563.686 83.85 563.686 82.65C563.686 80.85 564.336 78.75 565.636 76.35C567.036 73.85 568.786 71.4 570.886 69C573.086 66.6 575.286 64.6 577.486 63C579.786 61.4 581.836 60.6 583.636 60.6V60.3C585.036 60.6 586.336 61.5 587.536 63C588.836 64.5 589.486 65.9 589.486 67.2C589.486 68.4 588.736 69.65 587.236 70.95C585.836 72.15 584.086 73.3 581.986 74.4C579.986 75.4 577.986 76.2 575.986 76.8C574.086 77.4 572.586 77.7 571.486 77.7V78C570.786 79.1 570.086 80.5 569.386 82.2C568.786 83.8 568.486 85.3 568.486 86.7C568.486 87.2 568.636 87.75 568.936 88.35C569.636 88.85 570.536 89.1 571.636 89.1C572.736 89 573.636 89 574.336 89.1L574.486 89.25L574.936 88.5C576.236 88.4 577.486 88.1 578.686 87.6V86.7H579.586V86.25L580.186 86.4C580.686 86.2 581.036 86 581.236 85.8C581.536 85.5 581.886 85.25 582.286 85.05L583.186 85.5V85.35L585.886 82.8H586.036L586.486 83.1V82.95C587.786 81.75 589.186 80.65 590.686 79.65C592.186 78.65 593.286 77.35 593.986 75.75L595.636 74.55L595.936 74.85C595.936 75.55 595.686 76.2 595.186 76.8C594.686 77.4 594.086 77.8 593.386 78C592.586 79.9 591.386 81.5 589.786 82.8C588.286 84.1 586.736 85.45 585.136 86.85H584.686L584.536 87.6C582.636 88.9 580.636 90.3 578.536 91.8C576.536 93.3 574.286 94.05 571.786 94.05ZM574.636 74.85H574.936V74.55C575.636 74.35 576.836 73.75 578.536 72.75C580.336 71.75 582.036 70.7 583.636 69.6C585.236 68.4 586.086 67.55 586.186 67.05H586.336L586.186 66.3L586.336 65.55C586.236 65.55 586.036 65.55 585.736 65.55C585.436 65.45 585.186 65.4 584.986 65.4C583.686 66.3 582.386 67.15 581.086 67.95C579.786 68.75 578.486 69.55 577.186 70.35H576.886L576.736 71.55C576.136 71.95 575.686 72.45 575.386 73.05C575.086 73.55 574.836 74.15 574.636 74.85ZM597.436 74.4L596.536 74.1L596.386 73.2L597.886 72.75L598.036 73.2L597.436 74.4ZM612.01 91.5C610.51 91.5 609.36 90.9 608.56 89.7L605.11 88.05C604.71 87.15 604.51 86.05 604.51 84.75C604.51 82.65 605.01 80.4 606.01 78C607.11 75.5 608.16 73.4 609.16 71.7C608.46 71.3 607.86 70.8 607.36 70.2C606.86 69.6 606.36 69 605.86 68.4L605.41 68.1C605.01 68.5 604.56 68.85 604.06 69.15C603.56 69.45 603.06 69.65 602.56 69.75C601.66 70.65 600.36 72.15 598.66 74.25C596.96 76.25 595.11 78.35 593.11 80.55C591.11 82.65 589.16 84.5 587.26 86.1C585.46 87.7 584.01 88.5 582.91 88.5L582.76 88.2C582.86 87.6 583.31 86.95 584.11 86.25C585.01 85.45 585.66 84.85 586.06 84.45C586.26 83.65 586.76 82.95 587.56 82.35C588.36 81.75 589.11 81.3 589.81 81H589.96L590.86 79.65L591.61 79.2L591.46 79.05L592.51 78.3C592.71 77.8 593.01 77.35 593.41 76.95C593.81 76.55 594.16 76.15 594.46 75.75V75.45C596.66 73.75 598.66 71.9 600.46 69.9C602.36 67.8 604.31 65.75 606.31 63.75L606.46 63.6L606.31 62.7C606.31 61.6 606.56 60.4 607.06 59.1C607.66 57.7 608.31 56.65 609.01 55.95C609.71 54.95 610.56 53.9 611.56 52.8C612.66 51.6 613.86 51 615.16 51C616.16 51 616.76 51.5 616.96 52.5C617.16 53.4 617.26 54.2 617.26 54.9C617.26 57.4 616.61 59.35 615.31 60.75C614.01 62.05 612.66 63.05 611.26 63.75C609.96 64.45 609.31 65.2 609.31 66L611.71 67.05L612.61 66.3L612.76 66.45H613.06C613.66 66.15 614.26 65.9 614.86 65.7C615.46 65.4 616.11 65.25 616.81 65.25C617.41 65.25 618.01 65.45 618.61 65.85C619.21 66.15 619.71 66.45 620.11 66.75L620.26 68.1C620.36 69 619.96 70 619.06 71.1C618.26 72.1 617.26 73.3 616.06 74.7C614.86 76 613.81 77.6 612.91 79.5C612.01 81.3 611.56 83.4 611.56 85.8C611.56 86.4 611.66 87.05 611.86 87.75C612.16 88.35 612.71 88.65 613.51 88.65C614.71 88.65 616.06 88.2 617.56 87.3C619.06 86.4 620.56 85.4 622.06 84.3C623.56 83.1 624.81 82.2 625.81 81.6L626.41 82.35C626.41 83.05 625.81 83.9 624.61 84.9C623.41 85.9 621.96 86.9 620.26 87.9C618.56 88.9 616.91 89.75 615.31 90.45C613.81 91.15 612.71 91.5 612.01 91.5ZM642.52 71.7C641.82 71 641.07 69.85 640.27 68.25C639.47 66.65 639.07 65.35 639.07 64.35V62.85L639.37 63.3C641.37 63.2 643.42 63.1 645.52 63C647.62 62.8 649.62 62.7 651.52 62.7L657.67 62.85L658.57 63.3C659.37 63 660.77 62.85 662.77 62.85C664.87 62.85 666.42 62.8 667.42 62.7L667.72 63.45C667.02 63.85 666.32 64.35 665.62 64.95C664.92 65.55 664.42 66.25 664.12 67.05L663.37 66.3C662.77 67.4 661.92 68.05 660.82 68.25C659.82 68.45 659.27 68.95 659.17 69.75L656.92 70.05L655.42 69.45C654.42 69.65 653.37 69.8 652.27 69.9C651.27 70 650.22 70.05 649.12 70.05C648.62 70.05 648.07 70.05 647.47 70.05C646.87 70.05 646.32 70 645.82 69.9L644.62 70.5L644.17 70.2L642.52 71.7ZM668.92 63.45V62.7L669.97 62.85L669.67 63.45H668.92ZM682.933 103.35C681.033 102.65 679.033 101.75 676.933 100.65C674.833 99.65 673.033 98.3 671.533 96.6C670.133 94.9 669.433 92.85 669.433 90.45C669.433 89.35 669.583 88.25 669.883 87.15C670.183 85.95 670.783 85 671.683 84.3C671.783 84.7 671.783 85.1 671.683 85.5C671.683 85.9 671.683 86.35 671.683 86.85C671.683 90.05 672.833 92.4 675.133 93.9C677.433 95.4 679.983 96.15 682.783 96.15C685.983 96.15 688.933 95.35 691.633 93.75C694.433 92.15 696.783 90.25 698.683 88.05V87H698.833L699.733 85.8C700.233 85.6 700.683 85.35 701.083 85.05C701.483 84.75 701.833 84.45 702.133 84.15V82.95C703.533 82.25 704.783 81.1 705.883 79.5C707.083 77.8 708.083 76.3 708.883 75C709.683 75 710.233 74.55 710.533 73.65C710.833 72.65 711.033 71.85 711.133 71.25L711.283 71.1L711.133 70.8C709.033 70.8 706.883 71.05 704.683 71.55C702.583 71.95 700.433 72.25 698.233 72.45C696.333 74.05 694.183 74.85 691.783 74.85C690.683 74.85 689.533 74.55 688.333 73.95C687.133 73.35 686.533 72.4 686.533 71.1C686.533 70.4 686.783 69.55 687.283 68.55C687.883 67.55 688.583 66.65 689.383 65.85C690.283 64.95 691.083 64.5 691.783 64.5L692.083 65.4H694.483C695.583 65.4 696.633 65.35 697.633 65.25C698.733 65.15 699.783 65.1 700.783 65.1L702.133 64.35L703.483 65.1C703.983 64.7 704.983 64.5 706.483 64.5C707.883 64.5 709.433 64.6 711.133 64.8C712.933 65 714.283 65.05 715.183 64.95C715.983 63.25 716.833 61.65 717.733 60.15C718.633 58.55 719.383 56.95 719.983 55.35L721.033 54.45C721.933 51.05 723.033 47.75 724.333 44.55C725.633 41.25 726.833 37.95 727.933 34.65H722.683C721.583 34.65 720.433 34.7 719.233 34.8C718.133 34.9 717.083 35.2 716.083 35.7L714.283 35.55C712.883 35.35 711.483 35.5 710.083 36C708.783 36.5 707.533 37.05 706.333 37.65L705.733 37.5L705.283 37.95C699.983 38.85 694.883 40.9 689.983 44.1C685.183 47.3 681.133 51 677.833 55.2L679.333 56.1L682.033 55.8L682.483 56.25C681.983 56.75 681.383 57.15 680.683 57.45C679.983 57.75 679.283 58 678.583 58.2L677.383 57.15L676.183 57.6C675.883 57 675.733 56.45 675.733 55.95C675.733 54.15 676.583 52.15 678.283 49.95C680.083 47.75 681.583 46 682.783 44.7V43.8C684.883 42.1 687.533 40.4 690.733 38.7C694.033 36.9 697.583 35.3 701.383 33.9C705.183 32.5 708.983 31.4 712.783 30.6C716.583 29.7 720.033 29.25 723.133 29.25C723.833 29.25 724.483 29.3 725.083 29.4C725.683 29.4 726.283 29.45 726.883 29.55C727.283 29.25 727.733 29.05 728.233 28.95C728.733 28.85 729.183 28.75 729.583 28.65L728.833 28.5C729.633 27.2 730.033 25.85 730.033 24.45C730.233 24.35 730.433 24.25 730.633 24.15C730.933 24.05 731.183 24 731.383 24C732.483 24 733.933 24.1 735.733 24.3C737.633 24.5 739.283 25 740.683 25.8C742.183 26.5 742.833 27.7 742.633 29.4C744.333 29.2 746.033 29.1 747.733 29.1C749.433 29 751.133 28.95 752.833 28.95C755.833 28.95 758.833 29.15 761.833 29.55C764.933 29.95 767.833 31 770.533 32.7L770.083 33.3C770.383 34.3 770.983 34.95 771.883 35.25L772.333 36.45L771.283 37.2L771.883 38.85C771.183 40.75 770.483 42 769.783 42.6C769.083 43.2 767.683 43.6 765.583 43.8L764.383 43.05L759.283 45.3L759.133 45.15L759.733 43.8V43.65C759.133 44.15 758.483 44.6 757.783 45C757.083 45.4 756.333 45.65 755.533 45.75L755.083 45.45L755.533 45C757.433 44.4 759.033 43.45 760.333 42.15C761.633 40.85 762.783 39.4 763.783 37.8L763.483 35.4L759.433 33.45L759.283 33C757.983 32.6 756.633 32.4 755.233 32.4C753.833 32.3 752.433 32.25 751.033 32.25C749.633 32.25 748.233 32.4 746.833 32.7C745.533 33 744.183 33.2 742.783 33.3L743.383 34.5C743.283 34.9 743.083 35.6 742.783 36.6C742.483 37.6 742.083 38.15 741.583 38.25L739.783 37.05L739.633 37.2C739.533 38.5 739.183 39.8 738.583 41.1C737.983 42.3 737.283 43.4 736.483 44.4C734.783 44.5 733.933 45.45 733.933 47.25L734.833 47.85L735.433 46.95L736.033 46.8L736.333 47.25C735.633 48.35 734.883 49.15 734.083 49.65C733.283 49.65 732.583 49.95 731.983 50.55C731.483 51.15 730.833 51.5 730.033 51.6C729.233 52 728.683 52.55 728.383 53.25C728.183 53.95 727.533 54.6 726.433 55.2L726.583 55.5C726.183 55.9 725.533 56.7 724.633 57.9C723.833 59 723.083 60.15 722.383 61.35C721.683 62.45 721.283 63.3 721.183 63.9H721.483L721.933 64.8C722.933 64.5 723.883 64.35 724.783 64.35C725.683 64.25 726.633 64.2 727.633 64.2C728.633 64.2 729.583 64.2 730.483 64.2C731.383 64.2 732.283 64.15 733.183 64.05C743.183 62.35 752.983 61 762.583 60L763.333 59.7L763.633 60C763.333 60.8 762.033 61.55 759.733 62.25C757.533 62.95 754.833 63.6 751.633 64.2C748.433 64.7 745.183 65.15 741.883 65.55C738.583 65.95 735.583 66.25 732.883 66.45C730.283 66.65 728.433 66.75 727.333 66.75C727.333 67.15 726.533 67.6 724.933 68.1C723.333 68.6 721.633 69.15 719.833 69.75C718.133 70.25 716.933 70.95 716.233 71.85V73.8L715.483 73.5C714.683 73.6 714.133 74 713.833 74.7C713.533 75.3 713.333 76 713.233 76.8C712.233 77.4 711.283 78.15 710.383 79.05C709.483 79.85 708.533 80.65 707.533 81.45L707.683 83.1H707.083C706.883 83.8 706.283 84.5 705.283 85.2C704.383 85.8 703.633 86.35 703.033 86.85L702.283 88.2L703.033 88.8L701.983 89.4C701.083 90.7 699.633 92.35 697.633 94.35C695.733 96.35 694.083 97.65 692.683 98.25C691.483 99.75 690.033 100.85 688.333 101.55C686.633 102.25 684.833 102.85 682.933 103.35ZM728.533 46.35H730.183L730.333 45.6L730.183 45C729.683 45.1 729.133 45.55 728.533 46.35ZM732.283 46.05L732.733 45.45L732.433 45.15H732.133L731.833 45.6L732.283 46.05ZM728.833 48.75L728.683 48L728.083 48.45L728.833 48.75ZM729.283 51.45L729.733 51.3L729.883 50.55L729.433 50.4L729.133 51.3L729.283 51.45ZM684.133 55.35L684.433 54.45L684.883 54.6L685.033 55.2L684.883 55.35H684.133ZM760.605 94.05C759.705 94.05 758.605 93.45 757.305 92.25C756.105 91.05 755.105 90.15 754.305 89.55C754.105 88.25 753.755 87.1 753.255 86.1C752.755 85 752.505 83.85 752.505 82.65C752.505 80.85 753.155 78.75 754.455 76.35C755.855 73.85 757.605 71.4 759.705 69C761.905 66.6 764.105 64.6 766.305 63C768.605 61.4 770.655 60.6 772.455 60.6V60.3C773.855 60.6 775.155 61.5 776.355 63C777.655 64.5 778.305 65.9 778.305 67.2C778.305 68.4 777.555 69.65 776.055 70.95C774.655 72.15 772.905 73.3 770.805 74.4C768.805 75.4 766.805 76.2 764.805 76.8C762.905 77.4 761.405 77.7 760.305 77.7V78C759.605 79.1 758.905 80.5 758.205 82.2C757.605 83.8 757.305 85.3 757.305 86.7C757.305 87.2 757.455 87.75 757.755 88.35C758.455 88.85 759.355 89.1 760.455 89.1C761.555 89 762.455 89 763.155 89.1L763.305 89.25L763.755 88.5C765.055 88.4 766.305 88.1 767.505 87.6V86.7H768.405V86.25L769.005 86.4C769.505 86.2 769.855 86 770.055 85.8C770.355 85.5 770.705 85.25 771.105 85.05L772.005 85.5V85.35L774.705 82.8H774.855L775.305 83.1V82.95C776.605 81.75 778.005 80.65 779.505 79.65C781.005 78.65 782.105 77.35 782.805 75.75L784.455 74.55L784.755 74.85C784.755 75.55 784.505 76.2 784.005 76.8C783.505 77.4 782.905 77.8 782.205 78C781.405 79.9 780.205 81.5 778.605 82.8C777.105 84.1 775.555 85.45 773.955 86.85H773.505L773.355 87.6C771.455 88.9 769.455 90.3 767.355 91.8C765.355 93.3 763.105 94.05 760.605 94.05ZM763.455 74.85H763.755V74.55C764.455 74.35 765.655 73.75 767.355 72.75C769.155 71.75 770.855 70.7 772.455 69.6C774.055 68.4 774.905 67.55 775.005 67.05H775.155L775.005 66.3L775.155 65.55C775.055 65.55 774.855 65.55 774.555 65.55C774.255 65.45 774.005 65.4 773.805 65.4C772.505 66.3 771.205 67.15 769.905 67.95C768.605 68.75 767.305 69.55 766.005 70.35H765.705L765.555 71.55C764.955 71.95 764.505 72.45 764.205 73.05C763.905 73.55 763.655 74.15 763.455 74.85ZM786.255 74.4L785.355 74.1L785.205 73.2L786.705 72.75L786.855 73.2L786.255 74.4ZM787.258 97.5C786.358 97.5 785.508 97.35 784.708 97.05L783.958 96.15C782.458 95.75 781.408 95.2 780.808 94.5C780.208 93.8 779.908 92.65 779.908 91.05C779.908 90.35 780.108 89.05 780.508 87.15C781.008 85.15 781.608 83.25 782.308 81.45C783.008 79.65 783.708 78.75 784.408 78.75C784.508 77.65 784.908 76.25 785.608 74.55C786.308 72.85 787.208 71.85 788.308 71.55V71.4L789.658 69.6H789.958L790.258 67.35C790.558 67.25 790.808 66.95 791.008 66.45L781.858 70.05L780.958 69.45C781.058 68.95 781.508 68.45 782.308 67.95C783.208 67.35 784.108 66.85 785.008 66.45C786.008 65.95 786.708 65.7 787.108 65.7C788.508 64.8 789.858 64.3 791.158 64.2L791.758 63.6L792.658 63.75L794.458 63.15C794.958 62.55 795.458 61.9 795.958 61.2C796.458 60.5 796.708 59.75 796.708 58.95C797.208 58.15 797.758 57.45 798.358 56.85C799.058 56.15 799.708 55.45 800.308 54.75H800.758C801.258 54.25 801.808 54 802.408 54L803.008 53.25V51.6L803.608 51.15C804.108 50.55 804.758 49.65 805.558 48.45C806.458 47.15 806.908 46.15 806.908 45.45C806.908 45.05 806.558 44.85 805.858 44.85C804.958 44.85 804.208 44.95 803.608 45.15V44.4L811.258 37.95V37.8C812.558 36.9 813.808 35.95 815.008 34.95C816.208 33.85 817.458 32.9 818.758 32.1C819.858 32.3 821.058 32.65 822.358 33.15C823.658 33.55 824.558 34.3 825.058 35.4V37.35C824.358 38.05 823.158 39.3 821.458 41.1C819.758 42.9 817.808 44.95 815.608 47.25C813.408 49.45 811.208 51.65 809.008 53.85C806.808 55.95 804.858 57.7 803.158 59.1C801.558 60.5 800.458 61.25 799.858 61.35L798.958 62.1C800.558 61.9 802.058 61.7 803.458 61.5C804.958 61.2 806.458 61.05 807.958 61.05C809.858 61.05 811.908 61.35 814.108 61.95C816.408 62.55 817.958 63.85 818.758 65.85L819.658 66.75V68.25C819.758 68.65 819.858 69.05 819.958 69.45C820.058 69.85 820.108 70.25 820.108 70.65C820.108 71.75 819.858 72.5 819.358 72.9C818.858 73.2 818.358 73.4 817.858 73.5C817.358 73.6 817.108 73.85 817.108 74.25L818.308 74.7V74.85C818.308 75.85 817.408 77.25 815.608 79.05C813.908 80.85 811.708 82.8 809.008 84.9C806.308 87 803.458 89.05 800.458 91.05C797.558 92.95 794.908 94.5 792.508 95.7C790.108 96.9 788.358 97.5 787.258 97.5ZM801.508 46.5L801.358 46.05L801.808 45L802.708 45.15L803.008 46.2L801.508 46.5ZM788.758 95.4C790.558 95.4 792.608 94.45 794.908 92.55C797.208 90.65 799.458 88.3 801.658 85.5C803.858 82.6 805.658 79.8 807.058 77.1C808.558 74.3 809.308 72.1 809.308 70.5C809.308 68.4 808.308 66.9 806.308 66C804.408 65.1 802.608 64.65 800.908 64.65C800.708 64.65 800.308 64.75 799.708 64.95C799.108 65.15 798.658 65.3 798.358 65.4L798.058 65.85C796.958 66.15 796.008 66.75 795.208 67.65C794.508 68.55 794.158 69.6 794.158 70.8C793.758 70.9 793.058 71.55 792.058 72.75C791.158 73.85 790.158 74.6 789.058 75L788.458 76.8C788.358 77.5 787.958 78.2 787.258 78.9C786.658 79.5 786.108 80.05 785.608 80.55C785.108 82.05 784.558 83.55 783.958 85.05C783.458 86.55 783.108 88.1 782.908 89.7C783.108 89 783.408 88.35 783.808 87.75C784.308 87.05 784.558 86.35 784.558 85.65L785.308 85.2L786.658 82.5V81.9L787.558 80.25L788.008 80.4L788.458 79.35L789.208 78.75V78.6C789.608 78.4 789.958 78.2 790.258 78C790.658 77.7 791.008 77.45 791.308 77.25C791.308 76.45 791.708 75.85 792.508 75.45C793.308 75.05 793.758 74.5 793.858 73.8L794.758 73.5L795.808 72.15H796.408L797.908 70.8L799.408 70.35V70.95C797.608 71.95 795.758 73.65 793.858 76.05C791.958 78.35 790.308 80.9 788.908 83.7C787.608 86.4 786.958 88.8 786.958 90.9C786.958 91.6 787.008 92.5 787.108 93.6C787.308 94.8 787.858 95.4 788.758 95.4ZM782.608 92.25L783.058 91.35V91.05L782.758 90.9L782.608 92.25ZM782.758 93.6V93.45L783.508 92.55H783.358L782.608 92.4L782.758 93.6ZM843.162 91.5C841.662 91.5 840.512 90.9 839.712 89.7L836.262 88.05C835.862 87.15 835.662 86.05 835.662 84.75C835.662 82.65 836.162 80.4 837.162 78C838.262 75.5 839.312 73.4 840.312 71.7C839.612 71.3 839.012 70.8 838.512 70.2C838.012 69.6 837.512 69 837.012 68.4L836.562 68.1C836.162 68.5 835.712 68.85 835.212 69.15C834.712 69.45 834.212 69.65 833.712 69.75C832.812 70.65 831.512 72.15 829.812 74.25C828.112 76.25 826.262 78.35 824.262 80.55C822.262 82.65 820.312 84.5 818.412 86.1C816.612 87.7 815.162 88.5 814.062 88.5L813.912 88.2C814.012 87.6 814.462 86.95 815.262 86.25C816.162 85.45 816.812 84.85 817.212 84.45C817.412 83.65 817.912 82.95 818.712 82.35C819.512 81.75 820.262 81.3 820.962 81H821.112L822.012 79.65L822.762 79.2L822.612 79.05L823.662 78.3C823.862 77.8 824.162 77.35 824.562 76.95C824.962 76.55 825.312 76.15 825.612 75.75V75.45C827.812 73.75 829.812 71.9 831.612 69.9C833.512 67.8 835.462 65.75 837.462 63.75L837.612 63.6L837.462 62.7C837.462 61.6 837.712 60.4 838.212 59.1C838.812 57.7 839.462 56.65 840.162 55.95C840.862 54.95 841.712 53.9 842.712 52.8C843.812 51.6 845.012 51 846.312 51C847.312 51 847.912 51.5 848.112 52.5C848.312 53.4 848.412 54.2 848.412 54.9C848.412 57.4 847.762 59.35 846.462 60.75C845.162 62.05 843.812 63.05 842.412 63.75C841.112 64.45 840.462 65.2 840.462 66L842.862 67.05L843.762 66.3L843.912 66.45H844.212C844.812 66.15 845.412 65.9 846.012 65.7C846.612 65.4 847.262 65.25 847.962 65.25C848.562 65.25 849.162 65.45 849.762 65.85C850.362 66.15 850.862 66.45 851.262 66.75L851.412 68.1C851.512 69 851.112 70 850.212 71.1C849.412 72.1 848.412 73.3 847.212 74.7C846.012 76 844.962 77.6 844.062 79.5C843.162 81.3 842.712 83.4 842.712 85.8C842.712 86.4 842.812 87.05 843.012 87.75C843.312 88.35 843.862 88.65 844.662 88.65C845.862 88.65 847.212 88.2 848.712 87.3C850.212 86.4 851.712 85.4 853.212 84.3C854.712 83.1 855.962 82.2 856.962 81.6L857.562 82.35C857.562 83.05 856.962 83.9 855.762 84.9C854.562 85.9 853.112 86.9 851.412 87.9C849.712 88.9 848.062 89.75 846.462 90.45C844.962 91.15 843.862 91.5 843.162 91.5ZM885.072 101.85L882.822 98.25C882.722 97.65 882.522 97.05 882.222 96.45C882.022 95.85 881.922 95.2 881.922 94.5C881.922 93.5 881.972 92.6 882.072 91.8C882.172 90.9 882.272 89.95 882.372 88.95L883.422 86.55L883.272 86.25C883.472 85.85 883.622 85.45 883.722 85.05C883.922 84.55 884.072 84.1 884.172 83.7L883.572 83.25C882.872 83.25 881.872 83.95 880.572 85.35C879.372 86.65 877.972 87.95 876.372 89.25C874.872 90.55 873.122 91.2 871.122 91.2C869.822 91.2 868.622 90.8 867.522 90C866.422 89.2 865.922 88 866.022 86.4L865.872 86.1C866.972 84.1 867.922 82.05 868.722 79.95C869.522 77.85 870.372 75.8 871.272 73.8L870.372 72.15L869.922 72.3L869.172 72L867.672 73.5L865.572 73.95L865.872 74.7H865.572L864.072 75.15L863.772 75.75H862.872L862.722 76.65C862.222 77.15 861.672 77.7 861.072 78.3C860.472 78.9 859.772 79.25 858.972 79.35L849.972 87.9L849.822 87.45C849.822 86.75 850.072 86.2 850.572 85.8C851.072 85.3 851.522 84.85 851.922 84.45L852.072 84.15L852.522 83.85L852.672 84L853.122 82.95H852.972C853.172 82.75 853.372 82.5 853.572 82.2C853.872 81.8 854.222 81.6 854.622 81.6H854.922C854.922 81.6 854.922 81.5 854.922 81.3C855.522 80.4 856.322 79.6 857.322 78.9H857.772L858.222 78.45L858.072 78.15L859.572 77.55C859.472 76.55 860.272 75.45 861.972 74.25C863.672 73.05 865.522 72 867.522 71.1C869.522 70.1 870.922 69.6 871.722 69.6C872.822 69.6 874.122 69.9 875.622 70.5C877.122 71 877.872 71.95 877.872 73.35C877.872 76.15 877.372 78.4 876.372 80.1C875.372 81.8 874.822 82.9 874.722 83.4L875.172 83.7C876.372 83.7 877.322 83.35 878.022 82.65C878.722 81.85 879.422 81.05 880.122 80.25C880.922 79.45 881.872 79 882.972 78.9C882.872 78.8 882.922 78.75 883.122 78.75C883.322 78.65 883.422 78.7 883.422 78.9C883.822 78.2 884.722 77.1 886.122 75.6C887.522 74 888.972 72.5 890.472 71.1C891.972 69.7 893.022 69 893.622 69C894.722 69 895.972 69.4 897.372 70.2C898.772 71 899.472 72 899.472 73.2C899.472 73.7 899.072 74.65 898.272 76.05C897.572 77.35 896.722 78.75 895.722 80.25C894.722 81.75 893.722 83.1 892.722 84.3C891.822 85.4 891.122 86.05 890.622 86.25C889.722 87.85 888.472 89.7 886.872 91.8C885.372 93.8 884.622 95.8 884.622 97.8C884.622 98.5 884.722 99.15 884.922 99.75C885.122 100.35 885.222 100.95 885.222 101.55L885.072 101.85ZM932.822 102.9L929.822 99.45C929.322 97.45 928.772 95.4 928.172 93.3C927.672 91.3 927.322 89.25 927.122 87.15L927.872 84.3L927.572 84.15C927.972 83.05 928.372 81.95 928.772 80.85C929.272 79.65 929.522 78.5 929.522 77.4C929.022 77.9 928.472 78.4 927.872 78.9C927.372 79.4 926.972 80 926.672 80.7C926.272 81.1 925.922 81.6 925.622 82.2C925.322 82.8 924.922 83.3 924.422 83.7L924.272 85.05C922.872 85.35 921.472 86.05 920.072 87.15C918.772 88.15 917.472 89.15 916.172 90.15C914.872 91.05 913.472 91.5 911.972 91.5C911.272 91.5 910.372 91.45 909.272 91.35C908.272 91.15 907.522 90.85 907.022 90.45C905.722 90.15 904.772 89.8 904.172 89.4C903.672 88.9 903.272 88 902.972 86.7L903.572 84.75L903.122 83.55C903.622 81.95 903.972 80.8 904.172 80.1C904.472 79.4 904.872 78.8 905.372 78.3C905.972 77.8 906.922 77.05 908.222 76.05C908.322 75.55 908.572 75.2 908.972 75C909.472 74.7 909.922 74.5 910.322 74.4L910.472 73.65L911.972 71.85L912.422 72.15L913.322 70.8C914.022 70.3 914.722 70 915.422 69.9C916.222 69.7 916.972 69.4 917.672 69C917.872 67.9 918.522 67.25 919.622 67.05C920.822 66.75 921.522 66.2 921.722 65.4H922.322L924.872 63.75L925.772 64.2L927.872 62.85C928.472 62.85 929.022 62.8 929.522 62.7C930.122 62.6 930.672 62.55 931.172 62.55L931.772 62.85C929.772 63.55 927.472 64.7 924.872 66.3C922.272 67.8 919.722 69.6 917.222 71.7C914.822 73.7 912.822 75.9 911.222 78.3C909.622 80.7 908.822 83.1 908.822 85.5C908.822 87.4 909.822 88.35 911.822 88.35C913.622 88.35 915.472 87.8 917.372 86.7C919.372 85.6 921.172 84.25 922.772 82.65C924.372 81.05 925.522 79.5 926.222 78L928.772 75.9C928.972 75.4 929.222 75.05 929.522 74.85C929.822 74.65 930.022 74.3 930.122 73.8C930.822 73.7 931.322 73.1 931.622 72C931.922 70.9 932.272 69.7 932.672 68.4C933.072 67 933.622 65.8 934.322 64.8C935.022 63.8 936.072 63.3 937.472 63.3C938.572 63.3 939.822 63.8 941.222 64.8C942.622 65.7 943.322 66.8 943.322 68.1C943.322 68.8 942.722 70.15 941.522 72.15C940.322 74.15 938.922 76.5 937.322 79.2C935.822 81.9 934.472 84.7 933.272 87.6C932.072 90.5 931.472 93.25 931.472 95.85C931.472 96.95 931.672 98.05 932.072 99.15C932.572 100.25 932.872 101.35 932.972 102.45L932.822 102.9ZM967.82 91.5C966.32 91.5 965.17 90.9 964.37 89.7L960.92 88.05C960.52 87.15 960.32 86.05 960.32 84.75C960.32 82.65 960.82 80.4 961.82 78C962.92 75.5 963.97 73.4 964.97 71.7C964.27 71.3 963.67 70.8 963.17 70.2C962.67 69.6 962.17 69 961.67 68.4L961.22 68.1C960.82 68.5 960.37 68.85 959.87 69.15C959.37 69.45 958.87 69.65 958.37 69.75C957.47 70.65 956.17 72.15 954.47 74.25C952.77 76.25 950.92 78.35 948.92 80.55C946.92 82.65 944.97 84.5 943.07 86.1C941.27 87.7 939.82 88.5 938.72 88.5L938.57 88.2C938.67 87.6 939.12 86.95 939.92 86.25C940.82 85.45 941.47 84.85 941.87 84.45C942.07 83.65 942.57 82.95 943.37 82.35C944.17 81.75 944.92 81.3 945.62 81H945.77L946.67 79.65L947.42 79.2L947.27 79.05L948.32 78.3C948.52 77.8 948.82 77.35 949.22 76.95C949.62 76.55 949.97 76.15 950.27 75.75V75.45C952.47 73.75 954.47 71.9 956.27 69.9C958.17 67.8 960.12 65.75 962.12 63.75L962.27 63.6L962.12 62.7C962.12 61.6 962.37 60.4 962.87 59.1C963.47 57.7 964.12 56.65 964.82 55.95C965.52 54.95 966.37 53.9 967.37 52.8C968.47 51.6 969.67 51 970.97 51C971.97 51 972.57 51.5 972.77 52.5C972.97 53.4 973.07 54.2 973.07 54.9C973.07 57.4 972.42 59.35 971.12 60.75C969.82 62.05 968.47 63.05 967.07 63.75C965.77 64.45 965.12 65.2 965.12 66L967.52 67.05L968.42 66.3L968.57 66.45H968.87C969.47 66.15 970.07 65.9 970.67 65.7C971.27 65.4 971.92 65.25 972.62 65.25C973.22 65.25 973.82 65.45 974.42 65.85C975.02 66.15 975.52 66.45 975.92 66.75L976.07 68.1C976.17 69 975.77 70 974.87 71.1C974.07 72.1 973.07 73.3 971.87 74.7C970.67 76 969.62 77.6 968.72 79.5C967.82 81.3 967.37 83.4 967.37 85.8C967.37 86.4 967.47 87.05 967.67 87.75C967.97 88.35 968.52 88.65 969.32 88.65C970.52 88.65 971.87 88.2 973.37 87.3C974.87 86.4 976.37 85.4 977.87 84.3C979.37 83.1 980.62 82.2 981.62 81.6L982.22 82.35C982.22 83.05 981.62 83.9 980.42 84.9C979.22 85.9 977.77 86.9 976.07 87.9C974.37 88.9 972.72 89.75 971.12 90.45C969.62 91.15 968.52 91.5 967.82 91.5ZM980.93 123.15C979.13 123.15 977.28 122.6 975.38 121.5C973.58 120.4 972.08 119 970.88 117.3C969.68 115.6 969.08 113.85 969.08 112.05L969.53 111.15C970.63 112.25 971.43 113.4 971.93 114.6C972.33 115.9 972.93 117 973.73 117.9C974.63 118.8 976.13 119.25 978.23 119.25C978.73 119.25 979.18 119.2 979.58 119.1C979.98 119 980.38 118.9 980.78 118.8C981.68 119.1 983.03 118.5 984.83 117C986.63 115.6 988.48 113.8 990.38 111.6C992.38 109.5 994.08 107.4 995.48 105.3C996.98 103.3 997.78 101.85 997.88 100.95C999.58 98.65 1001.13 96.2 1002.53 93.6C1003.93 91.1 1005.28 88.65 1006.58 86.25L1006.73 84.3L1008.08 83.7L1007.93 83.4V81.15L1011.53 74.85L1011.38 74.25C1008.88 77.35 1006.28 80.55 1003.58 83.85C1000.98 87.05 998.33 90.2 995.63 93.3C995.03 93.9 994.33 94.25 993.53 94.35C992.73 94.55 991.93 94.65 991.13 94.65C989.53 94.65 988.33 94.1 987.53 93C986.73 92 986.33 90.75 986.33 89.25C986.33 87.35 986.68 85.55 987.38 83.85C988.18 82.05 989.03 80.4 989.93 78.9L989.78 78.45C990.58 77.75 991.18 76.8 991.58 75.6C992.08 74.3 992.63 73.2 993.23 72.3C990.53 74.2 987.88 76.35 985.28 78.75C982.78 81.15 980.28 83.5 977.78 85.8L977.63 85.5C977.63 85.2 978.18 84.4 979.28 83.1C980.48 81.7 981.93 80.1 983.63 78.3C985.43 76.5 987.23 74.7 989.03 72.9C990.93 71 992.58 69.35 993.98 67.95C995.48 66.55 996.48 65.65 996.98 65.25L1002.23 63.9C1002.73 63.7 1003.58 63.9 1004.78 64.5C1005.98 65 1006.58 65.55 1006.58 66.15C1006.58 66.75 1006.08 67.65 1005.08 68.85C1004.08 69.95 1003.33 70.75 1002.83 71.25H1002.68L1002.98 71.85L999.68 75.15L999.53 76.05L998.48 76.35C998.28 76.55 998.03 76.85 997.73 77.25C997.53 77.55 997.53 77.95 997.73 78.45C996.63 78.85 996.08 79.35 996.08 79.95C996.08 80.15 996.08 80.4 996.08 80.7C996.18 80.9 996.28 81.15 996.38 81.45L994.88 82.35L995.18 82.8C994.68 83 994.43 83.55 994.43 84.45L994.58 85.95L994.88 86.4C994.88 87 994.78 87.55 994.58 88.05C994.38 88.55 994.23 89.1 994.13 89.7L994.43 90C995.33 89.9 996.73 88.9 998.63 87C1000.53 85 1002.53 82.6 1004.63 79.8C1006.73 77 1008.58 74.35 1010.18 71.85C1011.88 69.35 1012.98 67.55 1013.48 66.45C1013.98 65.55 1014.48 64.7 1014.98 63.9C1015.48 63.1 1016.23 62.7 1017.23 62.7H1018.58C1019.38 62.7 1020.23 62.95 1021.13 63.45C1022.13 63.95 1022.63 64.7 1022.63 65.7C1022.63 66.2 1022.23 67.4 1021.43 69.3C1020.63 71.2 1019.63 73.45 1018.43 76.05C1017.33 78.65 1016.13 81.25 1014.83 83.85C1013.53 86.45 1012.38 88.7 1011.38 90.6C1010.38 92.5 1009.68 93.7 1009.28 94.2C1009.18 94.8 1008.98 95.65 1008.68 96.75C1008.38 97.95 1007.93 98.7 1007.33 99C1005.83 101.8 1004.08 104.35 1002.08 106.65C1000.18 109.05 998.33 111.55 996.53 114.15L993.98 115.35C993.58 115.75 993.23 116.15 992.93 116.55C992.63 117.05 992.23 117.45 991.73 117.75H991.28C989.78 119.25 988.23 120.5 986.63 121.5C985.13 122.6 983.23 123.15 980.93 123.15ZM1008.74 104.85C1008.14 104.85 1007.49 104.75 1006.79 104.55C1006.09 104.45 1005.49 104.2 1004.99 103.8C1005.29 103.1 1006.54 102.3 1008.74 101.4C1010.94 100.5 1013.49 99.55 1016.39 98.55C1019.29 97.65 1022.04 96.65 1024.64 95.55C1027.34 94.55 1029.34 93.55 1030.64 92.55L1032.59 92.85C1033.59 92.45 1034.09 91.6 1034.09 90.3C1038.49 88.5 1042.64 85.75 1046.54 82.05C1050.44 78.35 1053.84 74.15 1056.74 69.45C1059.74 64.75 1062.09 59.85 1063.79 54.75C1065.49 49.65 1066.34 44.75 1066.34 40.05C1066.34 36.85 1065.64 33.6 1064.24 30.3C1062.94 26.9 1060.99 24.05 1058.39 21.75C1055.89 19.45 1052.84 18.3 1049.24 18.3C1048.64 18.3 1047.74 18.25 1046.54 18.15C1045.44 17.95 1044.89 17.4 1044.89 16.5C1045.79 15.5 1046.99 15 1048.49 15C1051.39 15 1054.44 15.8 1057.64 17.4C1060.84 19 1063.84 21.15 1066.64 23.85C1069.44 26.45 1071.69 29.3 1073.39 32.4C1075.19 35.5 1076.09 38.5 1076.09 41.4C1076.09 42.6 1075.79 43.75 1075.19 44.85C1074.69 45.85 1074.29 46.9 1073.99 48C1073.39 46.7 1072.84 45.45 1072.34 44.25L1071.74 43.8C1071.64 43.9 1071.54 44.1 1071.44 44.4C1071.34 44.7 1071.29 44.95 1071.29 45.15C1071.29 47.55 1071.64 49.25 1072.34 50.25C1073.14 51.25 1074.19 52.7 1075.49 54.6C1074.39 55.3 1073.49 56.4 1072.79 57.9L1073.69 58.65C1073.19 60.85 1072.59 62.7 1071.89 64.2L1071.29 64.8C1070.29 66.6 1069.64 68.1 1069.34 69.3C1069.04 70.5 1067.99 71.8 1066.19 73.2L1066.34 74.7C1066.34 76.1 1065.74 76.75 1064.54 76.65C1064.74 76.45 1064.64 76.35 1064.24 76.35C1063.94 76.25 1063.84 76.3 1063.94 76.5L1062.59 75.3L1061.69 76.5C1060.29 76.7 1059.19 77.25 1058.39 78.15L1059.14 79.5C1057.94 80.1 1056.99 80.9 1056.29 81.9L1055.84 81.6L1055.69 82.2C1054.69 82.3 1053.74 82.45 1052.84 82.65C1051.94 82.85 1051.04 83.05 1050.14 83.25L1049.39 85.05C1047.99 85.25 1047.04 85.45 1046.54 85.65C1046.04 85.75 1045.74 86.05 1045.64 86.55C1045.54 87.05 1045.34 88 1045.04 89.4L1044.59 88.2L1043.39 88.65C1042.09 88.65 1040.64 89.4 1039.04 90.9C1037.44 92.3 1035.94 93.25 1034.54 93.75V94.8L1033.04 96.45L1032.59 96.15C1031.89 96.25 1031.24 96.5 1030.64 96.9C1030.14 97.3 1029.64 97.75 1029.14 98.25L1028.99 99L1029.29 99.3C1029.59 99.3 1029.94 99.15 1030.34 98.85C1030.84 98.55 1031.19 98.35 1031.39 98.25L1032.14 98.4L1032.74 97.95L1032.59 97.5L1033.34 97.8L1034.39 96.75L1035.74 97.35C1035.34 97.65 1034.99 97.95 1034.69 98.25C1034.49 98.55 1034.14 98.8 1033.64 99V98.25C1032.24 100.05 1030.84 101 1029.44 101.1C1028.14 101.3 1026.44 101.4 1024.34 101.4C1023.84 101.4 1023.29 101.45 1022.69 101.55C1022.19 101.65 1021.69 101.75 1021.19 101.85C1020.09 102.95 1018.94 103.5 1017.74 103.5C1016.54 103.5 1015.24 103.5 1013.84 103.5C1013.14 104 1012.34 104.35 1011.44 104.55C1010.44 104.75 1009.54 104.85 1008.74 104.85ZM1061.09 75.45C1062.59 74.05 1063.74 72.25 1064.54 70.05L1065.29 70.65H1065.74V67.65C1066.64 67.35 1067.34 66.55 1067.84 65.25C1068.44 63.95 1068.89 62.6 1069.19 61.2C1069.49 59.7 1069.64 58.55 1069.64 57.75C1068.94 58.95 1068.14 59.85 1067.24 60.45C1066.34 60.95 1065.89 61.85 1065.89 63.15C1065.89 63.25 1065.89 63.45 1065.89 63.75C1065.89 63.95 1065.94 64.2 1066.04 64.5C1065.74 65.8 1065.09 66.75 1064.09 67.35C1063.99 68.75 1063.54 70.15 1062.74 71.55C1062.04 72.85 1061.34 74.1 1060.64 75.3L1061.09 75.45ZM1069.94 64.65C1070.14 64.25 1070.34 63.85 1070.54 63.45C1070.74 62.95 1070.89 62.5 1070.99 62.1H1070.54L1069.49 63.15L1069.94 64.65ZM1069.04 68.1C1069.34 67.6 1069.49 67.1 1069.49 66.6L1068.89 67.35L1069.04 68.1ZM1067.69 69.6L1067.84 68.1L1067.39 67.95L1067.09 68.4L1067.69 69.6ZM1052.24 81.6C1053.34 81.1 1054.09 80.35 1054.49 79.35C1054.09 79.45 1053.64 79.7 1053.14 80.1C1052.64 80.4 1052.29 80.8 1052.09 81.3L1052.24 81.6ZM1052.84 87.3L1051.34 85.95L1052.24 84L1053.59 83.55C1053.99 83.85 1054.24 84.25 1054.34 84.75C1054.44 85.15 1054.54 85.55 1054.64 85.95L1053.29 87.3H1052.84ZM1049.39 87.45L1048.49 87.3L1047.89 87L1049.09 86.1L1050.59 87L1049.39 87.45ZM1049.54 90.9C1048.74 90.4 1048.19 89.6 1047.89 88.5L1048.19 88.35H1049.09L1049.69 89.85L1051.04 88.95C1050.94 89.35 1050.69 89.7 1050.29 90C1049.99 90.3 1049.74 90.6 1049.54 90.9ZM1044.29 91.2C1043.29 91 1042.79 90.45 1042.79 89.55L1044.44 90.15L1044.59 90.6L1044.29 91.2ZM1046.39 91.8L1045.64 90.6L1047.74 90.9L1046.39 91.8ZM1039.94 93.45L1038.89 92.55L1040.84 91.95L1039.94 93.45ZM1044.29 93.75L1043.69 92.4L1045.49 92.1L1044.29 93.75ZM1041.74 94.5L1041.59 94.35V93.75L1042.04 93.6H1042.64L1042.94 93.9L1042.49 94.5H1041.74ZM1037.99 97.05L1037.24 96.15L1036.49 95.85L1038.29 94.2L1038.74 96.15L1039.79 95.4L1040.09 95.85L1037.99 97.05ZM1018.04 103.05L1019.39 102.3L1018.49 101.4C1018.09 101.6 1017.69 101.7 1017.29 101.7C1016.89 101.8 1016.44 101.85 1015.94 101.85L1018.04 103.05Z" fill="#BE0029"/>
</svg>
