<svg width="198" height="88" viewBox="0 0 198 88" fill="none" xmlns="http://www.w3.org/2000/svg">
<path d="M59 87.5C57.2 87.5 55.65 86.75 54.35 85.25C53.05 83.85 52.4 82.2 52.4 80.3C52.4 78.9 52.95 76.6 54.05 73.4C55.25 70.2 56.65 66.75 58.25 63.05C59.95 59.25 61.55 55.65 63.05 52.25C64.55 48.85 65.65 46.25 66.35 44.45C65.35 45.75 64.3 47.25 63.2 48.95C62.1 50.65 60.7 51.8 59 52.4C55.9 57.5 51.55 62 45.95 65.9C40.35 69.8 34.85 73.05 29.45 75.65L28.55 75.05L27.95 75.5L27.2 75.65L28.1 76.4C26.6 76.9 25.1 77.2 23.6 77.3C22.1 77.5 20.6 77.6 19.1 77.6C18.7 77.1 18.2 76.65 17.6 76.25C17 75.85 16.3 75.65 15.5 75.65C14.9 75.15 14.35 74.6 13.85 74C13.45 73.5 12.95 73.05 12.35 72.65C11.45 71.45 11 70.1 11 68.6C11 67.7 11.25 66.5 11.75 65C12.25 63.5 12.8 62 13.4 60.5C14 59 14.45 57.75 14.75 56.75L15.35 57.2L16.25 56V55.55L15.5 56.45L15.35 56.15L15.65 54.65L17.75 53.3L17.15 52.7C18.55 48.9 20.45 45.45 22.85 42.35C25.25 39.15 27.25 35.75 28.85 32.15L30.8 31.55L30.95 30.95L30.05 29.3C30.05 28.5 30.3 27.9 30.8 27.5C31.3 27.1 31.9 26.85 32.6 26.75L31.7 26.3L31.55 26.15L32.6 24.95L32.9 25.55L33.95 24.5L33.2 23.45C33.7 22.75 34 22 34.1 21.2C34.2 20.3 34.25 19.45 34.25 18.65C36.15 16.35 37.3 14.1 37.7 11.9C38.1 9.6 38.4 7.05 38.6 4.24999L37.7 3.5C35.2 3.6 32.85 4 30.65 4.7C28.55 5.4 26.45 6.3 24.35 7.39999C21.95 8.6 20.3 9.75 19.4 10.85C18.6 11.95 17.9 13.05 17.3 14.15C16.8 15.25 15.8 16.5 14.3 17.9C13.5 18.6 12.4 19.25 11 19.85C9.7 20.35 9.2 21.3 9.5 22.7C6.6 23.7 4.75 25.5 3.95 28.1C3.25 30.7 2.9 33.3 2.9 35.9C2.8 36 2.7 36.2 2.6 36.5C2.6 36.8 2.55 37.05 2.45 37.25C1.55 36.35 0.9 34.9 0.5 32.9C0.2 30.8 0.0500001 29.1 0.0500001 27.8C0.0500001 25.6 0.9 23.3 2.6 20.9C4.3 18.4 6.5 16 9.2 13.7C12 11.3 14.95 9.15 18.05 7.25C21.15 5.35 24.15 3.85 27.05 2.75C29.95 1.55 32.4 0.949997 34.4 0.949997C36.2 0.949997 38.25 1.4 40.55 2.3C42.95 3.1 45 4.3 46.7 5.9C48.5 7.5 49.4 9.35 49.4 11.45C49.4 12.45 48.9 14.1 47.9 16.4C47 18.6 45.8 21.15 44.3 24.05C42.8 26.85 41.2 29.7 39.5 32.6C37.9 35.5 36.4 38.15 35 40.55C33.7 42.85 32.7 44.55 32 45.65L29 45.8L30.35 46.7L30.8 46.55L29.3 47.75V48.35C29.3 49.35 29 50.25 28.4 51.05C27.8 51.75 27.25 52.4 26.75 53L26 54.95L24.5 54.5L24.35 55.1L24.95 55.85L24.05 56.3V57.65L22.7 59.9L21.05 61.4L21.5 62.3C21 63.1 20.45 63.95 19.85 64.85C19.25 65.75 18.85 66.7 18.65 67.7L18.05 67.4L16.55 69.05L17.15 69.65L16.7 70.55L17.75 73.55C18.25 73.75 18.75 73.95 19.25 74.15C19.75 74.35 20.25 74.45 20.75 74.45C22.75 74.45 24.85 73.95 27.05 72.95C29.25 71.95 31.2 70.95 32.9 69.95H33.2L34.1 68.6L35.15 67.85L36.05 68.6C37.25 68.4 38 67.75 38.3 66.65C40.7 65.05 43.15 63 45.65 60.5C48.25 58 50.75 55.45 53.15 52.85C55.65 50.15 58 47.65 60.2 45.35C62.5 43.05 64.6 41.3 66.5 40.1C66.9 38.8 67.55 36.85 68.45 34.25C69.45 31.65 70.55 28.9 71.75 26C72.95 23.1 74.15 20.45 75.35 18.05C76.55 15.55 77.5 13.85 78.2 12.95C78.9 12.75 79.6 12.55 80.3 12.35C81.1 12.15 81.85 12.05 82.55 12.05C83.85 12.05 85.3 12.4 86.9 13.1C88.6 13.7 89.45 14.8 89.45 16.4C89.45 17.7 88.8 19.75 87.5 22.55C86.2 25.35 84.65 28.35 82.85 31.55C81.05 34.75 79.3 37.75 77.6 40.55C75.9 43.25 74.6 45.25 73.7 46.55L74.6 48.5C73.6 49.8 72.7 51.2 71.9 52.7C71.1 54.2 70.05 55.5 68.75 56.6C67.95 59.6 66.65 62.65 64.85 65.75C63.15 68.85 62.3 72 62.3 75.2L62.9 76.55C63.7 76.35 64.55 76.05 65.45 75.65C66.35 75.35 67.1 74.8 67.7 74L68.75 73.7L70.1 73.85C72.1 72.35 74.1 70.9 76.1 69.5C78.2 68 80.2 66.5 82.1 65L82.7 65.3C79 68.7 75.3 72.2 71.6 75.8C67.9 79.4 64.35 83.1 60.95 86.9C60.75 87 60.45 87.1 60.05 87.2C59.65 87.4 59.3 87.5 59 87.5ZM84.5 64.25L83.9 63.8L84.35 62.6L84.8 62.45L85.25 63.05L84.5 64.25ZM40.7 63.95V63.8L41.45 62.6L41.75 62.9L41.6 63.5L40.7 63.95ZM111.813 81.8C110.413 81.8 109.313 81.1 108.513 79.7C107.713 78.3 107.313 77 107.313 75.8C107.313 74 107.313 72.25 107.313 70.55C107.413 68.75 107.563 67 107.763 65.3L107.463 65.15C107.963 63.85 108.563 62.2 109.263 60.2C110.063 58.1 110.463 56.55 110.463 55.55C109.963 56.05 109.463 56.6 108.963 57.2C108.463 57.7 108.013 58.25 107.613 58.85C106.913 59.55 106.263 60.35 105.663 61.25C105.163 62.15 104.513 63 103.713 63.8C102.513 64.1 101.413 65 100.413 66.5C99.4129 67.9 98.2629 69.25 96.9629 70.55C95.7629 71.85 94.0629 72.5 91.8629 72.5C91.1629 72.5 90.2629 72.45 89.1629 72.35C88.1629 72.15 87.4129 71.85 86.9129 71.45C85.6129 71.15 84.6629 70.8 84.0629 70.4C83.5629 69.9 83.1629 69 82.8629 67.7L83.4629 65.75L83.0129 64.55C83.5129 62.95 83.8629 61.8 84.0629 61.1C84.3629 60.4 84.7629 59.8 85.2629 59.3C85.8629 58.8 86.8129 58.05 88.1129 57.05C88.2129 56.55 88.4629 56.2 88.8629 56C89.3629 55.7 89.8129 55.5 90.2129 55.4L90.3629 54.65L91.8629 52.85L92.3129 53.15L93.2129 51.8C93.9129 51.3 94.6129 51 95.3129 50.9C96.1129 50.7 96.8629 50.4 97.5629 50C97.7629 49.2 98.3629 48.45 99.3629 47.75C100.463 47.05 101.563 46.35 102.663 45.65C103.763 44.95 104.363 44.3 104.463 43.7L105.063 43.85L107.613 42.2L108.363 42.5L110.613 41.15L113.313 41L113.763 41.45C113.763 42.15 113.263 42.9 112.263 43.7C111.363 44.4 110.563 44.7 109.863 44.6C108.063 45 105.963 46 103.563 47.6C101.163 49.2 98.8129 51.1 96.5129 53.3C94.3129 55.4 92.4629 57.65 90.9629 60.05C89.4629 62.35 88.7129 64.5 88.7129 66.5C88.7129 68.4 89.7129 69.35 91.7129 69.35C93.2129 69.35 95.0629 68.55 97.2629 66.95C99.4629 65.25 101.513 63.35 103.413 61.25C105.313 59.15 106.563 57.45 107.163 56.15L109.713 54.2C110.013 53.3 110.813 52.25 112.113 51.05C113.413 49.75 114.263 48.65 114.663 47.75C115.063 47.05 115.263 46.4 115.263 45.8C115.363 45.1 115.863 44.65 116.763 44.45C117.363 43.85 118.013 43.2 118.713 42.5C119.513 41.8 119.813 40.95 119.613 39.95C120.113 39.25 120.613 38.55 121.113 37.85C121.713 37.15 122.213 36.45 122.613 35.75H123.063L123.813 35.15V35H124.563L125.013 34.25L124.863 32.6L125.613 32.15L125.463 31.7C125.463 31.6 125.663 31.25 126.063 30.65C126.463 29.95 126.863 29.25 127.263 28.55C127.663 27.85 127.863 27.4 127.863 27.2C127.863 26.2 127.463 25.7 126.663 25.7C126.363 25.7 126.013 25.75 125.613 25.85C125.313 25.95 125.013 26.05 124.713 26.15L124.563 25.4L131.163 18.95V18.8C132.363 17.9 133.463 16.95 134.463 15.95C135.563 14.85 136.763 13.9 138.063 13.1C139.063 13.4 140.213 13.75 141.513 14.15C142.913 14.55 143.913 15.3 144.513 16.4L144.813 18.35V18.65C144.813 19.05 144.113 20.1 142.713 21.8C141.313 23.5 139.563 25.5 137.463 27.8C135.363 30.1 133.213 32.35 131.013 34.55C128.913 36.75 127.113 38.6 125.613 40.1C124.213 41.6 123.413 42.35 123.213 42.35C123.113 43.05 122.913 43.8 122.613 44.6C122.413 45.3 122.213 46.05 122.013 46.85C121.213 47.05 120.513 47.55 119.913 48.35C119.413 49.15 118.913 49.9 118.413 50.6L118.563 50.9C118.563 51.2 118.163 52.15 117.363 53.75C116.563 55.35 115.613 57.35 114.513 59.75C113.413 62.15 112.463 64.7 111.663 67.4C110.863 70 110.463 72.5 110.463 74.9C110.463 76 110.613 77.15 110.913 78.35C111.313 79.65 111.863 80.7 112.563 81.5L111.813 81.8ZM136.611 70.55C135.111 70.55 133.861 70.2 132.861 69.5C131.861 68.7 130.961 67.65 130.161 66.35H129.861L130.011 65.15L129.711 65.3V64.4L130.461 63.8H130.161L129.261 63.05H129.561L129.861 62.45V62.15L129.561 61.4V61.1H129.261L127.161 60.05V59.6C126.461 58.9 125.861 58.15 125.361 57.35C124.961 56.45 124.761 55.5 124.761 54.5C124.761 53.1 125.361 51.45 126.561 49.55C127.861 47.65 129.361 45.95 131.061 44.45C132.861 42.95 134.461 42.2 135.861 42.2C136.561 41.5 137.561 41.15 138.861 41.15L139.311 40.7L140.061 40.85C141.161 40.35 142.361 40.2 143.661 40.4L143.811 40.1H152.211C153.011 40.1 154.011 40.3 155.211 40.7C156.511 41.1 157.511 41.4 158.211 41.6C159.111 42.6 160.311 43.4 161.811 44C163.311 44.5 164.061 45.6 164.061 47.3C164.061 49.4 163.461 51.4 162.261 53.3C161.061 55.2 159.661 56.7 158.061 57.8H157.911C157.811 58.1 157.311 58.6 156.411 59.3C155.611 59.9 154.711 60.55 153.711 61.25C152.811 61.85 152.211 62.3 151.911 62.6L151.461 63.95C150.761 63.95 150.111 64.2 149.511 64.7C148.911 65.1 148.611 65.65 148.611 66.35C148.811 66.75 149.261 67.1 149.961 67.4C150.661 67.6 151.261 67.7 151.761 67.7L151.161 68C147.961 68 145.511 68.25 143.811 68.75C142.111 69.15 140.761 69.55 139.761 69.95C138.761 70.35 137.711 70.55 136.611 70.55ZM140.661 66.65C143.761 65.15 145.911 64 147.111 63.2C148.411 62.3 149.311 61.55 149.811 60.95C150.311 60.25 150.961 59.35 151.761 58.25C152.561 57.15 154.011 55.6 156.111 53.6V53.3C155.711 53.3 155.361 53.25 155.061 53.15C155.161 52.25 155.361 51.4 155.661 50.6C156.061 49.7 156.261 48.75 156.261 47.75C156.261 45.95 155.561 44.5 154.161 43.4C152.861 42.2 151.361 41.6 149.661 41.6C148.761 41.6 147.811 41.7 146.811 41.9C145.911 42.1 145.061 42.35 144.261 42.65L142.311 42.5C140.711 43.1 138.911 44 136.911 45.2C135.011 46.4 133.361 47.85 131.961 49.55C130.561 51.15 129.861 52.95 129.861 54.95C129.861 55.95 130.061 56.8 130.461 57.5L131.061 57.65V57.2L131.811 56.75L132.861 54.5V53.9L133.761 52.55L134.061 52.7L134.511 51.8L135.261 51.35V51.2C135.561 51.1 135.861 51 136.161 50.9C136.561 50.8 136.911 50.65 137.211 50.45C137.211 49.65 137.561 49.2 138.261 49.1C138.961 48.9 139.361 48.45 139.461 47.75H140.361L141.411 46.55L142.011 47L143.361 46.1H144.711V46.55C143.211 46.95 141.561 48.05 139.761 49.85C137.961 51.55 136.461 53.45 135.261 55.55C134.061 57.65 133.511 59.55 133.611 61.25L133.761 63.95C134.861 64.45 135.961 65.05 137.061 65.75C138.161 66.35 139.361 66.65 140.661 66.65ZM136.311 67.7L137.211 67.25L133.761 65.6L133.461 65.75L134.061 67.1L136.311 67.7ZM163.879 75.8C162.779 75.8 161.979 75.3 161.479 74.3C161.079 73.4 160.879 72.5 160.879 71.6C160.879 69 161.479 66.3 162.679 63.5C163.979 60.7 165.229 58.15 166.429 55.85C167.729 53.45 168.379 51.6 168.379 50.3C168.379 49.7 168.029 49.4 167.329 49.4C167.029 49.4 166.579 49.5 165.979 49.7V49.1L169.579 44.9V44.75C170.079 44.25 170.529 43.75 170.929 43.25C171.329 42.75 171.729 42.3 172.129 41.9L173.479 41C174.579 41.1 175.629 41.4 176.629 41.9C177.729 42.3 178.429 43.15 178.729 44.45L178.579 44.6C178.679 45.4 178.329 46.25 177.529 47.15C176.729 48.05 176.029 48.75 175.429 49.25C174.829 50.35 174.129 51.4 173.329 52.4C172.629 53.3 171.979 54.3 171.379 55.4V56.9L170.779 58.1H170.479C170.179 58.7 169.879 59.35 169.579 60.05C169.379 60.75 169.279 61.5 169.279 62.3L170.029 63.5C170.329 63.2 170.879 62.75 171.679 62.15C172.579 61.45 173.379 60.75 174.079 60.05C174.779 59.35 175.129 58.85 175.129 58.55L176.779 57.05C177.279 55.55 178.379 53.95 180.079 52.25C181.779 50.45 183.229 49.05 184.429 48.05L184.879 46.85C185.479 46.55 186.079 46.2 186.679 45.8C187.379 45.4 188.079 45.2 188.779 45.2C189.579 45.2 190.279 45.4 190.879 45.8C191.579 46.2 192.279 46.6 192.979 47C192.979 47.4 192.979 47.9 192.979 48.5C193.079 49 193.129 49.5 193.129 50C193.129 51.6 192.679 53.1 191.779 54.5C190.879 55.9 189.979 57.35 189.079 58.85C188.179 60.35 187.729 62.2 187.729 64.4C187.729 64.7 187.729 65.4 187.729 66.5C187.829 67.5 187.979 68.5 188.179 69.5C188.479 70.4 188.929 70.85 189.529 70.85L194.329 68.3H194.629C194.829 67.7 195.179 67.15 195.679 66.65C196.279 66.15 196.929 65.9 197.629 65.9L197.779 66.05C197.779 66.55 197.329 67.3 196.429 68.3C195.629 69.3 194.729 70.25 193.729 71.15C192.829 72.05 192.179 72.7 191.779 73.1C191.379 73.2 190.929 73.3 190.429 73.4C189.929 73.4 189.429 73.5 188.929 73.7L188.479 72.95C186.279 72.75 184.429 72 182.929 70.7C181.529 69.3 180.829 67.5 180.829 65.3C180.829 64.6 180.979 63.35 181.279 61.55C181.579 59.65 181.929 57.8 182.329 56C182.829 54.2 183.179 52.95 183.379 52.25C182.179 53.05 181.029 54.3 179.929 56C178.829 57.6 177.829 58.95 176.929 60.05C175.929 60.45 174.879 61.5 173.779 63.2C172.779 64.8 171.729 66.6 170.629 68.6C169.529 70.5 168.429 72.2 167.329 73.7C166.229 75.1 165.079 75.8 163.879 75.8Z" fill="#BE0029"/>
</svg>
