<svg width="221" height="84" viewBox="0 0 221 84" fill="none" xmlns="http://www.w3.org/2000/svg">
<path d="M9.1 83.6C7.3 83.6 5.35 82.85 3.25 81.35C1.25 79.85 0.25 78.1 0.25 76.1C0.25 74.6 0.55 73.15 1.15 71.75C1.75 70.25 2.4 68.85 3.1 67.55V67.1C3.9 65.9 4.9 64.9 6.1 64.1C6.4 63.6 6.7 63 7 62.3C7.4 61.5 7.9 61.05 8.5 60.95L9.25 61.4C8.15 62.8 7.1 64.4 6.1 66.2L4.3 75.5C4.9 76.4 5.85 76.85 7.15 76.85C8.95 76.85 11.15 76.5 13.75 75.8C16.35 75.2 18.95 74.5 21.55 73.7C24.15 72.9 26.35 72.2 28.15 71.6V71.45C28.65 71.45 29.15 71.4 29.65 71.3C30.25 71.1 30.65 70.7 30.85 70.1L30.7 69.65L31.9 69.8C32.5 69.5 33.1 69.2 33.7 68.9C34.3 68.6 34.95 68.4 35.65 68.3C36.05 67.9 37.1 67.05 38.8 65.75C40.5 64.35 42.4 62.9 44.5 61.4C46.6 59.8 48.5 58.4 50.2 57.2C51.9 56 52.95 55.3 53.35 55.1L54.4 53.45L55.6 52.85V51.35C55.8 49.85 55.1 48.7 53.5 47.9C51.9 47 49.8 46.25 47.2 45.65C44.6 45.05 41.8 44.45 38.8 43.85C35.9 43.25 33.1 42.45 30.4 41.45C27.8 40.35 25.65 38.95 23.95 37.25C22.35 35.55 21.55 33.3 21.55 30.5L20.8 30.95L20.5 30.5C20.5 28.4 21.7 26.15 24.1 23.75C26.6 21.35 29.75 19 33.55 16.7C37.35 14.3 41.3 12.1 45.4 10.1C49.6 8 53.45 6.25 56.95 4.85C60.55 3.35 63.3 2.3 65.2 1.7C66.9 1.9 68.45 2.3 69.85 2.89999C71.35 3.4 72.3 4.65 72.7 6.65C73.8 6.25 74.35 5.4 74.35 4.1C74.35 3.4 74.3 2.75 74.2 2.15C74.1 1.45 73.9 0.849996 73.6 0.349996L74.2 0.0499954C74.7 0.0499954 75.6 0.249996 76.9 0.649997C78.3 0.949996 79.8 1.35 81.4 1.84999C83 2.35 84.4 2.85 85.6 3.35C86.9 3.85 87.65 4.3 87.85 4.7L87.25 6.95L84.55 8L83.5 7.55C82.5 7.95 82.05 8.8 82.15 10.1C82.25 11.4 81.95 12.15 81.25 12.35L79.9 11.75V11.9L80.95 14L80.65 14.45L81.1 15.2L80.65 15.35L79.6 14.9C79.2 15.7 78.9 16.85 78.7 18.35C78.5 19.75 77.85 20.5 76.75 20.6C75.65 21.6 74.45 22.9 73.15 24.5C71.85 26 70.35 26.85 68.65 27.05V26.75L69.1 23.75L68.65 23C68.95 21.3 69.35 19.5 69.85 17.6C70.35 15.7 70.9 14.05 71.5 12.65C70.7 11.45 69.75 10.35 68.65 9.35C67.65 8.35 66.4 7.85 64.9 7.85C63.1 7.85 60.6 8.4 57.4 9.5C54.2 10.5 50.7 11.9 46.9 13.7C43.2 15.4 39.7 17.35 36.4 19.55C33.1 21.75 30.45 24 28.45 26.3C26.45 28.6 25.6 30.8 25.9 32.9C25.5 32.6 25.25 32.2 25.15 31.7C25.05 31.2 25 30.7 25 30.2C25 29.7 25 29.2 25 28.7C25.1 28.2 25.2 27.75 25.3 27.35C24.6 28.35 24.25 29.5 24.25 30.8C24.25 33.2 25.25 35.05 27.25 36.35C29.25 37.65 31.85 38.65 35.05 39.35C38.25 40.05 41.65 40.7 45.25 41.3C48.85 41.8 52.25 42.4 55.45 43.1C58.65 43.8 61.25 44.85 63.25 46.25C65.25 47.55 66.25 49.4 66.25 51.8C66.25 53.1 65.95 54.3 65.35 55.4C64.75 56.4 64.2 57.45 63.7 58.55C62.6 58.95 61.9 59.5 61.6 60.2C61.3 60.9 60.85 61.7 60.25 62.6C59.45 62.8 58.4 63.5 57.1 64.7C55.9 65.8 55 66.3 54.4 66.2C54 66.4 53.55 66.7 53.05 67.1C52.65 67.4 52.35 67.8 52.15 68.3L51.7 68C50.6 69.5 48.75 71 46.15 72.5C43.55 74 40.5 75.4 37 76.7C33.6 78 30.1 79.15 26.5 80.15C23 81.25 19.7 82.1 16.6 82.7C13.5 83.3 11 83.6 9.1 83.6ZM67 29.75L67.75 27.5L68.5 28.1L67 29.75ZM58 48.5L58.3 47.75L57.85 47.15L56.95 47.6L58 48.5ZM64.6 54.05V53.75L63.7 52.4L63.55 53.15V53.75L64.6 54.05ZM61.75 56.6L62.8 56L62.95 54.65L62.8 53.3C61.8 54.3 61.25 55.35 61.15 56.45L61.75 56.6ZM61.9 58.7L63.4 57.05V56.9L61 57.65L61.3 58.55L61.9 58.7ZM57.7 61.4L59.35 61.25L60.55 58.85L58.75 60.5L58.15 59.9L57.7 61.25V61.4ZM99.2594 82.85L97.0094 79.25C96.9094 78.65 96.7094 78.05 96.4094 77.45C96.2094 76.85 96.1094 76.2 96.1094 75.5C96.1094 74.5 96.1594 73.6 96.2594 72.8C96.3594 71.9 96.4594 70.95 96.5594 69.95L97.6094 67.55L97.4594 67.25C97.6594 66.85 97.8094 66.45 97.9094 66.05C98.1094 65.55 98.2594 65.1 98.3594 64.7L97.7594 64.25C97.0594 64.25 96.0594 64.95 94.7594 66.35C93.5594 67.65 92.1594 68.95 90.5594 70.25C89.0594 71.55 87.3094 72.2 85.3094 72.2C84.0094 72.2 82.8094 71.8 81.7094 71C80.6094 70.2 80.1094 69 80.2094 67.4L80.0594 67.1C81.1594 65.1 82.1094 63.05 82.9094 60.95C83.7094 58.85 84.5594 56.8 85.4594 54.8L84.5594 53.15L84.1094 53.3L83.3594 53L81.8594 54.5L79.7594 54.95L80.0594 55.7H79.7594L78.2594 56.15L77.9594 56.75H77.0594L76.9094 57.65C76.4094 58.15 75.8594 58.7 75.2594 59.3C74.6594 59.9 73.9594 60.25 73.1594 60.35L64.1594 68.9L64.0094 68.45C64.0094 67.75 64.2594 67.2 64.7594 66.8C65.2594 66.3 65.7094 65.85 66.1094 65.45L66.2594 65.15L66.7094 64.85L66.8594 65L67.3094 63.95H67.1594C67.3594 63.75 67.5594 63.5 67.7594 63.2C68.0594 62.8 68.4094 62.6 68.8094 62.6H69.1094C69.1094 62.6 69.1094 62.5 69.1094 62.3C69.7094 61.4 70.5094 60.6 71.5094 59.9H71.9594L72.4094 59.45L72.2594 59.15L73.7594 58.55C73.6594 57.55 74.4594 56.45 76.1594 55.25C77.8594 54.05 79.7094 53 81.7094 52.1C83.7094 51.1 85.1094 50.6 85.9094 50.6C87.0094 50.6 88.3094 50.9 89.8094 51.5C91.3094 52 92.0594 52.95 92.0594 54.35C92.0594 57.15 91.5594 59.4 90.5594 61.1C89.5594 62.8 89.0094 63.9 88.9094 64.4L89.3594 64.7C90.5594 64.7 91.5094 64.35 92.2094 63.65C92.9094 62.85 93.6094 62.05 94.3094 61.25C95.1094 60.45 96.0594 60 97.1594 59.9C97.0594 59.8 97.1094 59.75 97.3094 59.75C97.5094 59.65 97.6094 59.7 97.6094 59.9C98.0094 59.2 98.9094 58.1 100.309 56.6C101.709 55 103.159 53.5 104.659 52.1C106.159 50.7 107.209 50 107.809 50C108.909 50 110.159 50.4 111.559 51.2C112.959 52 113.659 53 113.659 54.2C113.659 54.7 113.259 55.65 112.459 57.05C111.759 58.35 110.909 59.75 109.909 61.25C108.909 62.75 107.909 64.1 106.909 65.3C106.009 66.4 105.309 67.05 104.809 67.25C103.909 68.85 102.659 70.7 101.059 72.8C99.5594 74.8 98.8094 76.8 98.8094 78.8C98.8094 79.5 98.9094 80.15 99.1094 80.75C99.3094 81.35 99.4094 81.95 99.4094 82.55L99.2594 82.85ZM111.16 82.85C110.56 81.95 110.26 81.05 110.26 80.15C110.26 79.45 110.41 78.8 110.71 78.2C110.91 77.6 111.16 77.05 111.46 76.55H111.61L111.46 76.4C112.16 75.4 113.26 74.1 114.76 72.5C116.36 70.9 118.06 69.45 119.86 68.15C121.66 66.85 123.11 66.15 124.21 66.05L125.11 65.45C125.61 64.65 126.36 63.9 127.36 63.2C128.46 62.4 129.41 61.75 130.21 61.25L131.11 61.4L130.96 60.8L131.41 60.5L130.96 59C129.96 58.6 128.66 58.1 127.06 57.5C125.56 56.9 124.16 56.15 122.86 55.25C121.66 54.25 121.06 53.1 121.06 51.8C121.06 50.8 121.96 49.4 123.76 47.6C125.56 45.8 127.71 44 130.21 42.2C132.81 40.3 135.26 38.7 137.56 37.4C139.96 36.1 141.66 35.45 142.66 35.45C143.96 34.95 144.91 34.15 145.51 33.05C146.11 31.95 146.66 30.95 147.16 30.05C147.76 29.05 148.56 28.55 149.56 28.55C150.86 28.55 151.96 29.2 152.86 30.5C153.86 31.8 154.56 32.95 154.96 33.95C154.86 34.35 154.56 34.7 154.06 35C153.66 35.3 153.36 35.7 153.16 36.2C151.96 37.2 150.96 38.45 150.16 39.95C149.46 41.35 148.76 42.75 148.06 44.15L145.36 45.65L144.91 45.05H144.76C144.36 45.55 143.96 46 143.56 46.4C143.16 46.8 142.86 47.25 142.66 47.75C142.26 48.15 141.86 48.75 141.46 49.55C141.16 50.25 140.71 50.65 140.11 50.75L139.96 50.45C140.46 48.85 140.96 47.25 141.46 45.65C141.96 43.95 142.51 42.3 143.11 40.7L143.41 40.55L143.71 38.3C142.71 38.3 141.76 38.55 140.86 39.05C139.96 39.55 138.96 39.75 137.86 39.65C137.46 39.95 136.76 40.55 135.76 41.45C134.86 42.35 133.96 43.15 133.06 43.85C132.16 44.55 131.46 44.95 130.96 45.05C130.36 46.15 129.46 47.2 128.26 48.2C127.16 49.2 126.61 50.4 126.61 51.8C126.61 52.4 126.91 52.8 127.51 53C128.11 53.1 128.66 53.15 129.16 53.15V54.05L129.46 53.9L131.86 54.5L132.31 54.05C133.61 54.35 135.21 54.85 137.11 55.55C139.11 56.15 140.86 57 142.36 58.1C143.96 59.2 144.76 60.65 144.76 62.45C144.76 63.15 144.61 63.85 144.31 64.55C144.01 65.25 143.61 65.95 143.11 66.65L140.71 69.05L136.96 68.75C136.26 69.25 135.06 69.7 133.36 70.1C131.66 70.4 130.06 70.7 128.56 71C127.16 71.3 126.46 71.65 126.46 72.05L125.11 70.85C124.61 71.75 123.86 72.2 122.86 72.2C121.86 72.2 120.86 72.2 119.86 72.2C118.96 72.2 117.91 72.75 116.71 73.85C115.61 74.95 114.61 76.15 113.71 77.45C112.81 78.85 112.26 80 112.06 80.9L111.16 82.85ZM151.65 77.6C150.35 77.6 149.5 76.95 149.1 75.65C148.8 74.45 148.65 73.35 148.65 72.35C148.65 71.65 148.8 70.3 149.1 68.3C149.5 66.3 150 64.4 150.6 62.6C151.2 60.7 151.85 59.75 152.55 59.75C152.65 58.65 153.05 57.25 153.75 55.55C154.45 53.85 155.35 52.85 156.45 52.55V52.4C156.65 52.1 156.9 51.8 157.2 51.5C157.5 51.2 157.8 50.9 158.1 50.6L158.25 50.3V50.45L158.4 48.35C158.9 48.05 159.3 47.55 159.6 46.85C159.9 46.05 160.3 45.45 160.8 45.05L161.25 45.5C161.95 44.7 162.7 43.9 163.5 43.1C164.4 42.2 164.85 41.15 164.85 39.95C165.35 39.15 165.9 38.45 166.5 37.85C167.2 37.15 167.85 36.45 168.45 35.75H168.9C169.4 35.25 169.95 35 170.55 35L171.15 34.25V32.6L171.75 32.15C172.25 31.45 172.9 30.45 173.7 29.15C174.5 27.85 174.9 26.85 174.9 26.15C174.9 25.85 174.65 25.7 174.15 25.7C173.75 25.7 173.3 25.8 172.8 26C172.3 26.1 171.95 26.15 171.75 26.15V25.4L179.4 18.95V18.8C180.7 17.9 181.95 16.95 183.15 15.95C184.35 14.85 185.6 13.9 186.9 13.1C188 13.3 189.2 13.65 190.5 14.15C191.8 14.55 192.7 15.3 193.2 16.4V18.35C192.5 19.05 191.3 20.3 189.6 22.1C187.9 23.9 185.95 25.95 183.75 28.25C181.55 30.45 179.35 32.65 177.15 34.85C174.95 36.95 173 38.7 171.3 40.1C169.7 41.5 168.6 42.25 168 42.35L166.2 44L166.95 45.35L166.2 46.85C165.4 47.05 164.55 47.7 163.65 48.8C162.85 49.8 162.45 50.75 162.45 51.65C161.55 52.05 160.95 52.5 160.65 53C160.45 53.5 160.15 54 159.75 54.5C159.45 55 158.6 55.5 157.2 56L156.75 56.75V60.05L157.35 60.5L156.6 60.2L156 61.4H155.7C155.4 62.4 155.25 63.45 155.25 64.55L156 66.35C156.4 65.85 157.2 65.1 158.4 64.1C159.6 63 160.15 62.2 160.05 61.7L161.25 60.5C161.55 59.5 162.25 58.25 163.35 56.75C164.55 55.15 165.85 53.7 167.25 52.4C168.65 51.1 169.85 50.45 170.85 50.45V50.3L173.1 50.45C174.5 51.15 175.35 52.35 175.65 54.05C175.95 55.75 176.4 57.75 177 60.05C177.7 62.25 179.2 64.55 181.5 66.95L183.9 65.45H184.35C184.75 64.95 185.35 64.5 186.15 64.1C187.05 63.7 187.8 63.35 188.4 63.05L188.55 63.2C188.55 63.7 187.8 64.55 186.3 65.75C184.9 66.95 183.4 68.05 181.8 69.05C180.2 70.05 179.05 70.65 178.35 70.85L177.9 70.55L176.4 70.85L175.95 70.1C173.45 69.8 171.65 69.15 170.55 68.15C169.45 67.05 168.7 65.85 168.3 64.55C168 63.25 167.75 62.05 167.55 60.95C167.35 59.85 166.8 59.15 165.9 58.85C165.2 59.55 164.55 60.25 163.95 60.95C163.35 61.65 162.75 62.4 162.15 63.2C161.25 63.6 160.35 64.55 159.45 66.05C158.65 67.55 157.85 69.2 157.05 71C156.35 72.8 155.55 74.35 154.65 75.65C153.75 76.95 152.75 77.6 151.65 77.6ZM169.65 27.5L169.5 27.05L169.95 26L170.85 26.15L171.15 27.2L169.65 27.5ZM207.607 36.5C207.307 36.5 206.507 36.4 205.207 36.2C204.007 35.9 203.407 35.55 203.407 35.15C203.407 33.65 204.157 32.55 205.657 31.85C207.257 31.15 208.557 30.45 209.557 29.75H209.857C211.257 28.65 212.907 27.9 214.807 27.5C216.807 27.1 218.657 26.85 220.357 26.75L220.207 26.9C218.307 27.5 216.607 28.6 215.107 30.2C213.607 31.7 212.207 33.15 210.907 34.55C209.707 35.85 208.607 36.5 207.607 36.5ZM188.257 78.2L185.857 74.75C185.757 74.05 185.607 73.4 185.407 72.8C185.207 72.1 185.107 71.4 185.107 70.7C185.107 69.8 185.157 68.9 185.257 68C185.357 67.1 185.457 66.2 185.557 65.3L186.607 62.75L186.457 62.6C186.957 61.4 187.457 59.85 187.957 57.95C188.457 56.05 189.057 54.15 189.757 52.25C190.557 50.25 191.507 48.6 192.607 47.3C193.707 45.9 195.057 45.2 196.657 45.2C197.757 45.2 199.007 45.6 200.407 46.4C201.807 47.2 202.507 48.25 202.507 49.55C202.507 50.05 202.107 50.95 201.307 52.25C200.607 53.55 199.757 55 198.757 56.6C197.757 58.1 196.757 59.45 195.757 60.65C194.857 61.75 194.207 62.4 193.807 62.6C192.907 64.2 191.657 66.05 190.057 68.15C188.457 70.25 187.657 72.2 187.657 74C187.657 74.7 187.757 75.35 187.957 75.95C188.257 76.55 188.407 77.2 188.407 77.9L188.257 78.2Z" fill="#BE0029"/>
</svg>
