<svg width="167" height="86" viewBox="0 0 167 86" fill="none" xmlns="http://www.w3.org/2000/svg">
<path d="M13.55 79.35C11.65 78.65 9.65 77.75 7.55 76.65C5.45 75.65 3.65 74.3 2.15 72.6C0.75 70.9 0.05 68.85 0.05 66.45C0.05 65.35 0.2 64.25 0.5 63.15C0.8 61.95 1.4 61 2.3 60.3C2.4 60.7 2.4 61.1 2.3 61.5C2.3 61.9 2.3 62.35 2.3 62.85C2.3 66.05 3.45 68.4 5.75 69.9C8.05 71.4 10.6 72.15 13.4 72.15C16.6 72.15 19.55 71.35 22.25 69.75C25.05 68.15 27.4 66.25 29.3 64.05V63H29.45L30.35 61.8C31.35 61.3 32.15 60.75 32.75 60.15V58.95C34.15 58.25 35.4 57.1 36.5 55.5C37.7 53.8 38.7 52.3 39.5 51C40.3 51 40.85 50.55 41.15 49.65C41.45 48.65 41.65 47.85 41.75 47.25C42.65 46.45 43.7 45.05 44.9 43.05C46.1 40.95 47.25 38.8 48.35 36.6C49.45 34.3 50.2 32.55 50.6 31.35L51.65 30.45C52.55 27.05 53.65 23.75 54.95 20.55C56.25 17.25 57.45 13.95 58.55 10.65H53.3C52.2 10.65 51.05 10.7 49.85 10.8C48.75 10.9 47.7 11.2 46.7 11.7L44.9 11.55C43.5 11.35 42.1 11.5 40.7 12C39.4 12.5 38.15 13.05 36.95 13.65L36.35 13.5L35.9 13.95C30.6 14.85 25.5 16.9 20.6 20.1C15.8 23.3 11.75 27 8.45 31.2L9.95 32.1L12.65 31.8L13.1 32.25C12.6 32.75 12 33.15 11.3 33.45C10.6 33.75 9.9 34 9.2 34.2L8 33.15L6.8 33.6C6.5 33 6.35 32.45 6.35 31.95C6.35 30.15 7.2 28.15 8.9 25.95C10.7 23.75 12.2 22 13.4 20.7V19.8C15.5 18.1 18.15 16.4 21.35 14.7C24.65 12.9 28.2 11.3 32 9.9C35.8 8.5 39.6 7.4 43.4 6.6C47.2 5.7 50.65 5.25 53.75 5.25C54.45 5.25 55.1 5.3 55.7 5.4C56.3 5.4 56.9 5.45 57.5 5.55C57.9 5.25 58.35 5.05 58.85 4.95C59.35 4.85 59.8 4.75 60.2 4.65L59.45 4.5C60.25 3.2 60.65 1.85 60.65 0.449997C60.85 0.349996 61.05 0.249996 61.25 0.149997C61.55 0.0499981 61.8 -1.2517e-06 62 -1.2517e-06C63.1 -1.2517e-06 64.55 0.0999975 66.35 0.299995C68.25 0.499995 69.9 0.999996 71.3 1.8C72.8 2.5 73.45 3.7 73.25 5.4C74.95 5.2 76.65 5.1 78.35 5.1C80.05 5 81.75 4.95 83.45 4.95C86.45 4.95 89.45 5.15 92.45 5.55C95.55 5.95 98.45 7 101.15 8.7L100.7 9.3C101 10.3 101.6 10.95 102.5 11.25L102.95 12.45L101.9 13.2L102.5 14.85C101.8 16.75 101.1 18 100.4 18.6C99.7 19.2 98.3 19.6 96.2 19.8L95 19.05L89.9 21.3L89.75 21.15L90.35 19.8V19.65C89.75 20.15 89.1 20.6 88.4 21C87.7 21.4 86.95 21.65 86.15 21.75L85.7 21.45L86.15 21C88.05 20.4 89.65 19.45 90.95 18.15C92.25 16.85 93.4 15.4 94.4 13.8L94.1 11.4L90.05 9.45L89.9 9C88.6 8.6 87.25 8.4 85.85 8.4C84.45 8.3 83.05 8.25 81.65 8.25C80.25 8.25 78.85 8.4 77.45 8.7C76.15 9 74.8 9.2 73.4 9.3L74 10.5C73.9 10.9 73.7 11.65 73.4 12.75C73.1 13.75 72.7 14.25 72.2 14.25L70.4 13.05L70.25 13.2C70.15 14.5 69.8 15.8 69.2 17.1C68.6 18.3 67.9 19.4 67.1 20.4C65.4 20.5 64.55 21.45 64.55 23.25L65.45 23.85L66.05 22.95L66.65 22.8L66.95 23.25C66.25 24.35 65.5 25.15 64.7 25.65C63.9 25.65 63.2 25.95 62.6 26.55C62.1 27.15 61.45 27.5 60.65 27.6C59.85 28 59.3 28.55 59 29.25C58.8 29.95 58.15 30.6 57.05 31.2L57.2 31.5C56.8 31.9 56.15 32.7 55.25 33.9C54.45 35 53.7 36.15 53 37.35C52.3 38.45 51.9 39.3 51.8 39.9H52.1L52.55 40.8L52.1 41.4C51.8 42.2 51.4 42.95 50.9 43.65C50.5 44.35 50.05 45.05 49.55 45.75L48.65 45.3L46.85 47.85V49.8L46.1 49.5C45.3 49.6 44.75 50 44.45 50.7C44.15 51.3 43.95 52 43.85 52.8C42.85 53.4 41.9 54.15 41 55.05C40.1 55.85 39.15 56.65 38.15 57.45L38.3 59.1H37.7C37.5 59.8 36.9 60.5 35.9 61.2C35 61.8 34.25 62.35 33.65 62.85L32.9 64.2L33.65 64.8L32.6 65.4C31.7 66.7 30.25 68.35 28.25 70.35C26.35 72.35 24.7 73.65 23.3 74.25C22.1 75.75 20.65 76.85 18.95 77.55C17.25 78.25 15.45 78.85 13.55 79.35ZM59.15 22.35H60.8L60.95 21.6L60.8 21C60.3 21.1 59.75 21.55 59.15 22.35ZM62.9 22.05L63.35 21.45L63.05 21.15H62.75L62.45 21.6L62.9 22.05ZM59.45 24.75L59.3 24L58.7 24.45L59.45 24.75ZM59.9 27.45L60.35 27.3L60.5 26.55L60.05 26.4L59.75 27.3L59.9 27.45ZM15.2 31.35L15.65 30.45L16.1 30.6V31.35H15.2ZM71.566 65.55C70.066 65.55 68.816 65.2 67.816 64.5C66.816 63.7 65.916 62.65 65.116 61.35H64.816L64.966 60.15L64.666 60.3V59.4L65.416 58.8H65.116L64.216 58.05H64.516L64.816 57.45V57.15L64.516 56.4V56.1H64.216L62.116 55.05V54.6C61.416 53.9 60.816 53.15 60.316 52.35C59.916 51.45 59.716 50.5 59.716 49.5C59.716 48.1 60.316 46.45 61.516 44.55C62.816 42.65 64.316 40.95 66.016 39.45C67.816 37.95 69.416 37.2 70.816 37.2C71.516 36.5 72.516 36.15 73.816 36.15L74.266 35.7L75.016 35.85C76.116 35.35 77.316 35.2 78.616 35.4L78.766 35.1H87.166C87.966 35.1 88.966 35.3 90.166 35.7C91.466 36.1 92.466 36.4 93.166 36.6C94.066 37.6 95.266 38.4 96.766 39C98.266 39.5 99.016 40.6 99.016 42.3C99.016 44.4 98.416 46.4 97.216 48.3C96.016 50.2 94.616 51.7 93.016 52.8H92.866C92.766 53.1 92.266 53.6 91.366 54.3C90.566 54.9 89.666 55.55 88.666 56.25C87.766 56.85 87.166 57.3 86.866 57.6L86.416 58.95C85.716 58.95 85.066 59.2 84.466 59.7C83.866 60.1 83.566 60.65 83.566 61.35C83.766 61.75 84.216 62.1 84.916 62.4C85.616 62.6 86.216 62.7 86.716 62.7L86.116 63C82.916 63 80.466 63.25 78.766 63.75C77.066 64.15 75.716 64.55 74.716 64.95C73.716 65.35 72.666 65.55 71.566 65.55ZM75.616 61.65C78.716 60.15 80.866 59 82.066 58.2C83.366 57.3 84.266 56.55 84.766 55.95C85.266 55.25 85.916 54.35 86.716 53.25C87.516 52.15 88.966 50.6 91.066 48.6V48.3C90.666 48.3 90.316 48.25 90.016 48.15C90.116 47.25 90.316 46.4 90.616 45.6C91.016 44.7 91.216 43.75 91.216 42.75C91.216 40.95 90.516 39.5 89.116 38.4C87.816 37.2 86.316 36.6 84.616 36.6C83.716 36.6 82.766 36.7 81.766 36.9C80.866 37.1 80.016 37.35 79.216 37.65L77.266 37.5C75.666 38.1 73.866 39 71.866 40.2C69.966 41.4 68.316 42.85 66.916 44.55C65.516 46.15 64.816 47.95 64.816 49.95C64.816 50.95 65.016 51.8 65.416 52.5L66.016 52.65V52.2L66.766 51.75L67.816 49.5V48.9L68.716 47.55L69.016 47.7L69.466 46.8L70.216 46.35V46.2C70.516 46.1 70.816 46 71.116 45.9C71.516 45.8 71.866 45.65 72.166 45.45C72.166 44.65 72.516 44.2 73.216 44.1C73.916 43.9 74.316 43.45 74.416 42.75H75.316L76.366 41.55L76.966 42L78.316 41.1H79.666V41.55C78.166 41.95 76.516 43.05 74.716 44.85C72.916 46.55 71.416 48.45 70.216 50.55C69.016 52.65 68.466 54.55 68.566 56.25L68.716 58.95C69.816 59.45 70.916 60.05 72.016 60.75C73.116 61.35 74.316 61.65 75.616 61.65ZM71.266 62.7L72.166 62.25L68.716 60.6L68.416 60.75L69.016 62.1L71.266 62.7ZM106.184 85.95C104.384 85.95 103.034 85.2 102.134 83.7C101.334 82.3 100.834 80.65 100.634 78.75C100.434 76.95 100.334 75.4 100.334 74.1C100.334 73.5 100.384 72.5 100.484 71.1C100.584 69.8 100.734 68.55 100.934 67.35C101.234 66.05 101.634 65.3 102.134 65.1L101.984 62.25C101.884 61.15 101.984 59.9 102.284 58.5C102.584 57 103.134 55.9 103.934 55.2V54.9L104.984 52.35L105.284 52.2C105.284 52 105.234 51.75 105.134 51.45C105.034 51.05 104.984 50.75 104.984 50.55C104.984 49.45 105.384 48.5 106.184 47.7C107.084 46.9 107.484 46 107.384 45C107.884 43.6 108.634 42.3 109.634 41.1C110.634 39.8 111.134 38.35 111.134 36.75L111.884 34.8L109.934 34.95C108.834 35.55 107.534 36.05 106.034 36.45C104.634 36.85 103.334 37.2 102.134 37.5L101.384 37.05L101.684 35.1L102.134 34.95H101.984L103.184 31.8V31.35C103.984 29.75 104.734 28.7 105.434 28.2C106.134 27.6 107.384 27.4 109.184 27.6L111.284 27.75L110.384 29.7C110.784 29.7 111.184 29.75 111.584 29.85C112.084 29.95 112.584 30 113.084 30C113.484 30 113.884 30 114.284 30C114.784 29.9 115.234 29.8 115.634 29.7L116.084 29.1L116.534 26.85L117.584 26.25C118.084 25.55 118.484 24.7 118.784 23.7C119.184 22.7 119.834 22.1 120.734 21.9C121.134 21.3 121.934 20.15 123.134 18.45C124.434 16.75 125.834 14.9 127.334 12.9C128.834 10.9 130.184 9.15 131.384 7.65C132.584 6.05 133.334 5.15 133.634 4.95L134.384 4.8C135.684 3.7 136.984 2.7 138.284 1.8C139.584 0.799996 141.084 0.299995 142.784 0.299995C145.284 0.299995 147.734 0.999995 150.134 2.39999C152.634 3.8 154.734 5.65 156.434 7.95C158.134 10.15 158.984 12.5 158.984 15L158.534 15.75C158.034 15.75 157.284 15.25 156.284 14.25C155.384 13.15 154.234 12.1 152.834 11.1C151.534 10.1 149.984 9.6 148.184 9.6C147.084 9.6 145.834 9.95 144.434 10.65L143.534 10.5C141.034 10.5 139.184 11.25 137.984 12.75C136.784 14.25 135.284 15.7 133.484 17.1C132.984 18.1 132.234 19.3 131.234 20.7C130.334 22.1 129.334 23.05 128.234 23.55C127.434 24.55 126.634 25.6 125.834 26.7C125.134 27.8 124.384 28.85 123.584 29.85C125.884 29.95 128.234 30.35 130.634 31.05C133.034 31.75 135.334 32.2 137.534 32.4L136.184 33.6C135.884 33.4 135.584 33.3 135.284 33.3C134.984 33.3 134.684 33.3 134.384 33.3C133.984 33.3 133.534 33.35 133.034 33.45C132.534 33.45 132.034 33.45 131.534 33.45L130.184 33.3C129.084 34 127.884 34.35 126.584 34.35C125.284 34.35 123.934 34.35 122.534 34.35C122.134 34.35 121.684 34.35 121.184 34.35C120.784 34.35 120.334 34.45 119.834 34.65C119.634 35.95 118.734 37.6 117.134 39.6C115.634 41.6 114.534 43.3 113.834 44.7C113.134 45.1 112.734 45.65 112.634 46.35C112.534 47.05 112.434 47.75 112.334 48.45C112.334 49.15 111.984 49.7 111.284 50.1C110.884 51.1 110.284 52.4 109.484 54C108.684 55.5 107.934 57 107.234 58.5C106.534 59.9 106.184 60.95 106.184 61.65C106.184 62.65 105.934 63.6 105.434 64.5C105.034 65.3 104.584 66.1 104.084 66.9C104.084 67.6 104.034 68.4 103.934 69.3C103.934 70.2 103.934 71.05 103.934 71.85C103.934 74.85 104.034 77.4 104.234 79.5C104.534 81.7 105.934 83.8 108.434 85.8C108.034 85.8 107.634 85.8 107.234 85.8C106.934 85.9 106.584 85.95 106.184 85.95ZM152.115 77.85L149.865 74.25C149.765 73.65 149.565 73.05 149.265 72.45C149.065 71.85 148.965 71.2 148.965 70.5C148.965 69.5 149.015 68.6 149.115 67.8C149.215 66.9 149.315 65.95 149.415 64.95L150.465 62.55L150.315 62.25C150.515 61.85 150.665 61.45 150.765 61.05C150.965 60.55 151.115 60.1 151.215 59.7L150.615 59.25C149.915 59.25 148.915 59.95 147.615 61.35C146.415 62.65 145.015 63.95 143.415 65.25C141.915 66.55 140.165 67.2 138.165 67.2C136.865 67.2 135.665 66.8 134.565 66C133.465 65.2 132.965 64 133.065 62.4L132.915 62.1C134.015 60.1 134.965 58.05 135.765 55.95C136.565 53.85 137.415 51.8 138.315 49.8L137.415 48.15L136.965 48.3L136.215 48L134.715 49.5L132.615 49.95L132.915 50.7H132.615L131.115 51.15L130.815 51.75H129.915L129.765 52.65C129.265 53.15 128.715 53.7 128.115 54.3C127.515 54.9 126.815 55.25 126.015 55.35L117.015 63.9L116.865 63.45C116.865 62.75 117.115 62.2 117.615 61.8C118.115 61.3 118.565 60.85 118.965 60.45L119.115 60.15L119.565 59.85L119.715 60L120.165 58.95H120.015C120.215 58.75 120.415 58.5 120.615 58.2C120.915 57.8 121.265 57.6 121.665 57.6H121.965C121.965 57.6 121.965 57.5 121.965 57.3C122.565 56.4 123.365 55.6 124.365 54.9H124.815L125.265 54.45L125.115 54.15L126.615 53.55C126.515 52.55 127.315 51.45 129.015 50.25C130.715 49.05 132.565 48 134.565 47.1C136.565 46.1 137.965 45.6 138.765 45.6C139.865 45.6 141.165 45.9 142.665 46.5C144.165 47 144.915 47.95 144.915 49.35C144.915 52.15 144.415 54.4 143.415 56.1C142.415 57.8 141.865 58.9 141.765 59.4L142.215 59.7C143.415 59.7 144.365 59.35 145.065 58.65C145.765 57.85 146.465 57.05 147.165 56.25C147.965 55.45 148.915 55 150.015 54.9C149.915 54.8 149.965 54.75 150.165 54.75C150.365 54.65 150.465 54.7 150.465 54.9C150.865 54.2 151.765 53.1 153.165 51.6C154.565 50 156.015 48.5 157.515 47.1C159.015 45.7 160.065 45 160.665 45C161.765 45 163.015 45.4 164.415 46.2C165.815 47 166.515 48 166.515 49.2C166.515 49.7 166.115 50.65 165.315 52.05C164.615 53.35 163.765 54.75 162.765 56.25C161.765 57.75 160.765 59.1 159.765 60.3C158.865 61.4 158.165 62.05 157.665 62.25C156.765 63.85 155.515 65.7 153.915 67.8C152.415 69.8 151.665 71.8 151.665 73.8C151.665 74.5 151.765 75.15 151.965 75.75C152.165 76.35 152.265 76.95 152.265 77.55L152.115 77.85Z" fill="#BE0029"/>
</svg>
