<svg width="302" height="96" viewBox="0 0 302 96" fill="none" xmlns="http://www.w3.org/2000/svg">
<path d="M13.55 79.35C11.65 78.65 9.65 77.75 7.55 76.65C5.45 75.65 3.65 74.3 2.15 72.6C0.75 70.9 0.05 68.85 0.05 66.45C0.05 65.35 0.2 64.25 0.5 63.15C0.8 61.95 1.4 61 2.3 60.3C2.4 60.7 2.4 61.1 2.3 61.5C2.3 61.9 2.3 62.35 2.3 62.85C2.3 66.05 3.45 68.4 5.75 69.9C8.05 71.4 10.6 72.15 13.4 72.15C16.6 72.15 19.55 71.35 22.25 69.75C25.05 68.15 27.4 66.25 29.3 64.05V63H29.45L30.35 61.8C31.35 61.3 32.15 60.75 32.75 60.15V58.95C34.15 58.25 35.4 57.1 36.5 55.5C37.7 53.8 38.7 52.3 39.5 51C40.3 51 40.85 50.55 41.15 49.65C41.45 48.65 41.65 47.85 41.75 47.25C42.65 46.45 43.7 45.05 44.9 43.05C46.1 40.95 47.25 38.8 48.35 36.6C49.45 34.3 50.2 32.55 50.6 31.35L51.65 30.45C52.55 27.05 53.65 23.75 54.95 20.55C56.25 17.25 57.45 13.95 58.55 10.65H53.3C52.2 10.65 51.05 10.7 49.85 10.8C48.75 10.9 47.7 11.2 46.7 11.7L44.9 11.55C43.5 11.35 42.1 11.5 40.7 12C39.4 12.5 38.15 13.05 36.95 13.65L36.35 13.5L35.9 13.95C30.6 14.85 25.5 16.9 20.6 20.1C15.8 23.3 11.75 27 8.45 31.2L9.95 32.1L12.65 31.8L13.1 32.25C12.6 32.75 12 33.15 11.3 33.45C10.6 33.75 9.9 34 9.2 34.2L8 33.15L6.8 33.6C6.5 33 6.35 32.45 6.35 31.95C6.35 30.15 7.2 28.15 8.9 25.95C10.7 23.75 12.2 22 13.4 20.7V19.8C15.5 18.1 18.15 16.4 21.35 14.7C24.65 12.9 28.2 11.3 32 9.9C35.8 8.5 39.6 7.4 43.4 6.6C47.2 5.7 50.65 5.25 53.75 5.25C54.45 5.25 55.1 5.3 55.7 5.4C56.3 5.4 56.9 5.45 57.5 5.55C57.9 5.25 58.35 5.05 58.85 4.95C59.35 4.85 59.8 4.75 60.2 4.65L59.45 4.5C60.25 3.2 60.65 1.85 60.65 0.449997C60.85 0.349996 61.05 0.249996 61.25 0.149997C61.55 0.0499981 61.8 -1.2517e-06 62 -1.2517e-06C63.1 -1.2517e-06 64.55 0.0999975 66.35 0.299995C68.25 0.499995 69.9 0.999996 71.3 1.8C72.8 2.5 73.45 3.7 73.25 5.4C74.95 5.2 76.65 5.1 78.35 5.1C80.05 5 81.75 4.95 83.45 4.95C86.45 4.95 89.45 5.15 92.45 5.55C95.55 5.95 98.45 7 101.15 8.7L100.7 9.3C101 10.3 101.6 10.95 102.5 11.25L102.95 12.45L101.9 13.2L102.5 14.85C101.8 16.75 101.1 18 100.4 18.6C99.7 19.2 98.3 19.6 96.2 19.8L95 19.05L89.9 21.3L89.75 21.15L90.35 19.8V19.65C89.75 20.15 89.1 20.6 88.4 21C87.7 21.4 86.95 21.65 86.15 21.75L85.7 21.45L86.15 21C88.05 20.4 89.65 19.45 90.95 18.15C92.25 16.85 93.4 15.4 94.4 13.8L94.1 11.4L90.05 9.45L89.9 9C88.6 8.6 87.25 8.4 85.85 8.4C84.45 8.3 83.05 8.25 81.65 8.25C80.25 8.25 78.85 8.4 77.45 8.7C76.15 9 74.8 9.2 73.4 9.3L74 10.5C73.9 10.9 73.7 11.65 73.4 12.75C73.1 13.75 72.7 14.25 72.2 14.25L70.4 13.05L70.25 13.2C70.15 14.5 69.8 15.8 69.2 17.1C68.6 18.3 67.9 19.4 67.1 20.4C65.4 20.5 64.55 21.45 64.55 23.25L65.45 23.85L66.05 22.95L66.65 22.8L66.95 23.25C66.25 24.35 65.5 25.15 64.7 25.65C63.9 25.65 63.2 25.95 62.6 26.55C62.1 27.15 61.45 27.5 60.65 27.6C59.85 28 59.3 28.55 59 29.25C58.8 29.95 58.15 30.6 57.05 31.2L57.2 31.5C56.8 31.9 56.15 32.7 55.25 33.9C54.45 35 53.7 36.15 53 37.35C52.3 38.45 51.9 39.3 51.8 39.9H52.1L52.55 40.8L52.1 41.4C51.8 42.2 51.4 42.95 50.9 43.65C50.5 44.35 50.05 45.05 49.55 45.75L48.65 45.3L46.85 47.85V49.8L46.1 49.5C45.3 49.6 44.75 50 44.45 50.7C44.15 51.3 43.95 52 43.85 52.8C42.85 53.4 41.9 54.15 41 55.05C40.1 55.85 39.15 56.65 38.15 57.45L38.3 59.1H37.7C37.5 59.8 36.9 60.5 35.9 61.2C35 61.8 34.25 62.35 33.65 62.85L32.9 64.2L33.65 64.8L32.6 65.4C31.7 66.7 30.25 68.35 28.25 70.35C26.35 72.35 24.7 73.65 23.3 74.25C22.1 75.75 20.65 76.85 18.95 77.55C17.25 78.25 15.45 78.85 13.55 79.35ZM59.15 22.35H60.8L60.95 21.6L60.8 21C60.3 21.1 59.75 21.55 59.15 22.35ZM62.9 22.05L63.35 21.45L63.05 21.15H62.75L62.45 21.6L62.9 22.05ZM59.45 24.75L59.3 24L58.7 24.45L59.45 24.75ZM59.9 27.45L60.35 27.3L60.5 26.55L60.05 26.4L59.75 27.3L59.9 27.45ZM15.2 31.35L15.65 30.45L16.1 30.6V31.35H15.2ZM66.466 70.05C65.566 70.05 64.466 69.45 63.166 68.25C61.966 67.05 60.966 66.15 60.166 65.55C59.966 64.25 59.616 63.1 59.116 62.1C58.616 61 58.366 59.85 58.366 58.65C58.366 56.85 59.016 54.75 60.316 52.35C61.716 49.85 63.466 47.4 65.566 45C67.766 42.6 69.966 40.6 72.166 39C74.466 37.4 76.516 36.6 78.316 36.6V36.3C79.716 36.6 81.016 37.5 82.216 39C83.516 40.5 84.166 41.9 84.166 43.2C84.166 44.4 83.416 45.65 81.916 46.95C80.516 48.15 78.766 49.3 76.666 50.4C74.666 51.4 72.666 52.2 70.666 52.8C68.766 53.4 67.266 53.7 66.166 53.7V54C65.466 55.1 64.766 56.5 64.066 58.2C63.466 59.8 63.166 61.3 63.166 62.7C63.166 63.2 63.316 63.75 63.616 64.35C64.316 64.85 65.216 65.1 66.316 65.1C67.416 65 68.316 65 69.016 65.1L69.166 65.25L69.616 64.5C70.916 64.4 72.166 64.1 73.366 63.6V62.7H74.266V62.25L74.866 62.4C75.366 62.2 75.716 62 75.916 61.8C76.216 61.5 76.566 61.25 76.966 61.05L77.866 61.5V61.35L80.566 58.8H80.716L81.166 59.1V58.95C82.466 57.75 83.866 56.65 85.366 55.65C86.866 54.65 87.966 53.35 88.666 51.75L90.316 50.55L90.616 50.85C90.616 51.55 90.366 52.2 89.866 52.8C89.366 53.4 88.766 53.8 88.066 54C87.266 55.9 86.066 57.5 84.466 58.8C82.966 60.1 81.416 61.45 79.816 62.85H79.366L79.216 63.6C77.316 64.9 75.316 66.3 73.216 67.8C71.216 69.3 68.966 70.05 66.466 70.05ZM69.316 50.85H69.616V50.55C70.316 50.35 71.516 49.75 73.216 48.75C75.016 47.75 76.716 46.7 78.316 45.6C79.916 44.4 80.766 43.55 80.866 43.05H81.016L80.866 42.3L81.016 41.55C80.916 41.55 80.716 41.55 80.416 41.55C80.116 41.45 79.866 41.4 79.666 41.4C78.366 42.3 77.066 43.15 75.766 43.95C74.466 44.75 73.166 45.55 71.866 46.35H71.566L71.416 47.55C70.816 47.95 70.366 48.45 70.066 49.05C69.766 49.55 69.516 50.15 69.316 50.85ZM92.116 50.4L91.216 50.1L91.066 49.2L92.566 48.75L92.716 49.2L92.116 50.4ZM88.0191 68.85C87.0191 68.95 86.1691 68.55 85.4691 67.65C84.8691 66.65 84.5691 65.65 84.5691 64.65C84.5691 64.05 84.6691 63.45 84.8691 62.85C85.0691 62.15 85.2691 61.55 85.4691 61.05C85.6691 61.15 85.7691 61.15 85.7691 61.05C85.8691 60.85 85.9691 60.7 86.0691 60.6L85.9191 58.95C86.1191 58.75 86.3691 58.3 86.6691 57.6C87.0691 56.8 87.3191 56.3 87.4191 56.1V55.95H87.5691L88.1691 56.25C88.6691 55.45 89.2191 54.65 89.8191 53.85C90.4191 53.05 90.6191 52.15 90.4191 51.15L92.5191 48.3V48.15C92.5191 47.55 92.7691 46.9 93.2691 46.2C93.8691 45.4 94.1691 44.85 94.1691 44.55C94.1691 43.75 93.8191 43.35 93.1191 43.35C92.8191 43.35 92.4691 43.4 92.0691 43.5C91.7691 43.6 91.4691 43.7 91.1691 43.8L91.0191 43.05L97.0191 37.2V36.9C98.1191 36.1 99.1191 35.25 100.019 34.35C100.919 33.45 101.969 32.65 103.169 31.95C104.269 32.05 105.369 32.3 106.469 32.7C107.669 33.1 108.569 33.75 109.169 34.65L109.319 36.6V36.75C109.219 37.15 108.469 38.2 107.069 39.9C105.669 41.6 104.019 43.5 102.119 45.6C100.219 47.6 98.4191 49.5 96.7191 51.3C95.1191 53.1 94.0191 54.3 93.4191 54.9L92.9691 57.6C92.1691 57.7 91.4691 58.25 90.8691 59.25C90.2691 60.15 90.0191 61 90.1191 61.8C89.8191 61.9 89.6691 62.15 89.6691 62.55C89.6691 62.85 89.5691 63 89.3691 63C89.2691 63.4 89.1691 63.75 89.0691 64.05C89.0691 64.35 89.0691 64.7 89.0691 65.1V65.85C89.8691 64.35 91.2691 62.35 93.2691 59.85C95.2691 57.35 97.5191 54.85 100.019 52.35C102.619 49.75 105.169 47.6 107.669 45.9C110.169 44.1 112.269 43.2 113.969 43.2C115.169 43.2 115.969 43.95 116.369 45.45C116.069 47.35 115.569 49.25 114.869 51.15C114.169 52.95 113.819 54.85 113.819 56.85L114.119 57.45L117.719 54.9L118.019 54.45L120.269 52.8C120.969 51.7 122.169 50.25 123.869 48.45C125.569 46.65 127.369 45.05 129.269 43.65C131.169 42.15 132.719 41.4 133.919 41.4C133.819 41.2 133.969 41.1 134.369 41.1C136.069 41.1 137.169 41.5 137.669 42.3C138.169 43.1 138.419 44.25 138.419 45.75C138.419 47.25 138.019 48.65 137.219 49.95C136.519 51.15 136.169 52.45 136.169 53.85C136.169 55.15 136.519 56.55 137.219 58.05C137.919 59.55 139.019 60.3 140.519 60.3C141.019 60.3 141.469 60.2 141.869 60C142.269 59.7 142.719 59.6 143.219 59.7C144.019 58.9 144.869 58.2 145.769 57.6C146.769 56.9 147.769 56.25 148.769 55.65L149.669 56.25C149.369 56.85 148.569 57.7 147.269 58.8C146.069 59.8 144.619 60.85 142.919 61.95C141.319 62.95 139.769 63.85 138.269 64.65C136.869 65.35 135.819 65.7 135.119 65.7C132.919 65.7 131.369 64.85 130.469 63.15C129.669 61.35 129.119 59.3 128.819 57C128.519 54.7 128.019 52.85 127.319 51.45L126.569 50.85C125.769 51.35 124.519 52.2 122.819 53.4C121.219 54.5 120.219 55.45 119.819 56.25C118.619 56.65 117.569 57.5 116.669 58.8C115.869 60 115.069 61.35 114.269 62.85C113.469 64.25 112.569 65.5 111.569 66.6C110.569 67.7 109.269 68.25 107.669 68.25C106.969 68.25 106.319 68.1 105.719 67.8C105.219 67.5 104.969 66.95 104.969 66.15C104.969 64.45 105.269 62.9 105.869 61.5C106.569 60 107.219 58.5 107.819 57C108.519 55.5 108.869 53.9 108.869 52.2L107.969 50.85C106.769 50.85 105.269 51.55 103.469 52.95C101.669 54.25 99.7691 55.9 97.7691 57.9C95.8691 59.8 94.1191 61.7 92.5191 63.6C91.0191 65.5 89.9691 66.95 89.3691 67.95V68.7L88.0191 68.85ZM118.863 95.55C116.863 95.55 114.863 95.05 112.863 94.05C110.763 93.15 109.013 91.85 107.613 90.15C106.213 88.45 105.513 86.5 105.513 84.3L105.963 83.25C106.963 84.35 107.713 85.55 108.213 86.85C108.713 88.15 109.413 89.2 110.313 90C111.213 90.9 112.713 91.35 114.813 91.35C115.213 91.35 115.613 91.3 116.013 91.2C116.413 91.2 116.813 91.15 117.213 91.05C117.713 91.25 118.713 90.8 120.213 89.7C121.713 88.6 123.413 87.2 125.313 85.5C127.213 83.8 129.113 81.95 131.013 79.95C132.813 78.05 134.363 76.3 135.663 74.7C136.863 73.2 137.513 72.15 137.613 71.55C138.413 70.35 139.213 69.05 140.013 67.65C140.913 66.25 141.713 64.9 142.413 63.6L142.713 63.75L143.163 63.15C143.963 62.25 144.463 61.35 144.663 60.45C144.863 59.55 145.463 58.7 146.463 57.9C147.263 56.7 147.963 55.5 148.563 54.3C149.263 53.1 149.613 51.8 149.613 50.4C149.613 49.8 149.763 49.25 150.063 48.75C150.363 48.15 150.663 47.6 150.963 47.1C152.963 44 154.263 41.15 154.863 38.55C155.463 35.95 156.213 32.95 157.113 29.55C156.913 29.05 156.613 28.6 156.213 28.2C155.813 27.8 155.463 27.4 155.163 27H155.463C157.363 27 158.713 27.55 159.513 28.65C160.313 29.75 160.713 31.15 160.713 32.85C160.713 33.45 160.563 34.55 160.263 36.15C159.963 37.65 159.513 39.3 158.913 41.1C158.413 42.9 157.813 44.45 157.113 45.75C156.513 47.05 155.863 47.7 155.163 47.7C155.063 48.5 154.863 49.3 154.563 50.1C154.363 50.8 154.113 51.5 153.813 52.2C154.313 51.7 154.813 51.1 155.313 50.4C155.913 49.6 156.563 49.15 157.263 49.05C157.863 48.55 158.263 47.9 158.463 47.1C158.763 46.3 159.263 45.65 159.963 45.15C160.163 45.15 160.463 45.05 160.863 44.85C161.363 44.55 161.463 44.3 161.163 44.1L163.263 42.75H164.013C164.213 41.75 164.863 41.15 165.963 40.95C167.163 39.85 168.063 39.1 168.663 38.7C169.363 38.3 170.063 38.05 170.763 37.95C171.563 37.75 172.713 37.55 174.213 37.35L175.413 37.95C175.913 37.65 176.363 37.5 176.763 37.5C178.163 37.5 179.163 38.35 179.763 40.05C180.463 41.75 180.813 43.15 180.813 44.25C180.813 46.95 180.263 48.95 179.163 50.25C178.063 51.45 176.813 52.55 175.413 53.55C174.113 54.45 173.063 55.8 172.263 57.6C170.463 58.5 168.713 59.65 167.013 61.05C165.613 61.45 164.413 62.2 163.413 63.3C162.413 64.4 161.213 65.2 159.813 65.7C157.513 66.4 155.113 67.1 152.613 67.8C150.213 68.4 147.763 68.6 145.263 68.4C144.863 69.9 143.963 71.8 142.563 74.1C141.163 76.5 139.663 78.8 138.063 81C136.463 83.3 135.163 85.2 134.163 86.7L131.463 87.9C131.163 88.3 130.863 88.7 130.563 89.1C130.163 89.6 129.763 89.95 129.363 90.15H128.763C127.363 91.75 125.963 93.05 124.563 94.05C123.063 95.05 121.163 95.55 118.863 95.55ZM147.213 64.2C153.213 63.9 158.713 62.7 163.713 60.6C168.813 58.5 173.063 54.8 176.463 49.5C177.263 48.2 177.663 47 177.663 45.9C177.663 44.9 177.263 44.2 176.463 43.8C175.663 43.4 174.813 43.2 173.913 43.2C171.413 43.2 168.813 43.9 166.113 45.3C163.413 46.6 160.813 48.35 158.313 50.55C155.913 52.65 153.713 54.95 151.713 57.45C149.813 59.85 148.313 62.1 147.213 64.2ZM150.813 56.55L151.263 56.25V55.95L151.113 56.25L150.813 56.55ZM208.072 77.85L205.822 74.25C205.722 73.65 205.522 73.05 205.222 72.45C205.022 71.85 204.922 71.2 204.922 70.5C204.922 69.5 204.972 68.6 205.072 67.8C205.172 66.9 205.272 65.95 205.372 64.95L206.422 62.55L206.272 62.25C206.472 61.85 206.622 61.45 206.722 61.05C206.922 60.55 207.072 60.1 207.172 59.7L206.572 59.25C205.872 59.25 204.872 59.95 203.572 61.35C202.372 62.65 200.972 63.95 199.372 65.25C197.872 66.55 196.122 67.2 194.122 67.2C192.822 67.2 191.622 66.8 190.522 66C189.422 65.2 188.922 64 189.022 62.4L188.872 62.1C189.972 60.1 190.922 58.05 191.722 55.95C192.522 53.85 193.372 51.8 194.272 49.8L193.372 48.15L192.922 48.3L192.172 48L190.672 49.5L188.572 49.95L188.872 50.7H188.572L187.072 51.15L186.772 51.75H185.872L185.722 52.65C185.222 53.15 184.672 53.7 184.072 54.3C183.472 54.9 182.772 55.25 181.972 55.35L172.972 63.9L172.822 63.45C172.822 62.75 173.072 62.2 173.572 61.8C174.072 61.3 174.522 60.85 174.922 60.45L175.072 60.15L175.522 59.85L175.672 60L176.122 58.95H175.972C176.172 58.75 176.372 58.5 176.572 58.2C176.872 57.8 177.222 57.6 177.622 57.6H177.922C177.922 57.6 177.922 57.5 177.922 57.3C178.522 56.4 179.322 55.6 180.322 54.9H180.772L181.222 54.45L181.072 54.15L182.572 53.55C182.472 52.55 183.272 51.45 184.972 50.25C186.672 49.05 188.522 48 190.522 47.1C192.522 46.1 193.922 45.6 194.722 45.6C195.822 45.6 197.122 45.9 198.622 46.5C200.122 47 200.872 47.95 200.872 49.35C200.872 52.15 200.372 54.4 199.372 56.1C198.372 57.8 197.822 58.9 197.722 59.4L198.172 59.7C199.372 59.7 200.322 59.35 201.022 58.65C201.722 57.85 202.422 57.05 203.122 56.25C203.922 55.45 204.872 55 205.972 54.9C205.872 54.8 205.922 54.75 206.122 54.75C206.322 54.65 206.422 54.7 206.422 54.9C206.822 54.2 207.722 53.1 209.122 51.6C210.522 50 211.972 48.5 213.472 47.1C214.972 45.7 216.022 45 216.622 45C217.722 45 218.972 45.4 220.372 46.2C221.772 47 222.472 48 222.472 49.2C222.472 49.7 222.072 50.65 221.272 52.05C220.572 53.35 219.722 54.75 218.722 56.25C217.722 57.75 216.722 59.1 215.722 60.3C214.822 61.4 214.122 62.05 213.622 62.25C212.722 63.85 211.472 65.7 209.872 67.8C208.372 69.8 207.622 71.8 207.622 73.8C207.622 74.5 207.722 75.15 207.922 75.75C208.122 76.35 208.222 76.95 208.222 77.55L208.072 77.85ZM249.072 67.5C247.572 67.5 246.422 66.9 245.622 65.7L242.172 64.05C241.772 63.15 241.572 62.05 241.572 60.75C241.572 58.65 242.072 56.4 243.072 54C244.172 51.5 245.222 49.4 246.222 47.7C245.522 47.3 244.922 46.8 244.422 46.2C243.922 45.6 243.422 45 242.922 44.4L242.472 44.1C242.072 44.5 241.622 44.85 241.122 45.15C240.622 45.45 240.122 45.65 239.622 45.75C238.722 46.65 237.422 48.15 235.722 50.25C234.022 52.25 232.172 54.35 230.172 56.55C228.172 58.65 226.222 60.5 224.322 62.1C222.522 63.7 221.072 64.5 219.972 64.5L219.822 64.2C219.922 63.6 220.372 62.95 221.172 62.25C222.072 61.45 222.722 60.85 223.122 60.45C223.322 59.65 223.822 58.95 224.622 58.35C225.422 57.75 226.172 57.3 226.872 57H227.022L227.922 55.65L228.672 55.2L228.522 55.05L229.572 54.3C229.772 53.8 230.072 53.35 230.472 52.95C230.872 52.55 231.222 52.15 231.522 51.75V51.45C233.722 49.75 235.722 47.9 237.522 45.9C239.422 43.8 241.372 41.75 243.372 39.75L243.522 39.6L243.372 38.7C243.372 37.6 243.622 36.4 244.122 35.1C244.722 33.7 245.372 32.65 246.072 31.95C246.772 30.95 247.622 29.9 248.622 28.8C249.722 27.6 250.922 27 252.222 27C253.222 27 253.822 27.5 254.022 28.5C254.222 29.4 254.322 30.2 254.322 30.9C254.322 33.4 253.672 35.35 252.372 36.75C251.072 38.05 249.722 39.05 248.322 39.75C247.022 40.45 246.372 41.2 246.372 42L248.772 43.05L249.672 42.3L249.822 42.45H250.122C250.722 42.15 251.322 41.9 251.922 41.7C252.522 41.4 253.172 41.25 253.872 41.25C254.472 41.25 255.072 41.45 255.672 41.85C256.272 42.15 256.772 42.45 257.172 42.75L257.322 44.1C257.422 45 257.022 46 256.122 47.1C255.322 48.1 254.322 49.3 253.122 50.7C251.922 52 250.872 53.6 249.972 55.5C249.072 57.3 248.622 59.4 248.622 61.8C248.622 62.4 248.722 63.05 248.922 63.75C249.222 64.35 249.772 64.65 250.572 64.65C251.772 64.65 253.122 64.2 254.622 63.3C256.122 62.4 257.622 61.4 259.122 60.3C260.622 59.1 261.872 58.2 262.872 57.6L263.472 58.35C263.472 59.05 262.872 59.9 261.672 60.9C260.472 61.9 259.022 62.9 257.322 63.9C255.622 64.9 253.972 65.75 252.372 66.45C250.872 67.15 249.772 67.5 249.072 67.5ZM290.832 78.9L287.832 75.45C287.332 73.45 286.782 71.4 286.182 69.3C285.682 67.3 285.332 65.25 285.132 63.15L285.882 60.3L285.582 60.15C285.982 59.05 286.382 57.95 286.782 56.85C287.282 55.65 287.532 54.5 287.532 53.4C287.032 53.9 286.482 54.4 285.882 54.9C285.382 55.4 284.982 56 284.682 56.7C284.282 57.1 283.932 57.6 283.632 58.2C283.332 58.8 282.932 59.3 282.432 59.7L282.282 61.05C280.882 61.35 279.482 62.05 278.082 63.15C276.782 64.15 275.482 65.15 274.182 66.15C272.882 67.05 271.482 67.5 269.982 67.5C269.282 67.5 268.382 67.45 267.282 67.35C266.282 67.15 265.532 66.85 265.032 66.45C263.732 66.15 262.782 65.8 262.182 65.4C261.682 64.9 261.282 64 260.982 62.7L261.582 60.75L261.132 59.55C261.632 57.95 261.982 56.8 262.182 56.1C262.482 55.4 262.882 54.8 263.382 54.3C263.982 53.8 264.932 53.05 266.232 52.05C266.332 51.55 266.582 51.2 266.982 51C267.482 50.7 267.932 50.5 268.332 50.4L268.482 49.65L269.982 47.85L270.432 48.15L271.332 46.8C272.032 46.3 272.732 46 273.432 45.9C274.232 45.7 274.982 45.4 275.682 45C275.882 43.9 276.532 43.25 277.632 43.05C278.832 42.75 279.532 42.2 279.732 41.4H280.332L282.882 39.75L283.782 40.2L285.882 38.85C286.482 38.85 287.032 38.8 287.532 38.7C288.132 38.6 288.682 38.55 289.182 38.55L289.782 38.85C287.782 39.55 285.482 40.7 282.882 42.3C280.282 43.8 277.732 45.6 275.232 47.7C272.832 49.7 270.832 51.9 269.232 54.3C267.632 56.7 266.832 59.1 266.832 61.5C266.832 63.4 267.832 64.35 269.832 64.35C271.632 64.35 273.482 63.8 275.382 62.7C277.382 61.6 279.182 60.25 280.782 58.65C282.382 57.05 283.532 55.5 284.232 54L286.782 51.9C286.982 51.4 287.232 51.05 287.532 50.85C287.832 50.65 288.032 50.3 288.132 49.8C288.832 49.7 289.332 49.1 289.632 48C289.932 46.9 290.282 45.7 290.682 44.4C291.082 43 291.632 41.8 292.332 40.8C293.032 39.8 294.082 39.3 295.482 39.3C296.582 39.3 297.832 39.8 299.232 40.8C300.632 41.7 301.332 42.8 301.332 44.1C301.332 44.8 300.732 46.15 299.532 48.15C298.332 50.15 296.932 52.5 295.332 55.2C293.832 57.9 292.482 60.7 291.282 63.6C290.082 66.5 289.482 69.25 289.482 71.85C289.482 72.95 289.682 74.05 290.082 75.15C290.582 76.25 290.882 77.35 290.982 78.45L290.832 78.9Z" fill="#BE0029"/>
</svg>
